<svg width="5214" height="5296" viewBox="0 0 5214 5296" fill="none" xmlns="http://www.w3.org/2000/svg">
<path d="M4636.88 3663.09H4967.88V3523.22H4636.88V3663.09Z" fill="#EBEBEB"/>
<path d="M4821.62 3839.47L4988.5 3835.97L5070.75 3834.59C5098.12 3833.97 5125.38 3834.59 5152.63 3833.84L5147 3839.47V3699.59L5153.25 3705.84L4987.75 3705.09C4932.63 3705.09 4877.38 3703.59 4822.25 3702.97L4825.63 3699.59C4825.63 3722.47 4824.63 3745.47 4824 3768.72L4821.62 3839.47ZM4821.62 3839.47L4819.38 3770.84C4818.75 3747.59 4817.88 3723.97 4817.75 3700.22V3695.84H4821.25C4876.37 3695.09 4931.63 3693.84 4986.75 3693.72L5152.25 3692.97H5158.5V3699.22L5157.75 3839.09V3844.72H5152.25C5124.38 3844.72 5096.37 3844.72 5068.5 3844.09L4985.25 3842.72L4821.62 3839.47Z" fill="#EBEBEB"/>
<path d="M2383.63 2465.59L2550.63 2462.09L2632.75 2460.72C2660.13 2460.09 2687.38 2460.72 2714.63 2460.09L2709 2465.59L2708.38 2325.72L2714.63 2331.97L2549.13 2331.22C2494 2331.22 2438.75 2329.84 2383.63 2329.09L2387 2325.72C2387 2348.59 2386 2371.59 2385.38 2394.97L2383.63 2465.59ZM2383.63 2465.59L2381.88 2395.84C2381.25 2372.59 2380.5 2348.97 2380.25 2325.22V2321.84H2383.75C2438.87 2321.22 2494.13 2319.84 2549.25 2319.72L2714.75 2318.97H2721V2325.22L2720.37 2465.09V2470.84H2714.88C2687 2470.84 2659 2470.84 2631.25 2470.09L2547.88 2468.72L2383.63 2465.59Z" fill="#EBEBEB"/>
<path d="M2568.25 2641.97H2899.25V2502.09H2568.25V2641.97Z" fill="#EBEBEB"/>
<path d="M2196.13 2641.97L2363.13 2638.47L2445.38 2637.09C2472.75 2636.47 2499.88 2637.09 2527.13 2636.47L2521.62 2641.97L2520.88 2502.09L2527.13 2508.34L2361.63 2507.59C2306.5 2507.59 2251.38 2506.22 2196.13 2505.47L2199.63 2502.09C2199.63 2524.97 2198.5 2547.97 2198 2571.34L2196.13 2641.97ZM2196.13 2641.97L2194.38 2572.72C2194.38 2549.47 2193 2525.84 2192.75 2502.09V2498.72H2196.13C2251.38 2498.72 2306.5 2496.72 2361.63 2496.59L2527.13 2495.84H2533.5V2502.09L2532.88 2641.97V2647.59H2527.25C2499.38 2647.59 2471.38 2647.59 2443.63 2646.84L2360.38 2645.47L2196.13 2641.97Z" fill="#EBEBEB"/>
<path d="M2893.25 870.341H3224.25V730.466H2893.25V870.341Z" fill="#EBEBEB"/>
<path d="M61.125 3839.47L228.125 3835.97L310.375 3834.59C337.625 3833.97 364.875 3834.59 392.125 3833.84L386.625 3839.47L385.875 3699.59L392.125 3705.84L226.625 3705.09C171.5 3705.09 116.25 3703.59 61.125 3702.97L64.5 3699.59C64.5 3722.47 63.5 3745.47 62.875 3768.72L61.125 3839.47ZM61.125 3839.47L59.375 3770.84C58.75 3747.59 58 3723.97 57.75 3700.22V3695.84H61.125C116.25 3695.09 171.5 3693.84 226.625 3693.72L392.125 3692.97H398.375V3699.22V3839.09V3844.72H392.75C364.875 3844.72 336.875 3844.72 309.125 3844.09L225.875 3842.72L61.125 3839.47Z" fill="#EBEBEB"/>
<path d="M245.75 298.341L412.75 294.841L495 293.466C522.375 292.841 549.5 293.466 576.75 292.716L571.25 298.341L570.5 158.341L576.75 164.591L411.25 163.841C356.125 163.841 301 162.341 245.75 161.716L249.25 158.341C249.25 181.216 248.125 204.216 247.5 227.591L245.75 298.341ZM245.75 298.341L244.375 229.091C244.375 205.841 243 182.216 242.75 158.466V155.091H246.125C301.375 154.466 356.5 153.091 411.625 152.966L577.125 152.216H583.5V158.341L581.875 298.341V303.966H576.25C548.375 303.966 520.375 303.966 492.625 303.216L409.375 301.841L245.75 298.341Z" fill="#EBEBEB"/>
<path d="M61.125 474.716L392.125 474.716V334.841H61.125V474.716Z" fill="#EBEBEB"/>
<path d="M4821.62 298.341L4988.5 294.841L5070.75 293.466C5098.12 292.841 5125.38 293.466 5152.63 292.716L5147 298.341V158.466L5153.25 164.716L4987.75 163.966C4932.63 163.966 4877.38 162.466 4822.25 161.841L4825.63 158.466C4825.63 181.341 4824.63 204.341 4824 227.716L4821.62 298.341ZM4821.62 298.341L4819.38 229.091C4818.75 205.841 4817.88 182.216 4817.75 158.466V155.091H4821.25C4876.37 154.466 4931.63 153.091 4986.75 152.966L5152.25 152.216H5158.5V158.341L5158.13 298.341V303.966H5152.63C5124.75 303.966 5096.75 303.966 5068.87 303.216L4985.62 301.841L4821.62 298.341Z" fill="#EBEBEB"/>
<path d="M1597.75 4292.97H698.375V5288.84H1597.75V4292.97Z" fill="#EBEBEB"/>
<path d="M234.125 5288.97H698.5L698.5 4292.97H234.125L234.125 5288.97Z" fill="#DBDBDB"/>
<path d="M266 5220.84C300.5 5150.01 334.583 5079.17 368.25 5008.34L469.375 4792.97L569.375 4577.84C602.708 4506.01 635.375 4433.92 667.375 4361.59C632.875 4432.42 598.792 4503.47 565.125 4574.72L464.375 4788.97L364.375 5004.09C331.125 5076.01 298.333 5148.26 266 5220.84Z" fill="#EBEBEB"/>
<path d="M266 4361.59C298.333 4434.01 331 4506.09 364 4577.84L464 4792.97L564.75 5007.22C598.5 5078.47 632.583 5149.3 667 5219.72C634.667 5147.38 602 5075.3 569 5003.47L469 4788.34L368.25 4574.09C334.5 4503.26 300.417 4432.42 266 4361.59Z" fill="#EBEBEB"/>
<path d="M1597.75 2788.84H698.375V3716.09H1597.75V2788.84Z" fill="#EBEBEB"/>
<path d="M234.125 3716.22H698.5L698.5 2788.84H234.125L234.125 3716.22Z" fill="#DBDBDB"/>
<path d="M1071.75 3004.09H1090.88H1105.13L1113.25 2987.47L1124.75 3004.09L1140.25 2969.97L1155 3004.09H1197.13H1216.25L1223.25 2981.34L1229.75 3004.09H1242.25V2788.84H1071.75V3004.09Z" fill="#DBDBDB"/>
<path d="M266 3657.09C300.5 3591.26 334.583 3525.01 368.25 3458.34L469 3258.34L569 3058.34C602.333 2991.67 635 2924.55 667 2856.97C632.5 2922.97 598.417 2989.13 564.75 3055.47L464 3254.84L364 3454.84C331 3522.26 298.333 3589.67 266 3657.09Z" fill="#EBEBEB"/>
<path d="M266 2857.47C298.333 2924.72 331 2991.67 364 3058.34L464 3258.34L564.75 3458.34C598.5 3525.01 632.583 3591.17 667 3656.84C634.667 3589.51 602 3522.38 569 3455.47L469 3255.47L368.25 3056.09C334.5 2989.67 300.417 2923.47 266 2857.47Z" fill="#EBEBEB"/>
<path d="M757.625 3658.59H857.5V3558.72H757.625V3658.59Z" fill="white"/>
<path d="M1537.88 3716.22H638.5V4292.97H1537.88V3716.22Z" fill="#DBDBDB"/>
<path d="M174.125 4292.97H638.5L638.5 3716.22H174.125L174.125 4292.97Z" fill="#C7C7C7"/>
<path d="M1011.88 3931.47H1030.88H1045.25L1053.38 3914.84L1064.88 3931.47L1080.38 3897.34L1095.13 3931.47H1137.13H1156.38L1163.25 3908.72L1169.87 3931.47H1182.37V3716.22H1011.88V3931.47Z" fill="white"/>
<path d="M206.125 4258.34C240.542 4216.67 274.625 4174.63 308.375 4132.22L409.125 4005.47L509.125 3878.09C541.958 3835.59 574.583 3792.92 607 3750.09C572.667 3791.76 538.583 3833.8 504.75 3876.22L404 4003.09L304 4130.34C271.083 4173.09 238.458 4215.76 206.125 4258.34Z" fill="#DBDBDB"/>
<path d="M206.125 3750.47C238.542 3793.3 271.208 3835.97 304.125 3878.47L404.125 4005.84L504.875 4132.59C538.208 4174.76 572.208 4216.67 606.875 4258.34C574.625 4215.51 542 4172.84 509 4130.34L409 4003.09L308.25 3876.22C274.583 3834.38 240.542 3792.47 206.125 3750.47Z" fill="#DBDBDB"/>
<path d="M5039.63 4417.72H4140.25V5288.97H5039.63V4417.72Z" fill="#DBDBDB"/>
<path d="M3676 5288.97H4140.38V4417.72H3676V5288.97Z" fill="#C7C7C7"/>
<path d="M4513.63 4632.97H4532.63H4547L4555.13 4616.34L4566.63 4632.97L4582.13 4598.84L4596.88 4632.97H4638.88H4658.13L4665.13 4610.09L4671.63 4632.97H4684.13V4417.72H4513.63V4632.97Z" fill="white"/>
<path d="M3707.88 5237.09C3742.29 5173.84 3776.38 5110.34 3810.13 5046.59L3910.88 4855.09L4010.88 4662.84C4044.21 4598.59 4076.83 4534.17 4108.75 4469.59C4074.42 4532.84 4040.33 4596.34 4006.5 4660.09L3905.75 4851.47L3806.38 5043.84C3773.38 5108.09 3740.54 5172.51 3707.88 5237.09Z" fill="#DBDBDB"/>
<path d="M3707.88 4469.59C3740.29 4534.17 3772.96 4598.59 3805.88 4662.84L3905.25 4855.09L4006 5046.59C4039.75 5110.34 4073.83 5173.84 4108.25 5237.09C4076 5172.42 4043.38 5108.01 4010.38 5043.84L3910.38 4851.47L3809.63 4660.09C3776.21 4596.34 3742.29 4532.84 3707.88 4469.59Z" fill="#DBDBDB"/>
<path d="M3475.88 108.341V2234.59H4939.12V108.341H3475.88ZM4885.13 2179.97H3529.88V161.716H4885.13V2179.97Z" fill="#EBEBEB"/>
<path d="M4885.13 161.716H3529.88V2179.97H4885.13V161.716Z" fill="white"/>
<path d="M3529.88 1260.34L4885.13 1260.34V1206.34L3529.88 1206.34V1260.34Z" fill="#EBEBEB"/>
<path d="M3376.38 2388.84H5038.5V2233.84H3376.38V2388.84Z" fill="#DBDBDB"/>
<path d="M3420.5 2450.84L4994.5 2483.84V2388.84H3420.5V2450.84Z" fill="#EBEBEB"/>
<path d="M3529.88 161.716H4885.13V1548.34H3529.88V161.716ZM4835.13 211.716H3579.88V1498.34H4835.13V211.716Z" fill="#DBDBDB"/>
<path d="M4452.63 161.716H4425.63V1498.34H4452.63V161.716Z" fill="#DBDBDB"/>
<path d="M3989.38 161.716H3962.38V1498.34H3989.38V161.716Z" fill="#DBDBDB"/>
<path d="M274.625 108.341V2234.59H1737.87V108.341H274.625ZM1683.88 2179.97H328.625V161.716H1683.88V2179.97Z" fill="#EBEBEB"/>
<path d="M1683.88 161.716H328.625V2179.97H1683.88V161.716Z" fill="white"/>
<path d="M328.625 1260.34L1683.88 1260.34V1206.34L328.625 1206.34V1260.34Z" fill="#EBEBEB"/>
<path d="M175.125 2388.84H1837.25V2233.84H175.125V2388.84Z" fill="#DBDBDB"/>
<path d="M219.25 2450.84L1793.25 2483.84V2388.84H219.25V2450.84Z" fill="#EBEBEB"/>
<path d="M328.625 161.716H1683.88V1548.34H328.625V161.716ZM1633.88 211.716H378.625V1498.34H1633.88V211.716Z" fill="#DBDBDB"/>
<path d="M1251.38 161.716H1224.38V1498.34H1251.38V161.716Z" fill="#DBDBDB"/>
<path d="M788.125 161.716H761.125V1498.34H788.125V161.716Z" fill="#DBDBDB"/>
<path d="M3715.75 4258.97H2469.75V5288.47H3715.75V4258.97Z" fill="#557B99"/>
<path opacity="0.1" d="M3715.75 4258.97H2469.75V5288.47H3715.75V4258.97Z" fill="black"/>
<path d="M4209.5 4259.09H3715.75V5288.59H4209.5V4259.09Z" fill="#557B99"/>
<path opacity="0.2" d="M4209.5 4259.09H3715.75V5288.59H4209.5V4259.09Z" fill="black"/>
<path d="M4175.38 5217.59C4138.88 5144.42 4102.67 5071.01 4066.75 4997.34L3959.63 4775.84L3853.88 4553.47C3818.88 4479.22 3784.17 4404.72 3749.75 4329.97C3786.42 4403.22 3822.67 4476.63 3858.5 4550.22L3965.5 4771.72L4071.25 4994.09C4106.42 5068.34 4141.13 5142.84 4175.38 5217.59Z" fill="#557B99"/>
<path d="M4175.38 4329.97C4141.04 4404.97 4106.33 4479.47 4071.25 4553.47L3965.5 4775.84L3858.5 4997.34C3822.58 5070.92 3786.33 5144.34 3749.75 5217.59C3784.17 5142.59 3818.88 5068.09 3853.88 4994.09L3959.63 4771.72L4066.75 4550.34C4102.67 4476.59 4138.88 4403.13 4175.38 4329.97Z" fill="#557B99"/>
<path d="M3180.88 4481.47H3161.25H3146.38L3138 4464.34L3126.13 4481.47L3110 4446.22L3094.88 4481.47H3051.38H3031.5L3024.25 4457.97L3017.5 4481.47H3004.63V4259.09H3180.88V4481.47Z" fill="white"/>
<path d="M3790.88 3229.59H2861.25V4258.97H3790.88V3229.59Z" fill="#557B99"/>
<path d="M4270.88 3229.59H3790.88V4259.09H4270.88V3229.59Z" fill="#557B99"/>
<path opacity="0.1" d="M4270.88 3229.59H3790.88V4259.09H4270.88V3229.59Z" fill="black"/>
<g opacity="0.1">
<path d="M3722.75 4188.09C3654.5 4114.84 3586.83 4041.42 3519.75 3967.84L3319.38 3745.84L3122 3523.47C3056.5 3449.22 2991.67 3374.72 2927.5 3299.97C2995.83 3373.22 3063.5 3446.67 3130.5 3520.34L3330.5 3741.72L3527.88 3964.09C3593.63 4038.67 3658.58 4113.34 3722.75 4188.09Z" fill="black"/>
<path d="M3722.75 3300.47C3658.5 3375.47 3593.67 3449.97 3528.25 3523.97L3330.88 3745.84L3130.88 3967.34C3064.21 4040.92 2996.54 4114.34 2927.88 4187.59C2992.13 4112.59 3056.96 4038.09 3122.37 3964.09L3319.38 3742.22L3519.38 3520.84C3586.63 3447.09 3654.42 3373.63 3722.75 3300.47Z" fill="black"/>
</g>
<path d="M4203.38 4084.84H4119.25V4203.59H4203.38V4084.84Z" fill="white"/>
<path d="M0 5288.97L651.75 5285.84L1303.5 5284.84L2606.88 5282.72L3910.25 5284.84L4562 5285.84L5213.75 5288.97L4562 5291.97L3910.25 5293.09L2606.88 5295.22L1303.5 5293.09L651.75 5291.97L0 5288.97Z" fill="#263238"/>
<path d="M3103.38 1743.34C3096.38 1738.84 3089.38 1734.47 3082.38 1730.22L3087.25 1722.09L3108.5 1735.47L3103.38 1743.34Z" fill="#263238"/>
<path d="M2798.13 2995.84H2789.12V2986.47C2805.81 2986.84 2822.51 2986.21 2839.12 2984.59L2840.13 2993.97C2826.5 2994.97 2812.25 2995.84 2798.13 2995.84ZM2890.88 2985.59L2888.88 2976.47C2905.13 2972.78 2921.09 2967.9 2936.63 2961.84L2940 2970.59C2924.01 2976.72 2907.59 2981.65 2890.88 2985.34V2985.59ZM2986.25 2948.09L2981.63 2939.97C2995.99 2931.58 3009.66 2922.05 3022.5 2911.47L3028.5 2918.59C3015.27 2929.63 3001.14 2939.54 2986.25 2948.22V2948.09ZM3065.38 2883.09L3058.5 2876.72C3069.72 2864.39 3080.03 2851.27 3089.38 2837.47L3097.13 2842.72C3087.54 2857.01 3076.93 2870.59 3065.38 2883.34V2883.09ZM3122.63 2798.22L3114.12 2794.22C3121.25 2779.16 3127.06 2763.52 3131.5 2747.47L3140.5 2749.97C3135.96 2766.58 3129.98 2782.77 3122.63 2798.34V2798.22ZM3149.63 2699.22L3140.25 2698.47C3140.25 2691.72 3141.13 2684.84 3141.13 2678.22C3141.09 2668.94 3140.55 2659.68 3139.5 2650.47C3129.77 2649.81 3120.09 2648.6 3110.5 2646.84L3112.13 2637.59C3127.39 2640.35 3142.86 2641.77 3158.38 2641.84H3161.63V2651.22H3158.25H3148.87C3149.88 2660.26 3150.38 2669.36 3150.38 2678.47C3150.5 2685.22 3150.13 2692.34 3149.63 2699.34V2699.22ZM3213 2644.97L3210.88 2635.84C3226.95 2632.03 3242.52 2626.33 3257.25 2618.84L3261.5 2627.22C3246.1 2635.07 3229.82 2641.07 3213 2645.09V2644.97ZM3060.75 2633.34C3044.59 2627.51 3028.91 2620.41 3013.88 2612.09L3018.5 2603.97C3033.05 2612 3048.23 2618.86 3063.88 2624.47L3060.75 2633.34ZM3128 2600.34C3122.52 2584.71 3115.31 2569.74 3106.5 2555.72L3114.38 2550.72C3123.64 2565.3 3131.19 2580.9 3136.88 2597.22L3128 2600.34ZM3304.5 2598.34L3298.5 2591.22C3311.18 2580.5 3322.78 2568.57 3333.13 2555.59L3340.38 2561.47C3329.7 2575.06 3317.68 2587.53 3304.5 2598.72V2598.34ZM2971.5 2583.34L2968.88 2580.84C2956.5 2569.97 2946.65 2556.53 2940 2541.47L2948.75 2537.97C2954.85 2551.76 2963.89 2564.05 2975.25 2573.97L2977.75 2576.22L2971.5 2583.34ZM3369.38 2519.47L3361.37 2514.59C3370.12 2500.09 3378.25 2485.22 3385.38 2470.59L3393.88 2474.72C3386.63 2489.59 3378.38 2504.72 3369.38 2519.47ZM3075.38 2517.59C3063.95 2506.53 3051.38 2496.73 3037.88 2488.34L3036 2487.09L3040.88 2479.09L3042.88 2480.34C3056.81 2489.14 3069.76 2499.4 3081.5 2510.97L3075.38 2517.59ZM2951.25 2493.47L2943.5 2488.22C2948.85 2480.7 2955.95 2474.58 2964.17 2470.41C2972.4 2466.23 2981.52 2464.1 2990.75 2464.22V2473.59C2983.06 2473.55 2975.48 2475.32 2968.61 2478.78C2961.74 2482.23 2955.79 2487.27 2951.25 2493.47ZM3413.75 2427.59L3405 2424.34C3410.79 2408.65 3415.75 2392.67 3419.88 2376.47L3428.88 2378.72C3424.84 2395.29 3419.84 2411.61 3413.88 2427.59H3413.75ZM3438.75 2328.47L3429.38 2327.22C3431.61 2310.64 3432.9 2293.94 3433.25 2277.22H3442.62C3442.28 2294.36 3440.99 2311.47 3438.75 2328.47ZM3431.5 2227.22C3430 2210.44 3427.62 2193.75 3424.38 2177.22L3433.63 2175.34C3436.89 2192.08 3439.31 2208.98 3440.88 2225.97L3431.5 2227.22ZM3412.13 2128.97C3407.38 2113.22 3401.75 2097.34 3395.25 2081.59L3404 2078.09C3410.5 2093.97 3416.5 2110.22 3421.13 2126.22L3412.13 2128.97ZM3374.63 2035.84C3367.13 2021.22 3358.75 2006.47 3349.63 1991.97L3357.63 1987.09C3366.63 2001.72 3375.13 2016.72 3382.63 2031.59L3374.63 2035.84ZM3322 1950.09C3312.38 1936.59 3302 1923.22 3291.25 1910.22L3298.5 1904.22C3309.38 1917.34 3319.88 1930.97 3329.63 1944.59L3322 1950.09ZM3258 1872.34C3246.63 1859.84 3234.63 1848.22 3222.38 1836.72L3228.75 1829.84C3241.25 1841.59 3253.75 1853.72 3264.75 1865.97L3258 1872.34ZM3184.63 1803.22C3172.13 1792.59 3158.5 1782.09 3145.13 1772.09L3150.63 1764.59C3164.25 1774.59 3177.75 1785.22 3190.63 1796.09L3184.63 1803.22Z" fill="#263238"/>
<path d="M2736.75 2991.34C2728.34 2990.3 2720 2988.79 2711.75 2986.84L2714 2977.72C2714 2977.72 2723 2979.97 2738 2982.09L2736.75 2991.34Z" fill="#263238"/>
<path d="M2610.63 2972.72C2604.75 3022.72 2706.88 3050.72 2714.63 2985.22C2722.38 2919.72 2616.5 2922.34 2610.63 2972.72Z" fill="#263238"/>
<path d="M2744.38 3055.47C2734.88 3074.34 2701.25 3076.97 2666.5 3052.72C2642.9 3034.7 2622.96 3012.34 2607.75 2986.84C2637.14 2983.78 2666.84 2986.37 2695.25 2994.47C2736.38 3008.34 2754.38 3036.34 2744.38 3055.47Z" fill="#EBEBEB"/>
<path d="M2608.13 2986.84C2627.88 2995.72 2647.25 3005.34 2666.63 3014.84C2686 3024.34 2705.13 3034.47 2724 3044.97C2704.25 3036.09 2684.88 3026.47 2665.5 3016.97C2646.13 3007.47 2627 2997.34 2608.13 2986.84Z" fill="#263238"/>
<path d="M2698.88 3055.09C2694.39 3049.89 2690.21 3044.42 2686.38 3038.72C2682.6 3033.06 2679.18 3027.17 2676.13 3021.09C2680.61 3026.3 2684.79 3031.76 2688.63 3037.47C2692.43 3043.11 2695.85 3049 2698.88 3055.09Z" fill="#263238"/>
<path d="M2656.88 3011.22C2663.75 3009.43 2670.72 3008.01 2677.75 3006.97C2684.84 3005.96 2691.97 3005.34 2699.13 3005.09C2685.28 3008.54 2671.13 3010.59 2656.88 3011.22Z" fill="#263238"/>
<path d="M2646 3019.47C2641.7 3014.12 2638.63 3007.88 2637 3001.22C2641.3 3006.57 2644.37 3012.8 2646 3019.47Z" fill="#263238"/>
<path d="M2760.88 2924.59C2756 2903.97 2724 2893.72 2684.63 2909.22C2657.45 2921.31 2632.84 2938.5 2612.13 2959.84C2640.22 2969.57 2669.93 2973.81 2699.63 2972.34C2741.75 2968.84 2765.88 2945.84 2760.88 2924.59Z" fill="#EBEBEB"/>
<path d="M2612.13 2959.84C2633.38 2955.84 2654.5 2950.84 2675.5 2945.97C2696.5 2941.09 2717.5 2935.84 2738 2929.97C2716.88 2933.97 2695.75 2938.97 2674.75 2943.84C2653.75 2948.72 2633 2953.97 2612.13 2959.84Z" fill="#263238"/>
<path d="M2716.25 2914.34C2710.81 2918.21 2705.59 2922.38 2700.63 2926.84C2695.66 2931.51 2690.95 2936.43 2686.5 2941.59C2692 2937.8 2697.22 2933.62 2702.13 2929.09C2707.12 2924.45 2711.83 2919.53 2716.25 2914.34Z" fill="#263238"/>
<path d="M2665 2947.34C2677.66 2953.93 2690.99 2959.17 2704.75 2962.97C2692.11 2956.32 2678.78 2951.08 2665 2947.34Z" fill="#263238"/>
<path d="M2656.88 2936.84C2654.15 2938.88 2651.68 2941.23 2649.5 2943.84C2647.34 2946.52 2645.46 2949.41 2643.88 2952.47C2646.6 2950.38 2649.08 2947.99 2651.25 2945.34C2653.52 2942.79 2655.41 2939.93 2656.88 2936.84Z" fill="#263238"/>
<path d="M2610.63 2972.72C2614.21 2973.13 2617.58 2974.6 2620.33 2976.93C2623.08 2979.27 2625.07 2982.36 2626.06 2985.83C2627.05 2989.3 2626.99 2992.98 2625.9 2996.41C2624.8 2999.84 2622.7 3002.87 2619.88 3005.12C2617.06 3007.37 2613.64 3008.73 2610.05 3009.03C2606.46 3009.33 2602.86 3008.56 2599.7 3006.82C2596.54 3005.08 2593.97 3002.44 2592.31 2999.24C2590.65 2996.04 2589.98 2992.42 2590.38 2988.84C2590.94 2984.03 2593.39 2979.63 2597.18 2976.61C2600.97 2973.59 2605.81 2972.19 2610.63 2972.72Z" fill="#455A64"/>
<path d="M2614.88 2936.34C2617.26 2936.62 2619.57 2937.37 2621.67 2938.54C2623.77 2939.71 2625.62 2941.28 2627.11 2943.17C2628.6 2945.06 2629.71 2947.22 2630.37 2949.53C2631.02 2951.85 2631.22 2954.27 2630.94 2956.65C2630.66 2959.04 2629.91 2961.35 2628.74 2963.45C2627.57 2965.55 2625.99 2967.4 2624.11 2968.89C2622.22 2970.38 2620.06 2971.49 2617.75 2972.15C2615.43 2972.8 2613.01 2973 2610.63 2972.72C2605.8 2972.15 2601.4 2969.7 2598.39 2965.89C2595.37 2962.08 2594 2957.23 2594.56 2952.4C2595.13 2947.58 2597.58 2943.18 2601.39 2940.17C2605.2 2937.15 2610.05 2935.78 2614.88 2936.34Z" fill="#455A64"/>
<path d="M1481.88 4149.72C1481.88 4149.72 1215.38 4683.34 1215.25 4683.34C1193.25 4793.47 1176 4890.59 1171.63 4941.59C1171.56 4941.88 1171.56 4942.18 1171.63 4942.47C1169.32 4954.29 1169.79 4966.48 1173 4978.09C1172.94 4978.38 1172.94 4978.68 1173 4978.97C1201.38 5007.72 2077.13 5209.34 2110.5 5206.09C2143.88 5202.84 2136.75 5108.72 2109 5073.84C2081.25 5038.97 1780.38 4811.34 1780.38 4811.34L2040.88 4276.84L1481.88 4149.72Z" fill="#D3766A"/>
<path d="M2097.25 5206.59C2064.38 5209.84 1201.75 5008.09 1173.5 4979.47C1173.46 4979.18 1173.46 4978.88 1173.5 4978.59C1170.23 4967 1169.72 4954.8 1172 4942.97C1171.89 4942.68 1171.89 4942.37 1172 4942.09C1176.25 4891.09 1193.63 4793.97 1215.5 4683.72L1279.25 4555.97L1831.88 4707.47L1780.88 4812.22C1780.88 4812.22 2068.38 5039.34 2096.25 5074.72C2124.13 5110.09 2130.25 5203.47 2097.25 5206.59Z" fill="#EBEBEB"/>
<path d="M2109.25 5192.59C2075.88 5195.09 1198 4971.34 1170 4941.59C1159.25 4930.47 1184.38 4800.59 1219.25 4644.59L1220.38 4639.72L1788.38 4777.84L1785.75 4787.34C1785.75 4787.34 2083.38 5023.34 2110.75 5059.34C2138.13 5095.34 2142.5 5190.22 2109.25 5192.59Z" fill="#263238"/>
<path d="M2107.88 5155.97C1960.88 5114.72 1363.87 4961.72 1215.37 4931.97C1214.12 4931.97 1213.87 4932.59 1215.37 4932.97C1360.25 4977.09 1958.5 5125.22 2107.63 5157.97C2110.5 5159.09 2111 5156.84 2107.88 5155.97Z" fill="white"/>
<path d="M1832.88 4801.22C1777.38 4775.47 1703.88 4766.22 1648.88 4796.47C1646.75 4797.59 1648.88 4800.59 1650.38 4800.47C1710.61 4796.69 1771.08 4799.37 1830.75 4808.47C1831.63 4808.52 1832.49 4808.27 1833.21 4807.77C1833.93 4807.26 1834.46 4806.53 1834.7 4805.69C1834.95 4804.85 1834.9 4803.94 1834.57 4803.13C1834.24 4802.32 1833.64 4801.64 1832.88 4801.22Z" fill="white"/>
<path d="M1868.38 4837.22C1813 4811.59 1739.5 4802.34 1684.38 4832.47C1682.25 4833.59 1684.38 4836.59 1686 4836.59C1746.24 4832.75 1806.71 4835.43 1866.38 4844.59C1867.29 4844.68 1868.2 4844.44 1868.95 4843.92C1869.71 4843.4 1870.25 4842.63 1870.49 4841.75C1870.73 4840.86 1870.65 4839.92 1870.26 4839.09C1869.88 4838.27 1869.21 4837.6 1868.38 4837.22Z" fill="white"/>
<path d="M1904 4873.34C1848.5 4847.59 1775 4838.34 1720 4868.47C1717.88 4869.72 1720 4872.72 1721.63 4872.59C1781.82 4868.82 1842.25 4871.5 1901.88 4880.59C1902.75 4880.64 1903.62 4880.4 1904.34 4879.89C1905.06 4879.39 1905.58 4878.66 1905.83 4877.81C1906.07 4876.97 1906.03 4876.07 1905.7 4875.26C1905.36 4874.44 1904.77 4873.77 1904 4873.34Z" fill="white"/>
<path d="M2130.63 5164.59C2144.75 5174.59 2127.88 5226.47 2115.5 5227.84C2103.13 5229.22 1147 4980.97 1131.88 4973.09C1116.75 4965.22 1137.5 4908.47 1156.88 4910.59C1176.25 4912.72 2130.63 5164.59 2130.63 5164.59Z" fill="#557B99"/>
<path d="M1340.25 4774.97C1284.75 4726.97 1210 4813.22 1265.25 4861.34C1320.5 4909.47 1395.88 4823.09 1340.25 4774.97Z" fill="white"/>
<path d="M1280.88 4513.34L1921.38 4674.84C1921.38 4674.84 2518.38 3597.47 2505 3323.59C2486.63 2945.84 2043.13 1784.34 2043.13 1784.34H1512.13C1512.13 1784.34 1864.5 3039.97 1869.38 3251.22C1871.5 3361.72 1280.88 4513.34 1280.88 4513.34Z" fill="#455A64"/>
<path d="M1948.75 4544.84C1914.63 4531.22 1609.75 4443.22 1382.25 4394.84C1382 4394.92 1381.78 4395.08 1381.63 4395.3C1381.47 4395.51 1381.39 4395.77 1381.39 4396.03C1381.39 4396.29 1381.47 4396.55 1381.63 4396.76C1381.78 4396.97 1382 4397.13 1382.25 4397.22C1453.88 4422.22 1905.88 4541.34 1948.25 4547.22C1949.25 4547.59 1950.25 4545.84 1948.75 4544.84Z" fill="#263238"/>
<path d="M1913.38 2981.47C1871.13 2804.22 1825.88 2627.47 1778.38 2451.84C1730.88 2276.22 1680 2098.97 1624.13 1924.72C1617.38 1903.34 1610.25 1882.22 1603.38 1860.97C1603.18 1860.29 1602.72 1859.71 1602.09 1859.37C1601.47 1859.03 1600.74 1858.95 1600.06 1859.15C1599.38 1859.35 1598.81 1859.81 1598.47 1860.43C1598.13 1861.06 1598.05 1861.79 1598.25 1862.47C1648.25 2036.09 1698.25 2209.34 1745.63 2383.59C1793 2557.84 1838.13 2732.59 1880.63 2908.59C1891.25 2952.09 1901.63 2995.47 1911.75 3039.09C1923.52 3083.8 1932.62 3129.17 1939 3174.97C1944.26 3218.72 1941.25 3263.07 1930.13 3305.72C1918.06 3347.62 1902.29 3388.36 1883 3427.47C1806.42 3593.72 1729.88 3760.01 1653.38 3926.34C1576.88 4093.09 1564.5 4131.09 1490.88 4299.22C1481.75 4320.09 1472.63 4340.97 1463.88 4361.72C1463.88 4363.09 1465.25 4364.34 1466 4362.84C1549.75 4198.09 1562.63 4158.47 1641 3990.72C1719.38 3822.97 1797.25 3653.22 1875 3484.34C1910 3408.09 1951.13 3330.34 1956.38 3245.09C1961.63 3156.09 1933.63 3066.84 1913.38 2981.47Z" fill="#263238"/>
<path d="M1942.38 4360.72L1962.88 4948.22C1966.25 5060.72 1971.13 5159.09 1978.5 5209.72C1978.44 5210 1978.44 5210.3 1978.5 5210.59C1978.92 5222.6 1982.08 5234.36 1987.75 5244.97L1988.5 5245.72C2022.63 5267.34 2921.25 5266.84 2952.63 5256.22C2984 5245.59 2956.25 5155.59 2921.38 5127.72C2886.5 5099.84 2542.25 4946.22 2542.25 4946.22L2516.13 4359.34L1942.38 4360.72Z" fill="#D3766A"/>
<path d="M1958.63 4827.97C1958.63 4827.97 1962.88 4948.22 1962.88 4948.59C1966.25 5061.09 1971.13 5159.47 1978.5 5210.09C1978.44 5210.38 1978.44 5210.68 1978.5 5210.97C1980.21 5222.75 1983.31 5234.29 1987.75 5245.34L1988.5 5246.09C2022.63 5267.72 2921.25 5267.22 2952.63 5256.59C2984 5245.97 2956.25 5155.97 2921.38 5128.09C2886.5 5100.22 2542.25 4946.59 2542.25 4946.59L2539.63 4824.22L1958.63 4827.97Z" fill="#EBEBEB"/>
<path d="M2953.13 5255.59C2921.38 5265.72 2015.63 5251.72 1981.38 5229.22C1968.88 5220.84 1962.63 5088.84 1960.38 4929.22V4924.22L2544.88 4926.72V4936.72C2544.88 4936.72 2889.25 5097.09 2924.13 5125.72C2959 5154.34 2985 5245.84 2953.13 5255.59Z" fill="#263238"/>
<path d="M2943.5 5220.84C2790.88 5214.72 2174.63 5204.47 2023.25 5210.09C2022 5210.09 2022 5210.97 2023.25 5210.97C2174.38 5220.34 2790.75 5225.72 2943.5 5223.47C2946.63 5222.72 2946.75 5220.84 2943.5 5220.84Z" fill="white"/>
<path d="M2593.63 4938.97C2533.75 4926.47 2460 4934.84 2413.5 4976.47C2411.63 4978.09 2413.5 4980.59 2416 4980.09C2473.71 4962.48 2533.13 4951.04 2593.25 4945.97C2593.97 4945.73 2594.61 4945.29 2595.08 4944.69C2595.54 4944.08 2595.81 4943.35 2595.85 4942.6C2595.89 4941.84 2595.7 4941.08 2595.3 4940.43C2594.91 4939.79 2594.32 4939.27 2593.63 4938.97Z" fill="white"/>
<path d="M2636.63 4965.72C2576.63 4953.22 2503 4961.72 2456.5 5003.84C2454.63 5005.47 2456.5 5007.97 2458.88 5007.34C2516.62 4989.71 2576.08 4978.31 2636.25 4973.34C2637.16 4973.23 2637.99 4972.8 2638.61 4972.13C2639.23 4971.46 2639.6 4970.6 2639.64 4969.69C2639.69 4968.77 2639.41 4967.88 2638.86 4967.15C2638.3 4966.42 2637.51 4965.92 2636.63 4965.72Z" fill="white"/>
<path d="M2679.5 4992.59C2619.63 4980.09 2546 4988.47 2499.38 5030.09C2497.63 5031.72 2499.38 5034.22 2501.88 5033.72C2559.59 5016.11 2619 5004.68 2679.13 4999.59C2679.85 4999.36 2680.49 4998.91 2680.95 4998.31C2681.41 4997.71 2681.69 4996.98 2681.73 4996.22C2681.77 4995.46 2681.58 4994.71 2681.18 4994.06C2680.78 4993.41 2680.2 4992.9 2679.5 4992.59Z" fill="white"/>
<path d="M2967.5 5223.34C2983.63 5229.84 2979.25 5284.22 2967.5 5288.34C2955.75 5292.47 1967.5 5272.84 1951.38 5268.84C1935.25 5264.84 1941.75 5204.72 1961.38 5201.84C1981 5198.97 2967.5 5223.34 2967.5 5223.34Z" fill="#557B99"/>
<path d="M2108.38 5027.72C2043.25 4993.84 1990.5 5095.09 2055.75 5128.97C2121 5162.84 2173.63 5061.59 2108.38 5027.72Z" fill="white"/>
<path d="M2036.5 1783.34C2034.12 1794.22 1901.75 2317.59 1885.25 2327.34C1866.5 2338.47 2366.25 3010.84 2425.5 3340.97C2463 3552.09 2550.5 4782.72 2550.5 4782.72H1913.25C1913.25 4782.72 1850.75 3737.59 1830 3393.22C1821.88 3259.59 1320.62 2641.84 1273 2229.97C1258 2100.22 1351.25 1782.84 1351.25 1782.84L2036.5 1783.34Z" fill="#455A64"/>
<path d="M1897.13 4285.47C1889.63 4112.34 1882.75 3938.84 1870.13 3765.97C1863 3667.97 1849 3573.09 1839.25 3475.47C1839.25 3470.34 1834.63 3469.09 1834.75 3474.34C1839.25 3648.22 1853.63 3820.22 1862.88 3993.97C1872.13 4167.72 1881 4208.22 1890.88 4381.47C1896.38 4479.47 1901.25 4577.47 1908.88 4675.34C1908.96 4675.59 1909.12 4675.81 1909.33 4675.96C1909.54 4676.12 1909.8 4676.2 1910.06 4676.2C1910.33 4676.2 1910.58 4676.12 1910.8 4675.96C1911.01 4675.81 1911.17 4675.59 1911.25 4675.34C1911.63 4501.34 1904.75 4459.22 1897.13 4285.47Z" fill="#263238"/>
<path d="M2426.13 3349.22C2420.67 3303.49 2411.82 3258.24 2399.63 3213.84C2386.5 3170.8 2369.21 3129.15 2348 3089.47C2304.63 3006.22 2255.25 2925.72 2207.63 2844.84C2160 2763.97 2110.38 2681.34 2060.13 2600.59C2031.88 2555.26 2003.5 2509.97 1975 2464.72C1946 2419.09 1915.38 2374.34 1885.5 2329.34C1885.27 2328.96 1884.89 2328.69 1884.46 2328.58C1884.03 2328.48 1883.57 2328.55 1883.19 2328.78C1882.81 2329.01 1882.53 2329.38 1882.43 2329.82C1882.32 2330.25 1882.39 2330.71 1882.63 2331.09C1931.38 2412.84 1979.63 2494.72 2028.38 2576.47C2077.13 2658.22 2125.13 2740.22 2173.13 2822.22C2221.13 2904.22 2267.75 2983.72 2313 3065.72C2335.28 3104.65 2354.47 3145.27 2370.38 3187.22C2385.17 3230.67 2395.93 3275.41 2402.5 3320.84C2419.5 3426.72 2433.38 3533.34 2454.63 3638.22C2454.71 3638.47 2454.87 3638.68 2455.08 3638.84C2455.29 3638.99 2455.55 3639.08 2455.81 3639.08C2456.08 3639.08 2456.33 3638.99 2456.55 3638.84C2456.76 3638.68 2456.92 3638.47 2457 3638.22C2450.38 3541.72 2438.88 3445.09 2426.13 3349.22Z" fill="#263238"/>
<path d="M2494.38 4673.47C2458 4668.72 2180.38 4659.09 1948.13 4669.09C1946.63 4669.09 1946.75 4671.34 1948.13 4671.47C2023.75 4678.09 2451.38 4681.09 2494 4676.09C2495.13 4675.97 2495.63 4673.72 2494.38 4673.47Z" fill="#263238"/>
<path d="M1968.38 2291.59C1903.45 2315.25 1840.71 2344.52 1780.88 2379.09C1780.36 2379.32 1779.96 2379.75 1779.76 2380.28C1779.56 2380.8 1779.58 2381.39 1779.81 2381.9C1780.04 2382.42 1780.47 2382.82 1781 2383.02C1781.53 2383.22 1782.11 2383.2 1782.63 2382.97C1845.88 2355.72 1910.5 2329.72 1972.25 2299.09C1973.24 2298.58 1973.99 2297.69 1974.33 2296.62C1974.67 2295.56 1974.58 2294.4 1974.06 2293.4C1973.55 2292.41 1972.66 2291.66 1971.59 2291.32C1970.53 2290.98 1969.37 2291.08 1968.38 2291.59Z" fill="#263238"/>
<path d="M1987.5 1858.34C1987.5 1856.22 1983.5 1855.72 1983.5 1858.34C1983.51 1928.97 1979.97 1999.56 1972.88 2069.84C1969.88 2102.47 1943.63 2282.34 1887.13 2269.84C1877.63 2267.59 1872.88 2258.34 1871.38 2243.97C1871.53 2225.31 1874.05 2206.74 1878.88 2188.72C1885.13 2151.22 1890.13 2113.72 1893.38 2075.09C1900 2004.12 1899.25 1932.66 1891.13 1861.84C1891.02 1861.44 1890.78 1861.09 1890.46 1860.84C1890.13 1860.58 1889.73 1860.45 1889.31 1860.45C1888.9 1860.45 1888.5 1860.58 1888.17 1860.84C1887.84 1861.09 1887.61 1861.44 1887.5 1861.84C1889.14 1960.22 1883.37 2058.58 1870.25 2156.09C1863.13 2202.97 1839.5 2273.59 1888.63 2281.09C1937.75 2288.59 1970.88 2170.22 1976.88 2137.84C1992.51 2045.53 1996.08 1951.57 1987.5 1858.34Z" fill="#263238"/>
<path d="M1888.63 2273.72C1883.62 2285.92 1879.44 2298.45 1876.13 2311.22C1872.53 2321.02 1870.75 2331.4 1870.88 2341.84C1870.94 2342.27 1871.12 2342.67 1871.42 2342.98C1871.71 2343.3 1872.09 2343.52 1872.51 2343.61C1872.93 2343.71 1873.37 2343.67 1873.77 2343.51C1874.17 2343.35 1874.51 2343.08 1874.75 2342.72C1880.66 2333.5 1885.08 2323.42 1887.88 2312.84C1892.25 2301.22 1896.75 2289.84 1900.38 2278.09C1900.96 2276.53 1900.89 2274.81 1900.2 2273.3C1899.51 2271.78 1898.25 2270.61 1896.69 2270.03C1895.13 2269.45 1893.4 2269.51 1891.89 2270.2C1890.38 2270.89 1889.21 2272.16 1888.63 2273.72Z" fill="#263238"/>
<path d="M1915.25 3561.22C1909.25 3472.22 1909.63 3378.34 1871.75 3295.84C1851.63 3255.64 1828.48 3217.03 1802.5 3180.34C1776.67 3140.84 1751.17 3101.13 1726 3061.22C1626 2901.59 1529.5 2738.72 1441.63 2571.84C1399.25 2491.47 1360.25 2408.47 1339 2319.72C1318.28 2226.32 1314.34 2129.99 1327.38 2035.22C1330.38 2011.59 1333.63 1988.09 1337.5 1964.59C1337.51 1964.27 1337.41 1963.96 1337.22 1963.71C1337.03 1963.45 1336.75 1963.27 1336.44 1963.2C1336.13 1963.12 1335.81 1963.16 1335.52 1963.3C1335.24 1963.44 1335.01 1963.68 1334.88 1963.97C1314.31 2054.09 1307.27 2146.77 1314 2238.97C1323.62 2327.11 1348.45 2412.92 1387.38 2492.59C1426.13 2576.47 1472.25 2657.22 1517.75 2737.59C1564.67 2820.92 1612.96 2903.05 1662.63 2983.97C1712.63 3064.72 1764.13 3143.84 1815.75 3223.34C1842.08 3260.84 1862.61 3302.09 1876.63 3345.72C1887.99 3391.23 1894.53 3437.83 1896.13 3484.72C1908.63 3681.47 1958.63 4335.59 1976.38 4531.34C1978.5 4556.34 1980.75 4581.34 1983.13 4606.34C1983.05 4606.6 1983.04 4606.87 1983.09 4607.14C1983.15 4607.4 1983.26 4607.65 1983.42 4607.86C1983.58 4608.08 1983.79 4608.25 1984.04 4608.37C1984.28 4608.49 1984.54 4608.55 1984.81 4608.55C1985.08 4608.55 1985.35 4608.49 1985.59 4608.37C1985.83 4608.25 1986.04 4608.08 1986.2 4607.86C1986.37 4607.65 1986.48 4607.4 1986.53 4607.14C1986.58 4606.87 1986.57 4606.6 1986.5 4606.34C1979 4409.84 1928.13 3757.34 1915.25 3561.22Z" fill="#263238"/>
<path d="M1609.38 1955.84C1609.38 1954.47 1607.13 1954.97 1607.13 1955.84C1605.25 2010.47 1607.13 2066.97 1585.75 2118.34C1566.5 2165.72 1527.75 2198.97 1484.38 2223.84C1459.15 2237.99 1433.15 2250.72 1406.5 2261.97C1404.63 2262.84 1405.38 2265.84 1407.5 2265.22C1457.5 2249.22 1509.13 2231.84 1551 2198.34C1595.75 2162.34 1615.38 2110.22 1617.5 2053.97C1618.27 2021.06 1615.54 1988.17 1609.38 1955.84Z" fill="#263238"/>
<path d="M1886.75 1065.47C1958.25 1284.97 2151.38 1658.84 2220.38 1703.97C2281.5 1743.84 2569.12 1699.34 2695.37 1668.97C2742.37 1657.59 2636.63 1299.34 2586.5 1312.47C2526.38 1328.22 2347.25 1368.59 2334.25 1358.59C2321.25 1348.59 2140.63 1126.09 2012.63 995.091C1896.13 876.466 1859.75 982.466 1886.75 1065.47Z" fill="#D3766A"/>
<path d="M2667.75 1671.72C2691.88 1668.72 2896 1659.22 2989.63 1608.34C3039.63 1581.22 3167.25 1491.47 3154.5 1459.22C3142.88 1429.84 3101.88 1445.84 3101.88 1445.84C3101.88 1445.84 3158.25 1404.97 3141.75 1364.22C3125.25 1323.47 3057.13 1354.09 3057.13 1354.09C3057.13 1354.09 3112 1307.84 3092.63 1268.47C3073.25 1229.09 3010 1271.22 3010 1271.22C3010 1271.22 3062.13 1231.34 3032.5 1205.59C2996.75 1174.59 2908.88 1259.09 2849.5 1278.84C2836 1283.34 2570 1350.59 2570 1350.59L2667.75 1671.72Z" fill="#D3766A"/>
<path d="M3007.75 1270.09C2943 1331.97 2903.88 1347.84 2817.38 1365.34C2815.75 1365.34 2815.88 1368.34 2817.38 1368.09C2903.63 1358.72 2955.5 1345.84 3010.63 1273.09C3013.63 1269.47 3010.75 1267.09 3007.75 1270.09Z" fill="#263238"/>
<path d="M3055 1352.59C2982.13 1411.09 2939.88 1428.59 2850.63 1453.59C2849.38 1453.59 2849.88 1456.22 2851.25 1455.97C2940.75 1438.72 2992.25 1424.72 3057.38 1356.72C3060.38 1353.72 3058.38 1349.97 3055 1352.59Z" fill="#263238"/>
<path d="M3097.5 1446.84C3022.5 1498.34 2977.38 1519.72 2887.63 1532.84C2887.19 1532.84 2886.78 1533.01 2886.48 1533.32C2886.17 1533.62 2886 1534.03 2886 1534.47C2886 1534.9 2886.17 1535.31 2886.48 1535.62C2886.78 1535.92 2887.19 1536.09 2887.63 1536.09C2980.5 1531.59 3037.63 1505.47 3098.5 1449.34C3103 1445.84 3102.13 1443.72 3097.5 1446.84Z" fill="#263238"/>
<path d="M2500.25 1362.09C2500.25 1362.09 2574.63 1277.97 2615.38 1248.22C2656.13 1218.47 2849.13 1163.47 2863.38 1204.47C2881.75 1257.47 2776.63 1311.09 2721.75 1330.59C2721.75 1330.59 2764.38 1453.09 2696.75 1507.84C2629.13 1562.59 2500.25 1362.09 2500.25 1362.09Z" fill="#D3766A"/>
<path d="M2863.75 1220.84C2845.63 1281.22 2771.88 1302.22 2720 1325.09C2719.23 1325.42 2718.55 1325.93 2718.02 1326.57C2717.48 1327.21 2717.1 1327.96 2716.9 1328.78C2716.71 1329.59 2716.71 1330.44 2716.9 1331.25C2717.09 1332.07 2717.47 1332.82 2718 1333.47C2732.5 1385.97 2737.5 1464.22 2700.75 1508.47C2699.75 1509.72 2701.38 1511.47 2702.63 1510.34C2748.5 1468.34 2749.75 1390.97 2730.25 1334.47C2783.88 1311.84 2856.88 1287.47 2864.25 1221.09C2864.38 1220.84 2863.88 1220.84 2863.75 1220.84Z" fill="#263238"/>
<path d="M2667.63 1733.34L2573.38 1304.09L2340.13 1346.47C2248.13 1241.09 2064.25 1030.47 1990.13 967.216C1902.63 892.966 1845.38 948.716 1877.63 1061.22C1950.5 1318.34 2163.63 1695.84 2219.38 1731.47C2300.25 1783.34 2667.63 1733.34 2667.63 1733.34Z" fill="#557B99"/>
<path opacity="0.1" d="M2334.63 1477.09C2346.17 1479.6 2357.94 1480.98 2369.75 1481.22C2394.75 1484.59 2405.75 1521.47 2383 1535.47C2371.05 1542.82 2357.55 1547.28 2343.57 1548.47C2329.59 1549.67 2315.52 1547.57 2302.5 1542.34C2277.5 1532.59 2256.38 1508.34 2261.75 1479.84C2262.68 1474.53 2264.97 1469.55 2268.4 1465.38C2271.82 1461.22 2276.27 1458.01 2281.3 1456.07C2286.34 1454.13 2291.79 1453.53 2297.12 1454.32C2302.46 1455.11 2307.5 1457.27 2311.75 1460.59C2318.68 1467 2326.36 1472.54 2334.63 1477.09ZM2270.13 1374.97C2261.13 1417.47 2326.88 1453.97 2360.5 1431.34C2363.21 1429.29 2365.42 1426.65 2366.97 1423.63C2368.53 1420.6 2369.37 1417.26 2369.46 1413.86C2369.54 1410.47 2368.86 1407.09 2367.46 1403.99C2366.06 1400.89 2363.98 1398.15 2361.38 1395.97C2351.5 1387.97 2343.25 1386.72 2334.5 1379.47C2331.44 1377.08 2328.75 1374.26 2326.5 1371.09C2321.54 1364.26 2315.2 1358.55 2307.88 1354.34C2304.07 1352.71 2299.94 1351.97 2295.8 1352.17C2291.67 1352.37 2287.63 1353.51 2283.99 1355.49C2280.36 1357.48 2277.22 1360.26 2274.82 1363.63C2272.42 1367.01 2270.81 1370.88 2270.13 1374.97ZM2165.25 1377.22C2151.75 1394.84 2161.88 1421.34 2173.75 1437.34C2179.1 1445.31 2186.46 1451.72 2195.09 1455.91C2203.72 1460.11 2213.31 1461.94 2222.88 1461.22C2226.36 1460.73 2229.63 1459.24 2232.29 1456.93C2234.95 1454.62 2236.89 1451.59 2237.86 1448.21C2238.84 1444.83 2238.82 1441.24 2237.8 1437.87C2236.78 1434.5 2234.81 1431.49 2232.13 1429.22C2224.61 1423.5 2218.6 1416.03 2214.63 1407.47C2208.75 1394.22 2204.88 1377.09 2189.63 1371.34C2185.46 1369.63 2180.86 1369.27 2176.49 1370.33C2172.11 1371.38 2168.18 1373.79 2165.25 1377.22ZM2442.13 1655.22C2424.5 1690.84 2478.13 1731.34 2510.63 1724.34C2521.5 1721.97 2532 1707.72 2522.38 1697.47C2514.63 1689.22 2505.38 1682.72 2498.13 1673.97C2489.25 1663.34 2484.38 1649.72 2470.5 1644.34C2465.28 1642.16 2459.42 1642.07 2454.13 1644.09C2448.85 1646.12 2444.55 1650.1 2442.13 1655.22ZM1938.63 1218.34C1935.55 1212.49 1931.29 1207.34 1926.13 1203.22C1933.13 1221.13 1940.5 1239.09 1948.25 1257.09C1948.67 1243.54 1945.34 1230.13 1938.63 1218.34ZM2008.25 1180.84C2005.8 1149.96 1993.74 1120.63 1973.75 1096.97C1958.75 1077.59 1932.75 1046.97 1905.25 1053.59C1902.33 1054.5 1899.78 1056.33 1897.97 1058.81C1896.17 1061.29 1895.22 1064.28 1895.25 1067.34C1893.5 1088.47 1917.75 1111.09 1928.25 1127.97C1940.75 1149.22 1950.63 1172.72 1964.13 1193.84C1966.95 1198.18 1971.1 1201.5 1975.96 1203.29C1980.82 1205.08 1986.13 1205.25 1991.09 1203.77C1996.06 1202.29 2000.41 1199.25 2003.5 1195.09C2006.6 1190.94 2008.26 1185.9 2008.25 1180.72V1180.84ZM2000.13 1315.22C2005.01 1314.96 2009.69 1313.15 2013.46 1310.05C2017.24 1306.94 2019.93 1302.71 2021.13 1297.97C2023.07 1288.26 2022.42 1278.22 2019.25 1268.84C2017.38 1259.91 2013.05 1251.69 2006.75 1245.09C2004.49 1243 2001.73 1241.54 1998.74 1240.84C1995.75 1240.14 1992.62 1240.22 1989.68 1241.09C1986.73 1241.96 1984.05 1243.58 1981.92 1245.8C1979.79 1248.01 1978.26 1250.74 1977.5 1253.72C1976.5 1261.02 1976.5 1268.42 1977.5 1275.72C1977.5 1278.84 1977.5 1281.97 1977.5 1285.22C1977.44 1289.93 1977.94 1294.63 1979 1299.22C1980.35 1303.78 1983.13 1307.79 1986.93 1310.65C1990.74 1313.51 1995.36 1315.07 2000.13 1315.09V1315.22Z" fill="#030402"/>
<path d="M2586 1695.84C2575.25 1670.84 2548.5 1559.84 2542.63 1532.22C2536.75 1504.59 2515 1392.84 2508.63 1364.47C2508.63 1362.84 2510.38 1361.97 2510.75 1363.47C2517.5 1391.47 2547.63 1501.72 2554.25 1529.22C2560.88 1556.72 2585.75 1667.59 2587.5 1695.47C2587.52 1695.56 2587.53 1695.67 2587.51 1695.77C2587.5 1695.87 2587.47 1695.96 2587.41 1696.05C2587.31 1696.23 2587.14 1696.35 2586.94 1696.4C2586.74 1696.45 2586.53 1696.42 2586.35 1696.32C2586.18 1696.21 2586.05 1696.04 2586 1695.84Z" fill="#263238"/>
<path opacity="0.1" d="M2369.38 1754.84C2303.75 1754.84 2246.13 1748.59 2219.38 1731.47C2163.25 1695.22 1950.13 1318.97 1876.75 1061.34C1858.25 996.841 1869.38 950.841 1898.63 937.466L2369.38 1754.84Z" fill="black"/>
<path d="M1311.63 1842.22C1313.25 1844.59 2093.25 1944.59 2101.63 1937.34C2106.04 1915.63 2109.17 1893.67 2111 1871.59C2111 1871.59 2039.5 1022.34 2002.5 972.466C1970.13 928.966 1871.88 897.466 1805 925.841C1664.63 985.341 1328.5 1744.09 1332.13 1775.84C1331.88 1775.47 1309.63 1839.22 1311.63 1842.22Z" fill="#557B99"/>
<path opacity="0.1" d="M1592.88 1738.84C1604.9 1744.68 1617.46 1749.37 1630.38 1752.84C1656.38 1763.22 1658.75 1806.59 1630.38 1815.34C1615.29 1820.13 1599.3 1821.32 1583.67 1818.82C1568.04 1816.33 1553.22 1810.21 1540.37 1800.97C1515.37 1783.47 1499.25 1750.97 1512.75 1721.97C1515.23 1716.45 1519.08 1711.66 1523.95 1708.06C1528.81 1704.47 1534.52 1702.18 1540.52 1701.43C1546.52 1700.67 1552.61 1701.48 1558.22 1703.76C1563.82 1706.04 1568.74 1709.73 1572.5 1714.47C1579.5 1722.59 1583.75 1733.34 1592.88 1738.84ZM1550.13 1609.72C1528.75 1653.84 1590.63 1711.47 1633.5 1695.84C1637.09 1694.4 1640.3 1692.15 1642.88 1689.27C1645.45 1686.38 1647.32 1682.94 1648.34 1679.21C1649.36 1675.47 1649.49 1671.56 1648.74 1667.76C1647.99 1663.97 1646.37 1660.4 1644 1657.34C1635.5 1645.97 1626.75 1642.34 1619 1632.34C1616.32 1628.88 1614.18 1625.05 1612.63 1620.97C1608.93 1612.24 1603.53 1604.33 1596.75 1597.72C1581.88 1583.34 1558 1593.47 1550.13 1609.72ZM1477.87 1562.72C1454.5 1571.47 1448.5 1602.97 1450.25 1625.22C1450.61 1636.02 1453.83 1646.54 1459.58 1655.7C1465.34 1664.86 1473.42 1672.33 1483 1677.34C1486.62 1678.96 1490.62 1679.49 1494.54 1678.88C1498.45 1678.26 1502.1 1676.53 1505.05 1673.88C1508 1671.24 1510.12 1667.8 1511.15 1663.97C1512.18 1660.15 1512.09 1656.11 1510.88 1652.34C1506.91 1642.35 1505.53 1631.51 1506.88 1620.84C1509 1604.84 1515.38 1586.09 1504.75 1571.72C1501.79 1567.57 1497.6 1564.47 1492.77 1562.85C1487.95 1561.24 1482.73 1561.19 1477.87 1562.72ZM1734.12 1711.47C1728.21 1710.96 1722.32 1712.74 1717.67 1716.43C1713.02 1720.13 1709.97 1725.46 1709.12 1731.34C1708.49 1737.66 1710.07 1744 1713.61 1749.27C1717.15 1754.54 1722.41 1758.41 1728.5 1760.22C1737.02 1763.03 1746.23 1763.03 1754.75 1760.22C1759.11 1758.49 1762.71 1755.25 1764.88 1751.09C1767.38 1747.07 1768.4 1742.29 1767.75 1737.59C1767.06 1733.21 1765.05 1729.14 1761.99 1725.92C1758.93 1722.71 1754.97 1720.5 1750.63 1719.59C1749.84 1718.55 1748.91 1717.63 1747.88 1716.84C1743.91 1713.76 1739.13 1711.89 1734.12 1711.47ZM1542.5 1409.84C1521.5 1431.34 1530 1480.22 1554 1496.72C1557.09 1499.06 1560.74 1500.56 1564.59 1501.07C1568.44 1501.57 1572.35 1501.05 1575.94 1499.58C1579.53 1498.1 1582.67 1495.71 1585.05 1492.64C1587.43 1489.57 1588.96 1485.93 1589.5 1482.09C1589.87 1477.14 1589.87 1472.17 1589.5 1467.22C1589.5 1461.84 1588.75 1458.47 1589.5 1454.72C1591.37 1444.03 1591.75 1433.13 1590.63 1422.34C1589.65 1417.22 1587.25 1412.49 1583.69 1408.68C1580.13 1404.88 1575.56 1402.16 1570.52 1400.85C1565.48 1399.54 1560.17 1399.69 1555.21 1401.28C1550.25 1402.87 1545.84 1405.84 1542.5 1409.84ZM1406.88 1720.84C1378 1755.09 1425.63 1813.84 1463 1814.97C1475.5 1814.97 1490.88 1802.47 1483.13 1788.72C1476.88 1777.72 1468.5 1767.97 1463 1756.59C1456.25 1742.59 1454.63 1726.22 1440.88 1716.72C1435.75 1712.95 1429.38 1711.27 1423.06 1712.04C1416.74 1712.81 1410.95 1715.95 1406.88 1720.84ZM2096.5 1709.97C2091.79 1710.67 2087.4 1712.76 2083.89 1715.96C2080.37 1719.17 2077.89 1723.35 2076.75 1727.97C2072.75 1741.84 2072.25 1754.22 2061.88 1765.47C2050.65 1774.3 2040.57 1784.5 2031.88 1795.84C2030.42 1798.67 2029.73 1801.83 2029.87 1805.01C2030.01 1808.19 2030.97 1811.28 2032.65 1813.97C2034.34 1816.67 2036.7 1818.88 2039.5 1820.39C2042.3 1821.9 2045.44 1822.66 2048.63 1822.59C2070.45 1819.91 2090.44 1809 2104.5 1792.09C2102 1768.34 2099.5 1740.47 2096.63 1709.47L2096.5 1709.97ZM2034 1606.84C2027 1623.84 2028.25 1643.09 2022.38 1660.84C2017.22 1677.11 2011.08 1693.06 2004 1708.59C1998.75 1719.84 2009.25 1737.59 2022.88 1731.59C2045.03 1723.08 2063.16 1706.52 2073.63 1685.22C2083.13 1665.59 2093.63 1632.59 2084.5 1611.72C2075.38 1590.84 2044.38 1581.72 2033.75 1606.34L2034 1606.84ZM1962.75 1777.22C1952.36 1790.64 1939.07 1801.53 1923.88 1809.09C1920.25 1810.21 1916.91 1812.1 1914.07 1814.61C1911.23 1817.12 1908.96 1820.21 1907.41 1823.67C1905.85 1827.13 1905.05 1830.87 1905.05 1834.67C1905.06 1838.46 1905.87 1842.21 1907.43 1845.66C1908.99 1849.11 1911.27 1852.2 1914.12 1854.71C1916.96 1857.21 1920.31 1859.09 1923.93 1860.2C1927.55 1861.32 1931.37 1861.65 1935.13 1861.18C1938.9 1860.71 1942.51 1859.44 1945.75 1857.47C1958.68 1851.92 1970.24 1843.61 1979.62 1833.11C1988.99 1822.62 1995.95 1810.19 2000 1796.72C2005.88 1775.09 1976.63 1760.97 1962.5 1776.72L1962.75 1777.22ZM1848.5 1164.72C1855.48 1166.19 1862.77 1164.91 1868.83 1161.14C1874.89 1157.36 1879.25 1151.39 1881 1144.47C1888 1117.59 1864 1089.97 1845 1073.22C1826 1056.47 1799.25 1041.22 1772.62 1049.84C1769.08 1050.99 1765.89 1053.02 1763.35 1055.75C1760.81 1058.48 1759.01 1061.81 1758.13 1065.43C1757.24 1069.05 1757.29 1072.84 1758.27 1076.43C1759.26 1080.02 1761.14 1083.31 1763.75 1085.97C1775.38 1100.47 1791.5 1110.97 1803.88 1125.22C1816.25 1139.47 1826.5 1160.59 1848.25 1164.22L1848.5 1164.72ZM1944.38 1270.84C1954.88 1255.72 1946.75 1233.34 1939.25 1218.97C1935.26 1211.04 1929.05 1204.44 1921.38 1199.97C1916.21 1196.66 1909.95 1195.53 1903.96 1196.82C1897.97 1198.11 1892.73 1201.71 1889.38 1206.84C1885.97 1213.95 1885.43 1222.1 1887.88 1229.59C1888.92 1233.51 1890.34 1237.32 1892.13 1240.97V1242.09V1243.09C1894.36 1255.03 1899.42 1266.26 1906.88 1275.84C1909.46 1278.44 1912.6 1280.41 1916.07 1281.59C1919.54 1282.77 1923.23 1283.13 1926.87 1282.65C1930.5 1282.16 1933.97 1280.85 1937 1278.8C1940.04 1276.75 1942.56 1274.03 1944.38 1270.84ZM2008.88 1181.34C2006.43 1150.46 1994.36 1121.13 1974.38 1097.47C1959.38 1078.09 1933.38 1047.47 1905.88 1054.09C1902.95 1055 1900.4 1056.83 1898.6 1059.31C1896.8 1061.79 1895.84 1064.78 1895.88 1067.84C1894.13 1088.97 1918.38 1111.59 1928.88 1128.47C1941.38 1149.72 1951.25 1173.22 1964.75 1194.34C1967.69 1198.44 1971.86 1201.52 1976.65 1203.12C1981.43 1204.72 1986.61 1204.77 1991.43 1203.26C1996.25 1201.75 2000.47 1198.76 2003.49 1194.71C2006.51 1190.66 2008.17 1185.76 2008.25 1180.72L2008.88 1181.34ZM1914.5 1395.34C1919.07 1396.34 1923.8 1396.34 1928.38 1395.34C1935.3 1393.21 1941.16 1388.51 1944.75 1382.22C1948.11 1375.51 1949.78 1368.09 1949.63 1360.59C1949.4 1353.49 1947.47 1346.54 1944 1340.34L1939.88 1335.22L1934.38 1331.22C1930.93 1329.44 1927.14 1328.47 1923.27 1328.36C1919.4 1328.26 1915.56 1329.02 1912.02 1330.61C1908.49 1332.2 1905.36 1334.56 1902.87 1337.52C1900.38 1340.48 1898.58 1343.97 1897.63 1347.72C1895.54 1355 1894.08 1362.44 1893.25 1369.97L1894.38 1376.84C1895.25 1380.29 1896.97 1383.47 1899.38 1386.09C1903.15 1390.45 1908.24 1393.48 1913.88 1394.72L1914.5 1395.34ZM2000.75 1315.72C2005.63 1315.46 2010.31 1313.65 2014.09 1310.55C2017.87 1307.44 2020.55 1303.21 2021.75 1298.47C2023.69 1288.76 2023.05 1278.72 2019.88 1269.34C2018.01 1260.41 2013.68 1252.19 2007.38 1245.59C2005.12 1243.5 2002.36 1242.04 1999.37 1241.34C1996.37 1240.64 1993.25 1240.72 1990.3 1241.59C1987.35 1242.46 1984.68 1244.08 1982.54 1246.3C1980.41 1248.51 1978.89 1251.24 1978.13 1254.22C1977.12 1261.51 1977.12 1268.92 1978.13 1276.22C1978.13 1279.34 1978.13 1282.47 1978.13 1285.72C1978.06 1290.43 1978.56 1295.13 1979.63 1299.72C1981.02 1304.09 1983.75 1307.92 1987.42 1310.67C1991.1 1313.43 1995.54 1314.97 2000.13 1315.09L2000.75 1315.72Z" fill="#030402"/>
<path d="M1956.88 1105.59C1909.25 1101.22 1848.25 999.466 1836.63 934.841C1835.88 930.341 1854.87 892.716 1875.75 845.966C1888.25 817.591 1901.75 785.591 1911.75 755.591L2084.75 864.466C2061.41 898.427 2042.31 935.116 2027.87 973.716C2026.58 977.791 2025.66 981.975 2025.13 986.216C2025.17 986.924 2025.17 987.633 2025.13 988.341C2020.75 1013.34 2003 1109.84 1956.88 1105.59Z" fill="#D3766A"/>
<path d="M2025.13 986.466C2025.16 987.174 2025.16 987.883 2025.13 988.591C2018.46 987.286 2011.9 985.49 2005.5 983.216C1897.25 944.216 1916.38 802.216 1924 762.966L1967.13 790.216L2085.25 865.216C2061.92 899.163 2042.86 935.856 2028.5 974.466C2027.01 978.355 2025.88 982.371 2025.13 986.466Z" fill="#263238"/>
<path d="M1929.88 555.216C1894.13 619.591 1887.88 826.341 1927.5 881.216C1984.75 960.716 2099.75 991.716 2172.63 918.716C2243.25 847.216 2246.5 577.591 2200.5 525.591C2132.5 448.341 1982.63 460.091 1929.88 555.216Z" fill="#D3766A"/>
<path d="M2095.88 722.341C2095.88 722.341 2094.75 722.341 2094.75 723.591C2094.75 737.841 2092.25 754.091 2079.25 758.341V759.216C2095.13 757.466 2098.13 735.841 2095.88 722.341Z" fill="#263238"/>
<path d="M2083.75 707.091C2060.88 704.591 2057.5 750.341 2078.63 752.716C2099.75 755.091 2102.88 709.216 2083.75 707.091Z" fill="#263238"/>
<path d="M2177.88 727.216C2177.88 727.216 2178.88 727.966 2178.88 728.591C2177.25 742.716 2177.88 759.216 2190.25 764.841C2190.25 764.841 2190.25 765.841 2190.25 765.716C2174.63 762.216 2174.13 740.341 2177.88 727.216Z" fill="#263238"/>
<path d="M2191.75 713.466C2214.63 713.466 2212.75 759.341 2191.75 759.341C2170.75 759.341 2172.5 713.341 2191.75 713.466Z" fill="#263238"/>
<path d="M2102.25 697.841C2095.88 699.216 2089.75 699.341 2083.5 700.091C2077.03 701.784 2070.17 701.301 2064 698.716C2062.2 697.531 2060.85 695.785 2060.15 693.751C2059.45 691.716 2059.44 689.506 2060.13 687.466C2062.17 683.738 2065.17 680.618 2068.82 678.423C2072.46 676.227 2076.62 675.035 2080.88 674.966C2089.51 673.306 2098.45 675.005 2105.88 679.716C2107.42 680.877 2108.6 682.451 2109.29 684.256C2109.98 686.061 2110.15 688.025 2109.77 689.919C2109.39 691.814 2108.48 693.563 2107.15 694.964C2105.82 696.366 2104.12 697.363 2102.25 697.841Z" fill="#263238"/>
<path d="M2212.25 670.841C2206.18 669.138 2200.21 667.093 2194.38 664.716C2187.8 663.476 2181.82 660.091 2177.38 655.091C2176.26 653.259 2175.8 651.108 2176.04 648.98C2176.29 646.851 2177.25 644.867 2178.75 643.341C2182.17 640.731 2186.22 639.097 2190.49 638.613C2194.77 638.128 2199.09 638.812 2203 640.591C2211.44 642.902 2218.74 648.242 2223.5 655.591C2224.49 657.335 2224.95 659.328 2224.83 661.329C2224.71 663.33 2224.01 665.253 2222.82 666.866C2221.63 668.479 2220 669.713 2218.13 670.418C2216.25 671.124 2214.21 671.271 2212.25 670.841Z" fill="#263238"/>
<path d="M2085.5 835.091C2103.91 830.684 2123.09 830.684 2141.5 835.091C2143.13 835.091 2144.75 831.841 2145.13 830.341L2146.13 800.341C2150 802.591 2169.5 812.841 2169.5 807.341C2171.53 758.582 2168.56 709.743 2160.63 661.591C2160.54 661.311 2160.36 661.066 2160.13 660.893C2159.89 660.719 2159.61 660.625 2159.31 660.625C2159.02 660.625 2158.73 660.719 2158.5 660.893C2158.26 661.066 2158.09 661.311 2158 661.591C2156 706.716 2161.75 751.716 2160.38 797.091C2153.48 793.268 2146.07 790.448 2138.38 788.716C2136.75 788.716 2138.38 820.591 2138.38 825.341C2121.17 819.414 2102.33 820.446 2085.88 828.216C2079.38 832.341 2076.75 837.841 2085.5 835.091Z" fill="#263238"/>
<path d="M2048.5 864.841C2051.63 868.341 2054.75 873.091 2059.75 873.841C2065 874.092 2070.25 873.196 2075.13 871.216C2075.13 871.216 2076 871.216 2075.13 871.966C2072.97 874.619 2070.13 876.629 2066.91 877.775C2063.69 878.922 2060.22 879.161 2056.88 878.466C2054.14 877.592 2051.72 875.947 2049.9 873.73C2048.09 871.512 2046.95 868.816 2046.63 865.966C2046.88 864.591 2048 864.341 2048.5 864.841Z" fill="#263238"/>
<path opacity="0.2" d="M1990.25 489.591C1988.38 521.716 1980.75 621.341 1965.25 641.591C1949.75 661.841 1917 708.966 1900.38 716.591C1902.63 650.216 1912.88 587.091 1930 554.091C1944.04 527.651 1964.83 505.398 1990.25 489.591Z" fill="#263238"/>
<path d="M2168.38 586.966C2159.64 595.862 2148.76 602.371 2136.79 605.873C2124.82 609.374 2112.16 609.75 2100 606.966C2087.56 604.198 2076.04 598.269 2066.56 589.751C2057.08 581.233 2049.96 570.415 2045.88 558.341C2045.88 557.591 2044.5 558.341 2044.75 558.341C2047.93 571.377 2054.62 583.292 2064.09 592.791C2073.57 602.29 2085.47 609.008 2098.5 612.216C2111.51 614.698 2124.94 613.693 2137.43 609.302C2149.92 604.911 2161.03 597.291 2169.63 587.216C2170.38 587.341 2169.38 586.216 2168.38 586.966Z" fill="#263238"/>
<path d="M2105.62 401.716C2086.41 400.416 2067.19 403.971 2049.71 412.054C2032.24 420.136 2017.07 432.486 2005.62 447.966C1995.87 463.72 1991.73 482.31 1993.88 500.716H1995.5C1995.74 484.566 2000.34 468.78 2008.81 455.027C2017.28 441.275 2029.31 430.068 2043.63 422.591C2059.27 413.83 2076.74 408.809 2094.65 407.92C2112.56 407.031 2130.44 410.298 2146.88 417.466C2163.04 424.133 2176.33 436.311 2184.38 451.841C2185.13 453.466 2188.38 452.716 2187.75 451.091C2177.5 423.841 2144.37 403.591 2105.62 401.716Z" fill="#263238"/>
<path d="M2344.38 510.716C2338.94 489.554 2326.18 470.999 2308.38 458.341C2283.38 440.466 2254.13 440.716 2224.88 441.716C2224 441.716 2224.13 442.966 2224.88 442.841C2249.74 440.244 2274.83 444.889 2297.13 456.216C2315.27 467.104 2329.09 483.929 2336.25 503.841C2343.06 524.263 2342.27 546.459 2334.03 566.346C2325.78 586.234 2310.64 602.478 2291.38 612.091C2280.16 617.361 2267.99 620.279 2255.61 620.666C2243.23 621.053 2230.89 618.9 2219.38 614.341C2218.5 614.341 2217.75 615.216 2218.63 615.716C2234.21 622.6 2251.41 624.99 2268.29 622.614C2285.16 620.238 2301.03 613.192 2314.11 602.271C2327.19 591.35 2336.96 576.989 2342.3 560.81C2347.65 544.632 2348.37 527.281 2344.38 510.716Z" fill="#263238"/>
<path d="M1917.38 595.841C1917.38 595.841 1882.88 517.216 1919.75 475.966C1940.63 452.716 2003.38 460.716 2003.38 460.716C2022.12 436.921 2049.55 421.544 2079.63 417.966C2133.25 409.591 2194.38 445.841 2194.38 445.841C2194.38 445.841 2246.63 420.841 2291.5 451.216C2354 493.591 2338.38 592.716 2270.13 619.716C2222.13 638.841 2162.38 593.091 2162.38 593.091C2156.38 593.091 2091.63 626.091 2049 567.341C2049 567.341 2008.5 598.216 1976.13 571.966C1969.97 581.496 1961.03 588.9 1950.52 593.172C1940.01 597.443 1928.43 598.375 1917.38 595.841Z" fill="#263238"/>
<path d="M1937.75 726.466C1937.75 726.466 1905 653.091 1872.63 663.966C1840.25 674.841 1856 774.591 1888 794.091C1891.9 796.803 1896.3 798.704 1900.95 799.683C1905.6 800.662 1910.4 800.698 1915.06 799.788C1919.72 798.879 1924.16 797.044 1928.1 794.39C1932.04 791.737 1935.4 788.319 1938 784.341L1937.75 726.466Z" fill="#D3766A"/>
<path d="M1877.88 692.216V693.091C1900.13 707.466 1908.5 732.341 1912.88 757.216C1911.93 754.535 1910.42 752.091 1908.44 750.052C1906.47 748.013 1904.07 746.428 1901.42 745.406C1898.77 744.383 1895.93 743.949 1893.09 744.132C1890.26 744.315 1887.5 745.111 1885 746.466C1884.25 746.466 1885 747.841 1885 747.841C1889.55 747.315 1894.16 748.24 1898.15 750.484C1902.15 752.729 1905.33 756.179 1907.25 760.341C1910.64 767.102 1913.24 774.233 1915 781.591C1915 783.966 1919.75 783.591 1919.5 781.591C1925.88 749.341 1910.25 701.716 1877.88 692.216Z" fill="#263238"/>
<path d="M3670.35 872.098L2324.57 1284.32L2567.21 2076.49L3912.99 1664.27L3670.35 872.098Z" fill="#557B99"/>
<path opacity="0.2" d="M3670.35 872.098L2324.57 1284.32L2567.21 2076.49L3912.99 1664.27L3670.35 872.098Z" fill="black"/>
<path opacity="0.2" d="M3670.29 872.104L3218.03 1010.63L3460.67 1802.8L3912.93 1664.28L3670.29 872.104Z" fill="black"/>
<path d="M3648.63 912.466C3633.38 982.632 3618.54 1052.8 3604.13 1122.97L3561.5 1333.97L3520.25 1545.84C3506.75 1616.34 3493.58 1686.97 3480.75 1757.72C3496 1687.63 3510.83 1617.47 3525.25 1547.22L3567.88 1336.22L3609.13 1124.84C3622.63 1054.01 3635.79 983.216 3648.63 912.466Z" fill="#557B99"/>
<path d="M3870.75 1637.72C3820.75 1586.38 3770.29 1535.26 3719.38 1484.34L3566.88 1332.34L3413.38 1181.47C3362.04 1131.47 3310.46 1081.47 3258.63 1031.47C3308.63 1082.88 3359.08 1134.01 3410 1184.84L3562.5 1336.84L3716 1487.72C3767.42 1538.22 3819 1588.22 3870.75 1637.72Z" fill="#557B99"/>
<path d="M2583.04 1386.4L2590.45 1384.13L2558.56 1280.03L2551.15 1282.3L2583.04 1386.4Z" fill="#263238"/>
<path d="M2565.44 1391.69L2572.85 1389.42L2540.96 1285.32L2533.55 1287.59L2565.44 1391.69Z" fill="#263238"/>
<path d="M2547.67 1397.36L2555.08 1395.09L2523.2 1290.98L2515.79 1293.25L2547.67 1397.36Z" fill="#263238"/>
<path d="M2530.09 1402.46L2537.5 1400.19L2505.63 1296.08L2498.22 1298.35L2530.09 1402.46Z" fill="#263238"/>
<path d="M2512.35 1407.97L2519.76 1405.7L2487.87 1301.6L2480.46 1303.87L2512.35 1407.97Z" fill="#263238"/>
<path d="M2494.71 1413.26L2502.12 1410.99L2470.23 1306.89L2462.82 1309.16L2494.71 1413.26Z" fill="#263238"/>
<path d="M2476.86 1419.08L2484.27 1416.81L2452.39 1312.71L2444.98 1314.98L2476.86 1419.08Z" fill="#263238"/>
<path d="M2459.2 1424.34L2466.61 1422.07L2434.71 1317.97L2427.3 1320.24L2459.2 1424.34Z" fill="#263238"/>
<path d="M2441.38 1429.95L2448.79 1427.68L2416.9 1323.58L2409.49 1325.85L2441.38 1429.95Z" fill="#263238"/>
<path d="M2633.5 1265.72L2602.75 1266.47L2669.38 1245.84L2643.38 1262.59L2655.13 1300.84C2676.25 1297.22 2690.5 1314.84 2701.25 1349.84L2634.63 1370.84C2623.88 1335.97 2625.75 1313.34 2645.25 1304.47L2633.5 1265.72Z" fill="#263238"/>
<path d="M2700.5 1292.34L2717.88 1286.97L2702.25 1235.97L2746.75 1222.34L2762.38 1273.34L2779.88 1267.97L2756.38 1333.22L2700.5 1292.34Z" fill="#263238"/>
<path opacity="0.1" d="M2324.63 1284.34L2344.5 1349.34L3274.75 1195.84L3218 1010.72L2324.63 1284.34Z" fill="black"/>
<path d="M4087.38 1754.09L3635 1892.59L3460.63 1802.84L3913 1664.22L4087.38 1754.09Z" fill="#557B99"/>
<path opacity="0.2" d="M4087.38 1754.09L3635 1892.59L3460.63 1802.84L3913 1664.22L4087.38 1754.09Z" fill="black"/>
<path d="M2473 2248.59L2925.38 2109.97L3019.5 1937.97L2567.13 2076.47L2473 2248.59Z" fill="#557B99"/>
<path opacity="0.1" d="M2473 2248.59L2925.38 2109.97L3019.5 1937.97L2567.13 2076.47L2473 2248.59Z" fill="black"/>
<path d="M1728.5 1162.09C1794.63 1383.22 1978.5 1762.09 2046.75 1808.34C2106.88 1849.72 2395.5 1812.09 2521.75 1784.72C2569 1774.59 2471.75 1413.84 2421.75 1425.72C2361.25 1440.09 2181.13 1475.72 2168.38 1465.84C2155.63 1455.97 1980.88 1228.34 1855.88 1094.84C1742.38 973.341 1703.5 1078.47 1728.5 1162.09Z" fill="#D3766A"/>
<path d="M2395.75 1455.09C2395.75 1455.09 2491.38 1347.34 2559.13 1306.22C2630.64 1265.28 2711.03 1242.33 2793.38 1239.34C2882.25 1235.84 3099.63 1288.59 3095.25 1353.84C3091.38 1412.97 2872 1347.72 2872 1347.72C2872 1347.72 3106.63 1377.34 3088.88 1447.72C3071.13 1518.09 2820.75 1427.72 2820.75 1427.72C2820.75 1427.72 3061.13 1463.47 3031.88 1533.34C3009.38 1585.97 2778 1516.97 2778 1516.97C2778 1516.97 2984.5 1549.22 2963.63 1604.47C2940.63 1665.34 2723 1615.09 2723 1615.09C2646.63 1746.09 2556.5 1777.59 2489.88 1791.72C2473.25 1794.59 2395.75 1455.09 2395.75 1455.09Z" fill="#D3766A"/>
<path d="M2791.5 1332.22C2819.13 1334.72 2847.25 1337.09 2874.63 1341.97C2902 1346.84 2929.13 1352.84 2956 1360.34C2991.2 1369.39 3025.26 1382.43 3057.5 1399.22C2998.13 1373.59 2900.38 1354.34 2873 1349.22C2845.63 1344.09 2818.5 1337.97 2791.25 1333.09C2790.5 1333.34 2790.75 1332.22 2791.5 1332.22Z" fill="#263238"/>
<path d="M2771.88 1430.84C2807 1435.47 2842.25 1438.84 2877.25 1445.09C2912.25 1451.34 2944.62 1460.34 2979 1468.97C2981.62 1469.59 2980.38 1470.84 2977.75 1470.22C2943 1462.97 2910.5 1458.97 2875.75 1452.22C2841 1445.47 2806.5 1437.22 2771.62 1431.59C2771.12 1431.59 2771.25 1430.72 2771.88 1430.84Z" fill="#263238"/>
<path d="M2739.75 1512.34C2793.96 1518.23 2847.41 1529.7 2899.25 1546.59C2901.88 1547.34 2900.12 1548.72 2897.37 1548.09C2844.62 1535.59 2803.25 1525.59 2739.63 1514.22C2738.63 1514.09 2738.63 1512.22 2739.75 1512.34Z" fill="#263238"/>
<path d="M2493.13 1848.72L2409.13 1417.22L2175 1453.97C2085.5 1346.47 1906.75 1131.47 1833.75 1066.47C1748.13 990.091 1689.5 1044.59 1718.88 1157.72C1786.13 1416.34 1990.13 1798.34 2045.38 1835.84C2124.63 1889.59 2493.13 1848.72 2493.13 1848.72Z" fill="#557B99"/>
<path opacity="0.1" d="M2334.63 1477.09C2346.17 1479.6 2357.94 1480.98 2369.75 1481.22C2394.75 1484.59 2405.75 1521.47 2383 1535.47C2371.05 1542.82 2357.55 1547.28 2343.57 1548.47C2329.59 1549.67 2315.52 1547.57 2302.5 1542.34C2277.5 1532.59 2256.38 1508.34 2261.75 1479.84C2262.68 1474.53 2264.97 1469.55 2268.4 1465.38C2271.82 1461.21 2276.27 1458.01 2281.3 1456.07C2286.34 1454.13 2291.79 1453.53 2297.12 1454.32C2302.46 1455.11 2307.5 1457.27 2311.75 1460.59C2318.68 1467 2326.36 1472.54 2334.63 1477.09ZM2309.63 1432.84C2317.47 1436.62 2326.11 1438.46 2334.81 1438.2C2343.51 1437.94 2352.02 1435.58 2359.63 1431.34C2362.43 1429.47 2364.67 1426.88 2366.13 1423.84L2309.63 1432.84ZM2188 1451.84C2197.95 1459.11 2210.24 1462.45 2222.5 1461.22C2226.73 1460.64 2230.62 1458.59 2233.5 1455.44C2236.37 1452.29 2238.06 1448.23 2238.25 1443.97L2188 1451.84ZM2453 1644.47C2448.05 1646.54 2444.05 1650.37 2441.75 1655.22C2431.25 1676.34 2445.88 1699.09 2466.75 1712.72L2453 1644.47ZM2076.5 1727.47C2072.5 1741.34 2072 1753.72 2061.63 1764.97C2050.45 1773.97 2040.46 1784.34 2031.88 1795.84C2030.42 1798.67 2029.73 1801.83 2029.87 1805.01C2030.01 1808.19 2030.97 1811.28 2032.65 1813.97C2034.34 1816.67 2036.7 1818.88 2039.5 1820.39C2042.3 1821.9 2045.44 1822.66 2048.63 1822.59C2070.4 1819.91 2090.38 1809.15 2104.6 1792.43C2118.81 1775.71 2126.23 1754.27 2125.38 1732.34C2124.67 1726.72 2122.08 1721.51 2118.03 1717.55C2113.98 1713.6 2108.7 1711.13 2103.07 1710.57C2097.43 1710 2091.77 1711.37 2087.02 1714.43C2082.26 1717.5 2078.68 1722.1 2076.88 1727.47H2076.5ZM2033.38 1606.34C2026.38 1623.34 2027.63 1642.59 2021.75 1660.34C2016.59 1676.61 2010.46 1692.56 2003.38 1708.09C1998.13 1719.34 2008.63 1737.09 2022.25 1731.09C2044.41 1722.58 2062.54 1706.02 2073 1684.72C2082.5 1665.09 2093 1632.09 2083.88 1611.22C2074.75 1590.34 2044.38 1581.72 2033.75 1606.34H2033.38ZM1847.88 1164.22C1854.86 1165.69 1862.14 1164.41 1868.2 1160.64C1874.26 1156.86 1878.62 1150.89 1880.38 1143.97C1887.38 1117.09 1863.38 1089.47 1844.38 1072.72C1825.38 1055.97 1798.63 1040.72 1772 1049.34C1768.46 1050.49 1765.26 1052.52 1762.73 1055.25C1760.19 1057.98 1758.39 1061.31 1757.5 1064.93C1756.61 1068.55 1756.66 1072.34 1757.65 1075.93C1758.63 1079.52 1760.52 1082.81 1763.13 1085.47C1774.75 1099.97 1790.88 1110.47 1803.25 1124.72C1815.63 1138.97 1826.5 1160.59 1848.25 1164.22H1847.88ZM1944.38 1270.84C1954.88 1255.72 1946.75 1233.34 1939.25 1218.97C1935.26 1211.04 1929.05 1204.44 1921.38 1199.97C1916.21 1196.66 1909.95 1195.53 1903.96 1196.82C1897.97 1198.11 1892.73 1201.71 1889.38 1206.84C1885.97 1213.95 1885.43 1222.1 1887.88 1229.59C1888.92 1233.51 1890.34 1237.32 1892.13 1240.97V1242.09V1243.09C1894.36 1255.03 1899.42 1266.26 1906.88 1275.84C1909.46 1278.44 1912.6 1280.41 1916.07 1281.59C1919.54 1282.77 1923.23 1283.13 1926.87 1282.65C1930.5 1282.16 1933.97 1280.85 1937 1278.8C1940.04 1276.75 1942.56 1274.03 1944.38 1270.84ZM1914.5 1395.84C1919.07 1396.84 1923.8 1396.84 1928.38 1395.84C1935.3 1393.71 1941.16 1389.01 1944.75 1382.72C1948.11 1376.01 1949.78 1368.59 1949.63 1361.09C1949.4 1353.99 1947.47 1347.04 1944 1340.84L1939.88 1335.72L1934.38 1331.72C1930.93 1329.94 1927.14 1328.96 1923.27 1328.86C1919.4 1328.76 1915.56 1329.52 1912.02 1331.11C1908.49 1332.7 1905.36 1335.06 1902.87 1338.02C1900.38 1340.98 1898.58 1344.47 1897.63 1348.22C1895.54 1355.5 1894.08 1362.94 1893.25 1370.47L1894.38 1377.34C1895.25 1380.79 1896.97 1383.97 1899.38 1386.59C1903.22 1390.77 1908.3 1393.62 1913.88 1394.72L1914.5 1395.84ZM2019.38 1268.97L1994.38 1240.84C1990.38 1240.36 1986.35 1241.38 1983.05 1243.68C1979.76 1245.99 1977.42 1249.43 1976.5 1253.34C1975.5 1260.64 1975.5 1268.04 1976.5 1275.34C1976.5 1278.47 1976.5 1281.59 1976.5 1284.84C1976.44 1289.55 1976.94 1294.25 1978 1298.84C1979.37 1303.6 1982.29 1307.76 1986.3 1310.66C1990.31 1313.56 1995.18 1315.03 2000.13 1314.84C2005.01 1314.59 2009.68 1312.78 2013.46 1309.67C2017.24 1306.57 2019.93 1302.33 2021.13 1297.59C2023 1288.06 2022.4 1278.2 2019.38 1268.97Z" fill="#030402"/>
<path d="M2412.38 1809.09C2402.25 1783.47 2378.5 1672.22 2372.88 1644.34C2367.25 1616.47 2348.63 1504.47 2343 1475.84C2343 1474.34 2344.75 1473.34 2345.13 1474.97C2351.13 1503.09 2378.75 1613.97 2384.63 1641.72C2390.5 1669.47 2412.88 1780.72 2413.88 1808.72C2413.92 1808.91 2413.89 1809.13 2413.79 1809.3C2413.68 1809.48 2413.51 1809.6 2413.31 1809.65C2413.11 1809.7 2412.9 1809.67 2412.73 1809.57C2412.55 1809.46 2412.42 1809.29 2412.38 1809.09Z" fill="#263238"/>
<path d="M2335.13 1860.84C2296.75 1863.09 2258.38 1863.97 2220 1863.72C2181.48 1863.88 2142.99 1861.67 2104.75 1857.09C2085.15 1855.15 2066 1850.09 2048 1842.09C2031.82 1830.67 2017.78 1816.49 2006.5 1800.22C1983.84 1768.94 1963.34 1736.15 1945.13 1702.09C1907.63 1634.72 1875.38 1564.59 1843.88 1494.84C1812.38 1425.09 1783.75 1353.34 1757.5 1281.09C1789.38 1350.97 1820.88 1420.97 1853.63 1490.34C1886.38 1559.72 1919.5 1628.84 1955.25 1696.47C1973.09 1730.2 1992.79 1762.91 2014.25 1794.47C2024.27 1810.17 2036.96 1824.01 2051.75 1835.34C2068.8 1843.2 2086.98 1848.31 2105.63 1850.47C2181.76 1859.69 2258.47 1863.16 2335.13 1860.84Z" fill="#263238"/>
<path d="M1781.88 1342.09C1776.74 1336.91 1772.1 1331.26 1768 1325.22C1763.76 1319.23 1760.51 1312.61 1758.38 1305.59C1760.26 1308.7 1762.3 1311.7 1764.5 1314.59L1770.63 1323.47C1774.74 1329.45 1778.5 1335.67 1781.88 1342.09Z" fill="#263238"/>
<path d="M1979.25 1226.22C2010.88 1257.97 2039.25 1292.84 2068.63 1326.22C2098 1359.59 2126.13 1394.84 2156.13 1428.09L2167.25 1440.59C2169.25 1442.47 2171.13 1444.59 2173 1446.34C2174.88 1448.09 2174.88 1447.97 2175.75 1448.72C2175.75 1448.72 2176.63 1448.72 2177.13 1448.72C2186.63 1448.72 2198.63 1446.59 2209.38 1445.22L2275.88 1435.34C2320.13 1428.84 2364.5 1422.09 2408.88 1416.09L2410.63 1427.09L2408 1416.22H2408.63C2364.75 1425.59 2321.13 1433.97 2276.63 1442.09C2254.5 1446.09 2232.38 1449.59 2210.13 1452.97C2198.75 1454.94 2187.27 1456.28 2175.75 1456.97C2174.84 1457.08 2173.91 1457.08 2173 1456.97C2171.78 1456.6 2170.63 1456 2169.63 1455.22C2168.36 1454.24 2167.15 1453.19 2166 1452.09L2159.88 1446.09C2155.88 1441.97 2152.13 1437.84 2148.38 1433.59C2119 1399.47 2090.5 1364.97 2062.5 1329.97L2020.63 1277.34C2006.88 1260.97 1994.38 1242.97 1979.25 1226.22Z" fill="#263238"/>
<path d="M1995.63 1229.97C2000.33 1235.75 2004.52 1241.94 2008.13 1248.47C2011.65 1254.91 2014.14 1261.87 2015.5 1269.09C2014 1265.72 2012.13 1262.72 2010.38 1259.47L2005.25 1249.84C2001.69 1243.39 1998.47 1236.76 1995.63 1229.97Z" fill="#263238"/>
<path d="M496.375 4498.59C491.748 4381.63 493.376 4264.5 501.25 4147.72C518.489 3907.01 555.234 3668.1 611.125 3433.34C641.75 3301.09 679.5 3170.84 718.875 3041.09C720 3037.22 726.25 3038.34 725.25 3042.34C603.625 3500.34 503.75 3973.09 510.625 4449.09C512.625 4582.34 528 4713.22 540.625 4845.59C540.625 4849.22 535.125 4850.59 534.375 4846.97C509.25 4733.34 501.125 4614.34 496.375 4498.59Z" fill="#557B99"/>
<path d="M725.25 3041.72C725.25 3041.72 909.5 3509.47 868.25 3619.34C827 3729.22 741.875 3752.72 741.875 3752.72C741.875 3752.72 854.375 3913.72 775.875 4065.22C697.375 4216.72 522.125 4208.97 510.375 4380.22C510.375 4379.72 500.625 3663.97 725.25 3041.72Z" fill="#557B99"/>
<path d="M530.5 4084.22C530.192 4083.41 530.192 4082.52 530.5 4081.72C554.8 3762.39 614.799 3446.8 709.375 3140.84C709.375 3139.97 711.125 3140.22 710.875 3140.84C674.375 3277.59 642.125 3415.09 614.125 3553.34C638.747 3529.96 668.827 3513.12 701.625 3504.34C701.625 3504.34 702.5 3504.34 701.625 3505.22C667.007 3518.02 635.91 3538.84 610.875 3565.97C605.542 3592.97 600.333 3620.09 595.25 3647.34C636.375 3601.34 693.5 3578.47 750.625 3556.72C751.375 3556.72 751.875 3557.72 750.625 3557.97C691.125 3582.22 631.75 3613.47 591.5 3664.72C577.333 3742.3 564.833 3820.17 554 3898.34C583.79 3867.29 621.965 3845.58 663.875 3835.84C665.125 3835.84 665.875 3837.47 663.875 3837.84C620.619 3850.34 581.926 3875.14 552.5 3909.22H551.75C548.083 3936.72 544.625 3964.26 541.375 3991.84C565.119 3972.24 591.939 3956.7 620.75 3945.84C621.5 3945.84 621.875 3946.72 620.75 3946.97C592.534 3959.48 566.695 3976.77 544.375 3998.09C544.375 3998.09 544.375 3998.09 543.375 3998.09C540.375 4024.22 537.25 4050.47 534.625 4076.72C576.137 4026.58 629.986 3988.11 690.875 3965.09C690.998 3965.04 691.13 3965.02 691.262 3965.02C691.395 3965.02 691.526 3965.05 691.648 3965.1C691.77 3965.15 691.88 3965.23 691.973 3965.32C692.065 3965.42 692.138 3965.53 692.187 3965.65C692.237 3965.78 692.261 3965.91 692.26 3966.04C692.258 3966.17 692.23 3966.3 692.178 3966.43C692.126 3966.55 692.05 3966.66 691.955 3966.75C691.86 3966.84 691.748 3966.92 691.625 3966.97C631.482 3993.46 578.645 4034.12 537.625 4085.47C537.203 4086.07 536.597 4086.52 535.897 4086.74C535.198 4086.97 534.444 4086.96 533.75 4086.72C529.75 4126.97 526.125 4167.34 523.25 4207.72H522.25C524.25 4166.84 527.125 4125.47 530.5 4084.22Z" fill="#263238"/>
<path d="M678.5 3458.34C711.858 3437.56 749.99 3425.68 789.25 3423.84C790.125 3423.84 790.25 3425.09 789.25 3425.22C751.328 3432.23 714.507 3444.25 679.75 3460.97C679.423 3461.03 679.083 3460.98 678.786 3460.83C678.488 3460.69 678.248 3460.44 678.105 3460.14C677.961 3459.84 677.922 3459.5 677.994 3459.17C678.065 3458.85 678.244 3458.55 678.5 3458.34Z" fill="#263238"/>
<path d="M656.125 3953.47C681.781 3938.82 709.992 3929.19 739.25 3925.09C740.25 3925.09 740.375 3926.47 739.25 3926.59C710.587 3932.35 682.863 3942.07 656.875 3955.47C656 3955.97 655 3954.09 656.125 3953.47Z" fill="#263238"/>
<path d="M12 3626.97C89.9072 3680.87 161.448 3743.44 225.25 3813.47C291.221 3887.48 342.167 3973.62 375.25 4067.09C445.166 4261.88 482.787 4466.79 486.625 4673.72C489.02 4788.32 477.987 4902.81 453.75 5014.84C453.538 5015.62 453.04 5016.3 452.355 5016.73C451.67 5017.17 450.848 5017.33 450.049 5017.19C449.25 5017.05 448.533 5016.61 448.038 5015.97C447.543 5015.33 447.307 5014.52 447.375 5013.72C477.567 4815.99 476.555 4614.75 444.375 4417.34C412.625 4223.84 363 4013.34 240 3856.09C172.375 3770.84 88.875 3703.22 6.87504 3633.34C2.00004 3629.84 7.50003 3623.84 12 3626.97Z" fill="#557B99"/>
<path d="M459.125 4534.47C414.81 4462.7 362.702 4396.04 303.75 4335.72C211.5 4243.59 133.875 4178.09 121.875 4117.09C109.875 4056.09 214.25 4011.34 214.25 4011.34C214.25 4011.34 86.625 4034.22 51.75 3980.59C16.875 3926.97 0 3617.09 0 3617.09C0 3617.09 231.875 3783.34 340.25 4014.97C448.625 4246.59 459.125 4534.47 459.125 4534.47Z" fill="#557B99"/>
<path d="M82.8751 3908.34C98.1491 3906.16 113.616 3905.65 129 3906.84C130.875 3906.84 130.75 3910.09 129 3910.09C113.75 3910.09 98.5 3909.34 83.125 3910.09C81.875 3909.84 81.8751 3908.34 82.8751 3908.34Z" fill="#263238"/>
<path d="M249.875 4208.34C274.413 4208.85 298.664 4213.72 321.5 4222.72C321.5 4222.72 321.5 4223.84 321.5 4223.72C297.875 4218.09 274 4215.72 250.125 4211.84C247.75 4211.84 247.875 4208.34 249.875 4208.34Z" fill="#263238"/>
<path d="M300 4104.72C310.191 4104.63 320.365 4105.55 330.375 4107.47C331.375 4107.47 331.25 4109.34 330.375 4109.34C320.225 4109.85 310.05 4109.34 300 4107.84C299.66 4107.74 299.362 4107.54 299.149 4107.26C298.936 4106.98 298.821 4106.63 298.821 4106.28C298.821 4105.92 298.936 4105.58 299.149 4105.3C299.362 4105.02 299.66 4104.81 300 4104.72Z" fill="#263238"/>
<path d="M1139.38 3956.09C1063.9 3981.67 991.561 4015.72 923.75 4057.59C853.535 4102.44 792.631 4160.42 744.375 4228.34C642.767 4369.85 564.951 4527 514 4693.59C485.647 4785.79 468.113 4880.97 461.75 4977.22C461.75 4977.95 462.04 4978.64 462.555 4979.16C463.071 4979.68 463.771 4979.97 464.5 4979.97C465.229 4979.97 465.929 4979.68 466.445 4979.16C466.96 4978.64 467.25 4977.95 467.25 4977.22C488.373 4810.45 535.485 4648.03 606.875 4495.84C677.25 4346.59 766.125 4187.72 902 4088.97C976 4035.09 1059.13 3999.97 1142 3962.72C1146.88 3960.72 1144.38 3954.59 1139.38 3956.09Z" fill="#557B99"/>
<path d="M567.875 4587.09C620.295 4539.22 677.854 4497.3 739.5 4462.09C835.5 4408.84 913.375 4373.72 937.25 4327.22C961.125 4280.72 887.25 4220.22 887.25 4220.22C887.25 4220.22 985.125 4268.22 1025.75 4232.72C1066.38 4197.22 1151.63 3950.34 1151.63 3950.34C1151.63 3950.34 925.625 4030.84 784.375 4193.84C643.125 4356.84 567.875 4587.09 567.875 4587.09Z" fill="#557B99"/>
<path d="M755.5 4360.09C777.685 4358.54 799.962 4361.25 821.125 4368.09C821.125 4368.09 821.125 4369.22 821.125 4369.09C799.498 4365.46 777.662 4363.21 755.75 4362.34C755.452 4362.37 755.152 4362.29 754.918 4362.1C754.683 4361.91 754.533 4361.64 754.5 4361.34C754.467 4361.04 754.554 4360.74 754.741 4360.51C754.929 4360.27 755.202 4360.12 755.5 4360.09Z" fill="#263238"/>
<path d="M952.75 4101.34C962.866 4100.61 973.035 4101.2 983 4103.09C983.191 4103.16 983.356 4103.29 983.473 4103.46C983.589 4103.63 983.652 4103.82 983.652 4104.03C983.652 4104.23 983.589 4104.43 983.473 4104.6C983.356 4104.77 983.191 4104.9 983 4104.97C973.125 4103.84 963.25 4104.22 953.25 4103.97C952.942 4103.95 952.648 4103.83 952.416 4103.63C952.184 4103.43 952.026 4103.15 951.968 4102.85C951.911 4102.55 951.956 4102.23 952.098 4101.96C952.24 4101.69 952.469 4101.47 952.75 4101.34Z" fill="#263238"/>
<path d="M276.25 5288.97H786.5L713.75 4755.84L695.125 4619.22H367.625L349 4755.84L276.25 5288.97Z" fill="#455A64"/>
<path d="M349 4755.84H713.75L695.125 4619.22H367.625L349 4755.84Z" fill="#263238"/>
<path d="M320.625 4687.47H742V4571.72H320.625V4687.47Z" fill="#455A64"/>
<path d="M2994.38 280.466C2994.37 331.908 2980.07 382.337 2953.08 426.127C2926.08 469.917 2887.45 505.345 2841.5 528.46C2795.54 551.574 2744.06 561.465 2692.81 557.03C2641.56 552.595 2592.55 534.007 2551.25 503.341L2415.13 538.091L2471.75 411.466C2451.82 374.235 2440.64 332.949 2439.07 290.748C2437.49 248.547 2445.56 206.543 2462.66 167.929C2479.76 129.316 2505.44 95.1096 2537.74 67.9118C2570.05 40.7141 2608.13 21.241 2649.09 10.9733C2690.06 0.705695 2732.82 -0.0861172 2774.14 8.6581C2815.45 17.4023 2854.23 35.4523 2887.52 61.4355C2920.81 87.4188 2947.74 120.651 2966.25 158.605C2984.77 196.559 2994.39 238.236 2994.38 280.466Z" fill="white"/>
<path d="M2994.38 280.341C2994.36 331.847 2980.18 382.357 2953.38 426.341C2946.86 437.429 2939.68 448.115 2931.88 458.341C2923.58 468.133 2914.69 477.4 2905.25 486.091C2886.6 503.672 2865.56 518.527 2842.75 530.216C2819.87 541.895 2795.47 550.31 2770.25 555.216C2757.59 557.736 2744.77 559.323 2731.88 559.966C2719.02 561.029 2706.1 561.029 2693.25 559.966C2641.26 555.932 2591.41 537.54 2549.25 506.841L2553 507.591L2417.25 543.341L2406.25 546.216L2410.88 535.716L2467 408.841V414.091C2446.58 376.137 2435.18 333.994 2433.66 290.924C2432.14 247.854 2440.56 205.013 2458.25 165.716C2475.97 126.53 2502.34 91.8693 2535.38 64.341C2568.37 37.2186 2607.09 17.9218 2648.61 7.89839C2690.13 -2.12503 2733.39 -2.61476 2775.12 6.46602C2816.49 15.8751 2855.22 34.4103 2888.5 60.716C2921.6 86.9416 2948.32 120.329 2966.66 158.369C2985 196.409 2994.47 238.112 2994.38 280.341ZM2994.38 280.341C2994.35 216.84 2972.36 155.303 2932.12 106.178C2891.88 57.0535 2835.88 23.3681 2773.63 10.841C2732.67 2.68785 2690.39 3.97027 2650 14.591C2609.74 24.9884 2572.41 44.4893 2540.88 71.591C2509.63 98.9862 2484.72 132.853 2467.88 170.841C2451.26 208.722 2443.48 249.885 2445.13 291.216C2447.05 332.135 2457.98 372.126 2477.12 408.341L2478.5 410.966L2477.25 413.591L2420.13 540.091L2413.75 532.591L2550.13 498.841H2552.25L2553.87 500.091C2594.3 530.792 2642.47 549.621 2693 554.466C2705.48 555.385 2718.02 555.385 2730.5 554.466C2768.7 553.153 2806.17 543.647 2840.37 526.591C2863.19 515.483 2884.25 501.079 2902.87 483.841C2912.31 475.279 2921.2 466.137 2929.5 456.466C2937.46 446.52 2944.85 436.129 2951.62 425.341C2978.91 381.847 2993.7 331.682 2994.38 280.341Z" fill="#263238"/>
<path d="M2736 310.466V341.091C2736.09 344.151 2735.55 347.197 2734.42 350.041C2733.28 352.886 2731.58 355.47 2729.42 357.635C2727.25 359.799 2724.67 361.5 2721.83 362.631C2718.98 363.763 2715.94 364.302 2712.88 364.216C2709.84 364.216 2706.84 363.617 2704.04 362.453C2701.25 361.29 2698.7 359.584 2696.57 357.435C2694.43 355.286 2692.74 352.736 2691.59 349.931C2690.44 347.126 2689.86 344.122 2689.88 341.091V292.216C2689.88 292.216 2689.88 292.216 2689.88 291.216C2689.88 290.216 2689.88 291.216 2689.88 290.341C2690.03 284.279 2692.5 278.506 2696.78 274.206C2701.05 269.906 2706.81 267.405 2712.88 267.216C2720.01 267.563 2727.14 266.458 2733.84 263.967C2740.53 261.477 2746.65 257.652 2751.82 252.725C2757 247.798 2761.11 241.872 2763.93 235.307C2766.74 228.741 2768.19 221.672 2768.19 214.528C2768.19 207.385 2766.74 200.316 2763.93 193.75C2761.11 187.184 2757 181.258 2751.82 176.332C2746.65 171.405 2740.53 167.58 2733.84 165.089C2727.14 162.598 2720.01 161.493 2712.88 161.841C2703.74 161.812 2694.77 164.188 2686.84 168.73C2678.92 173.273 2672.34 179.821 2667.75 187.716C2666.21 190.379 2664.16 192.712 2661.72 194.581C2659.28 196.45 2656.49 197.818 2653.51 198.608C2650.54 199.398 2647.44 199.593 2644.39 199.182C2641.35 198.772 2638.41 197.764 2635.75 196.216C2633.14 194.671 2630.86 192.626 2629.05 190.197C2627.23 187.769 2625.92 185.006 2625.17 182.067C2624.43 179.128 2624.27 176.071 2624.72 173.072C2625.16 170.072 2626.19 167.19 2627.75 164.591C2635.97 150.431 2647.58 138.535 2661.54 129.971C2675.49 121.407 2691.36 116.442 2707.71 115.524C2724.05 114.605 2740.37 117.76 2755.2 124.706C2770.03 131.653 2782.9 142.172 2792.66 155.321C2802.41 168.47 2808.75 183.836 2811.1 200.04C2813.46 216.244 2811.75 232.779 2806.13 248.159C2800.51 263.539 2791.17 277.284 2778.92 288.159C2766.68 299.034 2751.93 306.699 2736 310.466ZM2736 413.591V422.091C2736.07 425.141 2735.52 428.173 2734.38 431.003C2733.24 433.833 2731.54 436.401 2729.37 438.553C2727.21 440.704 2724.63 442.393 2721.8 443.517C2718.96 444.641 2715.92 445.176 2712.88 445.091C2706.78 445.091 2700.93 442.668 2696.61 438.354C2692.3 434.041 2689.88 428.191 2689.88 422.091V413.591C2689.94 407.499 2692.38 401.673 2696.68 397.354C2700.97 393.035 2706.78 390.563 2712.88 390.466C2715.92 390.432 2718.94 391.008 2721.76 392.158C2724.59 393.308 2727.15 395.01 2729.3 397.164C2731.46 399.318 2733.16 401.881 2734.31 404.702C2735.46 407.523 2736.03 410.545 2736 413.591Z" fill="#557B99"/>
</svg>
