<svg width="2797" height="2084" viewBox="0 0 2797 2084" fill="none" xmlns="http://www.w3.org/2000/svg">
<path d="M2796.27 1831H0V1832.4H2796.27V1831Z" fill="#EBEBEB"/>
<path d="M2516.09 1920.98H2394.84V1922.38H2516.09V1920.98Z" fill="#EBEBEB"/>
<path d="M1927.58 1892.02H1736.82V1893.41H1927.58V1892.02Z" fill="#EBEBEB"/>
<path d="M2466.99 1869.09H2217.95V1870.48H2466.99V1869.09Z" fill="#EBEBEB"/>
<path d="M967.623 1897.27H905.322V1898.67H967.623V1897.27Z" fill="#EBEBEB"/>
<path d="M855.492 1897.27H640.794V1898.67H855.492V1897.27Z" fill="#EBEBEB"/>
<path d="M525.756 1873.67H370.842V1875.07H525.756V1873.67Z" fill="#EBEBEB"/>
<path d="M1325.43 1581.57H245.569C237.109 1581.56 229.001 1578.19 223.025 1572.2C217.048 1566.21 213.691 1558.1 213.691 1549.64V31.6538C213.765 23.2428 217.154 15.2004 223.123 9.27367C229.091 3.34691 237.157 0.0144086 245.569 0H1325.43C1333.9 0 1342.03 3.36441 1348.01 9.35309C1354 15.3418 1357.37 23.4642 1357.37 31.9335V1549.64C1357.37 1558.11 1354 1566.23 1348.01 1572.22C1342.03 1578.21 1333.9 1581.57 1325.43 1581.57ZM245.569 1.11851C237.48 1.13333 229.728 4.35696 224.013 10.0818C218.299 15.8067 215.089 23.565 215.089 31.6538V1549.64C215.089 1557.73 218.299 1565.49 224.013 1571.21C229.728 1576.94 237.48 1580.16 245.569 1580.17H1325.43C1333.53 1580.16 1341.29 1576.94 1347.01 1571.21C1352.73 1565.49 1355.95 1557.73 1355.97 1549.64V31.6538C1355.95 23.5599 1352.73 15.8017 1347.01 10.0784C1341.29 4.35514 1333.53 1.1333 1325.43 1.11851H245.569Z" fill="#EBEBEB"/>
<path d="M2535.16 1581.57H1455.24C1446.77 1581.56 1438.66 1578.19 1432.67 1572.2C1426.69 1566.22 1423.32 1558.1 1423.3 1549.64V31.6538C1423.39 23.2377 1426.79 15.1954 1432.77 9.27017C1438.75 3.34495 1446.82 0.0142514 1455.24 0H2535.16C2543.56 0.0291064 2551.61 3.36811 2557.57 9.2933C2563.53 15.2185 2566.91 23.2524 2566.98 31.6538V1549.64C2566.98 1558.09 2563.63 1566.19 2557.67 1572.18C2551.7 1578.17 2543.61 1581.54 2535.16 1581.57ZM1455.24 1.11851C1447.14 1.1333 1439.39 4.35514 1433.66 10.0784C1427.94 15.8017 1424.72 23.5599 1424.7 31.6538V1549.64C1424.72 1557.73 1427.94 1565.49 1433.66 1571.21C1439.39 1576.94 1447.14 1580.16 1455.24 1580.17H2535.16C2543.25 1580.16 2551.01 1576.94 2556.73 1571.21C2562.46 1565.49 2565.68 1557.73 2565.69 1549.64V31.6538C2565.68 23.5599 2562.46 15.8017 2556.73 10.0784C2551.01 4.35514 2543.25 1.1333 2535.16 1.11851H1455.24Z" fill="#EBEBEB"/>
<path d="M643.143 669.037C674.158 669.037 703.902 656.716 725.832 634.786C747.763 612.855 760.083 583.111 760.083 552.096C760.083 521.082 747.763 491.338 725.832 469.407C703.902 447.477 674.158 435.156 643.143 435.156H628.77V669.037H643.143Z" fill="#E0E0E0"/>
<path d="M628.659 669.037C693.243 669.037 745.599 616.681 745.599 552.096C745.599 487.512 693.243 435.156 628.659 435.156C564.074 435.156 511.718 487.512 511.718 552.096C511.718 616.681 564.074 669.037 628.659 669.037Z" fill="#F5F5F5"/>
<path d="M623.29 566.749C581.759 566.749 541.929 550.251 512.563 520.884C483.196 491.518 466.698 451.688 466.698 410.158V316.706C466.698 312.805 468.248 309.064 471.006 306.306C473.765 303.547 477.506 301.998 481.407 301.998C485.308 301.998 489.049 303.547 491.807 306.306C494.565 309.064 496.115 312.805 496.115 316.706V410.214C496.145 443.924 509.545 476.245 533.377 500.087C557.208 523.929 589.524 537.344 623.234 537.388C625.238 537.264 627.246 537.552 629.135 538.234C631.023 538.916 632.752 539.977 634.215 541.352C635.678 542.728 636.844 544.388 637.641 546.231C638.438 548.074 638.849 550.061 638.849 552.069C638.849 554.076 638.438 556.063 637.641 557.906C636.844 559.749 635.678 561.409 634.215 562.785C632.752 564.16 631.023 565.221 629.135 565.903C627.246 566.585 625.238 566.873 623.234 566.749H623.29Z" fill="#E0E0E0"/>
<path d="M351.38 399.028H611.545C615.706 399.029 619.811 398.075 623.545 396.238C627.279 394.402 630.541 391.733 633.08 388.438C635.62 385.142 637.369 381.307 638.192 377.228C639.016 373.15 638.892 368.937 637.83 364.914L615.18 279.627C613.652 273.834 610.251 268.707 605.507 265.046C600.764 261.385 594.943 259.394 588.951 259.382H373.974C367.974 259.391 362.146 261.38 357.393 265.041C352.64 268.701 349.229 273.829 347.689 279.627L325.319 364.802C324.23 368.815 324.078 373.024 324.875 377.105C325.672 381.186 327.397 385.029 329.916 388.337C332.435 391.645 335.68 394.329 339.402 396.183C343.124 398.037 347.222 399.011 351.38 399.028Z" fill="#F5F5F5"/>
<path d="M2294.51 669.037C2325.53 669.037 2355.27 656.716 2377.2 634.786C2399.13 612.855 2411.45 583.111 2411.45 552.096C2411.45 521.082 2399.13 491.338 2377.2 469.407C2355.27 447.477 2325.53 435.156 2294.51 435.156H2280.14V669.037H2294.51Z" fill="#E0E0E0"/>
<path d="M2280.14 669.037C2344.72 669.037 2397.08 616.681 2397.08 552.096C2397.08 487.512 2344.72 435.156 2280.14 435.156C2215.55 435.156 2163.2 487.512 2163.2 552.096C2163.2 616.681 2215.55 669.037 2280.14 669.037Z" fill="#F5F5F5"/>
<path d="M2274.77 566.749C2233.24 566.749 2193.41 550.251 2164.04 520.884C2134.68 491.518 2118.18 451.688 2118.18 410.158V316.706C2118.18 312.805 2119.73 309.064 2122.49 306.306C2125.24 303.547 2128.99 301.998 2132.89 301.998C2136.79 301.998 2140.53 303.547 2143.29 306.306C2146.05 309.064 2147.6 312.805 2147.6 316.706V410.214C2147.62 443.924 2161.03 476.245 2184.86 500.087C2208.69 523.929 2241 537.344 2274.71 537.388C2276.72 537.264 2278.73 537.552 2280.61 538.234C2282.5 538.916 2284.23 539.977 2285.69 541.352C2287.16 542.728 2288.32 544.388 2289.12 546.231C2289.92 548.074 2290.33 550.061 2290.33 552.069C2290.33 554.076 2289.92 556.063 2289.12 557.906C2288.32 559.749 2287.16 561.409 2285.69 562.785C2284.23 564.16 2282.5 565.221 2280.61 565.903C2278.73 566.585 2276.72 566.873 2274.71 566.749H2274.77Z" fill="#E0E0E0"/>
<path d="M2002.86 399.028H2263.03C2267.19 399.029 2271.29 398.075 2275.02 396.239C2278.76 394.402 2282.02 391.733 2284.56 388.438C2287.1 385.142 2288.85 381.307 2289.67 377.228C2290.5 373.15 2290.37 368.937 2289.31 364.914L2266.94 279.739C2265.41 273.946 2262.01 268.819 2257.27 265.158C2252.52 261.497 2246.7 259.506 2240.71 259.494H2025.45C2019.45 259.503 2013.63 261.492 2008.87 265.153C2004.12 268.813 2000.71 273.941 1999.17 279.739L1976.8 364.914C1975.73 368.919 1975.59 373.117 1976.4 377.183C1977.21 381.249 1978.94 385.077 1981.45 388.371C1983.97 391.665 1987.21 394.339 1990.92 396.186C1994.63 398.034 1998.71 399.006 2002.86 399.028Z" fill="#F5F5F5"/>
<path d="M749.29 1458.87H834.353V1129.3H749.29V1458.87Z" fill="#E6E6E6"/>
<path d="M518.709 1458.82H800.965L843.58 1073.1H561.324L518.709 1458.82Z" fill="#F0F0F0"/>
<path d="M488.118 1458.82H779.713L822.328 1073.1H530.789L488.118 1458.82Z" fill="#F5F5F5"/>
<path d="M758.629 1428.45L794.534 1103.52H551.817L515.913 1428.45H758.629Z" fill="white"/>
<path d="M708.52 1349.65L710.254 1336.62C719.258 1255.08 668.366 1182.43 602.262 1182.43L600.752 1195.69C591.748 1277.17 642.64 1349.82 708.8 1349.82L708.52 1349.65Z" fill="#F5F5F5"/>
<path d="M330.464 1831H581.234V1458.82H330.464L330.464 1831Z" fill="#E6E6E6"/>
<path d="M355.63 1831H330.408V1759.25H382.083L355.63 1831Z" fill="#F0F0F0"/>
<path d="M1033.28 1831H1284.05V1458.82H1033.28V1831Z" fill="#E6E6E6"/>
<path d="M330.408 1786.99H1055.26V1458.87H330.408V1786.99Z" fill="#F0F0F0"/>
<path d="M1030.04 1831H1055.26V1759.25H1003.58L1030.04 1831Z" fill="#F0F0F0"/>
<path d="M349.982 1611.77H1035.68V1479.34H349.982V1611.77Z" fill="#E6E6E6"/>
<path d="M647.114 1565.91H738.552C758.212 1565.92 777.666 1561.92 795.725 1554.15C813.784 1546.38 830.068 1535.01 843.58 1520.73H542.086C555.604 1535 571.889 1546.37 589.947 1554.14C608.004 1561.9 627.456 1565.91 647.114 1565.91Z" fill="#F0F0F0"/>
<path d="M349.982 1765.57H1035.68V1633.14H349.982V1765.57Z" fill="#E6E6E6"/>
<path d="M647.114 1719.49H738.552C758.212 1719.49 777.666 1715.49 795.725 1707.72C813.784 1699.95 830.068 1688.58 843.58 1674.3H542.086C555.604 1688.57 571.889 1699.94 589.947 1707.71C608.004 1715.48 627.456 1719.48 647.114 1719.49Z" fill="#F0F0F0"/>
<path d="M1009.34 1443.66H1015.83C1015.83 1430.29 1015.83 1396.46 1016.5 1318.89C1017.68 1178.24 1019.91 1169.68 1019.91 1169.68L1004.48 1234.61C994.691 1306.48 1007.33 1378.73 1009.34 1443.66Z" fill="#E6E6E6"/>
<path d="M996.536 1224.77C974.166 1198.32 926.909 1190.6 878.366 1184C859.295 1181.43 928.419 1224.99 962.254 1255.92C988.539 1279.97 1005.32 1286.62 1012.59 1310.56C1016.28 1280.69 1015.66 1247.75 996.536 1224.77Z" fill="#E6E6E6"/>
<path d="M1026.01 1272.19C1048.38 1245.74 1095.64 1238.08 1144.18 1231.48C1163.25 1228.91 1093.85 1272.47 1060.29 1303.4C1034.01 1327.45 1017.23 1334.1 1009.96 1358.04C1006.27 1328.17 1006.66 1295.01 1026.01 1272.19Z" fill="#E6E6E6"/>
<path d="M1016.5 1163.25C1033.28 1131.6 1075 1101.73 1122.03 1090.55C1140.49 1086.13 1079.25 1148.93 1055.99 1189.48C1037.92 1220.91 1013.99 1257.93 1010.24 1284.55C1004.65 1232.09 999.836 1195.07 1016.5 1163.25Z" fill="#E6E6E6"/>
<path d="M1014.49 1458.82C994.691 1458.82 978.305 1448.92 977.13 1436.17L973.831 1414.47H1055.2L1051.85 1436.17C1050.73 1448.92 1034.62 1458.82 1014.49 1458.82Z" fill="#F0F0F0"/>
<path d="M1060.46 1422.8H968.574L965.945 1398.58H1063.09L1060.46 1422.8Z" fill="#F0F0F0"/>
<path d="M948.161 960.353L1844.14 960.353V143.113L948.161 143.113L948.161 960.353Z" fill="#E6E6E6"/>
<path d="M928.028 960.353L1835.36 960.353V143.113L928.028 143.113L928.028 960.353Z" fill="#F5F5F5"/>
<path d="M1799.12 923.777V179.745L964.156 179.745V923.777H1799.12Z" fill="#FAFAFA"/>
<path d="M1696.72 923.777L1368.11 179.745H1256.48L1585.1 923.777H1696.72Z" fill="white"/>
<path d="M1553.44 923.777L1224.82 179.745H1147.98L1476.6 923.777H1553.44Z" fill="white"/>
<path d="M1274.21 923.721V179.689H1231.03V923.721H1274.21Z" fill="#E6E6E6"/>
<path d="M1561.22 923.721V179.689H1518.04V923.721H1561.22Z" fill="#E6E6E6"/>
<path d="M1266.43 946.986V152.509H1211.85V946.986H1266.43Z" fill="#F5F5F5"/>
<path d="M1553.44 946.986V152.509H1498.86V946.986H1553.44Z" fill="#F5F5F5"/>
<path d="M968.07 923.777V179.745H964.212V923.777H968.07Z" fill="#E6E6E6"/>
<path d="M912.816 96.024H1883.46C1884.7 96.0386 1885.89 96.5382 1886.76 97.416C1887.64 98.2939 1888.14 99.4804 1888.16 100.722C1888.14 101.958 1887.64 103.139 1886.76 104.008C1885.88 104.876 1884.7 105.364 1883.46 105.364H912.816C911.58 105.364 910.393 104.876 909.514 104.008C908.634 103.139 908.133 101.958 908.118 100.722C908.133 99.4804 908.632 98.2939 909.51 97.416C910.388 96.5382 911.575 96.0386 912.816 96.024Z" fill="#E6E6E6"/>
<path d="M1844.14 126.839C1845.81 126.824 1847.4 126.152 1848.58 124.968C1849.75 123.785 1850.41 122.186 1850.41 120.519V106.985C1850.41 106.158 1850.26 105.338 1849.95 104.571C1849.63 103.805 1849.17 103.108 1848.59 102.52C1848.01 101.933 1847.32 101.466 1846.55 101.148C1845.79 100.83 1844.97 100.666 1844.14 100.666C1842.48 100.666 1840.88 101.324 1839.69 102.497C1838.51 103.67 1837.84 105.263 1837.82 106.93V120.464C1837.82 122.145 1838.49 123.758 1839.67 124.952C1840.85 126.146 1842.46 126.824 1844.14 126.839Z" fill="#E6E6E6"/>
<path d="M983.17 126.839C984.842 126.824 986.441 126.154 987.623 124.972C988.805 123.79 989.475 122.191 989.49 120.519V106.985C989.49 105.309 988.824 103.702 987.639 102.517C986.454 101.332 984.846 100.666 983.17 100.666C981.509 100.666 979.916 101.326 978.741 102.5C977.567 103.675 976.907 105.268 976.907 106.93V120.464C976.899 121.293 977.055 122.117 977.366 122.886C977.677 123.656 978.136 124.357 978.718 124.949C979.3 125.541 979.992 126.012 980.756 126.337C981.52 126.661 982.34 126.832 983.17 126.839Z" fill="#E6E6E6"/>
<path opacity="0.6" d="M914.27 740.677L1820.99 740.677V100.666L914.27 100.666L914.27 740.677Z" fill="#E0E0E0"/>
<path d="M1903.09 1146.3H1746.72C1730.1 1146.3 1716.63 1159.78 1716.63 1176.39V1248.76C1716.63 1265.38 1730.1 1278.85 1746.72 1278.85H1903.09C1919.71 1278.85 1933.18 1265.38 1933.18 1248.76V1176.39C1933.18 1159.78 1919.71 1146.3 1903.09 1146.3Z" fill="#FAFAFA"/>
<path d="M1923.05 1121.81H1726.76C1721.17 1121.81 1716.63 1126.34 1716.63 1131.93V1140.1C1716.63 1145.69 1721.17 1150.22 1726.76 1150.22H1923.05C1928.64 1150.22 1933.18 1145.69 1933.18 1140.1V1131.93C1933.18 1126.34 1928.64 1121.81 1923.05 1121.81Z" fill="#E6E6E6"/>
<path d="M1719.82 1426.1C1719.82 1426.1 1722.67 1519.33 1831.28 1519.33C1939.89 1519.33 1942.74 1426.1 1942.74 1426.1H1719.82Z" fill="#F0F0F0"/>
<path d="M1967.46 1426.1C1967.46 1426.1 1970.31 1519.33 2078.92 1519.33C2187.53 1519.33 2190.38 1426.1 2190.38 1426.1H1967.46Z" fill="#F0F0F0"/>
<path d="M2136.58 1086.3H1921.82C1898.97 1086.3 1880.44 1104.83 1880.44 1127.68V1237.52C1880.44 1260.38 1898.97 1278.9 1921.82 1278.9H2136.58C2159.43 1278.9 2177.96 1260.38 2177.96 1237.52V1127.68C2177.96 1104.83 2159.43 1086.3 2136.58 1086.3Z" fill="#F0F0F0"/>
<path d="M2164.09 1052.63H1894.31C1886.65 1052.63 1880.44 1058.84 1880.44 1066.5V1077.8C1880.44 1085.46 1886.65 1091.67 1894.31 1091.67H2164.09C2171.75 1091.67 2177.96 1085.46 2177.96 1077.8V1066.5C2177.96 1058.84 2171.75 1052.63 2164.09 1052.63Z" fill="#F5F5F5"/>
<path d="M1638 1831H1666.19V1368.83H1638V1831Z" fill="#E6E6E6"/>
<path d="M2451.89 1278.85H2299.27V1368.78H2451.89V1278.85Z" fill="#E6E6E6"/>
<path d="M1540.41 1368.83H2299.21V1278.9H1540.41V1368.83Z" fill="#F5F5F5"/>
<path d="M2451.89 1519.05H2299.27V1608.98H2451.89V1519.05Z" fill="#E6E6E6"/>
<path d="M1540.41 1608.98H2299.21V1519.05H1540.41V1608.98Z" fill="#F5F5F5"/>
<path d="M2396.8 1831H2424.99V1368.83H2396.8V1831Z" fill="#E6E6E6"/>
<path d="M2271.08 1831H2299.27V1368.83H2271.08V1831Z" fill="#F5F5F5"/>
<path d="M1540.41 1831H1568.6V1368.83H1540.41V1831Z" fill="#F5F5F5"/>
<path d="M1398.14 2083.56C1997 2083.56 2482.48 2055.22 2482.48 2020.25C2482.48 1985.29 1997 1956.95 1398.14 1956.95C799.273 1956.95 313.798 1985.29 313.798 2020.25C313.798 2055.22 799.273 2083.56 1398.14 2083.56Z" fill="#F5F5F5"/>
<path d="M1456.36 1736.49H742.914C731.442 1736.32 720.455 1731.83 712.157 1723.91C703.859 1715.98 698.864 1705.21 698.174 1693.76L634.195 454.73C633.84 449.219 634.628 443.694 636.508 438.501C638.389 433.308 641.322 428.56 645.123 424.554C648.925 420.548 653.513 417.37 658.6 415.22C663.687 413.07 669.163 411.994 674.685 412.059H1388.13C1399.59 412.208 1410.58 416.69 1418.88 424.605C1427.18 432.52 1432.18 443.283 1432.87 454.73L1496.73 1693.76C1497.09 1699.26 1496.3 1704.78 1494.43 1709.97C1492.56 1715.16 1489.63 1719.9 1485.85 1723.91C1482.06 1727.92 1477.48 1731.11 1472.41 1733.27C1467.34 1735.43 1461.87 1736.53 1456.36 1736.49Z" fill="#3B6285"/>
<path opacity="0.8" d="M1456.36 1736.49H742.914C731.442 1736.32 720.455 1731.83 712.157 1723.91C703.859 1715.98 698.864 1705.21 698.174 1693.76L634.195 454.73C633.84 449.219 634.628 443.694 636.508 438.501C638.389 433.308 641.322 428.56 645.123 424.554C648.925 420.548 653.513 417.37 658.6 415.22C663.687 413.07 669.163 411.994 674.685 412.059H1388.13C1399.59 412.208 1410.58 416.69 1418.88 424.605C1427.18 432.52 1432.18 443.283 1432.87 454.73L1496.73 1693.76C1497.09 1699.26 1496.3 1704.78 1494.43 1709.97C1492.56 1715.16 1489.63 1719.9 1485.85 1723.91C1482.06 1727.92 1477.48 1731.11 1472.41 1733.27C1467.34 1735.43 1461.87 1736.53 1456.36 1736.49Z" fill="white"/>
<path d="M1317.72 371.681H1238.81V377.273H1317.72V371.681Z" fill="#3B6285"/>
<path d="M1211.46 371.681H1182.54V377.273H1211.46V371.681Z" fill="#3B6285"/>
<path d="M1487.06 1657.86H804.768C793.781 1657.75 783.241 1653.48 775.272 1645.92C767.303 1638.36 762.495 1628.05 761.817 1617.09L700.746 432.025C700.407 426.75 701.161 421.462 702.961 416.493C704.762 411.524 707.569 406.98 711.208 403.147C714.847 399.314 719.239 396.274 724.108 394.218C728.977 392.162 734.218 391.134 739.503 391.199H1421.79C1432.78 391.32 1443.31 395.599 1451.27 403.174C1459.23 410.749 1464.02 421.057 1464.69 432.025L1525.76 1617.09C1526.1 1622.35 1525.35 1627.63 1523.55 1632.6C1521.75 1637.56 1518.95 1642.1 1515.31 1645.92C1511.68 1649.75 1507.29 1652.79 1502.43 1654.84C1497.57 1656.89 1492.34 1657.92 1487.06 1657.86Z" fill="#3B6285"/>
<path d="M1487.06 1630.62H804.768C800.766 1630.48 796.955 1628.88 794.058 1626.12C791.161 1623.35 789.379 1619.62 789.053 1615.63L727.926 430.626C727.788 429.05 727.985 427.462 728.506 425.968C729.027 424.474 729.858 423.107 730.946 421.958C732.037 420.812 733.359 419.91 734.824 419.312C736.29 418.714 737.865 418.434 739.447 418.491H1421.74C1425.73 418.641 1429.53 420.25 1432.41 423.012C1435.3 425.774 1437.07 429.498 1437.4 433.479L1498.8 1618.48C1498.94 1620.05 1498.74 1621.64 1498.22 1623.12C1497.7 1624.61 1496.87 1625.97 1495.79 1627.12C1494.71 1628.27 1493.39 1629.17 1491.94 1629.77C1490.48 1630.38 1488.91 1630.67 1487.34 1630.62H1487.06ZM739.447 419.889C738.056 419.844 736.672 420.089 735.382 420.609C734.091 421.129 732.924 421.912 731.953 422.909C731.019 423.942 730.305 425.153 729.853 426.47C729.401 427.787 729.221 429.182 729.324 430.571L790.395 1615.58C790.706 1619.21 792.333 1622.6 794.97 1625.11C797.607 1627.62 801.072 1629.08 804.712 1629.22H1487C1488.39 1629.28 1489.77 1629.04 1491.05 1628.51C1492.33 1627.99 1493.49 1627.21 1494.44 1626.2C1495.4 1625.18 1496.13 1623.97 1496.58 1622.65C1497.03 1621.33 1497.2 1619.93 1497.07 1618.54L1436.05 433.535C1435.76 429.91 1434.14 426.52 1431.51 424.006C1428.89 421.492 1425.43 420.027 1421.79 419.889H739.447Z" fill="white"/>
<path opacity="0.3" d="M1248.41 850.379C1326.01 770.746 1320.96 639.96 1237.12 558.261C1153.28 476.562 1022.41 474.889 944.807 554.522C867.204 634.156 872.258 764.942 956.094 846.641C1039.93 928.339 1170.8 930.013 1248.41 850.379Z" fill="white"/>
<path d="M1263.92 702.48C1265.48 729.963 1259.95 757.387 1247.87 782.118C1234.78 808.645 1214.47 830.934 1189.26 846.419C1164.06 861.904 1135 869.954 1105.42 869.642C1074.77 869.366 1044.71 861.16 1018.18 845.822C991.636 830.485 969.519 808.538 953.977 782.118C939.492 757.958 931.158 730.612 929.705 702.48C928.326 680.906 931.415 659.279 938.779 638.953C946.142 618.627 957.622 600.039 972.499 584.354C987.376 568.668 1005.33 556.222 1025.24 547.794C1045.15 539.366 1066.58 535.138 1088.2 535.375C1133.19 535.844 1176.33 553.344 1208.94 584.351C1241.54 615.358 1261.19 657.568 1263.92 702.48Z" fill="white"/>
<path d="M1247.7 782.118C1234.61 808.645 1214.3 830.934 1189.1 846.419C1163.9 861.904 1134.83 869.954 1105.26 869.642C1074.6 869.365 1044.55 861.159 1018.01 845.822C991.468 830.485 969.351 808.538 953.809 782.118C996.308 752.768 1046.78 737.153 1098.43 737.378C1151.46 737.577 1203.3 753.116 1247.7 782.118Z" fill="#3B6285"/>
<path d="M1148.41 698.594C1176.37 669.904 1174.54 622.775 1144.33 593.329C1114.11 563.883 1066.95 563.27 1038.99 591.961C1011.03 620.651 1012.86 667.78 1043.08 697.226C1073.3 726.672 1120.46 727.285 1148.41 698.594Z" fill="#3B6285"/>
<path d="M1389.25 1196.81H854.989C850.336 1196.76 845.873 1194.95 842.501 1191.74C839.128 1188.54 837.096 1184.17 836.813 1179.52L832.787 1101.23C832.648 1099 832.97 1096.77 833.734 1094.67C834.497 1092.58 835.685 1090.66 837.223 1089.04C838.761 1087.43 840.616 1086.14 842.672 1085.28C844.728 1084.41 846.941 1083.98 849.173 1084H1383.43C1388.07 1084.05 1392.53 1085.85 1395.9 1089.05C1399.27 1092.24 1401.31 1096.59 1401.6 1101.23L1405.63 1179.52C1405.78 1181.76 1405.46 1183.99 1404.7 1186.1C1403.94 1188.2 1402.76 1190.13 1401.22 1191.75C1399.68 1193.37 1397.82 1194.66 1395.76 1195.53C1393.7 1196.4 1391.48 1196.83 1389.25 1196.81Z" fill="white"/>
<path opacity="0.3" d="M1225.66 1040.77H1002.52C997.848 1040.74 993.364 1038.93 989.978 1035.71C986.593 1032.49 984.558 1028.1 984.289 1023.44L983.45 1006.66C983.303 1004.43 983.62 1002.19 984.379 1000.09C985.139 997.982 986.326 996.059 987.865 994.436C989.403 992.813 991.261 991.526 993.321 990.655C995.382 989.785 997.6 989.35 999.836 989.378H1222.92C1227.58 989.426 1232.04 991.235 1235.41 994.442C1238.78 997.649 1240.82 1002.01 1241.1 1006.66L1241.99 1023.44C1242.13 1025.66 1241.81 1027.9 1241.05 1030C1240.29 1032.09 1239.11 1034.02 1237.58 1035.64C1236.05 1037.26 1234.2 1038.56 1232.15 1039.44C1230.1 1040.32 1227.9 1040.78 1225.66 1040.77Z" fill="black"/>
<path opacity="0.3" d="M1308.66 1573.24H974.39C966.475 1573.14 958.889 1570.06 953.153 1564.6C947.418 1559.15 943.956 1551.72 943.463 1543.82L941.506 1505.23C941.308 1501.44 941.885 1497.65 943.202 1494.09C944.519 1490.52 946.547 1487.27 949.163 1484.52C951.78 1481.76 954.93 1479.57 958.421 1478.08C961.912 1476.58 965.671 1475.81 969.468 1475.82H1303.62C1311.54 1475.92 1319.12 1479 1324.86 1484.46C1330.6 1489.91 1334.06 1497.33 1334.55 1505.23L1336.51 1543.82C1336.7 1547.61 1336.13 1551.39 1334.82 1554.95C1333.51 1558.5 1331.49 1561.75 1328.89 1564.5C1326.28 1567.25 1323.15 1569.45 1319.67 1570.95C1316.19 1572.45 1312.44 1573.23 1308.66 1573.24Z" fill="black"/>
<path d="M1399.03 1386.17H864.72C860.071 1386.11 855.616 1384.29 852.246 1381.09C848.876 1377.89 846.84 1373.53 846.544 1368.89L842.518 1290.59C842.379 1288.36 842.702 1286.13 843.464 1284.03C844.227 1281.93 845.414 1280.01 846.951 1278.39C848.488 1276.77 850.343 1275.48 852.399 1274.61C854.456 1273.73 856.67 1273.29 858.904 1273.31H1393.16C1397.81 1273.36 1402.28 1275.17 1405.65 1278.38C1409.02 1281.58 1411.05 1285.95 1411.34 1290.59L1415.42 1368.89C1415.55 1371.12 1415.22 1373.35 1414.45 1375.44C1413.69 1377.54 1412.5 1379.46 1410.97 1381.08C1409.43 1382.69 1407.58 1383.98 1405.53 1384.86C1403.47 1385.73 1401.26 1386.18 1399.03 1386.17Z" fill="white"/>
<path d="M922.771 1140.38C922.925 1142.85 922.567 1145.32 921.721 1147.65C920.874 1149.98 919.557 1152.11 917.851 1153.9C916.146 1155.7 914.088 1157.12 911.807 1158.08C909.526 1159.05 907.071 1159.53 904.595 1159.5C899.451 1159.44 894.521 1157.44 890.796 1153.89C887.071 1150.34 884.828 1145.51 884.518 1140.38C884.356 1137.91 884.706 1135.43 885.546 1133.11C886.386 1130.78 887.697 1128.65 889.399 1126.85C891.1 1125.06 893.154 1123.63 895.433 1122.67C897.711 1121.7 900.164 1121.22 902.637 1121.25C907.787 1121.31 912.724 1123.32 916.458 1126.86C920.191 1130.41 922.446 1135.24 922.771 1140.38Z" fill="#263238"/>
<path d="M981.66 1140.38C981.822 1142.85 981.472 1145.32 980.632 1147.65C979.792 1149.97 978.48 1152.1 976.779 1153.9C975.078 1155.69 973.023 1157.12 970.745 1158.08C968.467 1159.05 966.014 1159.53 963.54 1159.5C958.392 1159.46 953.455 1157.45 949.727 1153.9C946 1150.35 943.761 1145.52 943.463 1140.38C943.301 1137.91 943.651 1135.43 944.491 1133.11C945.331 1130.78 946.643 1128.65 948.344 1126.85C950.046 1125.06 952.1 1123.63 954.378 1122.67C956.656 1121.7 959.109 1121.22 961.583 1121.25C966.731 1121.3 971.668 1123.3 975.396 1126.85C979.123 1130.4 981.363 1135.24 981.66 1140.38Z" fill="#263238"/>
<path d="M1040.21 1140.38C1040.38 1142.85 1040.03 1145.32 1039.19 1147.65C1038.35 1149.97 1037.03 1152.1 1035.33 1153.9C1033.63 1155.69 1031.58 1157.12 1029.3 1158.08C1027.02 1159.05 1024.57 1159.53 1022.09 1159.5C1016.94 1159.44 1012.01 1157.44 1008.27 1153.89C1004.54 1150.34 1002.29 1145.52 1001.96 1140.38C1001.81 1137.91 1002.16 1135.43 1003.01 1133.1C1003.86 1130.77 1005.17 1128.65 1006.88 1126.85C1008.59 1125.06 1010.64 1123.63 1012.92 1122.67C1015.21 1121.71 1017.66 1121.22 1020.14 1121.25C1025.28 1121.31 1030.21 1123.32 1033.94 1126.87C1037.66 1130.41 1039.9 1135.24 1040.21 1140.38Z" fill="#263238"/>
<path d="M1099.22 1140.38C1099.37 1142.84 1099.01 1145.32 1098.17 1147.64C1097.33 1149.96 1096.02 1152.09 1094.32 1153.88C1092.62 1155.68 1090.56 1157.1 1088.29 1158.07C1086.02 1159.03 1083.57 1159.52 1081.1 1159.5C1075.95 1159.44 1071.01 1157.44 1067.28 1153.89C1063.54 1150.34 1061.29 1145.52 1060.96 1140.38C1060.81 1137.91 1061.16 1135.44 1062.01 1133.11C1062.85 1130.79 1064.16 1128.67 1065.86 1126.87C1067.56 1125.08 1069.61 1123.65 1071.89 1122.69C1074.16 1121.72 1076.61 1121.23 1079.08 1121.25C1084.23 1121.31 1089.17 1123.32 1092.9 1126.86C1096.64 1130.41 1098.89 1135.24 1099.22 1140.38Z" fill="#263238"/>
<path d="M932.67 1329.63C932.832 1332.1 932.482 1334.57 931.642 1336.9C930.802 1339.23 929.49 1341.35 927.788 1343.15C926.087 1344.95 924.033 1346.37 921.755 1347.34C919.476 1348.3 917.023 1348.78 914.55 1348.76C909.4 1348.69 904.463 1346.69 900.729 1343.14C896.996 1339.6 894.741 1334.77 894.416 1329.63C894.262 1327.16 894.62 1324.68 895.466 1322.35C896.313 1320.03 897.63 1317.9 899.336 1316.1C901.042 1314.31 903.099 1312.89 905.38 1311.92C907.661 1310.96 910.116 1310.47 912.592 1310.5C917.736 1310.56 922.666 1312.57 926.391 1316.12C930.116 1319.67 932.359 1324.49 932.67 1329.63Z" fill="#263238"/>
<path d="M991.447 1329.63C991.601 1332.1 991.245 1334.57 990.402 1336.89C989.559 1339.21 988.247 1341.34 986.547 1343.13C984.847 1344.93 982.796 1346.35 980.522 1347.32C978.248 1348.29 975.799 1348.78 973.327 1348.76C968.178 1348.7 963.241 1346.69 959.507 1343.14C955.773 1339.6 953.518 1334.77 953.194 1329.63C953.032 1327.16 953.382 1324.68 954.222 1322.36C955.062 1320.03 956.374 1317.9 958.075 1316.11C959.777 1314.31 961.831 1312.89 964.109 1311.92C966.387 1310.96 968.84 1310.47 971.314 1310.5C976.464 1310.56 981.4 1312.57 985.134 1316.11C988.868 1319.66 991.123 1324.49 991.447 1329.63Z" fill="#263238"/>
<path d="M1050.22 1329.63C1050.38 1332.1 1050.02 1334.58 1049.17 1336.9C1048.33 1339.23 1047.01 1341.36 1045.31 1343.15C1043.6 1344.95 1041.54 1346.37 1039.26 1347.34C1036.98 1348.3 1034.53 1348.78 1032.05 1348.76C1026.9 1348.71 1021.96 1346.7 1018.24 1343.15C1014.51 1339.6 1012.27 1334.77 1011.97 1329.63C1011.81 1327.16 1012.16 1324.68 1013 1322.36C1013.84 1320.03 1015.15 1317.9 1016.85 1316.11C1018.55 1314.31 1020.61 1312.89 1022.89 1311.92C1025.16 1310.96 1027.62 1310.47 1030.09 1310.5C1035.24 1310.56 1040.18 1312.57 1043.91 1316.11C1047.65 1319.66 1049.9 1324.49 1050.22 1329.63Z" fill="#263238"/>
<path d="M1108.95 1329.63C1109.11 1332.1 1108.76 1334.57 1107.92 1336.9C1107.08 1339.23 1105.77 1341.35 1104.07 1343.15C1102.36 1344.95 1100.31 1346.37 1098.03 1347.34C1095.75 1348.3 1093.3 1348.78 1090.83 1348.76C1085.68 1348.69 1080.74 1346.69 1077.01 1343.14C1073.27 1339.6 1071.02 1334.77 1070.69 1329.63C1070.54 1327.16 1070.9 1324.68 1071.74 1322.35C1072.59 1320.03 1073.91 1317.9 1075.61 1316.1C1077.32 1314.31 1079.38 1312.89 1081.66 1311.92C1083.94 1310.96 1086.39 1310.47 1088.87 1310.5C1094.02 1310.55 1098.95 1312.55 1102.68 1316.1C1106.41 1319.65 1108.65 1324.49 1108.95 1329.63Z" fill="#263238"/>
<path d="M1167.72 1329.63C1167.89 1332.1 1167.54 1334.57 1166.7 1336.9C1165.86 1339.23 1164.54 1341.36 1162.84 1343.15C1161.14 1344.95 1159.09 1346.37 1156.81 1347.34C1154.53 1348.3 1152.08 1348.78 1149.6 1348.76C1144.45 1348.7 1139.52 1346.69 1135.78 1343.14C1132.05 1339.6 1129.8 1334.77 1129.47 1329.63C1129.32 1327.16 1129.67 1324.69 1130.52 1322.37C1131.36 1320.04 1132.67 1317.92 1134.37 1316.12C1136.07 1314.33 1138.12 1312.91 1140.4 1311.94C1142.67 1310.97 1145.12 1310.48 1147.59 1310.5C1152.74 1310.56 1157.68 1312.57 1161.41 1316.11C1165.15 1319.66 1167.4 1324.49 1167.72 1329.63Z" fill="#263238"/>
<path d="M1226.5 1329.63C1226.66 1332.1 1226.3 1334.58 1225.45 1336.9C1224.61 1339.23 1223.29 1341.36 1221.58 1343.15C1219.88 1344.95 1217.82 1346.37 1215.54 1347.34C1213.26 1348.3 1210.8 1348.78 1208.33 1348.76C1203.18 1348.69 1198.25 1346.69 1194.53 1343.14C1190.8 1339.59 1188.56 1334.76 1188.25 1329.63C1188.09 1327.16 1188.44 1324.68 1189.28 1322.36C1190.12 1320.03 1191.43 1317.9 1193.13 1316.11C1194.83 1314.31 1196.89 1312.89 1199.16 1311.92C1201.44 1310.96 1203.9 1310.47 1206.37 1310.5C1211.52 1310.56 1216.46 1312.57 1220.19 1316.11C1223.92 1319.66 1226.18 1324.49 1226.5 1329.63Z" fill="#263238"/>
<path d="M1862.32 680.166C1863.72 682.291 1864.44 683.41 1865.34 684.92L1867.86 689.058C1869.48 691.854 1870.93 694.651 1872.33 697.391C1875.13 702.984 1877.92 708.576 1880.16 714.169C1884.85 725.276 1888.88 736.648 1892.24 748.227C1899.01 771.1 1903.47 794.595 1905.55 818.358L1905.94 822.776C1905.99 823.67 1905.99 824.566 1905.94 825.46V828.424C1906.03 832.314 1905.81 836.204 1905.27 840.057C1904.2 847.199 1902.32 854.197 1899.68 860.917C1894.76 872.921 1888.26 884.208 1880.33 894.472C1865.54 913.411 1847.99 930.02 1828.26 943.743L1812.82 925.679C1826.87 909.816 1839.31 892.6 1849.96 874.283C1854.75 865.974 1858.51 857.109 1861.14 847.886C1862.21 843.98 1862.83 839.965 1862.99 835.918C1863.16 834.189 1863.16 832.447 1862.99 830.717V829.543C1863.05 829.022 1863.05 828.497 1862.99 827.977L1862.32 824.062C1858.72 803.22 1853.64 782.661 1847.11 762.544C1843.86 752.534 1839.89 742.858 1835.92 733.407C1833.96 728.653 1831.73 724.012 1829.49 719.537L1826.02 712.938L1824.29 709.862L1822.84 707.402L1862.32 680.166Z" fill="#803E3C"/>
<path d="M1810.31 943.855L1830.55 986.638L1846.6 950.454C1846.6 950.454 1832.34 919.136 1813.05 922.044L1810.31 943.855Z" fill="#7F3E3B"/>
<path d="M1845.04 988.763L1861.14 962.366L1846.6 950.454L1830.55 986.638L1845.04 988.763Z" fill="#7F3E3B"/>
<path d="M1753.99 1975.4C1758.18 1975.3 1762.34 1974.73 1766.41 1973.72C1766.61 1973.66 1766.8 1973.54 1766.95 1973.39C1767.09 1973.23 1767.2 1973.04 1767.25 1972.83C1767.28 1972.61 1767.25 1972.39 1767.16 1972.19C1767.07 1971.99 1766.93 1971.83 1766.74 1971.71C1765.12 1970.65 1750.92 1961.47 1745.43 1963.94C1744.83 1964.22 1744.31 1964.66 1743.92 1965.21C1743.54 1965.76 1743.31 1966.4 1743.25 1967.07C1743.08 1968.08 1743.16 1969.12 1743.49 1970.09C1743.81 1971.07 1744.36 1971.95 1745.1 1972.66C1747.63 1974.62 1750.79 1975.59 1753.99 1975.4ZM1763.22 1972.1C1755.11 1973.78 1748.96 1973.5 1746.44 1971.32C1745.93 1970.81 1745.55 1970.18 1745.35 1969.48C1745.14 1968.79 1745.11 1968.05 1745.27 1967.35C1745.27 1966.4 1745.83 1966.12 1746.22 1965.95C1749.24 1964.61 1757.46 1968.58 1763.22 1972.1Z" fill="#3B6285"/>
<path d="M1766.13 1973.72H1766.69C1766.85 1973.61 1766.99 1973.46 1767.09 1973.29C1767.19 1973.11 1767.24 1972.92 1767.25 1972.72C1767.25 1972.16 1767.25 1958.68 1762.1 1954.15C1761.47 1953.58 1760.72 1953.16 1759.91 1952.91C1759.1 1952.66 1758.24 1952.58 1757.4 1952.69C1756.52 1952.7 1755.67 1953.01 1754.99 1953.57C1754.3 1954.13 1753.83 1954.91 1753.66 1955.77C1752.59 1961.08 1761.09 1971.15 1765.57 1973.72H1766.13ZM1758.13 1954.76C1758.58 1954.75 1759.03 1954.83 1759.46 1954.99C1759.88 1955.15 1760.26 1955.4 1760.59 1955.71C1763.54 1960.06 1765.07 1965.22 1764.95 1970.48C1760.48 1966.9 1755.17 1959.29 1755.84 1956.11C1755.84 1955.6 1756.23 1954.93 1757.63 1954.76H1758.13Z" fill="#3B6285"/>
<path d="M1701.2 1952.58C1701.33 1952.42 1701.41 1952.22 1701.44 1952.02C1701.47 1951.81 1701.45 1951.6 1701.37 1951.4C1701.29 1951.21 1701.16 1951.04 1700.99 1950.91C1700.82 1950.78 1700.62 1950.71 1700.41 1950.68C1698.12 1950.68 1678.04 1949.73 1673.46 1954.65V1954.99C1673.08 1955.47 1672.83 1956.05 1672.75 1956.65C1672.66 1957.26 1672.73 1957.88 1672.96 1958.45C1673.25 1959.42 1673.78 1960.29 1674.49 1961C1675.2 1961.71 1676.08 1962.24 1677.04 1962.54C1683.53 1964.55 1694.99 1957.22 1701.25 1952.69L1701.2 1952.58ZM1675.14 1956.11C1677.65 1953.42 1688.73 1952.69 1697 1952.81C1688.33 1958.73 1681.12 1961.53 1677.49 1960.41C1676.85 1960.22 1676.28 1959.87 1675.81 1959.41C1675.34 1958.94 1674.99 1958.36 1674.8 1957.73C1674.69 1957.51 1674.63 1957.27 1674.63 1957.03C1674.63 1956.79 1674.69 1956.55 1674.8 1956.33L1675.14 1956.11Z" fill="#3B6285"/>
<path d="M1701.2 1952.58C1701.28 1952.41 1701.33 1952.22 1701.33 1952.02C1701.33 1951.83 1701.28 1951.64 1701.2 1951.46C1700.92 1951.02 1694.65 1940.28 1687.27 1938.04C1686.21 1937.73 1685.1 1937.64 1684 1937.78C1682.91 1937.91 1681.85 1938.27 1680.9 1938.83C1678.21 1940.39 1678.04 1942.24 1678.38 1943.41C1679.83 1948.61 1694.1 1953.2 1700.25 1953.14C1700.44 1953.14 1700.63 1953.09 1700.8 1952.99C1700.96 1952.89 1701.1 1952.75 1701.2 1952.58ZM1681.12 1941.4C1681.44 1941.09 1681.79 1940.82 1682.18 1940.61C1682.87 1940.17 1683.65 1939.89 1684.46 1939.79C1685.28 1939.68 1686.1 1939.75 1686.88 1940C1691.75 1941.29 1696.28 1947.55 1698.35 1950.63C1691.69 1949.9 1681.57 1945.82 1680.73 1942.68C1680.66 1942.45 1680.66 1942.19 1680.73 1941.96C1680.8 1941.72 1680.93 1941.5 1681.12 1941.34V1941.4Z" fill="#3B6285"/>
<path d="M1762.77 516.36C1757.18 544.323 1745.1 604.778 1764.51 623.346C1764.51 623.346 1756.9 651.308 1705.28 651.308C1648.46 651.308 1678.16 623.346 1678.16 623.346C1709.14 615.963 1708.36 592.922 1702.93 571.335L1762.77 516.36Z" fill="#7F3E3B"/>
<path d="M1668.15 450.815C1668.46 450.867 1668.78 450.867 1669.1 450.815C1669.36 450.685 1669.6 450.502 1669.79 450.279C1669.99 450.056 1670.14 449.797 1670.23 449.516C1670.32 449.235 1670.36 448.938 1670.34 448.643C1670.32 448.347 1670.24 448.059 1670.1 447.795C1668.6 444.605 1666.35 441.823 1663.55 439.682C1660.75 437.541 1657.47 436.104 1654 435.492C1653.41 435.443 1652.84 435.618 1652.38 435.982C1651.92 436.346 1651.62 436.871 1651.54 437.449C1651.47 438.034 1651.64 438.621 1652.01 439.081C1652.38 439.542 1652.91 439.84 1653.49 439.91C1656.24 440.436 1658.81 441.609 1661.01 443.33C1663.21 445.052 1664.96 447.273 1666.13 449.809C1666.35 450.139 1666.65 450.407 1667 450.584C1667.36 450.761 1667.75 450.84 1668.15 450.815Z" fill="#263238"/>
<path d="M1651.2 475.367C1646.8 483.53 1641.3 491.056 1634.87 497.737C1636.61 499.331 1638.68 500.526 1640.93 501.241C1643.18 501.955 1645.56 502.172 1647.9 501.875L1651.2 475.367Z" fill="#630F0F"/>
<path d="M1655.39 469.047C1654.95 472.794 1652.54 475.59 1650.14 475.311C1647.73 475.031 1646.06 471.732 1646.5 467.985C1646.95 464.238 1649.35 461.441 1652.1 461.721C1654.84 462.001 1655.79 465.3 1655.39 469.047Z" fill="#263238"/>
<path d="M1652.82 462.056L1644.21 458.589C1644.21 458.589 1647.84 465.971 1652.82 462.056Z" fill="#263238"/>
<path d="M1750.58 1941.96L1704.94 1952.58L1677.21 1847.67L1722.84 1837.04L1750.58 1941.96Z" fill="#7F3E3B"/>
<path d="M1820.6 1972.6H1773.79L1777.42 1864.16H1824.29L1820.6 1972.6Z" fill="#7F3E3B"/>
<path d="M1770.04 1967.18H1822.67C1823.58 1967.17 1824.46 1967.5 1825.15 1968.09C1825.84 1968.69 1826.29 1969.52 1826.41 1970.42L1832.4 2012.03C1832.52 2013.08 1832.41 2014.15 1832.09 2015.16C1831.77 2016.17 1831.23 2017.09 1830.52 2017.88C1829.82 2018.67 1828.95 2019.3 1827.98 2019.73C1827.01 2020.15 1825.96 2020.37 1824.9 2020.36C1806.56 2020.08 1797.73 2018.97 1774.57 2018.97C1760.31 2018.97 1739.51 2020.48 1719.88 2020.48C1700.25 2020.48 1699.13 2001.01 1707.35 1999.28C1744.04 1991.34 1749.85 1980.49 1762.21 1970.09C1764.4 1968.22 1767.17 1967.19 1770.04 1967.18Z" fill="#263238"/>
<path d="M1700.92 1945.59L1748.73 1923.61C1749.55 1923.23 1750.47 1923.15 1751.34 1923.4C1752.2 1923.64 1752.95 1924.2 1753.43 1924.96L1776.31 1960.3C1776.84 1961.21 1777.18 1962.22 1777.3 1963.27C1777.42 1964.32 1777.31 1965.38 1777 1966.39C1776.68 1967.39 1776.16 1968.32 1775.46 1969.11C1774.76 1969.9 1773.91 1970.54 1772.95 1970.98C1756.17 1978.36 1747.67 1981.1 1726.64 1990.78C1713.72 1996.71 1687.5 2010.35 1669.71 2018.74C1651.93 2027.13 1642.76 2009.74 1649.47 2004.71C1679.5 1982.34 1688.11 1966.28 1694.99 1951.69C1696.15 1949 1698.26 1946.83 1700.92 1945.59Z" fill="#263238"/>
<path opacity="0.2" d="M1677.21 1847.67L1692.08 1903.93L1737.16 1891.12L1722.9 1837.04L1677.21 1847.67Z" fill="black"/>
<path opacity="0.2" d="M1824.29 1864.16H1777.42L1775.58 1920.09H1822.44L1824.29 1864.16Z" fill="black"/>
<path d="M1845.54 633.971C1865 638.278 1885.81 708.24 1885.81 708.24L1830.78 766.795C1830.78 766.795 1785.09 701.026 1794.43 676.866C1803.88 651.644 1822.33 628.938 1845.54 633.971Z" fill="#263238"/>
<path opacity="0.4" d="M1814.45 678.544C1804.6 669.54 1797.95 672.224 1793.42 679.383C1788.94 700.187 1815.45 743.753 1826.14 760.251C1831.06 740.565 1836.71 699.069 1814.45 678.544Z" fill="black"/>
<path d="M1598.97 635.37C1598.97 635.37 1576.6 643.199 1621.34 918.073H1811.48C1808.3 840.672 1808.18 792.912 1845.04 633.972C1818.39 628.474 1791.39 624.923 1764.23 623.346C1735.48 621.274 1706.62 621.274 1677.88 623.346C1641.02 626.757 1598.97 635.37 1598.97 635.37Z" fill="#263238"/>
<path opacity="0.4" d="M1597.23 740.845C1598.46 754.211 1600.08 769.255 1602.21 786.257C1617.81 772.219 1630.56 732.288 1625.87 709.023C1614.72 718.071 1605.06 728.808 1597.23 740.845Z" fill="black"/>
<path d="M1617.59 699.069C1607.33 724.893 1595.77 750.185 1582.97 774.848C1570.32 800.401 1555.34 824.738 1538.23 847.551L1534.65 851.969L1532.86 854.15C1532.25 854.877 1531.74 855.548 1530.79 856.555C1527.43 860.227 1523.68 863.527 1519.61 866.398C1512.41 871.377 1504.54 875.295 1496.23 878.03C1481.74 882.659 1466.69 885.33 1451.49 885.972C1423.02 887.104 1394.53 884.566 1366.71 878.422L1369.78 854.933C1382.65 854.933 1396.12 854.933 1408.93 853.87C1421.79 853.238 1434.61 851.818 1447.3 849.62C1459.08 847.781 1470.61 844.552 1481.63 840.001C1486.09 838.099 1490.25 835.576 1493.99 832.507C1495.42 831.309 1496.72 829.959 1497.85 828.48C1497.85 828.48 1498.52 827.585 1498.97 826.97L1500.26 825.125L1502.89 821.434C1516.92 799.757 1529.42 777.127 1540.3 753.708C1551.49 729.94 1562.67 705.276 1572.9 681.005L1617.59 699.069Z" fill="#803E3C"/>
<path d="M1598.97 635.369C1575.65 640.962 1547.01 704.941 1547.01 704.941L1595.33 775.966C1595.33 775.966 1659.7 694.93 1652.04 670.211C1644.21 644.429 1627.43 628.435 1598.97 635.369Z" fill="#263238"/>
<path d="M1383.21 858.512L1342.88 839.889L1338.86 879.988C1338.86 879.988 1372.41 889.887 1389.19 879.988L1383.21 858.512Z" fill="#7F3E3B"/>
<path d="M1318.78 835.863L1314.92 866.398L1338.86 879.988L1342.88 839.889L1318.78 835.863Z" fill="#7F3E3B"/>
<path d="M1783.02 471.788C1774.46 517.479 1771.83 537.053 1745.66 557.801C1706.51 589.007 1651.98 568.539 1646.73 521.226C1641.92 478.61 1656.68 411.052 1704.05 398.19C1714.48 395.311 1725.48 395.153 1735.99 397.732C1746.51 400.31 1756.18 405.538 1764.1 412.918C1772.02 420.298 1777.92 429.584 1781.23 439.889C1784.54 450.195 1785.15 461.177 1783.02 471.788Z" fill="#7F3E3B"/>
<path d="M1682.63 481.407C1680 504.728 1679 565.295 1730.22 567.196C1792.92 569.489 1811.71 515.913 1806.11 494.493C1838.77 467.929 1843.47 422.238 1806.79 387.284C1770.1 352.331 1689.34 371.849 1666.97 405.907C1638.62 448.131 1682.63 481.407 1682.63 481.407Z" fill="#263238"/>
<path d="M1745.43 400.874C1742.41 376.267 1744.76 359.321 1767.81 359.321C1790.85 359.321 1822.28 367.654 1833.8 391.199C1845.32 414.743 1846.27 451.598 1814.11 447.851C1781.95 444.104 1749.07 430.291 1745.43 400.874Z" fill="#3B6285"/>
<path d="M1781.12 394.946C1775.52 365.641 1801.75 283.095 1865.45 277.502C1894.98 274.986 1908.63 306.751 1893.41 312.008C1921.38 311.673 1939.27 348.64 1913.21 354.176C1933.79 367.375 1928.7 394.443 1899.34 407.753C1877.47 417.819 1788.67 435.548 1781.12 394.946Z" fill="#263238"/>
<path d="M1849.18 426.432C1828.65 426.432 1807.23 423.412 1793.92 414.52C1790.2 412.276 1787.07 409.178 1784.78 405.483C1782.5 401.787 1781.12 397.6 1780.78 393.268C1780.76 392.9 1780.89 392.54 1781.13 392.26C1781.36 391.979 1781.7 391.8 1782.07 391.758C1782.25 391.735 1782.44 391.75 1782.62 391.803C1782.8 391.857 1782.96 391.947 1783.1 392.068C1783.25 392.189 1783.36 392.338 1783.44 392.506C1783.52 392.675 1783.57 392.858 1783.58 393.044C1783.91 396.953 1785.17 400.728 1787.24 404.061C1789.31 407.394 1792.13 410.192 1795.49 412.227C1820.82 429.004 1879.38 423.412 1897.61 417.819C1913.38 412.674 1924.06 402.664 1926.19 391.143C1926.85 386.915 1926.33 382.587 1924.68 378.638C1923.03 374.689 1920.32 371.274 1916.85 368.773C1916.71 368.647 1916.61 368.496 1916.53 368.327C1916.46 368.159 1916.42 367.977 1916.42 367.794C1916.42 367.611 1916.46 367.429 1916.53 367.261C1916.61 367.092 1916.71 366.941 1916.85 366.815C1917.11 366.559 1917.46 366.416 1917.83 366.416C1918.19 366.416 1918.54 366.559 1918.8 366.815C1922.71 369.664 1925.74 373.541 1927.57 378.015C1929.4 382.489 1929.94 387.383 1929.15 392.15C1926.86 404.733 1915.5 415.471 1898.73 420.951C1882.54 425.032 1865.87 426.876 1849.18 426.432Z" fill="#263238"/>
<path d="M1668.37 475.367C1663.16 482.672 1661.01 491.723 1662.39 500.589C1664.23 512.333 1675.64 513.116 1683.92 505.622C1692.19 498.128 1699.41 484.594 1693.31 474.863C1691.96 472.761 1690.09 471.041 1687.88 469.866C1685.67 468.691 1683.2 468.101 1680.7 468.151C1678.2 468.202 1675.75 468.891 1673.6 470.154C1671.44 471.417 1669.64 473.212 1668.37 475.367Z" fill="#7F3E3B"/>
<path d="M1671.56 918.073C1671.56 918.073 1698.74 1239.59 1726.98 1420.79C1749.74 1567.14 1767.75 1909.24 1767.75 1909.24H1831.62C1831.62 1909.24 1854.32 1577.38 1842.8 1432.64C1813.55 1066.33 1878.82 1036.47 1811.65 918.129L1671.56 918.073Z" fill="#3B6285"/>
<path opacity="0.4" d="M1751.98 1039.6C1726.67 1066.16 1706.24 1096.99 1691.63 1130.65C1699.07 1202.9 1707.91 1283.1 1717.3 1353.34C1755.86 1253.53 1767.81 1145.42 1751.98 1039.6Z" fill="black"/>
<path d="M1626.87 916.06C1626.87 916.06 1567.87 1267.22 1558.59 1425.48C1581.74 1571.84 1676.48 1881.22 1676.48 1881.22L1734.59 1860.14C1734.59 1860.14 1702.43 1522.8 1667.47 1430.46C1746.16 1165.54 1803.99 1098.54 1787.16 918.073C1746.83 918.073 1626.87 916.06 1626.87 916.06Z" fill="#305D87"/>
<path d="M1668.71 1896.66L1747.22 1875.35L1742.75 1844.03L1658.69 1866.79L1668.71 1896.66Z" fill="#263238"/>
<path d="M1758.97 1910.53H1840.34L1844.59 1882L1758.52 1879.1L1758.97 1910.53Z" fill="#263238"/>
<path d="M1814.45 906.888L1823 923.945C1823.67 925.287 1822.11 926.63 1819.93 926.63H1620.39C1618.71 926.63 1617.25 925.791 1617.14 924.672L1615.41 907.894C1615.41 906.72 1616.81 905.713 1618.65 905.713H1811.32C1811.89 905.634 1812.48 905.7 1813.03 905.905C1813.58 906.11 1814.06 906.448 1814.45 906.888Z" fill="#3B6285"/>
<path opacity="0.5" d="M1814.45 906.888L1823 923.945C1823.67 925.287 1822.11 926.63 1819.93 926.63H1620.39C1618.71 926.63 1617.25 925.791 1617.14 924.672L1615.41 907.894C1615.41 906.72 1616.81 905.713 1618.65 905.713H1811.32C1811.89 905.634 1812.48 905.7 1813.03 905.905C1813.58 906.11 1814.06 906.448 1814.45 906.888Z" fill="black"/>
<path d="M1788.55 928.363H1793.7C1794.76 928.363 1795.54 927.804 1795.49 927.189L1793.03 904.819C1793.03 904.147 1792.08 903.644 1791.07 903.644H1785.87C1784.86 903.644 1784.08 904.147 1784.14 904.819L1786.54 927.189C1786.65 927.916 1787.55 928.363 1788.55 928.363Z" fill="#3B6285"/>
<path d="M1719.32 765.508C1718.7 765.499 1718.1 765.293 1717.61 764.921C1717.12 764.549 1716.76 764.03 1716.58 763.439C1698.35 695.993 1660.65 640.403 1642.36 632.014C1640.94 631.141 1639.24 630.86 1637.61 631.231C1637.27 631.409 1636.9 631.516 1636.52 631.545C1636.14 631.575 1635.76 631.526 1635.4 631.402C1635.04 631.277 1634.7 631.081 1634.42 630.823C1634.14 630.566 1633.91 630.254 1633.76 629.906C1633.6 629.558 1633.52 629.181 1633.51 628.8C1633.5 628.418 1633.58 628.039 1633.72 627.687C1633.87 627.334 1634.09 627.015 1634.36 626.749C1634.63 626.484 1634.96 626.277 1635.32 626.142C1636.85 625.581 1638.48 625.36 1640.1 625.495C1641.72 625.63 1643.3 626.118 1644.71 626.925C1664.06 636.097 1702.32 690.904 1721.44 759.86C1735.14 759.86 1756.28 758.014 1761.43 757.567C1767.8 749.961 1814.67 691.351 1797.17 627.204C1797.06 626.852 1797.04 626.483 1797.08 626.118C1797.12 625.754 1797.24 625.403 1797.42 625.085C1797.61 624.766 1797.85 624.488 1798.14 624.266C1798.43 624.044 1798.77 623.883 1799.12 623.793C1799.84 623.604 1800.59 623.704 1801.23 624.071C1801.87 624.437 1802.34 625.041 1802.53 625.75C1822.05 697.111 1765.46 761.482 1764.84 762.097C1764.62 762.368 1764.35 762.592 1764.04 762.756C1763.74 762.919 1763.4 763.018 1763.05 763.047C1762.77 763.047 1734.86 765.508 1719.32 765.508Z" fill="#3B6285"/>
<path d="M1811.99 804.992C1781.51 747.892 1769.04 743.865 1763.61 725.521C1767.72 715.264 1773.59 705.801 1780.95 697.559C1777.26 696.496 1769.32 694.93 1764.17 693.979C1764.73 691.463 1765.34 689.002 1765.9 686.597C1760.3 685.971 1754.64 686.235 1749.13 687.38V681.788C1742.02 680.242 1734.73 679.771 1727.48 680.39C1728.12 683.037 1728.73 685.721 1729.33 688.443C1723.74 689.505 1715.24 691.239 1711.15 692.414C1719.09 701.398 1724.91 712.041 1728.21 723.564C1711.77 751.806 1647.9 933.341 1751.81 947.266C1855.72 961.192 1842.41 862.147 1811.99 804.992Z" fill="#3B6285"/>
<path opacity="0.4" d="M1811.99 804.992C1781.51 747.892 1769.04 743.865 1763.61 725.521C1767.72 715.264 1773.59 705.801 1780.95 697.559C1777.26 696.496 1769.32 694.93 1764.17 693.979C1764.73 691.463 1765.34 689.002 1765.9 686.597C1760.3 685.971 1754.64 686.235 1749.13 687.38V681.788C1742.02 680.242 1734.73 679.771 1727.48 680.39C1728.12 683.037 1728.73 685.721 1729.33 688.443C1723.74 689.505 1715.24 691.239 1711.15 692.414C1719.09 701.398 1724.91 712.041 1728.21 723.564C1711.77 751.806 1647.9 933.341 1751.81 947.266C1855.72 961.192 1842.41 862.147 1811.99 804.992Z" fill="white"/>
<path d="M1723.96 718.139C1723.31 721.019 1723.03 723.969 1723.12 726.92C1723.12 728.989 1728.71 730.387 1734.92 731.002C1741.13 731.617 1767.19 732.624 1766.35 729.716C1765.51 726.808 1767.64 722.837 1767.75 720.376C1767.86 717.916 1757.4 717.804 1748.62 718.139C1739.84 718.475 1725.69 715.008 1723.96 718.139Z" fill="#3B6285"/>
<path d="M1663.5 928.363H1668.65C1669.66 928.363 1670.44 927.804 1670.38 927.189L1667.98 904.819C1667.98 904.147 1667.03 903.644 1665.96 903.644H1660.99C1659.98 903.644 1659.2 904.147 1659.25 904.819L1661.66 927.189C1661.55 927.916 1662.44 928.363 1663.5 928.363Z" fill="#3B6285"/>
</svg>
