<svg width="12292" height="11064" viewBox="0 0 12292 11064" fill="none" xmlns="http://www.w3.org/2000/svg">
<path d="M10977.6 2355.07V2271.03H9422.97V1024.99H9372.39V2271.03H7828.77V2355.07H9372.39V3508.63H7828.77V3592.93H9372.39V4746.49H7828.77V4830.53H9372.39V6042.59H9422.97V4830.53H10977.6V4746.49H9422.97V3592.93H10977.6V3508.63H9422.97V2355.07H10977.6Z" fill="#263238" stroke="#263238" stroke-miterlimit="10"/>
<path d="M7722.25 923.838V6177.47H11073.1V923.838H7722.25ZM10960 5999.94H7835.41V1101.11H10960V5999.94Z" fill="#263238" stroke="#263238" stroke-miterlimit="10"/>
<path d="M6263.18 7525.93C6263.3 7525.61 6263.36 7525.27 6263.35 7524.93C6263.34 7524.59 6263.26 7524.25 6263.12 7523.94C6262.97 7523.63 6262.77 7523.36 6262.52 7523.13C6262.27 7522.9 6261.97 7522.72 6261.65 7522.61C6261.33 7522.48 6260.99 7522.43 6260.65 7522.44C6260.31 7522.45 6259.97 7522.53 6259.67 7522.67C6259.36 7522.82 6259.08 7523.02 6258.85 7523.27C6258.62 7523.52 6258.44 7523.82 6258.33 7524.14C6183.3 7703.87 6123.99 7889.75 6081.05 8079.72C6037.24 8269.7 6004.24 8462.02 5982.2 8655.74L5968.4 8801.34C5966.36 8825.6 5963.55 8849.87 5961.76 8874.14L5957.93 8947.19C5955.89 8995.98 5952.82 9044.77 5951.29 9093.56L5952.82 9239.93L5954.35 9312.98C5954.35 9337.25 5957.16 9361.77 5958.95 9386.04C5962.53 9434.57 5965.59 9483.36 5969.94 9531.9C5979.39 9628.96 5993.95 9725.26 6008.76 9821.56C6008.92 9822.13 6009.25 9822.63 6009.71 9823C6010.17 9823.36 6010.73 9823.58 6011.32 9823.61C6011.66 9823.65 6012.01 9823.61 6012.34 9823.5C6012.67 9823.38 6012.97 9823.2 6013.21 9822.95C6013.46 9822.7 6013.65 9822.41 6013.76 9822.08C6013.88 9821.75 6013.91 9821.4 6013.87 9821.05C6013.87 9772.26 6011.57 9723.99 6010.55 9675.2C6009.53 9626.41 6004.93 9578.64 6005.7 9530.11C6006.46 9481.57 6005.7 9433.04 6004.17 9384.76L6002.63 9312.22V9239.67V9094.58L6006.46 8949.75L6008 8877.2C6008 8852.94 6010.81 8828.93 6012.08 8804.66L6021.02 8659.82C6037.5 8466.94 6064.87 8275.13 6103.02 8085.34C6140.15 7894.59 6193.74 7707.42 6263.18 7525.93Z" fill="#263238"/>
<path d="M6283.87 8284.07C6284.04 8283.46 6283.98 8282.81 6283.7 8282.24C6283.41 8281.68 6282.93 8281.24 6282.34 8281.01C6282.02 8280.89 6281.68 8280.83 6281.34 8280.84C6281 8280.85 6280.67 8280.93 6280.36 8281.07C6280.05 8281.22 6279.77 8281.42 6279.54 8281.67C6279.31 8281.92 6279.13 8282.22 6279.02 8282.54C6196.21 8524.5 6141.11 8775.07 6114.77 9029.44C6102 9157.16 6087.69 9283.35 6085.91 9411.07C6082.87 9538.95 6087.39 9666.89 6099.44 9794.23C6099.59 9794.76 6099.88 9795.23 6100.29 9795.6C6100.7 9795.96 6101.2 9796.19 6101.74 9796.27C6102.06 9796.35 6102.4 9796.35 6102.72 9796.29C6103.04 9796.22 6103.35 9796.09 6103.62 9795.9C6103.88 9795.7 6104.1 9795.45 6104.27 9795.17C6104.43 9794.88 6104.53 9794.56 6104.55 9794.23C6119.37 9666.51 6128.31 9540.32 6137.25 9413.63C6146.19 9286.93 6147.47 9159.97 6155.64 9033.28C6173.03 8780.06 6215.82 8529.24 6283.36 8284.58L6283.87 8284.07Z" fill="#263238"/>
<path d="M6704.33 8551.01C6703.85 8550.54 6703.21 8550.28 6702.54 8550.28C6701.87 8550.28 6701.23 8550.54 6700.75 8551.01C6595.63 8618.5 6500.96 8701.03 6419.77 8795.98C6378.98 8843.94 6342.25 8895.21 6309.93 8949.24L6287.45 8991.9L6269.57 9036.34C6263.58 9050.93 6258.47 9065.86 6254.24 9081.05C6249.64 9096.37 6244.53 9111.19 6240.45 9126.51C6208.34 9247.81 6188.91 9372.11 6182.46 9497.41C6176.19 9622.06 6180.81 9747.02 6196.26 9870.87C6196.42 9871.43 6196.75 9871.93 6197.21 9872.3C6197.66 9872.66 6198.22 9872.88 6198.81 9872.91C6199.13 9872.95 6199.46 9872.91 6199.77 9872.81C6200.08 9872.71 6200.36 9872.55 6200.6 9872.33C6200.84 9872.12 6201.04 9871.85 6201.17 9871.55C6201.3 9871.26 6201.37 9870.94 6201.36 9870.61L6233.55 9500.99C6242.27 9378.7 6257.87 9257.01 6280.3 9136.48C6283.62 9121.41 6287.96 9107.1 6291.79 9092.29C6295.23 9077.5 6299.5 9062.92 6304.56 9048.61L6319.63 9005.95L6339.05 8965.59C6368.29 8911.8 6401.95 8860.54 6439.69 8812.32C6514.71 8714.39 6603.6 8627.91 6703.56 8555.61C6703.98 8555.42 6704.34 8555.13 6704.62 8554.76C6704.9 8554.39 6705.09 8553.97 6705.17 8553.51C6705.24 8553.06 6705.2 8552.59 6705.06 8552.16C6704.91 8551.72 6704.66 8551.33 6704.33 8551.01Z" fill="#263238"/>
<path d="M6500.74 9025.87C6446.2 9065.67 6402.33 9118.32 6373.02 9179.14C6342.14 9239.01 6318.07 9302.16 6301.24 9367.4C6296.39 9383.49 6292.3 9399.84 6288.73 9416.18L6277.23 9465.23C6271.16 9498.26 6266.98 9531.6 6264.71 9565.11C6264.71 9598.82 6263.44 9632.29 6264.71 9665.75C6267.15 9699.26 6271.5 9732.61 6277.74 9765.63C6277.91 9766.1 6278.18 9766.53 6278.53 9766.88C6278.88 9767.24 6279.31 9767.5 6279.78 9767.67C6280.12 9767.74 6280.47 9767.75 6280.81 9767.69C6281.14 9767.62 6281.47 9767.49 6281.75 9767.3C6282.04 9767.11 6282.28 9766.86 6282.47 9766.58C6282.66 9766.29 6282.79 9765.96 6282.85 9765.63C6290.59 9733.19 6296.56 9700.36 6300.73 9667.28C6305.84 9634.59 6310.95 9602.4 6314.78 9569.96C6318.61 9537.52 6323.72 9505.59 6326.28 9473.15C6328.83 9440.71 6333.17 9408.27 6340.32 9376.59C6351.55 9312.59 6369.89 9250.05 6394.99 9190.12C6417.63 9129.02 6454.39 9074.14 6502.27 9029.96C6502.5 9029.74 6502.68 9029.49 6502.8 9029.2C6502.92 9028.92 6502.98 9028.61 6502.98 9028.3C6502.98 9027.99 6502.92 9027.68 6502.8 9027.4C6502.68 9027.11 6502.5 9026.85 6502.27 9026.64C6501.85 9026.23 6501.32 9025.96 6500.74 9025.87Z" fill="#263238"/>
<path d="M5911.19 9396.26C5897.39 9232.26 5870.32 9069.55 5844.77 8907.35C5819.23 8745.14 5790.62 8582.94 5760.99 8422.01C5731.36 8261.08 5698.15 8099.39 5663.15 7938.97C5663.28 7938.59 5663.31 7938.18 5663.25 7937.78C5663.19 7937.38 5663.03 7937 5662.8 7936.68C5662.56 7936.35 5662.25 7936.08 5661.89 7935.9C5661.53 7935.72 5661.13 7935.62 5660.73 7935.62C5660.32 7935.62 5659.92 7935.72 5659.57 7935.9C5659.21 7936.08 5658.89 7936.35 5658.66 7936.68C5658.42 7937 5658.27 7937.38 5658.2 7937.78C5658.14 7938.18 5658.17 7938.59 5658.3 7938.97C5686.4 8100.92 5711.69 8263.13 5734.93 8425.59C5758.18 8588.05 5782.7 8750.25 5803.39 8912.96C5824.08 9075.68 5839.15 9239.16 5859.33 9401.62L5919.36 9890.28C5919.51 9890.87 5919.83 9891.41 5920.28 9891.82C5920.74 9892.23 5921.31 9892.49 5921.91 9892.58C5922.62 9892.58 5923.3 9892.32 5923.82 9891.85C5924.34 9891.37 5924.66 9890.72 5924.72 9890.02C5926.51 9848.9 5926.51 9807.77 5927.53 9766.39C5928.56 9725.01 5925.75 9684.14 5925.23 9643.01C5924.47 9560.5 5917.32 9478.51 5911.19 9396.26Z" fill="#263238"/>
<path d="M5812.84 9393.96C5803.9 9328.82 5792.15 9264.19 5779.63 9199.82L5756.64 9104.03C5748.98 9072.1 5741.83 9040.17 5732.63 9008.5C5699.87 8881.21 5657.86 8756.48 5606.96 8635.3L5587.29 8590.09L5565.58 8545.9C5551.53 8516.27 5534.92 8487.91 5518.83 8459.05C5486.57 8401.66 5446.7 8348.91 5400.31 8302.21C5400.09 8301.98 5399.83 8301.81 5399.55 8301.68C5399.26 8301.56 5398.96 8301.5 5398.65 8301.5C5398.34 8301.5 5398.03 8301.56 5397.74 8301.68C5397.46 8301.81 5397.2 8301.98 5396.99 8302.21C5396.52 8302.69 5396.26 8303.33 5396.26 8304C5396.26 8304.67 5396.52 8305.31 5396.99 8305.79C5440.21 8354.18 5476.65 8408.23 5505.29 8466.46C5519.6 8495.58 5534.67 8524.19 5546.93 8554.33L5566.34 8599.03L5583.46 8644.75C5628.84 8766.36 5665.38 8891.08 5692.78 9017.95C5707.6 9081.04 5718.33 9145.67 5729.82 9209.28L5745.15 9305.32C5750.77 9337.25 5757.67 9369.18 5762.01 9401.37C5772.23 9465.48 5784.23 9529.09 5795.22 9593.71C5806.2 9658.34 5816.93 9721.43 5830.72 9786.57C5830.82 9787.14 5831.09 9787.67 5831.51 9788.08C5831.92 9788.5 5832.45 9788.77 5833.02 9788.87C5833.72 9788.87 5834.4 9788.61 5834.92 9788.14C5835.44 9787.66 5835.77 9787.01 5835.83 9786.31C5835.83 9720.75 5834.3 9655.19 5831.23 9589.62C5827.4 9524.23 5819.48 9459.09 5812.84 9393.96Z" fill="#263238"/>
<path d="M5676.95 9402.39C5646.55 9316.05 5611.3 9231.76 5572.98 9149.25C5534.35 9066.77 5490.67 8986.75 5442.2 8909.65C5442.07 8909.3 5441.86 8908.99 5441.59 8908.73C5441.33 8908.47 5441.01 8908.27 5440.66 8908.15C5440.31 8908.03 5439.93 8907.98 5439.56 8908.02C5439.19 8908.05 5438.84 8908.17 5438.52 8908.36C5438.2 8908.55 5437.92 8908.8 5437.71 8909.11C5437.5 8909.41 5437.36 8909.76 5437.29 8910.13C5437.23 8910.49 5437.25 8910.87 5437.35 8911.23C5437.44 8911.58 5437.62 8911.92 5437.86 8912.2C5480.03 8992.29 5517.31 9074.86 5549.48 9159.47C5582.69 9243.25 5612.83 9328.57 5637.86 9414.91C5662.9 9501.25 5682.06 9589.37 5705.05 9676.22C5728.03 9763.07 5748.73 9850.69 5775.55 9938.56C5775.7 9939.06 5776.01 9939.49 5776.42 9939.81C5776.83 9940.13 5777.33 9940.32 5777.85 9940.35C5778.55 9940.35 5779.23 9940.09 5779.75 9939.62C5780.27 9939.14 5780.59 9938.49 5780.66 9937.79C5781.62 9846.13 5773.06 9754.62 5755.11 9664.73C5736.13 9575.33 5709.99 9487.6 5676.95 9402.39Z" fill="#263238"/>
<path d="M5671.33 9689.25C5654.58 9635.49 5630.24 9584.39 5599.04 9537.52C5569.99 9489.47 5534.59 9445.57 5493.8 9406.99C5472.98 9388.09 5450.59 9370.99 5426.87 9355.9C5403.2 9340.69 5377.36 9329.15 5350.24 9321.67C5349.67 9321.57 5349.08 9321.66 5348.57 9321.94C5348.05 9322.22 5347.65 9322.66 5347.43 9323.2C5347.03 9323.66 5346.82 9324.25 5346.82 9324.86C5346.82 9325.47 5347.03 9326.06 5347.43 9326.52C5395.85 9349.87 5438.77 9383.21 5473.36 9424.36C5508.29 9464.58 5537.75 9509.24 5560.98 9557.18C5586.52 9604.19 5598.78 9656.3 5620.49 9705.08C5629.95 9730.63 5639.4 9754.89 5650.64 9779.93C5659.8 9806.22 5670.81 9831.83 5683.59 9856.56C5683.84 9856.94 5684.18 9857.26 5684.58 9857.48C5684.98 9857.71 5685.43 9857.83 5685.89 9857.84C5686.21 9857.87 5686.54 9857.84 5686.85 9857.74C5687.15 9857.64 5687.44 9857.48 5687.68 9857.26C5687.92 9857.04 5688.11 9856.78 5688.25 9856.48C5688.38 9856.18 5688.44 9855.86 5688.44 9855.54C5689.47 9827.49 5688.44 9799.4 5685.38 9771.5C5683.59 9743.66 5677.97 9716.32 5671.33 9689.25Z" fill="#263238"/>
<path d="M5681.54 8172.96C5599.4 8150.23 5525.03 8105.47 5466.5 8043.52C5407.97 7981.56 5367.5 7904.78 5349.47 7821.47C5287.4 7531.8 5487.41 7655.95 5308.09 7200.75C5128.77 6745.56 5170.15 6642.11 5231.46 6511.07C5292.77 6380.03 5328.02 6421.41 5383.19 6593.83C5438.37 6766.25 5638.63 7035.23 5715.26 7538.96C5791.9 8042.68 5681.54 8172.96 5681.54 8172.96Z" fill="#FF6020"/>
<path d="M6212.09 7683.54C6212.09 7683.54 6033.29 7621.46 6025.88 7283.52C6018.47 6945.57 6156.92 7014.54 6177.61 6593.83C6198.3 6173.12 6225.89 5876.55 6301.75 5869.66C6377.62 5862.76 6577.63 6076.56 6646.6 6545.55C6715.57 7014.54 6556.94 7324.9 6419 7462.84C6281.06 7600.77 6212.09 7683.54 6212.09 7683.54Z" fill="#FF6020"/>
<path d="M5584.99 8579.87C5584.99 8579.87 5543.61 8331.59 5460.85 8214.34C5378.08 8097.09 5198.76 7993.64 5081.52 7766.3C4964.27 7538.96 4833.23 7428.35 4840.13 7752.5C4847.02 8076.66 4991.86 8241.93 5172.2 8352.28C5352.54 8462.63 5584.99 8579.87 5584.99 8579.87Z" fill="#FF6020"/>
<path d="M5509.12 9007.48C5509.12 9007.48 5343.6 8690.22 5102.21 8455.73C4860.82 8221.24 4667.96 8103.99 4736.67 8221.24C4805.39 8338.48 4888.41 8331.59 5005.65 8538.49C5122.9 8745.4 5088.41 8896.11 5253.94 9014.38C5419.46 9132.65 5509.12 9007.48 5509.12 9007.48Z" fill="#FF6020"/>
<path d="M5488.43 9414.39C5481.54 9393.7 5474.64 9241.97 5240.15 9117.83C5005.65 8993.69 4784.95 9041.2 4812.54 9104.04C4840.13 9166.87 4984.96 9269.56 5129.8 9331.63C5274.63 9393.7 5488.43 9414.39 5488.43 9414.39Z" fill="#FF6020"/>
<path d="M6198.56 8593.67C6198.56 8593.67 6095.1 8462.63 6150.28 8186.75C6205.45 7910.88 6329.08 7979.84 6467.53 7835.01C6605.98 7690.18 6577.88 7669.74 6715.82 7518.01C6853.76 7366.28 6977.9 7283.52 7033.08 7345.59C7088.25 7407.66 7005.49 7601.03 6922.73 7711.12C6839.96 7821.22 6708.92 7876.39 6646.34 8013.31C6583.76 8150.22 6611.86 8370.92 6453.23 8475.4C6294.6 8579.87 6198.56 8593.67 6198.56 8593.67Z" fill="#FF6020"/>
<path d="M6544.17 8669.53C6544.17 8669.53 6792.45 8386.76 6971.77 8179.86C7151.09 7972.95 7220.06 7814.58 7227.21 7952.26C7234.36 8089.94 7289.28 8200.55 7144.45 8379.87C6999.61 8559.19 6544.17 8669.53 6544.17 8669.53Z" fill="#FF6020"/>
<path d="M6412.36 9124.73C6412.36 9124.73 6405.46 9014.38 6798.58 8759.19C7191.7 8504.01 7357.23 8455.73 7315.85 8559.18C7274.47 8662.64 7102.04 8766.09 6915.83 8952.31C6729.61 9138.52 6412.36 9124.73 6412.36 9124.73Z" fill="#FF6020"/>
<path d="M5697.89 8143.58C5697.89 8143.58 5605.68 7649.05 5509.12 7297.31C5412.57 6945.57 5350.5 6731.77 5350.5 6731.77" stroke="#263238" stroke-linecap="round" stroke-linejoin="round"/>
<path d="M6196.51 7688.64C6196.51 7688.64 6364.08 7152.22 6419.25 6828.32C6474.43 6504.43 6412.36 6262.78 6384.77 6117.95" stroke="#263238" stroke-linecap="round" stroke-linejoin="round"/>
<path d="M5563.28 8569.66C5489.01 8441.91 5403.98 8320.74 5309.11 8207.44C5157.38 8028.64 5040.14 7931.57 4971.17 7759.4" stroke="#263238" stroke-linecap="round" stroke-linejoin="round"/>
<path d="M6198.56 8593.67C6198.56 8593.67 6253.73 8261.6 6384.77 8090.2C6515.81 7918.8 6777.89 7649.05 6881.35 7477.14" stroke="#263238" stroke-linecap="round" stroke-linejoin="round"/>
<path d="M5471.32 9406.73C5471.32 9406.73 5239.38 9255.77 5073.85 9173.01" stroke="#263238" stroke-linecap="round" stroke-linejoin="round"/>
<path d="M6234.83 10869.4H5755.62L5516.02 9669.58H6474.43L6234.83 10869.4Z" fill="#263238" stroke="#263238" stroke-linecap="round" stroke-linejoin="round"/>
<path d="M1430.26 10869.4H12291" stroke="#263238" stroke-miterlimit="10"/>
<path d="M571.475 10869.4H1245.07" stroke="#263238" stroke-miterlimit="10"/>
<path d="M5296.09 3517.57V2712.94H5223.29V1683.26C5223.32 1599.88 5206.93 1517.31 5175.04 1440.26C5143.16 1363.22 5096.4 1293.22 5037.46 1234.24C4978.51 1175.27 4908.52 1128.49 4831.49 1096.58C4754.46 1064.66 4671.9 1048.24 4588.52 1048.24H1177.89C1009.47 1048.24 847.949 1115.14 728.859 1234.23C609.769 1353.32 542.865 1514.84 542.865 1683.26V9791.68C542.865 9960.1 609.769 10121.6 728.859 10240.7C847.949 10359.8 1009.47 10426.7 1177.89 10426.7H4588.52C4671.9 10426.7 4754.46 10410.3 4831.49 10378.4C4908.52 10346.4 4978.51 10299.7 5037.46 10240.7C5096.4 10181.7 5143.16 10111.7 5175.04 10034.7C5206.93 9957.63 5223.32 9875.06 5223.29 9791.68V4203.43H5296.09V3728.05H5223.29V3517.57H5296.09Z" fill="#707070" stroke="#263238" stroke-linejoin="round"/>
<path d="M4477.15 10339.1H1289C1110.63 10339.1 939.555 10268.2 813.424 10142.1C687.292 10016 616.432 9844.89 616.432 9666.51V1808.42C616.432 1436.76 806.99 1135.59 1289 1135.59H4477.15C4919.31 1129.72 5149.97 1436.76 5149.97 1808.42V9666.51C5149.97 9754.86 5132.57 9842.34 5098.75 9923.95C5064.94 10005.6 5015.37 10079.7 4952.89 10142.2C4890.41 10204.6 4816.24 10254.2 4734.61 10288C4652.98 10321.7 4565.49 10339.1 4477.15 10339.1Z" fill="#263238" stroke="#263238" stroke-linejoin="round"/>
<path d="M3129.96 1239.05L3128.68 1243.9C3091.39 1382.86 3005.56 1473.8 2910.54 1473.8H2855.87C2760.85 1473.8 2675.02 1383.88 2637.73 1243.9V1239.05L1307.4 1234.45C1233.74 1234.21 1160.76 1248.52 1092.63 1276.53C1024.51 1304.55 962.584 1345.73 910.404 1397.72C858.224 1449.71 816.815 1511.49 788.55 1579.51C760.284 1647.53 745.717 1720.46 745.684 1794.12L743.896 9583.5C743.896 9946.48 1027.94 10240.7 1378.66 10240.7H4388.76C4739.48 10240.7 5023.79 9946.48 5023.79 9583.5V1738.18C5023.8 1610.43 4973.44 1487.82 4883.63 1396.96C4793.82 1306.11 4671.81 1254.32 4544.07 1252.84L3129.96 1239.05Z" fill="white" stroke="#263238" stroke-miterlimit="10"/>
<path d="M5023.28 1879.69V1738.18C5023.29 1610.43 4972.92 1487.82 4883.12 1396.97C4793.31 1306.11 4671.3 1254.32 4543.56 1252.84L3129.96 1238.28L3128.68 1243.14C3091.39 1382.1 3005.56 1473.03 2910.54 1473.03H2855.87C2760.85 1473.03 2675.02 1383.12 2637.73 1243.14V1238.28L1307.4 1233.68C1233.67 1233.45 1160.63 1247.78 1092.46 1275.84C1024.28 1303.91 962.323 1345.16 910.133 1397.23C857.943 1449.3 816.55 1511.17 788.329 1579.27C760.109 1647.38 745.617 1720.4 745.684 1794.12V1879.69H5023.28Z" fill="#DBDBDB" stroke="#263238" stroke-miterlimit="10"/>
<path d="M2929.69 1223.72C2929.69 1211.89 2926.18 1200.32 2919.6 1190.49C2913.02 1180.65 2903.67 1172.99 2892.74 1168.48C2881.8 1163.96 2869.77 1162.79 2858.17 1165.12C2846.56 1167.45 2835.91 1173.16 2827.56 1181.55C2819.22 1189.93 2813.54 1200.61 2811.27 1212.22C2808.99 1223.83 2810.21 1235.86 2814.77 1246.78C2819.33 1257.69 2827.04 1267.01 2836.9 1273.55C2846.76 1280.08 2858.34 1283.55 2870.18 1283.5C2878.01 1283.5 2885.77 1281.95 2893.01 1278.94C2900.25 1275.93 2906.82 1271.53 2912.35 1265.97C2917.88 1260.42 2922.26 1253.83 2925.24 1246.58C2928.21 1239.33 2929.73 1231.56 2929.69 1223.72Z" fill="#707070"/>
<path d="M1164.61 1375.45C1164.61 1435.99 1096.91 1457.71 1096.66 1503.17V1506.24H1162.31V1526.42H1074.69V1509.82C1074.69 1445.19 1142.38 1433.18 1142.38 1376.48C1142.38 1355.79 1135.49 1345.06 1118.88 1345.06C1102.28 1345.06 1095.38 1356.81 1095.38 1374.43V1392.06H1074.69V1375.96C1074.69 1345.31 1088.48 1324.88 1119.39 1324.88C1150.3 1324.88 1164.61 1346.33 1164.61 1375.45Z" fill="#263238"/>
<path d="M1274.19 1375.2V1380.31C1275.05 1389.05 1273.02 1397.84 1268.4 1405.31C1263.79 1412.79 1256.85 1418.54 1248.65 1421.69C1256.9 1424.76 1263.89 1430.5 1268.52 1438C1273.15 1445.49 1275.14 1454.31 1274.19 1463.07V1478.4C1274.19 1509.05 1259.88 1529.48 1228.98 1529.48C1198.07 1529.48 1184.02 1509.56 1184.02 1478.4V1464.86H1205.48V1479.93C1205.48 1497.81 1212.88 1508.79 1228.98 1508.79C1245.07 1508.79 1252.22 1498.07 1252.22 1477.89V1462.56C1252.22 1442.64 1244.05 1433.18 1226.68 1432.67H1214.67V1412.75H1227.7C1231.18 1412.79 1234.62 1412.07 1237.8 1410.65C1240.97 1409.22 1243.8 1407.13 1246.08 1404.5C1248.36 1401.88 1250.05 1398.79 1251.02 1395.45C1251.99 1392.11 1252.23 1388.6 1251.71 1385.16V1376.22C1251.71 1355.53 1244.56 1345.06 1228.47 1345.06C1212.37 1345.06 1204.96 1356.04 1204.96 1374.18V1384.4H1184.02V1375.2C1184.02 1344.8 1198.32 1324.11 1228.98 1324.11C1259.63 1324.11 1274.19 1344.8 1274.19 1375.2Z" fill="#263238"/>
<path d="M1317.36 1390.53V1418.11H1295.9V1390.53H1317.36ZM1317.36 1499.34V1526.93H1295.9V1499.6L1317.36 1499.34Z" fill="#263238"/>
<path d="M1362.32 1408.41C1365.28 1403.15 1369.64 1398.82 1374.92 1395.89C1380.19 1392.96 1386.17 1391.54 1392.2 1391.8C1417.75 1391.8 1429.24 1410.7 1429.24 1439.31V1478.4C1429.24 1509.05 1414.68 1529.48 1384.28 1529.48C1353.89 1529.48 1339.33 1509.56 1339.33 1478.4V1465.11H1360.02V1479.93C1360.02 1497.81 1367.68 1508.79 1383.52 1508.79C1399.35 1508.79 1407.02 1497.81 1407.02 1479.93V1441.1C1407.02 1422.97 1399.61 1412.24 1383.52 1412.24C1380.61 1412.1 1377.71 1412.55 1374.99 1413.57C1372.27 1414.58 1369.78 1416.14 1367.68 1418.15C1365.58 1420.15 1363.91 1422.57 1362.76 1425.24C1361.62 1427.91 1361.04 1430.79 1361.04 1433.69V1438.04H1340.09L1345.46 1326.92H1424.39V1346.33H1365.64L1362.32 1408.41Z" fill="#263238"/>
<path d="M1540.61 1374.94V1378.77H1519.67V1373.66C1519.67 1355.53 1512.26 1345.05 1495.91 1345.05C1479.56 1345.05 1470.37 1355.78 1470.37 1377.24V1422.96C1472.68 1416.38 1477.07 1410.73 1482.88 1406.86C1488.68 1402.99 1495.59 1401.11 1502.55 1401.51C1528.1 1401.51 1539.85 1420.15 1539.85 1449.02V1479.16C1539.85 1509.81 1524.78 1530.25 1494.12 1530.25C1463.47 1530.25 1448.14 1510.32 1448.14 1479.16V1376.98C1448.14 1345.31 1462.45 1325.9 1494.12 1325.9C1525.8 1325.9 1540.61 1344.29 1540.61 1374.94ZM1471.64 1449.78V1479.93C1471.64 1497.81 1479.05 1508.79 1495.4 1508.79C1511.75 1508.79 1519.16 1497.81 1519.16 1479.93V1449.78C1519.16 1431.9 1511.49 1420.92 1495.4 1420.92C1479.31 1420.92 1471.64 1431.9 1471.64 1449.78Z" fill="#263238"/>
<path d="M3724.62 1383.88H3668.17V1525.14H3724.62V1383.88Z" fill="#263238"/>
<path d="M3799.98 1355.53H3743.52V1525.14H3799.98V1355.53Z" fill="#263238"/>
<path d="M3875.33 1335.35H3818.88V1524.89H3875.33V1335.35Z" fill="#263238"/>
<path d="M3950.43 1300.35H3893.98V1524.89H3950.43V1300.35Z" fill="#263238"/>
<path d="M4649.57 1521.05H4310.6V1313.89H4649.57V1521.05ZM4329.5 1502.41H4630.67V1332.8H4329.5V1502.41Z" fill="#263238"/>
<path d="M4536.66 1353.23H4357.86V1481.71H4536.66V1353.23Z" fill="#263238"/>
<path d="M4680.48 1393.08H4637.82V1441.87H4680.48V1393.08Z" fill="#263238"/>
<path d="M4186.46 1476.1C4184.12 1476.15 4181.81 1475.52 4179.82 1474.31C4110.85 1433.18 4065.38 1471.24 4063.33 1473.03C4060.99 1475.35 4057.82 1476.66 4054.52 1476.66C4051.22 1476.66 4048.05 1475.35 4045.71 1473.03C4043.37 1470.64 4042.06 1467.43 4042.06 1464.09C4042.06 1460.75 4043.37 1457.54 4045.71 1455.15C4048.26 1453.11 4106.5 1404.06 4191.82 1455.15C4194.1 1456.62 4195.86 1458.78 4196.83 1461.31C4197.8 1463.84 4197.94 1466.62 4197.23 1469.24C4196.52 1471.86 4194.99 1474.18 4192.87 1475.87C4190.75 1477.56 4188.15 1478.54 4185.43 1478.65L4186.46 1476.1Z" fill="#263238"/>
<path d="M4212 1433.44C4209.66 1433.49 4207.36 1432.87 4205.36 1431.65C4105.74 1372.39 4038.56 1429.86 4038.05 1431.65C4035.48 1433.4 4032.37 1434.15 4029.3 1433.77C4026.22 1433.4 4023.38 1431.91 4021.32 1429.6C4019.26 1427.28 4018.11 1424.3 4018.08 1421.2C4018.06 1418.1 4019.16 1415.09 4021.19 1412.75C4021.19 1412.75 4102.93 1342.76 4218.39 1411.21C4219.83 1412.06 4221.08 1413.18 4222.09 1414.51C4223.09 1415.85 4223.81 1417.37 4224.21 1418.98C4224.62 1420.6 4224.7 1422.29 4224.44 1423.93C4224.19 1425.58 4223.6 1427.16 4222.73 1428.58C4221.49 1430.23 4219.86 1431.53 4217.99 1432.38C4216.11 1433.23 4214.05 1433.59 4212 1433.44Z" fill="#263238"/>
<path d="M4234.99 1384.14C4232.74 1384.15 4230.52 1383.53 4228.6 1382.35C4102.42 1307.25 4018.38 1378.01 4014.8 1382.35C4013.64 1383.54 4012.24 1384.48 4010.71 1385.13C4009.17 1385.77 4007.53 1386.11 4005.86 1386.11C4004.2 1386.11 4002.55 1385.77 4001.01 1385.13C3999.48 1384.48 3998.09 1383.54 3996.92 1382.35C3995.82 1381.12 3994.97 1379.69 3994.44 1378.12C3993.9 1376.56 3993.69 1374.91 3993.81 1373.27C3993.93 1371.62 3994.38 1370.01 3995.13 1368.55C3995.89 1367.08 3996.93 1365.78 3998.2 1364.72C3998.2 1364.72 4098.84 1278.39 4241.63 1363.19C4244.49 1364.94 4246.54 1367.74 4247.36 1370.99C4248.17 1374.24 4247.67 1377.68 4245.97 1380.56C4244.57 1382 4242.83 1383.07 4240.92 1383.69C4239.01 1384.32 4236.97 1384.47 4234.99 1384.14Z" fill="#263238"/>
<path d="M4148.4 1497.3C4148.44 1503.67 4146.59 1509.91 4143.06 1515.21C4139.54 1520.51 4134.51 1524.64 4128.62 1527.07C4122.73 1529.49 4116.25 1530.1 4110.01 1528.81C4103.77 1527.52 4098.06 1524.4 4093.61 1519.84C4089.17 1515.28 4086.18 1509.5 4085.05 1503.23C4083.91 1496.96 4084.68 1490.5 4087.25 1484.67C4089.81 1478.84 4094.06 1473.91 4099.45 1470.52C4104.84 1467.13 4111.12 1465.42 4117.49 1465.62C4125.76 1465.82 4133.62 1469.25 4139.39 1475.17C4145.17 1481.09 4148.4 1489.03 4148.4 1497.3Z" fill="#263238"/>
<path d="M2879.37 4811.63C3441.34 4820.32 3909.56 5033.35 4278.67 5459.43C4290.55 5472.33 4299.68 5487.5 4305.53 5504.03C4311.38 5520.57 4313.82 5538.11 4312.69 5555.61C4311.57 5573.11 4306.91 5590.2 4299 5605.85C4291.09 5621.5 4280.09 5635.38 4266.66 5646.66C4253.68 5657.8 4238.59 5666.22 4222.29 5671.41C4205.99 5676.6 4188.81 5678.47 4171.78 5676.9C4154.74 5675.32 4138.2 5670.34 4123.12 5662.26C4108.05 5654.17 4094.75 5643.13 4084.03 5629.8C3952.32 5474.17 3792.2 5345 3612.23 5249.2C3335.47 5102.16 3020.91 5041.69 2709.36 5075.62C2397.8 5109.56 2103.64 5236.33 1865.02 5439.5C1798.32 5498.79 1735.04 5561.81 1675.48 5628.27C1664.37 5641.73 1650.69 5652.86 1635.25 5661C1619.81 5669.15 1602.9 5674.15 1585.51 5675.71C1568.12 5677.28 1550.6 5675.39 1533.94 5670.14C1517.29 5664.89 1501.85 5656.39 1488.5 5645.13C1475.33 5633.61 1464.62 5619.56 1457 5603.81C1449.38 5588.06 1445.01 5570.94 1444.15 5553.46C1443.3 5535.99 1445.97 5518.52 1452.01 5502.1C1458.05 5485.68 1467.33 5470.65 1479.31 5457.89C1774.74 5106.93 2191.53 4880.11 2646.67 4822.61C2683.45 4817.76 2720.49 4813.67 2757.53 4812.14C2794.57 4810.61 2838.76 4811.63 2879.37 4811.63Z" fill="#263238"/>
<path d="M2925.86 5332.47C3280.92 5341.66 3615.55 5493.14 3877.12 5796.6C3889.16 5809.34 3898.45 5824.41 3904.42 5840.89C3910.38 5857.37 3912.89 5874.9 3911.79 5892.39C3910.69 5909.88 3906 5926.96 3898.01 5942.56C3890.03 5958.16 3878.91 5971.95 3865.37 5983.07C3852.28 5994.44 3837.01 6003.02 3820.5 6008.29C3803.98 6013.57 3786.57 6015.42 3769.31 6013.75C3752.06 6012.08 3735.33 6006.91 3720.13 5998.56C3704.94 5990.21 3691.61 5978.86 3680.94 5965.19C3549.8 5806.46 3373.36 5691.51 3175.17 5635.68C2763.66 5524.3 2406.04 5625.97 2107.18 5931.22C2095.94 5942.71 2085.72 5954.98 2075.25 5966.73C2064.18 5979.88 2050.6 5990.71 2035.31 5998.57C2020.02 6006.44 2003.32 6011.19 1986.18 6012.54C1969.03 6013.9 1951.79 6011.83 1935.46 6006.46C1919.12 6001.1 1904.01 5992.54 1891.01 5981.28C1878.01 5970.02 1867.38 5956.3 1859.73 5940.9C1852.09 5925.49 1847.58 5908.73 1846.46 5891.57C1845.35 5874.41 1847.66 5857.2 1853.26 5840.94C1858.86 5824.68 1867.63 5809.7 1879.07 5796.86C1994.54 5659.9 2136.97 5548.17 2297.48 5468.62C2481.14 5377.43 2676.04 5333.24 2925.86 5332.47Z" fill="#263238"/>
<path d="M3509.8 6220.38C3509.91 6246.67 3502.03 6272.37 3487.2 6294.09C3472.38 6315.8 3451.31 6332.5 3426.78 6341.97C3401.92 6351.82 3374.59 6353.62 3348.65 6347.11C3322.71 6340.6 3299.47 6326.12 3282.2 6305.7C3228.28 6242.05 3160.46 6191.62 3083.98 6158.31C2870.94 6067.88 2635.94 6123.06 2477.31 6301.86C2461.31 6322.26 2439.39 6337.22 2414.56 6344.67C2389.73 6352.12 2363.2 6351.72 2338.61 6343.5C2318.22 6337.12 2299.73 6325.81 2284.78 6310.56C2269.83 6295.3 2258.89 6276.59 2252.92 6256.08C2246.95 6235.58 2246.15 6213.91 2250.58 6193.02C2255.01 6172.13 2264.54 6152.66 2278.32 6136.34C2351.63 6048.18 2443.47 5977.28 2547.31 5928.69C2651.15 5880.09 2764.44 5855 2879.09 5855.19C2993.74 5855.39 3106.93 5880.87 3210.61 5929.82C3314.28 5978.76 3405.89 6049.98 3478.89 6138.38C3494.79 6163.05 3507.66 6189.56 3517.2 6217.31L3509.8 6220.38Z" fill="#263238"/>
<path d="M2879.12 6902.15C2827.5 6902.3 2777 6887.11 2734.02 6858.52C2691.05 6829.93 2657.53 6789.21 2637.73 6741.54C2617.93 6693.87 2612.74 6641.39 2622.81 6590.77C2632.88 6540.14 2657.76 6493.65 2694.3 6457.18C2730.83 6420.72 2777.38 6395.93 2828.02 6385.96C2878.67 6375.99 2931.14 6381.28 2978.77 6401.18C3026.4 6421.07 3067.05 6454.67 3095.56 6497.7C3124.07 6540.73 3139.15 6591.26 3138.9 6642.88C3138.93 6676.98 3132.23 6710.75 3119.18 6742.25C3106.13 6773.76 3086.99 6802.38 3062.85 6826.46C3038.72 6850.55 3010.06 6869.64 2978.53 6882.63C2947 6895.61 2913.22 6902.25 2879.12 6902.15Z" fill="#263238"/>
<path d="M2880.65 3900.73C2513.24 3900.68 2154.06 4009.59 1848.55 4213.68C1543.04 4417.77 1304.91 4707.88 1164.28 5047.31C1023.66 5386.75 986.85 5760.26 1058.52 6120.62C1130.18 6480.97 1307.1 6811.98 1566.9 7071.78C1826.7 7331.58 2157.71 7508.5 2518.06 7580.16C2878.42 7651.83 3251.93 7615.02 3591.37 7474.4C3930.8 7333.77 4220.91 7095.64 4425 6790.13C4629.09 6484.62 4738 6125.44 4737.95 5758.03C4737.34 5265.63 4541.47 4793.57 4193.29 4445.39C3845.11 4097.21 3373.05 3901.34 2880.65 3900.73ZM1278.53 5759.05C1278.12 5447.82 1368.43 5143.21 1538.42 4882.5C1708.4 4621.78 1950.69 4416.26 2235.64 4291.08C2520.59 4165.89 2835.85 4126.47 3142.85 4177.64C3449.85 4228.81 3735.28 4368.34 3964.22 4579.18L1700.77 6841.61C1429.08 6546.58 1278.35 6160.12 1278.53 5759.05ZM2880.65 7361.17C2520.27 7361.38 2170.45 7239.47 1888.27 7015.31L4136.14 4767.44C4322.94 5003.39 4439.44 5287.22 4472.29 5586.37C4505.14 5885.53 4452.99 6187.88 4321.84 6458.74C4190.69 6729.61 3985.84 6958.02 3730.79 7117.77C3475.74 7277.53 3180.83 7362.15 2879.88 7361.94L2880.65 7361.17Z" fill="#FF6020"/>
<path d="M10695.1 10869.4H10452.9L10401 10293.1H10746.9L10695.1 10869.4Z" fill="#263238" stroke="#263238" stroke-miterlimit="10"/>
<path d="M11703.5 10869.4H11461.4L11409.5 10293.1H11755.4L11703.5 10869.4Z" fill="#263238" stroke="#263238" stroke-miterlimit="10"/>
<path d="M9283.24 10869.4H9041.09L8989.49 10293.1H9335.1L9283.24 10869.4Z" fill="#263238" stroke="#263238" stroke-miterlimit="10"/>
<path d="M8202.74 10869.4H7960.83L7908.98 10293.1H8254.59L8202.74 10869.4Z" fill="#263238" stroke="#263238" stroke-miterlimit="10"/>
<path d="M9358.34 6580.29H11874.9C11874.9 6580.29 11884.9 7455.17 11755.4 8074.62C11625.9 8694.06 11467.3 9068.53 11467.3 9068.53H9075.83C9075.83 9068.53 9430.63 7698.35 9358.34 6580.29Z" fill="white" stroke="#263238" stroke-miterlimit="10"/>
<path d="M10402.8 6713.89C10182.1 6696.52 10094.5 6652.07 9929.51 6560.62C9714.68 6442.87 9668.7 6521.29 9684.03 6639.04C9699.36 6756.8 9475.34 7533.08 9428.59 7923.9C9381.85 8314.73 9397.68 8524.95 9397.68 8524.95C9397.68 8524.95 9259.75 8642.71 9351.7 8681.79C9410.85 8706.34 9472.66 8723.92 9535.88 8734.16H11315.3C11315.3 8734.16 11631.5 7109.31 11662.2 6847.99C11692.8 6586.68 11554.9 6560.62 11478 6599.71C11401.1 6638.79 11386 6665.1 11278.5 6678.13C11027.1 6710.57 10705.3 6737.39 10402.8 6713.89Z" fill="#FF6020"/>
<path d="M9829.89 6740.2C9875.92 6688.54 9908.32 6626.2 9924.14 6558.83C9902.69 6547.34 9883.02 6537.89 9864.88 6530.22C9853.08 6593.06 9824.28 6651.46 9781.61 6699.07C9749.76 6737.78 9710.28 6769.51 9665.64 6792.31C9661.04 6815.55 9655.93 6840.84 9650.31 6868.94C9720.82 6843.25 9782.93 6798.73 9829.89 6740.2Z" fill="white"/>
<path d="M11423.1 7248.52C11310.4 7380.84 11314.8 7498.34 11318.8 7612.27C11322.9 7718.53 11326.5 7818.66 11230 7932.33C11133.4 8046.01 11033.5 8058.01 10928 8071.29C10815.1 8085.09 10698.1 8099.65 10585.7 8231.97C10473.3 8364.28 10477.2 8481.79 10481.5 8595.46C10484.7 8642.05 10483.4 8688.84 10477.7 8735.18H10542.1C10546.9 8688 10547.9 8640.5 10544.9 8593.16C10541 8486.9 10537.2 8386.51 10634 8273.09C10730.8 8159.68 10830.2 8147.16 10935.9 8134.13C11048.8 8120.34 11165.8 8105.78 11278.2 7973.46C11390.6 7841.14 11386.5 7723.64 11382.4 7609.72C11378.4 7503.45 11374.8 7403.06 11471.6 7289.65C11508.2 7245.1 11555 7210.04 11608 7187.47C11612.3 7161.93 11616.7 7138.43 11620.8 7115.18C11543.1 7139.09 11474.3 7185.49 11423.1 7248.52Z" fill="white"/>
<path d="M9615.32 8706.57C9728.48 8692.52 9845.21 8677.96 9957.86 8545.65C10070.5 8413.33 10066.2 8295.82 10062.1 8182.15C10058 8075.89 10054.4 7975.5 10151 7862.09C10247.5 7748.67 10347.4 7736.16 10452.9 7723.13C10565.8 7709.08 10682.8 7694.78 10795.2 7562.46C10907.6 7430.14 10903.8 7312.38 10899.4 7198.71C10895.6 7092.45 10891.7 6992.06 10988.6 6878.65C11085.4 6765.23 11185 6752.71 11290.5 6739.69C11396 6726.66 11501.5 6714.14 11605.7 6608.39C11585.5 6593.36 11560.9 6585.61 11535.7 6586.42C11478 6633.58 11407.6 6662.64 11333.4 6669.95C11315.5 6674 11297.5 6677.07 11279.3 6679.15L11202.6 6688.09C11099.4 6703.52 11005.8 6757.12 10940.3 6838.29C10827.4 6970.86 10831.7 7088.36 10836.1 7202.03C10839.9 7308.3 10843.7 7408.68 10746.9 7522.35C10650.1 7636.02 10550.7 7648.03 10445 7661.06C10332.1 7675.11 10215.1 7689.41 10102.7 7821.73C9990.3 7954.05 9994.39 8071.8 9998.48 8185.47C10002.6 8291.74 10006.1 8392.13 9909.58 8505.54C9813.03 8618.96 9713.15 8631.47 9607.65 8644.5C9533.47 8649.31 9460.86 8668.03 9393.59 8699.68C9427.01 8711.37 9461.14 8720.92 9495.77 8728.28C9535.03 8718.1 9574.99 8710.84 9615.32 8706.57Z" fill="white"/>
<path d="M9475.08 8134.64C9587.73 8002.33 9583.39 7884.82 9579.3 7771.15C9575.47 7664.63 9571.64 7564.5 9668.45 7450.83C9765.26 7337.16 9864.63 7325.15 9970.12 7312.13C10083 7298.08 10200 7283.52 10312.7 7151.2C10425.3 7018.88 10421 6901.38 10416.9 6787.71C10416.9 6762.17 10415.1 6738.92 10415.4 6714.65H10402.8L10351.7 6709.8C10351.7 6737.13 10351.7 6763.95 10353 6790.78C10357.1 6897.04 10360.7 6997.43 10264.1 7110.84C10167.6 7224.26 10067.7 7236.77 9962.2 7249.8C9849.3 7263.85 9732.31 7278.15 9619.66 7410.47C9507.01 7542.79 9511.35 7660.29 9515.69 7774.22C9519.53 7880.48 9523.1 7980.87 9426.55 8094.28C9421.18 8100.67 9415.82 8106.54 9410.2 8112.16C9407.64 8144.61 9405.35 8175.26 9403.56 8203.87C9429.8 8183.41 9453.78 8160.2 9475.08 8134.64Z" fill="white"/>
<path d="M10402.8 6713.89C10182.1 6696.52 10094.5 6652.07 9929.51 6560.62C9714.68 6442.87 9668.7 6521.29 9684.03 6639.04C9699.36 6756.8 9475.34 7533.08 9428.59 7923.9C9381.85 8314.73 9397.68 8524.95 9397.68 8524.95C9397.68 8524.95 9259.75 8642.71 9351.7 8681.79C9410.85 8706.34 9472.66 8723.92 9535.88 8734.16H11315.3C11315.3 8734.16 11631.5 7109.31 11662.2 6847.99C11692.8 6586.68 11554.9 6560.62 11478 6599.71C11401.1 6638.79 11386 6665.1 11278.5 6678.13C11027.1 6710.57 10705.3 6737.39 10402.8 6713.89Z" stroke="#263238" stroke-miterlimit="10"/>
<path d="M9358.34 6580.29H9216.06C9190.26 6580.28 9165.2 6588.97 9144.94 6604.97C9124.69 6620.96 9110.42 6643.31 9104.44 6668.42L8927.67 7409.2C8894.98 7546.62 8783.09 7942.55 8659.97 8011.78C8584.37 8054.18 8499.13 8076.44 8412.45 8076.4H7879.09L8105.92 10395H9076.59L9332.03 6703.16C9332.87 6694.67 9332.87 6686.11 9332.03 6677.62H9360.9L9358.34 6580.29Z" fill="white" stroke="#263238" stroke-miterlimit="10"/>
<path d="M8021.37 8076.15H8554.99C8641.67 8076.15 8726.89 8053.9 8802.51 8011.52C8925.63 7942.3 9037.26 7546.37 9070.21 7408.94L9246.72 6668.17C9252.74 6643.08 9267.02 6620.75 9287.27 6604.77C9307.51 6588.78 9332.55 6580.07 9358.35 6580.04C9374.08 6580.04 9389.64 6583.27 9404.07 6589.54C9418.49 6595.81 9431.48 6604.98 9442.21 6616.47C9452.94 6627.97 9461.2 6641.56 9466.45 6656.38C9471.71 6671.21 9473.87 6686.96 9472.78 6702.65L9210.96 10394.8H8240.29L8021.37 8076.15Z" fill="white" stroke="#263238" stroke-miterlimit="10"/>
<path d="M10300.2 10396L10355.6 8735.18L8130.45 8715.51L8186.13 10396H10300.2Z" fill="white" stroke="#263238" stroke-miterlimit="10"/>
<path d="M12017.2 6580.29H11874.9C11849.1 6580.33 11824.1 6589.04 11803.9 6605.02C11783.6 6621 11769.3 6643.34 11763.3 6668.42L11586.5 7409.2C11553.8 7546.62 11442.2 7942.55 11318.8 8011.78C11243.3 8054.22 11158 8076.47 11071.3 8076.4H10538L10631.2 10394.8H11725L11989.4 6702.9C11990.3 6694.42 11990.3 6685.85 11989.4 6677.36H12018.2L12017.2 6580.29Z" fill="white" stroke="#263238" stroke-miterlimit="10"/>
<path d="M10680.2 8076.15H11213.9C11300.5 8076.15 11385.8 8053.9 11461.4 8011.52C11584.5 7942.3 11696.4 7546.37 11729.1 7408.94L11905.8 6668.17C11911.8 6643.1 11926 6620.78 11946.2 6604.79C11966.5 6588.8 11991.5 6580.08 12017.2 6580.04C12033 6580 12048.5 6583.21 12063 6589.46C12077.4 6595.72 12090.4 6604.89 12101.2 6616.39C12111.9 6627.9 12120.2 6641.5 12125.4 6656.34C12130.7 6671.18 12132.8 6686.95 12131.7 6702.65L11872.1 10337.8C11871 10353.1 11864.1 10367.4 11852.9 10377.9C11841.7 10388.3 11826.9 10394.2 11811.6 10394.3H10767.3L10680.2 8076.15Z" fill="white" stroke="#263238" stroke-miterlimit="10"/>
<path d="M10355.6 8243.2L10299.1 10396.1H10766.3L10847.6 8243.2C10847.6 8221.24 10843.2 8199.5 10834.8 8179.22C10826.4 8158.93 10814.1 8140.5 10798.5 8124.99C10783 8109.47 10764.6 8097.17 10744.3 8088.79C10724 8080.41 10702.2 8076.11 10680.2 8076.15H10522.9C10500.9 8076.11 10479.2 8080.41 10458.9 8088.79C10438.6 8097.17 10420.1 8109.47 10404.6 8124.99C10389.1 8140.5 10376.7 8158.93 10368.3 8179.22C10359.9 8199.5 10355.6 8221.24 10355.6 8243.2Z" fill="white" stroke="#263238" stroke-miterlimit="10"/>
<path d="M7641.02 8243.2L7721.23 10396.1H8188.43L8132.74 8243.2C8132.74 8198.9 8115.14 8156.41 8083.81 8125.08C8052.49 8093.75 8009.99 8076.15 7965.69 8076.15H7808.34C7786.38 8076.11 7764.63 8080.41 7744.33 8088.79C7724.03 8097.17 7705.58 8109.47 7690.04 8124.99C7674.5 8140.5 7662.18 8158.93 7653.76 8179.22C7645.35 8199.5 7641.02 8221.24 7641.02 8243.2Z" fill="white" stroke="#263238" stroke-miterlimit="10"/>
<path d="M8141.69 9449.64H10334.4" stroke="#263238" stroke-miterlimit="10"/>
<path d="M7069.09 6588.72C7069.09 6588.72 6866.27 7715.72 6821.83 7906.28C6777.38 8096.84 6668.56 9068.28 6668.56 9309.67C6668.56 9551.06 6687.47 10280.3 6687.47 10280.3C6687.47 10280.3 6604.96 10318.4 6604.96 10350.1C6604.96 10381.7 6668.56 10585.1 6668.56 10585.1L7043.04 10724.8C7043.04 10724.8 7119.67 10546 7125.55 10483.4C7131.42 10420.8 7081.1 10394.5 7081.1 10286.5C7081.1 10178.4 7271.66 8921.4 7328.88 8711.94C7386.09 8502.48 7551.11 7873.84 7582.78 7816.62C7614.46 7759.4 7773.34 7340.48 7773.34 7340.48L7862.23 7384.93C7862.23 7384.93 7919.2 8705.55 7951.13 8788.06C7983.06 8870.57 8408.87 10215.2 8408.87 10215.2C8408.87 10215.2 8339.14 10246.9 8383.33 10323.3C8427.52 10399.6 8503.9 10570.8 8503.9 10570.8C8503.9 10570.8 8573.89 10475.5 8657.16 10456.6C8740.43 10437.7 8879.39 10519.9 8879.39 10519.9C8879.39 10519.9 8961.9 10329.4 8942.74 10240.7C8923.59 10152.1 8840.57 9999.35 8834.95 9954.91C8829.33 9910.46 8656.14 8630.2 8656.14 8630.2C8656.14 8630.2 8700.59 6839.56 8700.59 6719C8698.21 6636.73 8683.22 6555.32 8656.14 6477.61C8389.76 6569.02 8111.84 6622.5 7830.56 6636.49C7379.71 6655.39 7132.19 6471.48 7132.19 6471.48L7069.09 6588.72Z" fill="#263238" stroke="#263238" stroke-miterlimit="10"/>
<path d="M6669.59 10585.8C6669.59 10585.8 6459.87 10776.1 6421.81 10801.7C6383.75 10827.2 6117.07 10929.4 6123.46 10980.5C6129.84 11031.6 6200.09 11063 6200.09 11063H7063.73C7063.73 11063 7069.86 11037.5 7082.63 10916.9C7088.74 10838.7 7075.67 10760.2 7044.57 10688.3L6669.59 10585.8Z" fill="white" stroke="#263238" stroke-miterlimit="10"/>
<path d="M7076.25 10970.3L6128.05 10995.8C6144.38 11024.7 6169.41 11047.7 6199.58 11061.5H7063.22C7063.22 11061.5 7067.56 11044.4 7076.25 10970.3Z" fill="white" stroke="#263238" stroke-miterlimit="10"/>
<path d="M8504.41 10570.8C8504.41 10570.8 8498.02 10729.4 8498.02 10812.2C8498.02 10894.9 8485.51 10991 8491.64 11008.8C8497.77 11026.7 8510.79 11059.9 8510.79 11059.9H9012.48C9012.48 11059.9 9031.38 11008.8 9006.09 10913.8C8980.8 10818.8 8936.1 10768 8923.59 10683.9C8913.88 10627.7 8899 10572.4 8879.14 10518.9C8879.14 10518.9 8631.36 10323.2 8504.41 10570.8Z" fill="white" stroke="#263238" stroke-miterlimit="10"/>
<path d="M9019.12 10999.7C8828.31 10999.7 8590.75 10993.5 8489.85 10991C8489.81 10997 8490.41 11003 8491.64 11008.8C8498.02 11028 8510.79 11059.9 8510.79 11059.9H9012.48C9018 11040.3 9020.25 11020 9019.12 10999.7Z" fill="white" stroke="#263238" stroke-miterlimit="10"/>
<path d="M6889.01 4198.06C6889.01 4198.06 6349.52 4704.6 6373.02 4751.85C6396.52 4799.11 6544.16 5182.52 6544.16 5182.52C6544.16 5182.52 6586.57 5437.96 6563.07 5599.15C6548.7 5701.08 6543.91 5804.13 6548.76 5906.95C6598.34 5969.45 6658.94 6022.35 6727.57 6063.03C6831.79 6119.99 6912.25 6219.35 6978.67 6058.43C7045.08 5897.5 7016.47 5608.6 7016.47 5608.6C7016.47 5608.6 7106.13 5959.06 7121.2 6020.88C7136.27 6082.69 7070.12 6588.98 7070.12 6588.98C7070.12 6588.98 7395.55 6863.83 7949.08 6801.5C8502.62 6739.17 8678.11 6546.06 8678.11 6546.06C8678.11 6546.06 8621.14 5925.85 8621.14 5854.84C8620.61 5805.75 8617.46 5756.72 8611.69 5707.96C8611.69 5707.96 8805.83 5906.95 8900.6 5897.5C8995.36 5888.05 9160.89 5499.78 9118.23 5437.71C9075.57 5375.64 8928.95 5124.8 8839.03 4944.97C8784.83 4836.58 8739.72 4723.89 8704.16 4608.04C8704.16 4608.04 8547.83 4077.75 8499.81 4039.94C8451.79 4002.14 7919.96 4008.01 7825.19 3984.51C7700.06 3959.88 7573.56 3942.82 7446.38 3933.42C7414.7 3932.91 6993.23 4032.28 6889.01 4198.06Z" fill="#FF6020" stroke="#263238" stroke-miterlimit="10"/>
<path d="M8480.4 4906.91C8477.84 4771.01 8477.33 4665.26 8477.33 4665.26" stroke="#263238" stroke-miterlimit="10"/>
<path d="M8613.23 5707.97C8577.08 5634.29 8545.52 5558.45 8518.71 5480.88C8499.81 5424.43 8489.85 5222.89 8484.48 5034.12" stroke="#263238" stroke-miterlimit="10"/>
<path d="M6746.73 5147.27C6698.45 5062.98 6661.67 4997.08 6657.07 4983.79" stroke="#263238" stroke-miterlimit="10"/>
<path d="M7016.98 5608.6C7016.98 5608.6 6895.91 5404.25 6794.24 5229.53" stroke="#263238" stroke-miterlimit="10"/>
<path d="M7632.34 3999.08C7651.84 4165.74 7653.47 4334.01 7637.19 4501.01" stroke="#263238" stroke-miterlimit="10"/>
<path d="M7950.87 6335.58C8007.83 6347.08 8068.88 6357.55 8134.02 6365.98" stroke="#263238" stroke-miterlimit="10"/>
<path d="M7262.97 6030.07C7262.97 6030.07 7416.24 6198.15 7824.94 6305.95" stroke="#263238" stroke-miterlimit="10"/>
<path d="M7679.59 6389.73C7855.1 6468.5 8045.91 6507.33 8238.24 6503.41" stroke="#263238" stroke-miterlimit="10"/>
<path d="M6548.25 3430.98C6548.25 3430.98 6604.96 3696.12 6609.81 3753.09C6614.67 3810.05 6628.72 3885.66 6699.73 3999.07C6770.74 4112.49 6955.17 4363.59 6993.23 4377.89C7031.29 4392.2 7177.91 4354.13 7177.91 4354.13C7177.91 4354.13 7333.98 4661.94 7376.64 4652.49C7419.3 4643.04 7528.12 4292.57 7542.42 4150.55C7551.44 4079.9 7552.99 4008.49 7547.02 3937.51L7480.86 3700.98C7480.86 3700.98 7424.15 3368.9 7424.15 3345.91C7424.15 3322.92 7457.11 3151.78 7272.68 3080.77C7088.25 3009.76 6860.65 3004.14 6709.18 3180.13C6557.7 3356.13 6548.25 3430.98 6548.25 3430.98Z" fill="white" stroke="#263238" stroke-miterlimit="10"/>
<path d="M7055.04 3132.88C6988.64 3233.66 6901.57 3319.16 6799.6 3383.72C6624.63 3497.39 6709.69 3374.27 6709.69 3374.27C6709.69 3374.27 6586.57 3450.9 6487.2 3501.99C6387.84 3553.08 6425.64 3568.4 6387.84 3553.08C6350.03 3537.75 6209.03 3134.67 6525.52 2940.02C6842.01 2745.38 7072.93 2796.72 7072.93 2796.72C7072.93 2796.72 6935.5 2735.16 7058.62 2735.16C7181.74 2735.16 7233.85 2802.34 7233.85 2802.34C7233.85 2802.34 7300.01 2783.44 7328.36 2821.24C7340.77 2834.74 7356.29 2845 7373.58 2851.13C7526.84 2916.01 7580.23 3061.1 7609.09 3212.57C7628 3311.94 7547.53 3548.73 7547.53 3548.73L7414.7 3619.75C7382.51 3590.42 7356.47 3555 7338.07 3515.53C7325.97 3477.25 7319.61 3437.4 7319.17 3397.26C7319.17 3397.26 7238.71 3501.22 7224.4 3425.61C7210.1 3350 7173.31 3155.87 7173.31 3155.87C7173.31 3155.87 7187.62 3232.5 7140.36 3232.5C7093.1 3232.5 7055.04 3132.88 7055.04 3132.88Z" fill="#263238" stroke="#263238" stroke-miterlimit="10"/>
<path d="M7405 3653.46C7405 3653.46 7400.4 3492.54 7495.17 3440.43C7589.94 3388.32 7656.09 3445.28 7627.48 3596.76C7598.88 3748.23 7428.75 3804.94 7428.75 3804.94" fill="white"/>
<path d="M7405 3653.46C7405 3653.46 7400.4 3492.54 7495.17 3440.43C7589.94 3388.32 7656.09 3445.28 7627.48 3596.76C7598.88 3748.23 7428.75 3804.94 7428.75 3804.94" stroke="#263238" stroke-miterlimit="10"/>
<path d="M7177.91 4354.14L7428.75 4103.29L7262.97 4486.71L7177.91 4354.14Z" fill="#263238" stroke="#263238" stroke-miterlimit="10"/>
<path d="M7061.94 4100.48C7067.26 4109.77 7068.87 4120.72 7066.46 4131.14C7064.04 4141.56 7057.77 4150.68 7048.91 4156.68C7031.8 4163.58 7010.09 4149.53 7000.38 4125.26C6990.67 4100.99 6996.55 4075.71 7013.41 4068.81C7030.27 4061.91 7051.98 4076.22 7061.94 4100.48Z" fill="#263238"/>
<path d="M7127.33 3662.15C7136.53 3692.29 7129.89 3720.9 7112.77 3726.26C7095.66 3731.63 7073.69 3711.45 7064.5 3681.56C7055.3 3651.67 7061.94 3623.06 7079.06 3617.7C7096.17 3612.34 7118.14 3632.26 7127.33 3662.15Z" fill="#263238"/>
<path d="M6816.46 3714.77C6825.66 3744.91 6819.02 3773.52 6801.65 3778.88C6784.28 3784.25 6762.82 3764.32 6753.63 3734.18C6744.43 3704.04 6750.82 3675.69 6768.18 3670.32C6785.55 3664.96 6807.01 3684.88 6816.46 3714.77Z" fill="#263238"/>
<path d="M6827.7 3596.75C6848.7 3613.93 6865.56 3635.62 6877.01 3660.21C6888.47 3684.8 6894.23 3711.65 6893.86 3738.78C6893.86 3833.55 6879.56 3975.57 6879.56 3975.57L7050.19 3951.82" stroke="#263238" stroke-miterlimit="10"/>
<path d="M6941.12 3535.2C6941.12 3535.2 7026.43 3383.72 7159.01 3412.07" stroke="#263238" stroke-miterlimit="10"/>
<path d="M6789.64 3563.55C6789.64 3563.55 6685.68 3530.6 6614.67 3573" stroke="#263238" stroke-miterlimit="10"/>
<path d="M9686.07 4780.21C9686.07 4780.21 9790.29 4742.4 9828.1 4729.12C9865.9 4715.84 9904.73 4738.57 9970.12 4705.62C10035.5 4672.67 10112.1 4606 10117 4654.53C10121.9 4703.07 10097.8 4720.69 10060 4744.45C10022.2 4768.2 9960.67 4815.46 9960.67 4815.46L9941.77 4862.72L9657.72 4839.22C9657.72 4839.22 9663.08 4794.77 9686.07 4780.21Z" fill="white" stroke="#263238" stroke-miterlimit="10"/>
<path d="M10257 4902.56C10257 4902.56 10387.5 4799.11 10406.4 4751.86C10425.3 4704.6 10392.1 4700.77 10359.2 4718.65C10326.2 4736.53 10222.5 4822.87 10222.5 4822.87L10257 4902.56Z" fill="white" stroke="#263238" stroke-miterlimit="10"/>
<path d="M10150.2 4925.05C10150.2 4925.05 10247.3 4935.26 10257 4902.57C10266.7 4869.87 10343.3 4663.99 10330.8 4638.19C10318.3 4612.39 10294 4614.69 10267.2 4657.34C10238.5 4715.82 10213.8 4776.16 10193.1 4837.94C10193.1 4837.94 10128.2 4852.5 10111.9 4896.95C10095.5 4941.39 10150.2 4925.05 10150.2 4925.05Z" fill="white" stroke="#263238" stroke-miterlimit="10"/>
<path d="M10027.6 4950.59C10027.6 4950.59 10117.8 4988.65 10136.7 4960.04C10155.6 4931.43 10288.1 4755.69 10283.3 4728.1C10278.4 4700.51 10254.9 4695.15 10217.1 4728.1C10172.7 4775.72 10131.5 4826.33 10094 4879.57C10094 4879.57 10027.6 4874.98 9999.24 4912.78C9970.89 4950.59 10027.6 4950.59 10027.6 4950.59Z" fill="white" stroke="#263238" stroke-miterlimit="10"/>
<path d="M8706.97 5727.12C8744.38 5575.66 8839.54 5444.84 8972.12 5362.61C9199.2 5215.73 9507.27 4950.59 9507.27 4950.59C9507.27 4950.59 9611.48 4803.96 9686.07 4780.21C9760.66 4756.45 10007.9 4827.46 10007.9 4827.46C10007.9 4827.46 10206.9 4628.73 10212.3 4671.39C10217.6 4714.05 10117.8 4865.52 10070.3 4922.23C10022.7 4978.94 9876.12 4993.24 9843.17 4993.24C9784.55 4995.01 9726.06 4999.78 9667.94 5007.55C9649.03 5012.15 9335.87 5438.22 9194.61 5646.15C9053.35 5854.08 8990.26 5892.14 8901.11 5896.99C8811.96 5901.84 8716.42 5830.58 8692.67 5797.62C8668.91 5764.67 8706.97 5727.12 8706.97 5727.12Z" fill="white" stroke="#263238" stroke-miterlimit="10"/>
<path d="M5746.43 4943.44L6044.78 5590.72C6049.37 5599.94 6056.84 5607.42 6066.06 5612.03C6075.27 5616.63 6085.73 5618.12 6095.87 5616.26L6343.39 5570.54C6350.26 5569.21 6356.75 5566.37 6362.39 5562.23C6368.04 5558.09 6372.69 5552.74 6376.01 5546.59C6379.33 5540.43 6381.25 5533.6 6381.61 5526.62C6381.98 5519.63 6380.79 5512.64 6378.13 5506.17L6109.92 4874.47C6106.04 4865.14 6099.24 4857.32 6090.52 4852.21C6081.81 4847.09 6071.67 4844.95 6061.64 4846.11L5783.47 4877.02C5776.1 4877.91 5769.05 4880.52 5762.89 4884.65C5756.73 4888.79 5751.64 4894.32 5748.03 4900.79C5744.42 4907.27 5742.39 4914.51 5742.11 4921.92C5741.83 4929.33 5743.31 4936.71 5746.43 4943.44Z" fill="#263238" stroke="#263238" stroke-miterlimit="10"/>
<path d="M5942.35 5497.48C5942.35 5497.48 5835.32 5333.49 5835.32 5296.71C5835.32 5259.93 5897.65 5172.82 5934.17 5094.15C5970.7 5015.47 5976.32 4962.85 6007.74 4973.58C6039.16 4984.31 6033.29 5015.47 6023.32 5067.83C6004.12 5135.37 5981.44 5201.88 5955.38 5267.08L5965.85 5330.17C5991.15 5279.12 6022.82 5231.49 6060.11 5188.4C6107.36 5141.4 6159.73 5062.73 6196.51 5078.31C6233.29 5093.89 6248.88 5103.85 6217.46 5141.4C6178.01 5188.65 6142.63 5239.15 6111.71 5292.37C6083.97 5337.78 6060.12 5385.46 6040.44 5434.9C6075.52 5401.29 6112.82 5370.05 6152.06 5341.41C6203.15 5304.63 6275.19 5251.5 6305.33 5272.44C6335.47 5293.39 6342.11 5314.33 6310.69 5340.64C6279.27 5366.95 6250.66 5384.84 6208.52 5421.62C6164.55 5465.5 6123.27 5511.99 6084.88 5560.83C6122.33 5531.91 6164.03 5508.99 6208.52 5492.89C6297.67 5456.36 6379.15 5460.45 6382.47 5488.54C6385.79 5516.64 6288.73 5542.19 6288.73 5542.19C6219.25 5558.02 6215.92 5581.78 6215.92 5581.78C6215.92 5581.78 6273.65 5697.24 6263.18 5735.04C6263.18 5735.04 6496.14 5698.52 6585.29 5672.46C6674.44 5646.41 6813.65 5698 6855.8 5740.15C6944.95 5829.3 6986.84 5965.71 6939.84 6081.16C6892.84 6196.62 6892.58 6159.84 6520.15 6055.62C6147.72 5951.4 6154.87 5914.11 6063.94 5761.86C6030.99 5702.6 5942.35 5497.48 5942.35 5497.48Z" fill="white" stroke="#263238" stroke-miterlimit="10"/>
<path d="M6264.71 5734.02L6256.8 5830.06" stroke="#263238" stroke-miterlimit="10"/>
</svg>
