<svg width="2811" height="2095" viewBox="0 0 2811 2095" fill="none" xmlns="http://www.w3.org/2000/svg">
<path d="M2810.6 1840.38H0V1841.78H2810.6V1840.38Z" fill="#EBEBEB"/>
<path d="M2528.98 1930.82H2342.8V1932.23H2528.98V1930.82Z" fill="#EBEBEB"/>
<path d="M1861.85 1946.11H1813V1947.52H1861.85V1946.11Z" fill="#EBEBEB"/>
<path d="M2337.18 1878.66H2229.31V1880.07H2337.18V1878.66Z" fill="#EBEBEB"/>
<path d="M537.667 1888.1H294.888V1889.51H537.667V1888.1Z" fill="#EBEBEB"/>
<path d="M623.334 1888.1H587.752V1889.51H623.334V1888.1Z" fill="#EBEBEB"/>
<path d="M1265.61 1911.83H739.019V1913.23H1265.61V1911.83Z" fill="#EBEBEB"/>
<path d="M1332.22 1589.67H246.827C238.324 1589.66 230.174 1586.27 224.167 1580.25C218.16 1574.24 214.786 1566.08 214.786 1557.58V31.816C214.86 23.3618 218.266 15.2783 224.266 9.32117C230.265 3.36405 238.372 0.0144824 246.827 0H1332.22C1340.74 0 1348.9 3.38164 1354.92 9.401C1360.94 15.4204 1364.32 23.5844 1364.32 32.097V1557.58C1364.32 1566.09 1360.94 1574.25 1354.92 1580.27C1348.9 1586.29 1340.74 1589.67 1332.22 1589.67ZM246.827 1.12424C238.696 1.13913 230.904 4.37928 225.161 10.1335C219.417 15.8877 216.191 23.6857 216.191 31.816V1557.58C216.191 1565.71 219.417 1573.51 225.161 1579.26C230.904 1585.01 238.696 1588.25 246.827 1588.27H1332.22C1340.36 1588.25 1348.16 1585.02 1353.91 1579.26C1359.66 1573.51 1362.9 1565.71 1362.92 1557.58V31.816C1362.9 23.6806 1359.66 15.8826 1353.91 10.1301C1348.16 4.37745 1340.36 1.1391 1332.22 1.12424H246.827Z" fill="#EBEBEB"/>
<path d="M2548.14 1589.67H1462.69C1454.18 1589.66 1446.03 1586.27 1440.01 1580.26C1434 1574.24 1430.61 1566.09 1430.59 1557.58V31.816C1430.68 23.3567 1434.1 15.2732 1440.11 9.31766C1446.12 3.36209 1454.23 0.0143244 1462.69 0H2548.14C2556.59 0.0292555 2564.68 3.38536 2570.67 9.3409C2576.66 15.2964 2580.06 23.3715 2580.13 31.816V1557.58C2580.13 1566.07 2576.76 1574.22 2570.77 1580.23C2564.77 1586.25 2556.64 1589.64 2548.14 1589.67ZM1462.69 1.12424C1454.56 1.1391 1446.76 4.37745 1441.01 10.1301C1435.25 15.8826 1432.01 23.6806 1432 31.816V1557.58C1432.01 1565.71 1435.25 1573.51 1441.01 1579.26C1446.76 1585.02 1454.56 1588.25 1462.69 1588.27H2548.14C2556.28 1588.25 2564.08 1585.02 2569.83 1579.26C2575.58 1573.51 2578.82 1565.71 2578.84 1557.58V31.816C2578.82 23.6806 2575.58 15.8826 2569.83 10.1301C2564.08 4.37745 2556.28 1.1391 2548.14 1.12424H1462.69Z" fill="#EBEBEB"/>
<path d="M1362.24 668.248H564.143V1838.41H1362.24V668.248Z" fill="#F0F0F0"/>
<path d="M1334.02 705.067H592.305V921.202H1334.02V705.067Z" fill="#E0E0E0"/>
<path d="M634.464 740.031H592.305V921.145H634.464V740.031Z" fill="#EBEBEB"/>
<path d="M838.233 740.031H796.074V921.145H838.233V740.031Z" fill="#EBEBEB"/>
<path d="M1069.5 735.481L1027.95 742.643L1058.72 921.126L1100.26 913.964L1069.5 735.481Z" fill="#EBEBEB"/>
<path d="M686.685 763.921H644.526V921.202H686.685V763.921Z" fill="#EBEBEB"/>
<path d="M783.539 763.921H741.38V921.202H783.539V763.921Z" fill="#EBEBEB"/>
<path d="M1028 763.921H985.845V921.202H1028V763.921Z" fill="#EBEBEB"/>
<path d="M893.608 758.463L852.453 767.61L886.576 921.145L927.731 911.998L893.608 758.463Z" fill="#EBEBEB"/>
<path d="M723.111 731.037H702.031V921.145H723.111V731.037Z" fill="#EBEBEB"/>
<path d="M973.704 731.037H952.624V921.145H973.704V731.037Z" fill="#EBEBEB"/>
<path d="M592.362 1171.57H1334.08V955.435L592.362 955.435V1171.57Z" fill="#E0E0E0"/>
<path d="M1291.86 1171.51H1334.02V990.399H1291.86V1171.51Z" fill="#EBEBEB"/>
<path d="M1088.15 1171.51H1130.31V990.399H1088.15V1171.51Z" fill="#EBEBEB"/>
<path d="M826.131 1164.32L867.677 1171.48L898.442 992.995L856.896 985.834L826.131 1164.32Z" fill="#EBEBEB"/>
<path d="M1239.64 1171.57H1281.8V1014.29H1239.64V1171.57Z" fill="#EBEBEB"/>
<path d="M1142.85 1171.57H1185V1014.29H1142.85V1171.57Z" fill="#EBEBEB"/>
<path d="M898.38 1171.57H940.539V1014.29H898.38V1171.57Z" fill="#EBEBEB"/>
<path d="M998.79 1162.38L1039.95 1171.53L1074.07 1017.99L1032.91 1008.85L998.79 1162.38Z" fill="#EBEBEB"/>
<path d="M1203.22 1171.51H1224.3V981.405H1203.22V1171.51Z" fill="#EBEBEB"/>
<path d="M952.68 1171.51H973.76V981.405H952.68V1171.51Z" fill="#EBEBEB"/>
<path d="M634.464 990.399H592.305V1171.51H634.464V990.399Z" fill="#EBEBEB"/>
<path d="M686.685 1014.23H644.526V1171.51H686.685V1014.23Z" fill="#EBEBEB"/>
<path d="M783.539 1014.23H741.38V1171.51H783.539V1014.23Z" fill="#EBEBEB"/>
<path d="M723.111 981.405H702.031V1171.51H723.111V981.405Z" fill="#EBEBEB"/>
<path d="M1334.02 1205.75H592.305V1421.88H1334.02V1205.75Z" fill="#E0E0E0"/>
<path d="M1060.21 1240.71H1018.05V1421.83H1060.21V1240.71Z" fill="#EBEBEB"/>
<path d="M1291.51 1236.15L1249.97 1243.31L1280.73 1421.79L1322.28 1414.63L1291.51 1236.15Z" fill="#EBEBEB"/>
<path d="M908.666 1264.6H866.507V1421.88H908.666V1264.6Z" fill="#EBEBEB"/>
<path d="M1005.52 1264.6H963.361V1421.88H1005.52V1264.6Z" fill="#EBEBEB"/>
<path d="M1249.99 1264.6H1207.83V1421.88H1249.99V1264.6Z" fill="#EBEBEB"/>
<path d="M1115.61 1259.15L1074.45 1268.3L1108.58 1421.83L1149.73 1412.68L1115.61 1259.15Z" fill="#EBEBEB"/>
<path d="M945.092 1231.72H924.012V1421.83H945.092V1231.72Z" fill="#EBEBEB"/>
<path d="M1195.68 1231.72H1174.61V1421.83H1195.68V1231.72Z" fill="#EBEBEB"/>
<path d="M806.76 1236.19L765.214 1243.35L795.979 1421.83L837.525 1414.67L806.76 1236.19Z" fill="#EBEBEB"/>
<path d="M765.213 1264.6H723.055V1421.88H765.213V1264.6Z" fill="#EBEBEB"/>
<path d="M630.858 1259.15L589.703 1268.3L623.826 1421.83L664.98 1412.68L630.858 1259.15Z" fill="#EBEBEB"/>
<path d="M710.969 1231.72H689.889V1421.83H710.969V1231.72Z" fill="#EBEBEB"/>
<path d="M426.424 1841.45H564.143L564.143 668.248H426.424L426.424 1841.45Z" fill="#E0E0E0"/>
<path d="M1829.36 1810.81H1712.39L1773.88 1309.74C1775.36 1299.27 1780.5 1289.66 1788.4 1282.63C1796.29 1275.6 1806.43 1271.6 1817 1271.35H2327.18L2252.36 1810.59L1829.36 1810.81Z" fill="#F5F5F5"/>
<path d="M2200.36 1810.81H2317.34L2378.89 1309.74C2379.64 1304.92 2379.32 1300 2377.96 1295.32C2376.6 1290.64 2374.23 1286.31 2371.01 1282.65C2367.79 1278.99 2363.81 1276.08 2359.34 1274.12C2354.88 1272.17 2350.04 1271.22 2345.16 1271.35H2304.97C2294.42 1271.67 2284.32 1275.69 2276.44 1282.71C2268.56 1289.73 2263.4 1299.3 2261.86 1309.74L2200.36 1810.81Z" fill="#F0F0F0"/>
<path d="M2157.3 1810.03L2178.49 1567.75C2178.94 1562.5 2181.18 1557.55 2184.83 1553.75C2188.48 1549.94 2193.33 1547.5 2198.56 1546.84L2207.28 1545.72C2214.31 1544.84 2220.82 1541.56 2225.73 1536.44C2230.63 1531.33 2233.62 1524.68 2234.2 1517.61L2238.08 1473.43C2238.46 1469.14 2237.95 1464.83 2236.57 1460.75C2235.19 1456.68 2232.98 1452.94 2230.08 1449.77C2227.18 1446.59 2223.64 1444.06 2219.71 1442.33C2215.77 1440.59 2211.52 1439.7 2207.22 1439.7H2402.72C2407.02 1439.7 2411.28 1440.59 2415.21 1442.33C2419.15 1444.06 2422.68 1446.59 2425.59 1449.77C2428.49 1452.94 2430.7 1456.68 2432.08 1460.75C2433.45 1464.83 2433.97 1469.14 2433.58 1473.43L2429.71 1517.61C2429.13 1524.68 2426.14 1531.33 2421.23 1536.44C2416.33 1541.56 2409.81 1544.84 2402.78 1545.72L2394.07 1546.84C2388.84 1547.51 2384 1549.95 2380.35 1553.76C2376.7 1557.56 2374.46 1562.5 2374 1567.75L2352.81 1810.03C2352.05 1818.54 2348.13 1826.46 2341.83 1832.24C2335.53 1838.01 2327.29 1841.21 2318.74 1841.22H2123.24C2131.79 1841.21 2140.02 1838.01 2146.33 1832.24C2152.63 1826.46 2156.54 1818.54 2157.3 1810.03Z" fill="#E6E6E6"/>
<path d="M1619.24 1507.32C1617.69 1488.93 1609.29 1471.79 1595.71 1459.3C1582.12 1446.81 1564.34 1439.87 1545.89 1439.87H1716.1C1734.5 1439.94 1752.21 1446.91 1765.74 1459.4C1779.27 1471.88 1787.63 1488.98 1789.17 1507.32L1806.03 1699.34H1636.05L1619.24 1507.32Z" fill="#E6E6E6"/>
<path d="M1470.28 1440.09H1545.83C1564.28 1440.1 1582.07 1447.03 1595.65 1459.53C1609.24 1472.02 1617.64 1489.16 1619.19 1507.55L1636.05 1699.57H2041.45L2058.31 1507.55C2059.85 1489.2 2068.2 1472.1 2081.73 1459.61C2095.26 1447.12 2112.98 1440.16 2131.39 1440.09H2206.99C2211.29 1440.09 2215.55 1440.99 2219.48 1442.72C2223.42 1444.45 2226.95 1446.99 2229.86 1450.16C2232.76 1453.33 2234.97 1457.07 2236.35 1461.15C2237.72 1465.22 2238.24 1469.54 2237.85 1473.82L2233.98 1518C2233.4 1525.07 2230.41 1531.72 2225.5 1536.84C2220.6 1541.96 2214.08 1545.23 2207.05 1546.11L2198.34 1547.23C2193.1 1547.9 2188.26 1550.33 2184.61 1554.14C2180.95 1557.95 2178.72 1562.89 2178.27 1568.15L2157.3 1810.03C2156.54 1818.54 2152.63 1826.46 2146.33 1832.24C2140.02 1838.01 2131.79 1841.21 2123.24 1841.22H1554.26C1545.71 1841.21 1537.48 1838.01 1531.17 1832.24C1524.87 1826.46 1520.95 1818.54 1520.2 1810.03L1499 1567.75C1498.54 1562.5 1496.29 1557.57 1492.65 1553.77C1489 1549.97 1484.16 1547.52 1478.94 1546.84L1470.22 1545.72C1463.19 1544.83 1456.67 1541.55 1451.76 1536.44C1446.85 1531.32 1443.84 1524.68 1443.24 1517.61L1439.42 1473.43C1439.09 1469.18 1439.65 1464.9 1441.05 1460.88C1442.46 1456.85 1444.68 1453.15 1447.57 1450.03C1450.47 1446.9 1453.98 1444.4 1457.89 1442.69C1461.8 1440.98 1466.02 1440.1 1470.28 1440.09Z" fill="#F0F0F0"/>
<path d="M574.261 609.787C574.261 609.787 568.022 568.696 597.983 542.333C627.944 515.97 625.302 500.343 616.701 498.319C608.101 496.295 600.288 522.603 587.134 529.854C587.134 529.854 586.684 492.304 600.063 478.532C613.441 464.761 620.468 429.066 607.708 428.448C594.947 427.829 593.711 449.583 590.844 465.042C587.977 480.5 573.98 502.198 573.98 502.198C573.98 502.198 571.226 468.47 562.738 454.811C554.25 441.151 577.128 409.392 568.359 395.62C559.59 381.848 543.682 408.099 544.975 437.722C546.268 467.346 566.054 498.937 561.445 529.854C561.445 529.854 552.732 508.1 544.919 506.132C537.105 504.165 529.179 489.831 523.952 484.491C518.724 479.151 512.091 497.588 523.952 514.677C535.812 531.765 566.054 577.578 561.445 614.565L574.261 609.787Z" fill="#E6E6E6"/>
<path d="M592.137 591.069L601.974 652.621C602.681 657.09 602.41 661.659 601.182 666.014C599.953 670.368 597.795 674.405 594.857 677.845C591.919 681.286 588.27 684.048 584.161 685.943C580.052 687.838 575.582 688.82 571.057 688.821H560.602C556.077 688.82 551.607 687.838 547.498 685.943C543.39 684.048 539.741 681.286 536.802 677.845C533.864 674.405 531.706 670.368 530.477 666.014C529.249 661.659 528.979 657.09 529.685 652.621L539.635 591.069H592.137Z" fill="#E6E6E6"/>
<path d="M1180.73 676.792H1211.26V545.537H1180.73V676.792Z" fill="#EBEBEB"/>
<path d="M1033.12 676.792H1063.64V545.537H1033.12V676.792Z" fill="#EBEBEB"/>
<path d="M843.259 671.575L873.339 676.76L895.635 547.413L865.555 542.228L843.259 671.575Z" fill="#EBEBEB"/>
<path d="M1142.9 676.736H1173.42V562.794H1142.9V676.736Z" fill="#EBEBEB"/>
<path d="M1072.75 676.736H1103.27V562.794H1072.75V676.736Z" fill="#EBEBEB"/>
<path d="M895.569 676.736H926.092V562.794H895.569V676.736Z" fill="#EBEBEB"/>
<path d="M968.365 670.126L998.161 676.748L1022.88 565.52L993.085 558.898L968.365 670.126Z" fill="#EBEBEB"/>
<path d="M1116.48 676.792H1131.77V539.016H1116.48V676.792Z" fill="#EBEBEB"/>
<path d="M934.861 676.792H950.151V539.016H934.861V676.792Z" fill="#EBEBEB"/>
<path d="M826.035 572.575H677.242V675.274H826.035V572.575Z" fill="#EBEBEB"/>
<path d="M1336.33 614.622H1211.71V691.295H1336.33V614.622Z" fill="#EBEBEB"/>
<path d="M1307.21 547.224H1244.87V623.897H1307.21V547.224Z" fill="#EBEBEB"/>
<path d="M2348.59 445.761H2200.36V1063.42H2348.59V445.761Z" fill="#E0E0E0"/>
<path d="M1778.32 1065.1H2332.68V445.817L1778.32 445.817V1065.1Z" fill="#E0E0E0"/>
<path d="M1760.45 1065.1H2335.61V445.817L1760.45 445.817V1065.1Z" fill="#F0F0F0"/>
<path d="M1785.07 1036.6H2312V465.491L1785.07 465.491V1036.6Z" fill="white"/>
<path d="M1785.01 1036.6H1794.79V465.491H1785.01V1036.6Z" fill="#E0E0E0"/>
<path d="M1793.22 876.232V891.634H2313.4V876.232H1793.22Z" fill="#E0E0E0"/>
<path d="M1785.01 876.176L2320.21 876.176V850.318L1785.01 850.318V876.176Z" fill="#F0F0F0"/>
<path d="M1405.3 2094.23C2007.23 2094.23 2495.19 2065.74 2495.19 2030.6C2495.19 1995.46 2007.23 1966.97 1405.3 1966.97C803.367 1966.97 315.405 1995.46 315.405 2030.6C315.405 2065.74 803.367 2094.23 1405.3 2094.23Z" fill="#F5F5F5"/>
<path d="M1809.74 549.865H804.056C781.331 549.865 762.909 568.288 762.909 591.013V1775.17C762.909 1797.9 781.331 1816.32 804.056 1816.32H1809.74C1832.47 1816.32 1850.89 1797.9 1850.89 1775.17V591.013C1850.89 568.288 1832.47 549.865 1809.74 549.865Z" fill="#305D87"/>
<path opacity="0.6" d="M1809.74 549.865H804.056C781.331 549.865 762.909 568.288 762.909 591.013V1775.17C762.909 1797.9 781.331 1816.32 804.056 1816.32H1809.74C1832.47 1816.32 1850.89 1797.9 1850.89 1775.17V591.013C1850.89 568.288 1832.47 549.865 1809.74 549.865Z" fill="white"/>
<path d="M1674.48 940H939V1065.91H1674.48V940Z" fill="white"/>
<g opacity="0.4">
<path d="M1004.96 1014.92V1018.23H979.437V982.144H1004.17V985.404H983.26V998.277H1001.92V1001.48H983.26V1014.92H1004.96Z" fill="#263238"/>
<path d="M1010.07 1002.66H1023.62V1005.81H1010.07V1002.66Z" fill="#263238"/>
<path d="M1076.52 1002.49V1018.23H1072.86V1002.83C1072.86 997.208 1069.99 994.173 1065.1 994.173C1063.84 994.114 1062.57 994.333 1061.4 994.814C1060.22 995.295 1059.17 996.027 1058.3 996.959C1057.44 997.891 1056.79 998.999 1056.41 1000.21C1056.02 1001.42 1055.9 1002.69 1056.05 1003.95V1018.23H1052.34V1002.83C1052.34 997.208 1049.48 994.173 1044.53 994.173C1043.26 994.114 1042 994.333 1040.82 994.814C1039.65 995.295 1038.59 996.027 1037.73 996.959C1036.87 997.891 1036.22 998.999 1035.83 1000.21C1035.44 1001.42 1035.32 1002.69 1035.48 1003.95V1018.23H1031.77V991.081H1035.31V996.028C1036.37 994.371 1037.85 993.021 1039.6 992.113C1041.34 991.206 1043.3 990.772 1045.26 990.857C1047.25 990.688 1049.24 991.138 1050.96 992.144C1052.68 993.151 1054.05 994.664 1054.87 996.478C1056 994.666 1057.59 993.189 1059.47 992.2C1061.36 991.212 1063.48 990.748 1065.61 990.857C1067.14 990.74 1068.67 990.968 1070.09 991.523C1071.52 992.078 1072.8 992.945 1073.85 994.062C1074.9 995.178 1075.68 996.515 1076.14 997.974C1076.6 999.433 1076.73 1000.98 1076.52 1002.49Z" fill="#263238"/>
<path d="M1106.98 1001.37V1018.23H1103.44V1013.96C1102.44 1015.48 1101.04 1016.7 1099.39 1017.49C1097.75 1018.28 1095.93 1018.62 1094.11 1018.46C1087.98 1018.46 1084.22 1015.25 1084.22 1010.59C1084.22 1005.92 1086.91 1002.89 1094.67 1002.89H1103.27V1001.26C1103.27 996.59 1100.69 994.061 1095.63 994.061C1092.33 994.023 1089.12 995.159 1086.58 997.265L1084.95 994.566C1088.12 992.012 1092.12 990.694 1096.19 990.856C1097.62 990.682 1099.08 990.831 1100.45 991.294C1101.82 991.756 1103.07 992.519 1104.1 993.528C1105.14 994.536 1105.93 995.764 1106.43 997.121C1106.93 998.478 1107.12 999.929 1106.98 1001.37ZM1103.27 1010.08V1005.64H1094.78C1089.56 1005.64 1087.81 1007.66 1087.81 1010.47C1087.81 1013.28 1090.34 1015.59 1094.67 1015.59C1096.51 1015.71 1098.33 1015.24 1099.88 1014.25C1101.43 1013.26 1102.62 1011.8 1103.27 1010.08Z" fill="#263238"/>
<path d="M1116.09 982.537C1116.1 982.19 1116.17 981.848 1116.31 981.53C1116.45 981.212 1116.65 980.925 1116.9 980.685C1117.15 980.445 1117.45 980.257 1117.77 980.131C1118.09 980.005 1118.44 979.944 1118.79 979.951C1119.13 979.944 1119.46 980.003 1119.78 980.126C1120.1 980.25 1120.39 980.434 1120.63 980.669C1120.88 980.904 1121.07 981.185 1121.21 981.496C1121.35 981.806 1121.42 982.141 1121.43 982.481C1121.44 982.833 1121.37 983.182 1121.24 983.509C1121.11 983.836 1120.92 984.134 1120.67 984.385C1120.43 984.637 1120.14 984.836 1119.81 984.973C1119.49 985.109 1119.14 985.179 1118.79 985.179C1118.44 985.186 1118.09 985.124 1117.76 984.994C1117.43 984.865 1117.13 984.671 1116.88 984.425C1116.63 984.179 1116.43 983.886 1116.29 983.561C1116.16 983.237 1116.09 982.889 1116.09 982.537ZM1116.93 991.081H1120.59V1018.23H1116.93V991.081Z" fill="#263238"/>
<path d="M1130.76 979.951H1134.41V1018.23H1130.76V979.951Z" fill="#263238"/>
</g>
<path d="M1674.67 1111.71H939.189V1237.63H1674.67V1111.71Z" fill="white"/>
<g opacity="0.4">
<path d="M1007.66 1166.69C1007.66 1174.39 1002.03 1179.05 992.928 1179.05H983.26V1190.3H979.437V1154.21H992.928C1002.09 1154.32 1007.66 1158.99 1007.66 1166.69ZM1003.83 1166.69C1003.83 1161.07 1000.07 1157.64 992.591 1157.64H983.035V1175.68H992.591C1000.07 1175.68 1003.83 1172.36 1003.83 1166.69Z" fill="#263238"/>
<path d="M1035.37 1173.6V1190.47H1031.83V1186.19C1030.82 1187.71 1029.42 1188.93 1027.78 1189.73C1026.14 1190.52 1024.31 1190.85 1022.5 1190.69C1016.37 1190.69 1012.6 1187.49 1012.6 1182.76C1012.6 1178.04 1015.3 1174.95 1023.06 1174.95H1031.66V1173.26C1031.66 1168.65 1029.02 1166.13 1023.96 1166.13C1020.67 1166.08 1017.48 1167.22 1014.96 1169.33L1013.28 1166.58C1016.48 1164.08 1020.46 1162.78 1024.52 1162.92C1025.97 1162.73 1027.45 1162.88 1028.84 1163.35C1030.23 1163.81 1031.5 1164.59 1032.54 1165.62C1033.59 1166.65 1034.39 1167.9 1034.88 1169.29C1035.37 1170.67 1035.53 1172.14 1035.37 1173.6ZM1031.71 1182.26V1177.82H1023.06C1017.83 1177.82 1016.14 1179.9 1016.14 1182.71C1016.14 1185.52 1018.62 1187.77 1023 1187.77C1024.85 1187.9 1026.7 1187.44 1028.27 1186.45C1029.84 1185.46 1031.04 1183.99 1031.71 1182.26Z" fill="#263238"/>
<path d="M1041.55 1187.32L1043.18 1184.45C1046.02 1186.43 1049.39 1187.49 1052.85 1187.49C1057.97 1187.49 1060.1 1185.74 1060.1 1183.05C1060.1 1175.96 1042.51 1181.53 1042.51 1170.85C1042.51 1166.41 1046.33 1163.09 1053.24 1163.09C1056.62 1163.06 1059.94 1163.93 1062.86 1165.62L1061.23 1168.54C1058.86 1166.98 1056.08 1166.18 1053.24 1166.24C1048.35 1166.24 1046.16 1168.15 1046.16 1170.73C1046.16 1178.04 1063.76 1172.53 1063.76 1182.93C1063.76 1187.65 1059.65 1190.69 1052.51 1190.69C1048.59 1190.79 1044.74 1189.61 1041.55 1187.32Z" fill="#263238"/>
<path d="M1066.73 1187.32L1068.42 1184.45C1071.22 1186.45 1074.59 1187.52 1078.03 1187.49C1083.2 1187.49 1085.28 1185.74 1085.28 1183.05C1085.28 1175.96 1067.75 1181.53 1067.75 1170.85C1067.75 1166.41 1071.57 1163.09 1078.43 1163.09C1081.8 1163.05 1085.12 1163.92 1088.04 1165.62L1086.46 1168.54C1084.08 1166.99 1081.28 1166.18 1078.43 1166.24C1073.54 1166.24 1071.4 1168.15 1071.4 1170.73C1071.4 1178.04 1088.99 1172.53 1088.99 1182.93C1088.99 1187.65 1084.83 1190.69 1077.75 1190.69C1073.81 1190.78 1069.95 1189.6 1066.73 1187.32Z" fill="#263238"/>
<path d="M1134.98 1163.31L1124.75 1190.41H1121.32L1113 1168.21L1104.45 1190.41H1101.02L1090.51 1163.31H1094L1102.54 1186.36L1111.25 1163.31H1114.4L1123.06 1186.36L1131.66 1163.31H1134.98Z" fill="#263238"/>
<path d="M1137 1176.86C1137 1174.13 1137.81 1171.45 1139.33 1169.18C1140.85 1166.91 1143.01 1165.13 1145.54 1164.09C1148.06 1163.04 1150.84 1162.77 1153.53 1163.3C1156.21 1163.83 1158.67 1165.15 1160.61 1167.08C1162.54 1169.02 1163.86 1171.48 1164.39 1174.16C1164.92 1176.85 1164.65 1179.63 1163.6 1182.15C1162.56 1184.68 1160.78 1186.84 1158.51 1188.36C1156.24 1189.88 1153.56 1190.69 1150.83 1190.69C1148.99 1190.75 1147.17 1190.44 1145.46 1189.77C1143.76 1189.09 1142.21 1188.08 1140.91 1186.78C1139.61 1185.48 1138.6 1183.93 1137.92 1182.23C1137.25 1180.52 1136.94 1178.69 1137 1176.86ZM1160.89 1176.86C1160.8 1174.88 1160.13 1172.97 1158.97 1171.36C1157.8 1169.76 1156.19 1168.53 1154.33 1167.84C1152.47 1167.14 1150.45 1167.01 1148.52 1167.45C1146.58 1167.89 1144.82 1168.9 1143.45 1170.33C1142.09 1171.77 1141.17 1173.58 1140.82 1175.53C1140.47 1177.48 1140.7 1179.5 1141.49 1181.32C1142.28 1183.14 1143.58 1184.69 1145.24 1185.78C1146.9 1186.86 1148.84 1187.44 1150.83 1187.43C1152.2 1187.46 1153.56 1187.2 1154.83 1186.67C1156.1 1186.14 1157.24 1185.35 1158.18 1184.36C1159.13 1183.37 1159.86 1182.19 1160.33 1180.9C1160.79 1179.6 1160.98 1178.23 1160.89 1176.86Z" fill="#263238"/>
<path d="M1185.74 1163.09V1166.63H1184.84C1183.55 1166.57 1182.27 1166.79 1181.08 1167.28C1179.89 1167.77 1178.82 1168.52 1177.95 1169.47C1177.08 1170.42 1176.43 1171.55 1176.05 1172.78C1175.66 1174.01 1175.55 1175.31 1175.73 1176.58V1190.41H1172.08V1163.31H1175.56V1168.6C1176.51 1166.77 1177.99 1165.26 1179.8 1164.28C1181.61 1163.3 1183.68 1162.88 1185.74 1163.09Z" fill="#263238"/>
<path d="M1216.82 1152.47V1190.69H1213.34V1185.35C1212.24 1187.13 1210.7 1188.58 1208.87 1189.57C1207.03 1190.56 1204.96 1191.04 1202.88 1190.97C1199.37 1190.75 1196.08 1189.2 1193.68 1186.63C1191.27 1184.07 1189.93 1180.69 1189.93 1177.17C1189.93 1173.66 1191.27 1170.27 1193.68 1167.71C1196.08 1165.15 1199.37 1163.59 1202.88 1163.37C1204.94 1163.33 1206.97 1163.82 1208.77 1164.81C1210.58 1165.79 1212.09 1167.24 1213.17 1168.99V1152.47H1216.82ZM1213.22 1177.14C1213.13 1175.16 1212.47 1173.25 1211.3 1171.64C1210.13 1170.04 1208.52 1168.81 1206.66 1168.12C1204.8 1167.42 1202.78 1167.29 1200.85 1167.73C1198.92 1168.18 1197.15 1169.18 1195.79 1170.62C1194.42 1172.05 1193.5 1173.86 1193.15 1175.81C1192.81 1177.77 1193.04 1179.78 1193.82 1181.6C1194.61 1183.42 1195.91 1184.97 1197.57 1186.06C1199.23 1187.15 1201.18 1187.72 1203.16 1187.71C1204.56 1187.74 1205.95 1187.47 1207.23 1186.93C1208.52 1186.38 1209.68 1185.57 1210.63 1184.55C1211.58 1183.52 1212.3 1182.31 1212.75 1180.98C1213.2 1179.66 1213.36 1178.25 1213.22 1176.86V1177.14Z" fill="#263238"/>
</g>
<path opacity="0.2" d="M1674.67 1365.07H939.189V1490.99H1674.67V1365.07Z" fill="black"/>
<g opacity="0.5">
<path d="M1118.06 1308.23H1106.03L1103.44 1313.85H1101.08L1110.92 1292.32H1113.17L1123 1313.85H1120.64L1118.06 1308.23ZM1117.21 1306.37L1112.04 1294.79L1106.87 1306.37H1117.21Z" fill="black"/>
<path d="M1126.15 1291.14H1128.34V1313.96H1126.15V1291.14Z" fill="black"/>
<path d="M1142.62 1297.66V1299.8H1142.06C1141.27 1299.73 1140.48 1299.84 1139.75 1300.12C1139.01 1300.4 1138.35 1300.85 1137.81 1301.42C1137.27 1301.99 1136.86 1302.68 1136.63 1303.43C1136.39 1304.18 1136.32 1304.98 1136.44 1305.76V1314.02H1134.24V1297.83H1136.38V1300.98C1136.94 1299.84 1137.85 1298.91 1138.97 1298.32C1140.09 1297.72 1141.36 1297.49 1142.62 1297.66Z" fill="black"/>
<path d="M1160.5 1306.54H1146.72C1146.77 1307.33 1146.97 1308.1 1147.31 1308.81C1147.65 1309.52 1148.13 1310.16 1148.72 1310.68C1149.32 1311.2 1150 1311.6 1150.75 1311.86C1151.5 1312.11 1152.29 1312.22 1153.08 1312.16C1154.01 1312.2 1154.94 1312.03 1155.8 1311.67C1156.67 1311.31 1157.44 1310.77 1158.08 1310.08L1159.26 1311.49C1158.1 1312.71 1156.6 1313.56 1154.96 1313.93C1153.32 1314.3 1151.6 1314.18 1150.02 1313.58C1148.45 1312.98 1147.09 1311.93 1146.11 1310.55C1145.14 1309.18 1144.59 1307.55 1144.53 1305.87C1144.48 1304.8 1144.64 1303.73 1145.02 1302.73C1145.39 1301.73 1145.97 1300.82 1146.71 1300.05C1147.46 1299.28 1148.35 1298.67 1149.34 1298.26C1150.33 1297.85 1151.39 1297.64 1152.46 1297.66C1153.53 1297.64 1154.59 1297.83 1155.58 1298.24C1156.57 1298.65 1157.46 1299.26 1158.2 1300.03C1158.94 1300.8 1159.51 1301.72 1159.88 1302.73C1160.25 1303.73 1160.4 1304.8 1160.33 1305.87C1160.33 1305.87 1160.5 1306.32 1160.5 1306.54ZM1146.95 1304.91H1158.19C1158.19 1303.42 1157.6 1301.99 1156.54 1300.94C1155.49 1299.88 1154.06 1299.29 1152.57 1299.29C1151.08 1299.29 1149.65 1299.88 1148.6 1300.94C1147.54 1301.99 1146.95 1303.42 1146.95 1304.91Z" fill="black"/>
<path d="M1176.74 1304.24V1314.24H1174.83V1311.71C1174.23 1312.64 1173.39 1313.38 1172.4 1313.86C1171.41 1314.33 1170.3 1314.53 1169.21 1314.41C1165.56 1314.41 1163.59 1312.5 1163.59 1309.69C1163.59 1306.88 1165.16 1305.08 1169.83 1305.08H1174.83V1304.13C1174.83 1301.37 1173.26 1299.85 1170.22 1299.85C1168.18 1299.78 1166.17 1300.46 1164.6 1301.76L1163.64 1300.13C1165.51 1298.65 1167.84 1297.87 1170.22 1297.94C1171.09 1297.79 1171.98 1297.85 1172.83 1298.11C1173.67 1298.37 1174.44 1298.83 1175.08 1299.44C1175.71 1300.05 1176.19 1300.81 1176.48 1301.64C1176.77 1302.47 1176.86 1303.36 1176.74 1304.24ZM1174.61 1309.41V1306.71H1169.49C1166.34 1306.71 1165.33 1307.95 1165.33 1309.63C1165.33 1311.32 1166.85 1312.67 1169.43 1312.67C1170.6 1312.76 1171.76 1312.46 1172.74 1311.82C1173.71 1311.18 1174.45 1310.23 1174.83 1309.13L1174.61 1309.41Z" fill="black"/>
<path d="M1197.31 1291.14V1313.96H1195.23V1310.76C1194.6 1311.83 1193.68 1312.71 1192.58 1313.31C1191.48 1313.9 1190.24 1314.19 1189 1314.13C1186.93 1313.96 1185 1313.02 1183.6 1311.49C1182.19 1309.97 1181.41 1307.97 1181.41 1305.9C1181.41 1303.82 1182.19 1301.83 1183.6 1300.3C1185 1298.77 1186.93 1297.83 1189 1297.66C1190.21 1297.63 1191.42 1297.91 1192.5 1298.47C1193.58 1299.03 1194.5 1299.85 1195.18 1300.87V1291.14H1197.31ZM1195.18 1305.87C1195.12 1304.69 1194.72 1303.56 1194.03 1302.61C1193.34 1301.66 1192.38 1300.93 1191.28 1300.52C1190.17 1300.1 1188.98 1300.02 1187.83 1300.29C1186.68 1300.55 1185.63 1301.14 1184.82 1301.99C1184.01 1302.85 1183.46 1303.92 1183.25 1305.08C1183.04 1306.23 1183.18 1307.43 1183.64 1308.51C1184.1 1309.59 1184.87 1310.52 1185.85 1311.17C1186.84 1311.82 1187.99 1312.16 1189.16 1312.16C1190 1312.21 1190.84 1312.08 1191.62 1311.79C1192.41 1311.49 1193.12 1311.02 1193.71 1310.43C1194.3 1309.83 1194.75 1309.12 1195.05 1308.33C1195.34 1307.54 1195.46 1306.71 1195.4 1305.87H1195.18Z" fill="black"/>
<path d="M1217.27 1297.77L1209.18 1315.93C1207.83 1319.08 1206.08 1320.09 1203.55 1320.09C1202.1 1320.13 1200.69 1319.61 1199.62 1318.63L1200.63 1317C1201.42 1317.79 1202.49 1318.23 1203.61 1318.23C1205.07 1318.23 1206.03 1317.56 1206.98 1315.48L1207.66 1313.96L1200.41 1297.77H1202.94L1209.06 1311.55L1215.13 1297.77H1217.27Z" fill="black"/>
<path d="M1240.65 1304.24V1314.24H1238.57V1311.71C1237.98 1312.64 1237.14 1313.38 1236.14 1313.86C1235.15 1314.33 1234.05 1314.53 1232.95 1314.41C1229.3 1314.41 1227.33 1312.5 1227.33 1309.69C1227.33 1306.88 1228.91 1305.08 1233.57 1305.08H1238.69V1304.13C1238.69 1301.37 1237.17 1299.85 1234.13 1299.85C1232.09 1299.78 1230.09 1300.46 1228.51 1301.76L1227.5 1300.13C1229.39 1298.65 1231.73 1297.87 1234.13 1297.94C1235 1297.79 1235.9 1297.85 1236.74 1298.11C1237.58 1298.37 1238.35 1298.83 1238.99 1299.44C1239.62 1300.05 1240.11 1300.81 1240.39 1301.64C1240.68 1302.47 1240.77 1303.36 1240.65 1304.24ZM1238.46 1309.41V1306.71H1233.4C1230.26 1306.71 1229.24 1307.95 1229.24 1309.63C1229.24 1311.32 1230.76 1312.67 1233.35 1312.67C1234.47 1312.71 1235.57 1312.39 1236.5 1311.75C1237.42 1311.12 1238.11 1310.19 1238.46 1309.13V1309.41Z" fill="black"/>
<path d="M1281.63 1304.58V1313.96H1279.5V1304.8C1279.5 1301.37 1277.75 1299.63 1274.83 1299.63C1274.08 1299.57 1273.32 1299.67 1272.61 1299.94C1271.9 1300.2 1271.26 1300.61 1270.73 1301.14C1270.19 1301.68 1269.78 1302.32 1269.52 1303.03C1269.26 1303.74 1269.15 1304.5 1269.21 1305.25V1313.74H1267.07V1304.8C1267.07 1301.37 1265.33 1299.63 1262.35 1299.63C1261.6 1299.57 1260.84 1299.67 1260.13 1299.94C1259.42 1300.2 1258.78 1300.61 1258.25 1301.14C1257.71 1301.68 1257.3 1302.32 1257.04 1303.03C1256.78 1303.74 1256.67 1304.5 1256.73 1305.25V1313.74H1254.54V1297.55H1256.62V1300.53C1257.24 1299.52 1258.12 1298.7 1259.17 1298.16C1260.22 1297.61 1261.4 1297.36 1262.58 1297.44C1263.76 1297.34 1264.93 1297.63 1265.94 1298.24C1266.95 1298.86 1267.74 1299.78 1268.2 1300.87C1268.85 1299.76 1269.79 1298.86 1270.92 1298.26C1272.05 1297.65 1273.33 1297.37 1274.61 1297.44C1275.58 1297.26 1276.58 1297.33 1277.52 1297.63C1278.46 1297.93 1279.31 1298.45 1280 1299.15C1280.69 1299.86 1281.2 1300.72 1281.49 1301.66C1281.77 1302.61 1281.82 1303.61 1281.63 1304.58Z" fill="black"/>
<path d="M1301.53 1306.54H1287.98C1288.1 1308.13 1288.84 1309.62 1290.04 1310.67C1291.24 1311.72 1292.8 1312.26 1294.39 1312.16C1295.32 1312.2 1296.24 1312.03 1297.1 1311.67C1297.95 1311.31 1298.72 1310.77 1299.34 1310.08L1300.58 1311.49C1299.79 1312.35 1298.82 1313.03 1297.74 1313.49C1296.67 1313.95 1295.51 1314.16 1294.34 1314.13C1293.22 1314.2 1292.11 1314.04 1291.06 1313.65C1290.01 1313.27 1289.06 1312.66 1288.26 1311.89C1287.46 1311.11 1286.83 1310.17 1286.41 1309.13C1286 1308.1 1285.81 1306.98 1285.85 1305.87C1285.85 1303.78 1286.68 1301.78 1288.15 1300.3C1289.63 1298.83 1291.63 1298 1293.72 1298C1295.81 1298 1297.81 1298.83 1299.28 1300.3C1300.76 1301.78 1301.59 1303.78 1301.59 1305.87C1301.59 1305.87 1301.53 1306.32 1301.53 1306.54ZM1287.98 1304.91H1299.51C1299.51 1303.38 1298.9 1301.92 1297.82 1300.84C1296.74 1299.76 1295.27 1299.15 1293.75 1299.15C1292.22 1299.15 1290.75 1299.76 1289.67 1300.84C1288.59 1301.92 1287.98 1303.38 1287.98 1304.91Z" fill="black"/>
<path d="M1332.79 1304.58V1313.96H1330.59V1304.8C1330.59 1301.37 1328.91 1299.63 1325.98 1299.63C1325.23 1299.56 1324.47 1299.66 1323.75 1299.92C1323.04 1300.17 1322.39 1300.59 1321.86 1301.12C1321.32 1301.66 1320.91 1302.31 1320.65 1303.02C1320.39 1303.73 1320.29 1304.49 1320.36 1305.25V1313.74H1318.17V1304.8C1318.17 1301.37 1316.48 1299.63 1313.5 1299.63C1312.75 1299.56 1311.99 1299.66 1311.27 1299.92C1310.56 1300.17 1309.91 1300.59 1309.38 1301.12C1308.84 1301.66 1308.43 1302.31 1308.17 1303.02C1307.91 1303.73 1307.81 1304.49 1307.88 1305.25V1313.74H1305.69V1297.55H1307.77V1300.53C1308.39 1299.52 1309.27 1298.69 1310.32 1298.15C1311.37 1297.6 1312.55 1297.36 1313.73 1297.44C1314.91 1297.34 1316.09 1297.63 1317.1 1298.24C1318.1 1298.86 1318.89 1299.78 1319.35 1300.87C1320.01 1299.76 1320.95 1298.86 1322.08 1298.26C1323.21 1297.65 1324.48 1297.37 1325.76 1297.44C1326.73 1297.26 1327.73 1297.33 1328.67 1297.63C1329.61 1297.93 1330.46 1298.45 1331.15 1299.15C1331.85 1299.86 1332.36 1300.72 1332.64 1301.66C1332.92 1302.61 1332.97 1303.61 1332.79 1304.58Z" fill="black"/>
<path d="M1355.16 1305.87C1355.21 1306.95 1355.04 1308.03 1354.66 1309.04C1354.28 1310.05 1353.69 1310.98 1352.94 1311.75C1352.18 1312.53 1351.28 1313.14 1350.28 1313.55C1349.28 1313.96 1348.2 1314.16 1347.12 1314.13C1345.87 1314.19 1344.63 1313.9 1343.53 1313.31C1342.44 1312.71 1341.52 1311.83 1340.88 1310.76V1313.96H1338.74V1291.14H1340.94V1300.87C1341.61 1299.85 1342.53 1299.02 1343.61 1298.46C1344.69 1297.9 1345.9 1297.62 1347.12 1297.66C1348.2 1297.63 1349.27 1297.82 1350.27 1298.22C1351.27 1298.63 1352.18 1299.23 1352.94 1300C1353.69 1300.77 1354.28 1301.69 1354.66 1302.7C1355.04 1303.71 1355.21 1304.79 1355.16 1305.87ZM1352.97 1305.87C1352.91 1304.69 1352.51 1303.56 1351.82 1302.61C1351.12 1301.66 1350.17 1300.93 1349.06 1300.52C1347.96 1300.1 1346.76 1300.02 1345.61 1300.29C1344.47 1300.55 1343.42 1301.14 1342.61 1301.99C1341.8 1302.85 1341.25 1303.92 1341.04 1305.08C1340.83 1306.23 1340.96 1307.43 1341.43 1308.51C1341.89 1309.59 1342.66 1310.52 1343.64 1311.17C1344.62 1311.82 1345.77 1312.16 1346.95 1312.16C1347.77 1312.18 1348.58 1312.03 1349.34 1311.71C1350.1 1311.4 1350.78 1310.93 1351.34 1310.34C1351.91 1309.75 1352.35 1309.04 1352.63 1308.27C1352.9 1307.5 1353.02 1306.69 1352.97 1305.87Z" fill="black"/>
<path d="M1373.76 1306.54H1360.33C1360.37 1307.33 1360.57 1308.1 1360.91 1308.81C1361.26 1309.52 1361.74 1310.16 1362.33 1310.68C1362.92 1311.2 1363.61 1311.6 1364.36 1311.86C1365.1 1312.11 1365.89 1312.22 1366.68 1312.16C1367.62 1312.16 1368.54 1311.96 1369.38 1311.56C1370.23 1311.16 1370.98 1310.58 1371.57 1309.86L1372.81 1311.26C1371.65 1312.48 1370.15 1313.33 1368.51 1313.71C1366.86 1314.08 1365.15 1313.96 1363.57 1313.36C1362 1312.75 1360.64 1311.7 1359.66 1310.33C1358.68 1308.96 1358.13 1307.33 1358.08 1305.64C1358.03 1304.58 1358.19 1303.51 1358.57 1302.51C1358.94 1301.5 1359.52 1300.59 1360.26 1299.82C1361.01 1299.05 1361.9 1298.44 1362.89 1298.03C1363.88 1297.62 1364.94 1297.42 1366.01 1297.44C1367.07 1297.41 1368.13 1297.61 1369.12 1298.02C1370.11 1298.42 1371 1299.03 1371.73 1299.81C1372.47 1300.58 1373.04 1301.5 1373.39 1302.5C1373.75 1303.51 1373.9 1304.58 1373.82 1305.64L1373.76 1306.54ZM1360.22 1304.91H1371.46C1371.46 1303.42 1370.87 1301.99 1369.81 1300.94C1368.76 1299.88 1367.33 1299.29 1365.84 1299.29C1364.35 1299.29 1362.92 1299.88 1361.86 1300.94C1360.81 1301.99 1360.22 1303.42 1360.22 1304.91Z" fill="black"/>
<path d="M1386.41 1297.66V1299.8H1385.91C1385.12 1299.73 1384.33 1299.84 1383.6 1300.12C1382.86 1300.4 1382.2 1300.85 1381.66 1301.42C1381.12 1301.99 1380.71 1302.68 1380.47 1303.43C1380.24 1304.18 1380.17 1304.98 1380.28 1305.76V1314.02H1378.09V1297.83H1380.17V1300.98C1380.74 1299.85 1381.65 1298.92 1382.77 1298.33C1383.88 1297.74 1385.16 1297.5 1386.41 1297.66Z" fill="black"/>
<path d="M1400.58 1297.94C1400.58 1295.69 1398.78 1294.18 1395.63 1294.18C1394.52 1294.11 1393.42 1294.3 1392.39 1294.73C1391.37 1295.16 1390.46 1295.82 1389.73 1296.65L1388.1 1295.41C1389.06 1294.33 1390.25 1293.48 1391.58 1292.93C1392.91 1292.37 1394.36 1292.13 1395.8 1292.21C1400.13 1292.21 1402.88 1294.29 1402.88 1297.83C1402.88 1303.06 1397.26 1303.45 1397.26 1307.72H1394.96C1394.96 1302.44 1400.58 1301.93 1400.58 1297.94ZM1394.51 1312.5C1394.58 1312.13 1394.78 1311.79 1395.07 1311.55C1395.36 1311.31 1395.73 1311.17 1396.11 1311.17C1396.49 1311.17 1396.86 1311.31 1397.15 1311.55C1397.44 1311.79 1397.64 1312.13 1397.71 1312.5C1397.75 1312.74 1397.75 1312.98 1397.69 1313.21C1397.63 1313.44 1397.52 1313.66 1397.36 1313.84C1397.21 1314.03 1397.02 1314.18 1396.8 1314.28C1396.58 1314.38 1396.35 1314.43 1396.11 1314.43C1395.87 1314.43 1395.63 1314.38 1395.42 1314.28C1395.2 1314.18 1395.01 1314.03 1394.85 1313.84C1394.7 1313.66 1394.59 1313.44 1394.53 1313.21C1394.47 1312.98 1394.46 1312.74 1394.51 1312.5Z" fill="black"/>
<path d="M1415.81 1292.43H1420.81V1309.86H1431.61V1313.91H1415.81V1292.43Z" fill="black"/>
<path d="M1432.73 1305.7C1432.62 1303.88 1433.05 1302.07 1433.98 1300.5C1434.91 1298.93 1436.29 1297.67 1437.94 1296.9C1439.6 1296.12 1441.44 1295.86 1443.24 1296.14C1445.05 1296.43 1446.72 1297.25 1448.05 1298.5C1449.38 1299.74 1450.31 1301.36 1450.7 1303.14C1451.1 1304.92 1450.96 1306.78 1450.29 1308.48C1449.62 1310.18 1448.46 1311.63 1446.95 1312.66C1445.44 1313.69 1443.66 1314.24 1441.84 1314.24C1440.67 1314.32 1439.5 1314.16 1438.39 1313.76C1437.29 1313.37 1436.28 1312.75 1435.43 1311.95C1434.57 1311.15 1433.89 1310.18 1433.43 1309.1C1432.97 1308.03 1432.73 1306.87 1432.73 1305.7ZM1446.05 1305.7C1445.99 1304.88 1445.69 1304.1 1445.18 1303.46C1444.68 1302.81 1444 1302.32 1443.23 1302.05C1442.46 1301.79 1441.62 1301.75 1440.83 1301.95C1440.03 1302.15 1439.31 1302.57 1438.76 1303.17C1438.2 1303.77 1437.83 1304.52 1437.69 1305.33C1437.56 1306.14 1437.66 1306.97 1437.98 1307.72C1438.31 1308.47 1438.85 1309.11 1439.53 1309.56C1440.22 1310.01 1441.02 1310.25 1441.84 1310.25C1442.42 1310.26 1443 1310.15 1443.54 1309.92C1444.08 1309.69 1444.57 1309.35 1444.96 1308.92C1445.36 1308.49 1445.66 1307.98 1445.85 1307.43C1446.04 1306.87 1446.11 1306.28 1446.05 1305.7Z" fill="black"/>
<path d="M1471.24 1297.38V1311.21C1471.39 1312.45 1471.25 1313.71 1470.84 1314.89C1470.42 1316.07 1469.74 1317.14 1468.84 1318.01C1467.94 1318.89 1466.85 1319.54 1465.66 1319.92C1464.46 1320.3 1463.2 1320.39 1461.96 1320.2C1459.07 1320.31 1456.22 1319.51 1453.81 1317.9L1455.72 1314.47C1457.36 1315.64 1459.32 1316.29 1461.34 1316.32C1464.72 1316.32 1466.23 1314.81 1466.23 1311.83V1311.1C1465.56 1311.8 1464.75 1312.34 1463.84 1312.7C1462.94 1313.06 1461.97 1313.22 1461.01 1313.18C1459.9 1313.27 1458.78 1313.13 1457.73 1312.77C1456.68 1312.41 1455.71 1311.84 1454.89 1311.08C1454.07 1310.33 1453.42 1309.41 1452.97 1308.4C1452.53 1307.38 1452.3 1306.28 1452.3 1305.17C1452.3 1304.05 1452.53 1302.95 1452.97 1301.94C1453.42 1300.92 1454.07 1300 1454.89 1299.25C1455.71 1298.5 1456.68 1297.92 1457.73 1297.56C1458.78 1297.2 1459.9 1297.06 1461.01 1297.16C1462.06 1297.07 1463.13 1297.24 1464.1 1297.65C1465.08 1298.06 1465.95 1298.7 1466.63 1299.52V1297.38H1471.24ZM1466.51 1305.19C1466.53 1304.63 1466.43 1304.07 1466.22 1303.55C1466 1303.03 1465.68 1302.56 1465.27 1302.17C1464.86 1301.78 1464.38 1301.49 1463.84 1301.3C1463.31 1301.11 1462.75 1301.04 1462.19 1301.09C1461.61 1301.02 1461.03 1301.08 1460.47 1301.25C1459.92 1301.43 1459.41 1301.71 1458.98 1302.1C1458.55 1302.48 1458.2 1302.96 1457.96 1303.49C1457.73 1304.01 1457.6 1304.59 1457.6 1305.17C1457.6 1305.75 1457.73 1306.32 1457.96 1306.85C1458.2 1307.38 1458.55 1307.85 1458.98 1308.23C1459.41 1308.62 1459.92 1308.91 1460.47 1309.08C1461.03 1309.25 1461.61 1309.31 1462.19 1309.24C1462.74 1309.29 1463.3 1309.22 1463.83 1309.04C1464.36 1308.85 1464.84 1308.56 1465.25 1308.18C1465.66 1307.8 1465.98 1307.34 1466.2 1306.82C1466.42 1306.31 1466.52 1305.75 1466.51 1305.19Z" fill="black"/>
<path d="M1484 1292.43C1484 1292.06 1484.09 1291.69 1484.24 1291.34C1484.4 1291 1484.62 1290.69 1484.9 1290.44C1485.18 1290.19 1485.51 1289.99 1485.87 1289.87C1486.22 1289.75 1486.6 1289.7 1486.98 1289.74C1487.34 1289.7 1487.71 1289.73 1488.07 1289.85C1488.42 1289.96 1488.75 1290.14 1489.03 1290.38C1489.31 1290.62 1489.53 1290.92 1489.69 1291.25C1489.85 1291.59 1489.94 1291.95 1489.95 1292.32C1489.95 1293.11 1489.64 1293.87 1489.08 1294.43C1488.52 1294.99 1487.77 1295.3 1486.98 1295.3C1486.18 1295.3 1485.43 1294.99 1484.87 1294.43C1484.31 1293.87 1484 1293.11 1484 1292.32V1292.43ZM1484.56 1297.38H1489.34V1314.24H1484.56V1297.38Z" fill="black"/>
<path d="M1510.64 1304.24V1313.74H1505.86V1305.03C1505.86 1302.33 1504.63 1301.09 1502.49 1301.09C1500.35 1301.09 1498.5 1302.5 1498.5 1305.53V1313.74H1493.72V1296.87H1498.33V1298.84C1499.05 1298.09 1499.93 1297.51 1500.9 1297.13C1501.87 1296.76 1502.91 1296.59 1503.95 1296.65C1504.92 1296.6 1505.89 1296.77 1506.79 1297.15C1507.68 1297.53 1508.48 1298.1 1509.13 1298.83C1509.77 1299.56 1510.24 1300.43 1510.5 1301.36C1510.76 1302.3 1510.81 1303.28 1510.64 1304.24Z" fill="black"/>
</g>
<path d="M1674.67 1358.37H939.189V1484.29H1674.67V1358.37Z" fill="#305D87"/>
<path d="M1211.93 1440.89L1202.94 1427.9H1200.24H1189.56V1441H1183.37V1397.89H1200.24C1211.48 1397.89 1218.17 1403.51 1218.17 1412.95C1218.31 1415.94 1217.46 1418.9 1215.76 1421.36C1214.05 1423.82 1211.58 1425.64 1208.73 1426.56L1218.96 1441L1211.93 1440.89ZM1211.93 1412.78C1211.93 1406.6 1207.83 1403.11 1199.9 1403.11H1189.45V1422.51H1199.9C1207.66 1422.56 1211.76 1418.97 1211.76 1412.84L1211.93 1412.78Z" fill="white"/>
<path d="M1256.45 1426.56H1229.97C1230.39 1429.34 1231.83 1431.86 1234.02 1433.63C1236.2 1435.4 1238.97 1436.28 1241.78 1436.11C1243.54 1436.17 1245.3 1435.86 1246.93 1435.18C1248.56 1434.5 1250.02 1433.47 1251.22 1432.18L1254.48 1436C1252.08 1438.44 1249.02 1440.14 1245.67 1440.88C1242.33 1441.63 1238.84 1441.4 1235.62 1440.21C1232.41 1439.02 1229.6 1436.93 1227.54 1434.19C1225.48 1431.45 1224.26 1428.18 1224.02 1424.76C1223.9 1422.55 1224.24 1420.34 1225.02 1418.27C1225.79 1416.2 1226.99 1414.32 1228.53 1412.73C1230.07 1411.15 1231.93 1409.9 1233.97 1409.07C1236.02 1408.24 1238.22 1407.84 1240.43 1407.89C1242.63 1407.83 1244.81 1408.23 1246.85 1409.07C1248.88 1409.9 1250.72 1411.16 1252.24 1412.75C1253.76 1414.33 1254.93 1416.22 1255.67 1418.29C1256.42 1420.36 1256.72 1422.56 1256.56 1424.76C1256.56 1425.26 1256.51 1425.99 1256.45 1426.56ZM1229.97 1422.28H1250.88C1250.62 1419.7 1249.4 1417.3 1247.47 1415.56C1245.54 1413.82 1243.03 1412.86 1240.43 1412.86C1237.83 1412.86 1235.32 1413.82 1233.39 1415.56C1231.46 1417.3 1230.24 1419.7 1229.97 1422.28Z" fill="white"/>
<path d="M1296.02 1408.29V1436.39C1296.02 1447.92 1290.12 1453.26 1279.16 1453.26C1273.57 1453.5 1268.06 1451.79 1263.59 1448.42L1266.4 1443.87C1270 1446.66 1274.44 1448.15 1278.99 1448.08C1286.69 1448.08 1290.23 1444.54 1290.23 1437.12V1434.54C1288.78 1436.21 1286.97 1437.53 1284.93 1438.4C1282.9 1439.28 1280.7 1439.69 1278.48 1439.6C1274.3 1439.6 1270.28 1437.93 1267.32 1434.97C1264.35 1432.01 1262.69 1427.99 1262.69 1423.8C1262.69 1419.61 1264.35 1415.59 1267.32 1412.63C1270.28 1409.67 1274.3 1408.01 1278.48 1408.01C1280.8 1407.94 1283.1 1408.41 1285.19 1409.38C1287.29 1410.36 1289.13 1411.81 1290.57 1413.63V1408.57L1296.02 1408.29ZM1290.4 1423.74C1290.53 1421.5 1289.97 1419.27 1288.82 1417.34C1287.66 1415.41 1285.95 1413.87 1283.91 1412.93C1281.87 1411.98 1279.59 1411.67 1277.37 1412.03C1275.15 1412.39 1273.09 1413.41 1271.45 1414.96C1269.82 1416.5 1268.69 1418.5 1268.2 1420.7C1267.71 1422.89 1267.9 1425.18 1268.73 1427.27C1269.56 1429.36 1270.99 1431.16 1272.85 1432.42C1274.71 1433.69 1276.91 1434.37 1279.16 1434.37C1280.6 1434.45 1282.04 1434.24 1283.39 1433.74C1284.74 1433.25 1285.98 1432.47 1287.02 1431.48C1288.06 1430.48 1288.88 1429.28 1289.43 1427.95C1289.99 1426.62 1290.26 1425.19 1290.23 1423.74H1290.4Z" fill="white"/>
<path d="M1306.25 1398.17C1306.26 1397.65 1306.37 1397.14 1306.57 1396.67C1306.78 1396.19 1307.08 1395.76 1307.45 1395.4C1307.82 1395.04 1308.25 1394.76 1308.73 1394.57C1309.21 1394.38 1309.73 1394.28 1310.24 1394.29C1310.79 1394.22 1311.34 1394.27 1311.87 1394.44C1312.39 1394.6 1312.87 1394.87 1313.28 1395.24C1313.69 1395.6 1314.02 1396.05 1314.25 1396.55C1314.47 1397.05 1314.59 1397.59 1314.59 1398.14C1314.59 1398.69 1314.47 1399.23 1314.25 1399.73C1314.02 1400.23 1313.69 1400.68 1313.28 1401.04C1312.87 1401.41 1312.39 1401.68 1311.87 1401.84C1311.34 1402.01 1310.79 1402.06 1310.24 1401.99C1309.73 1402.01 1309.22 1401.92 1308.74 1401.73C1308.26 1401.55 1307.82 1401.27 1307.45 1400.92C1307.08 1400.56 1306.78 1400.13 1306.58 1399.66C1306.37 1399.19 1306.26 1398.68 1306.25 1398.17ZM1307.32 1408.29H1313.22V1440.89H1307.32V1408.29Z" fill="white"/>
<path d="M1320.36 1437.46L1322.84 1432.79C1326.18 1434.97 1330.09 1436.14 1334.08 1436.17C1339.7 1436.17 1341.84 1434.48 1341.84 1431.73C1341.84 1424.42 1321.21 1430.77 1321.21 1417.73C1321.21 1412.11 1326.43 1407.95 1334.81 1407.95C1338.96 1407.88 1343.05 1408.91 1346.67 1410.93L1344.14 1415.59C1341.33 1413.83 1338.07 1412.93 1334.75 1413.01C1329.58 1413.01 1327.05 1414.92 1327.05 1417.51C1327.05 1425.21 1347.74 1418.91 1347.74 1431.61C1347.74 1437.24 1342.12 1441.28 1333.63 1441.28C1328.93 1441.35 1324.31 1440.02 1320.36 1437.46Z" fill="white"/>
<path d="M1373.71 1439.15C1371.66 1440.71 1369.14 1441.52 1366.57 1441.45C1365.18 1441.61 1363.78 1441.46 1362.46 1441C1361.14 1440.54 1359.94 1439.8 1358.95 1438.82C1357.95 1437.83 1357.19 1436.64 1356.72 1435.33C1356.25 1434.01 1356.08 1432.61 1356.23 1431.22V1413.29H1350.6V1408.46H1356.23V1401.32H1361.85V1408.46H1371.57V1413.29H1362.18V1431C1362.05 1431.72 1362.09 1432.46 1362.29 1433.17C1362.49 1433.88 1362.86 1434.53 1363.35 1435.07C1363.85 1435.62 1364.46 1436.04 1365.14 1436.31C1365.83 1436.58 1366.57 1436.68 1367.3 1436.62C1368.96 1436.63 1370.58 1436.1 1371.91 1435.1L1373.71 1439.15Z" fill="white"/>
<path d="M1409.12 1426.56H1382.81C1383.23 1429.35 1384.68 1431.88 1386.88 1433.65C1389.08 1435.42 1391.86 1436.3 1394.68 1436.11C1396.43 1436.18 1398.18 1435.86 1399.8 1435.18C1401.42 1434.5 1402.88 1433.48 1404.06 1432.18L1407.32 1436C1404.92 1438.45 1401.87 1440.15 1398.52 1440.9C1395.18 1441.65 1391.69 1441.42 1388.48 1440.23C1385.26 1439.04 1382.46 1436.95 1380.41 1434.2C1378.36 1431.46 1377.14 1428.18 1376.91 1424.76C1376.79 1422.55 1377.14 1420.34 1377.91 1418.27C1378.69 1416.2 1379.89 1414.32 1381.43 1412.73C1382.97 1411.15 1384.82 1409.9 1386.87 1409.07C1388.92 1408.24 1391.12 1407.84 1393.33 1407.89C1395.52 1407.84 1397.7 1408.25 1399.73 1409.09C1401.76 1409.93 1403.6 1411.18 1405.11 1412.77C1406.63 1414.35 1407.8 1416.24 1408.55 1418.3C1409.3 1420.37 1409.61 1422.57 1409.46 1424.76C1409.4 1425.37 1409.29 1425.97 1409.12 1426.56ZM1382.81 1422.28H1403.78C1403.46 1419.73 1402.21 1417.39 1400.28 1415.69C1398.35 1413.99 1395.87 1413.05 1393.3 1413.05C1390.73 1413.05 1388.24 1413.99 1386.31 1415.69C1384.38 1417.39 1383.14 1419.73 1382.81 1422.28Z" fill="white"/>
<path d="M1435.04 1407.95V1413.57H1433.69C1432.22 1413.47 1430.76 1413.7 1429.4 1414.24C1428.04 1414.78 1426.82 1415.63 1425.83 1416.71C1424.84 1417.79 1424.11 1419.08 1423.68 1420.48C1423.26 1421.89 1423.17 1423.37 1423.4 1424.81V1441.06H1417.5V1408.46H1423.12V1414.08C1424.31 1412.02 1426.06 1410.35 1428.17 1409.26C1430.29 1408.17 1432.67 1407.72 1435.04 1407.95Z" fill="white"/>
<g opacity="0.6">
<path d="M1178.15 689.215L1180.68 683.931C1185.04 687.588 1190.56 689.579 1196.25 689.552C1204.4 689.552 1207.88 686.404 1207.88 682.301C1207.88 671.058 1179.33 678.029 1179.33 660.547C1179.33 653.239 1184.95 647.056 1197.37 647.056C1202.72 646.969 1207.99 648.412 1212.55 651.216L1210.3 656.837C1206.44 654.365 1201.96 653.04 1197.37 653.014C1189.33 653.014 1186.13 656.387 1186.13 660.491C1186.13 671.733 1214.74 664.763 1214.74 682.132C1214.74 689.327 1209.12 695.511 1196.47 695.511C1189.81 695.651 1183.32 693.419 1178.15 689.215Z" fill="#263238"/>
<path d="M1222.27 647.787C1222.28 647.221 1222.4 646.662 1222.62 646.143C1222.85 645.624 1223.18 645.154 1223.58 644.762C1223.99 644.37 1224.47 644.062 1225 643.858C1225.53 643.653 1226.09 643.556 1226.66 643.571C1227.22 643.548 1227.77 643.637 1228.3 643.832C1228.82 644.026 1229.3 644.323 1229.71 644.705C1230.12 645.087 1230.44 645.546 1230.67 646.056C1230.9 646.566 1231.03 647.116 1231.04 647.674C1231.04 648.837 1230.58 649.952 1229.76 650.775C1228.94 651.597 1227.82 652.059 1226.66 652.059C1225.49 652.059 1224.38 651.597 1223.56 650.775C1222.73 649.952 1222.27 648.837 1222.27 647.674V647.787ZM1223.4 659.029H1229.92V694.78H1223.4V659.029Z" fill="#263238"/>
<path d="M1276.41 658.86V689.721C1276.41 702.368 1270 708.102 1257.91 708.102C1251.85 708.294 1245.9 706.41 1241.05 702.762L1244.14 697.759C1248.05 700.856 1252.92 702.504 1257.91 702.425C1266.34 702.425 1270.17 698.49 1270.17 690.395V687.585C1268.57 689.422 1266.59 690.88 1264.37 691.853C1262.14 692.825 1259.72 693.288 1257.29 693.206C1254.94 693.34 1252.58 692.993 1250.37 692.185C1248.16 691.377 1246.13 690.125 1244.42 688.507C1242.71 686.889 1241.34 684.938 1240.41 682.773C1239.47 680.609 1238.99 678.277 1238.99 675.921C1238.99 673.564 1239.47 671.232 1240.41 669.068C1241.34 666.904 1242.71 664.953 1244.42 663.335C1246.13 661.716 1248.16 660.465 1250.37 659.657C1252.58 658.849 1254.94 658.501 1257.29 658.636C1259.78 658.506 1262.26 658.945 1264.55 659.92C1266.84 660.894 1268.87 662.377 1270.5 664.257V658.636L1276.41 658.86ZM1270.11 675.724C1270.23 673.267 1269.62 670.829 1268.34 668.725C1267.07 666.62 1265.19 664.947 1262.95 663.919C1260.72 662.892 1258.23 662.559 1255.8 662.961C1253.37 663.364 1251.12 664.485 1249.34 666.18C1247.55 667.874 1246.32 670.064 1245.79 672.467C1245.26 674.871 1245.47 677.377 1246.38 679.663C1247.29 681.948 1248.86 683.909 1250.9 685.291C1252.94 686.673 1255.34 687.413 1257.8 687.416C1259.41 687.557 1261.03 687.36 1262.55 686.839C1264.08 686.317 1265.48 685.481 1266.67 684.385C1267.86 683.289 1268.8 681.958 1269.44 680.476C1270.08 678.994 1270.4 677.395 1270.39 675.78L1270.11 675.724Z" fill="#263238"/>
<path d="M1322.72 674.038V694.611H1316.2V674.543C1316.2 667.517 1312.72 664.088 1306.59 664.088C1305.03 663.986 1303.47 664.228 1302.02 664.798C1300.57 665.367 1299.26 666.249 1298.19 667.381C1297.11 668.513 1296.3 669.868 1295.81 671.348C1295.32 672.829 1295.16 674.4 1295.35 675.949V694.386H1288.88V658.635H1295.12V664.257C1296.66 662.352 1298.63 660.846 1300.87 659.867C1303.11 658.889 1305.56 658.466 1308 658.635C1310.02 658.499 1312.06 658.81 1313.95 659.546C1315.85 660.281 1317.56 661.424 1318.96 662.893C1320.37 664.362 1321.43 666.122 1322.08 668.047C1322.73 669.973 1322.95 672.018 1322.72 674.038Z" fill="#263238"/>
<path d="M1386.19 658.86V694.611H1380.06V688.99C1378.63 690.83 1376.79 692.3 1374.67 693.278C1372.56 694.256 1370.24 694.713 1367.92 694.611C1365.83 694.827 1363.72 694.57 1361.74 693.861C1359.76 693.152 1357.97 692.009 1356.49 690.515C1355.01 689.021 1353.89 687.215 1353.2 685.229C1352.51 683.243 1352.28 681.128 1352.52 679.041V658.467H1358.98V678.31C1358.98 685.28 1362.52 688.821 1368.65 688.821C1370.21 688.933 1371.77 688.698 1373.23 688.133C1374.69 687.567 1376 686.685 1377.08 685.551C1378.15 684.416 1378.96 683.057 1379.45 681.572C1379.94 680.087 1380.09 678.512 1379.89 676.961V658.467L1386.19 658.86Z" fill="#263238"/>
<path d="M1435.54 676.736C1435.67 679.149 1435.29 681.563 1434.43 683.822C1433.57 686.081 1432.25 688.136 1430.55 689.855C1428.86 691.575 1426.82 692.921 1424.57 693.807C1422.32 694.694 1419.91 695.102 1417.5 695.005C1415.12 695.097 1412.76 694.638 1410.6 693.662C1408.43 692.687 1406.52 691.222 1405.02 689.384V707.821H1398.55V659.029H1404.74V664.65C1406.22 662.693 1408.16 661.124 1410.38 660.077C1412.6 659.03 1415.04 658.535 1417.5 658.636C1419.9 658.532 1422.3 658.929 1424.54 659.802C1426.78 660.676 1428.81 662.007 1430.51 663.709C1432.21 665.412 1433.53 667.45 1434.4 669.693C1435.26 671.935 1435.65 674.334 1435.54 676.736ZM1429.02 676.736C1428.91 674.386 1428.11 672.12 1426.73 670.219C1425.35 668.317 1423.43 666.863 1421.23 666.036C1419.03 665.209 1416.63 665.047 1414.34 665.568C1412.05 666.089 1409.95 667.271 1408.33 668.968C1406.7 670.665 1405.6 672.803 1405.17 675.116C1404.75 677.429 1405.01 679.817 1405.92 681.983C1406.84 684.15 1408.37 686 1410.33 687.306C1412.29 688.611 1414.58 689.314 1416.94 689.327C1418.57 689.362 1420.2 689.055 1421.72 688.428C1423.23 687.801 1424.6 686.866 1425.74 685.682C1426.88 684.499 1427.75 683.093 1428.32 681.553C1428.88 680.013 1429.12 678.373 1429.02 676.736Z" fill="#263238"/>
</g>
<path d="M662.458 1856.57H657.118C657.118 1848.64 663.695 1662.92 696.017 1631.72C729.238 1599.4 768.305 1631.27 768.642 1631.72L765.27 1635.77C763.808 1634.59 729.463 1606.71 699.67 1635.77C668.922 1665.05 662.514 1854.66 662.458 1856.57Z" fill="#305D87"/>
<path d="M659.76 1893.84L654.476 1893.33C654.476 1891.08 675.387 1667.81 594.498 1574.95L598.489 1571.46C680.896 1666.07 659.985 1891.59 659.76 1893.84Z" fill="#305D87"/>
<path d="M662.346 1870C661.671 1859.44 646.1 1611.43 708.271 1554.09L711.868 1558.03C651.553 1613.45 667.461 1867.19 667.629 1869.61L662.346 1870Z" fill="#305D87"/>
<path d="M654.476 1869.83C654.476 1868.15 652.565 1701.2 608.326 1676.07C604.565 1673.59 600.263 1672.05 595.782 1671.58C591.302 1671.11 586.774 1671.73 582.581 1673.37C556.667 1684.11 542.895 1733.58 542.727 1734.08L537.611 1732.68C538.173 1730.54 552.226 1680.23 580.557 1668.48C585.493 1666.5 590.833 1665.74 596.127 1666.26C601.42 1666.77 606.511 1668.56 610.968 1671.46C657.792 1698.28 659.76 1862.58 659.816 1869.78L654.476 1869.83Z" fill="#305D87"/>
<path d="M672.689 1869.95C672.351 1864.33 665.55 1738.19 701.357 1691.36C710.913 1678.94 721.481 1673.04 732.948 1673.88C758.412 1675.62 777.917 1710.14 778.985 1711.6L774.376 1714.24C774.376 1713.9 755.152 1680.51 732.554 1679.16C723.055 1678.43 713.948 1683.66 705.573 1694.62C670.946 1739.59 677.916 1868.37 677.973 1869.67L672.689 1869.95Z" fill="#305D87"/>
<path d="M665.55 1887.43L660.266 1887.04C660.266 1884 682.75 1582.82 645.651 1532.56L649.923 1529.42C688.259 1581.24 666.505 1874.95 665.55 1887.43Z" fill="#305D87"/>
<path d="M570.27 1698.44C570.27 1698.44 593.205 1706.93 586.403 1726.89C579.602 1746.84 506.976 1779.73 506.976 1779.73C506.976 1779.73 476.565 1751.9 504.502 1706.65C532.44 1661.4 569.652 1684.17 570.27 1698.44Z" fill="#305D87"/>
<path opacity="0.2" d="M570.27 1698.44C570.27 1698.44 593.205 1706.93 586.403 1726.89C579.602 1746.84 506.976 1779.73 506.976 1779.73C506.976 1779.73 476.565 1751.9 504.502 1706.65C532.44 1661.4 569.652 1684.17 570.27 1698.44Z" fill="black"/>
<path d="M670.047 1660.45C670.047 1660.45 645.594 1659.43 644.189 1680.46C642.784 1701.48 697.028 1759.83 697.028 1759.83C697.028 1759.83 735.815 1745.77 727.495 1693.22C719.176 1640.66 676.117 1647.46 670.047 1660.45Z" fill="#305D87"/>
<path opacity="0.2" d="M670.047 1660.45C670.047 1660.45 645.594 1659.43 644.189 1680.46C642.784 1701.48 697.028 1759.83 697.028 1759.83C697.028 1759.83 735.815 1745.77 727.495 1693.22C719.176 1640.66 676.117 1647.46 670.047 1660.45Z" fill="black"/>
<path d="M690.733 1559.6C690.733 1559.6 674.431 1557.86 675.724 1547.97C677.017 1538.07 739.075 1512.5 775.669 1553.59C775.669 1553.59 752.229 1593.83 718.389 1594.4C684.549 1594.96 690.733 1559.6 690.733 1559.6Z" fill="#305D87"/>
<path opacity="0.2" d="M690.733 1559.6C690.733 1559.6 674.431 1557.86 675.724 1547.97C677.017 1538.07 739.075 1512.5 775.669 1553.59C775.669 1553.59 752.229 1593.83 718.389 1594.4C684.549 1594.96 690.733 1559.6 690.733 1559.6Z" fill="black"/>
<path d="M660.378 1535.49C660.378 1535.49 675.106 1542.62 679.265 1533.52C683.425 1524.41 644.245 1469.94 591.35 1485.63C591.35 1485.63 589.945 1532.17 618.388 1550.55C646.831 1568.93 660.378 1535.49 660.378 1535.49Z" fill="#305D87"/>
<path opacity="0.2" d="M660.378 1535.49C660.378 1535.49 675.106 1542.62 679.265 1533.52C683.425 1524.41 644.245 1469.94 591.35 1485.63C591.35 1485.63 589.945 1532.17 618.388 1550.55C646.831 1568.93 660.378 1535.49 660.378 1535.49Z" fill="black"/>
<path d="M737.501 1690.46C737.501 1690.46 726.259 1681.36 738.4 1676.92C750.542 1672.47 810.071 1673.77 810.689 1732.73C810.689 1732.73 741.323 1744.26 732.779 1721.77C724.235 1699.29 737.501 1690.46 737.501 1690.46Z" fill="#305D87"/>
<path opacity="0.2" d="M737.501 1690.46C737.501 1690.46 726.259 1681.36 738.4 1676.92C750.542 1672.47 810.071 1673.77 810.689 1732.73C810.689 1732.73 741.323 1744.26 732.779 1721.77C724.235 1699.29 737.501 1690.46 737.501 1690.46Z" fill="black"/>
<path d="M595.847 1558.14C595.847 1558.14 607.089 1549.03 594.947 1544.65C582.806 1540.26 523.277 1541.44 522.659 1600.41C522.659 1600.41 592.024 1611.99 600.569 1589.51C609.113 1567.02 595.847 1558.14 595.847 1558.14Z" fill="#305D87"/>
<path opacity="0.2" d="M595.847 1558.14C595.847 1558.14 607.089 1549.03 594.947 1544.65C582.806 1540.26 523.277 1541.44 522.659 1600.41C522.659 1600.41 592.024 1611.99 600.569 1589.51C609.113 1567.02 595.847 1558.14 595.847 1558.14Z" fill="black"/>
<path d="M632.722 1605.64C632.722 1605.64 633.734 1594.4 624.796 1598.95C615.858 1603.5 584.885 1636.78 617.039 1668.54C617.039 1668.54 660.378 1636.44 652.565 1619.75C644.751 1603.05 632.722 1605.64 632.722 1605.64Z" fill="#305D87"/>
<path opacity="0.2" d="M632.722 1605.64C632.722 1605.64 633.734 1594.4 624.796 1598.95C615.858 1603.5 584.885 1636.78 617.039 1668.54C617.039 1668.54 660.378 1636.44 652.565 1619.75C644.751 1603.05 632.722 1605.64 632.722 1605.64Z" fill="black"/>
<path d="M747.619 1621.38C747.619 1621.38 740.874 1612.55 750.767 1611.48C760.66 1610.42 804.73 1622.16 794.444 1666.24C794.444 1666.24 740.705 1662.19 738.232 1643.75C735.758 1625.31 747.619 1621.38 747.619 1621.38Z" fill="#305D87"/>
<path opacity="0.2" d="M747.619 1621.38C747.619 1621.38 740.874 1612.55 750.767 1611.48C760.66 1610.42 804.73 1622.16 794.444 1666.24C794.444 1666.24 740.705 1662.19 738.232 1643.75C735.758 1625.31 747.619 1621.38 747.619 1621.38Z" fill="black"/>
<path d="M574.261 2033.3H748.013L771.116 1864.33H551.158L574.261 2033.3Z" fill="#263238"/>
<path opacity="0.2" d="M574.261 2033.3H748.013L771.116 1864.33H551.158L574.261 2033.3Z" fill="white"/>
<path d="M792.926 1850.61V1866.69C792.926 1871.85 790.877 1876.79 787.229 1880.44C783.582 1884.09 778.635 1886.14 773.477 1886.14H546.661C541.503 1886.14 536.556 1884.09 532.909 1880.44C529.261 1876.79 527.212 1871.85 527.212 1866.69V1850.61H792.926Z" fill="#263238"/>
<path d="M2240.72 249.075H2079.22C2066.05 249.075 2053.41 254.31 2044.09 263.629C2034.77 272.948 2029.53 285.588 2029.53 298.767V439.296C2029.53 445.827 2030.81 452.294 2033.3 458.33C2035.79 464.365 2039.45 469.85 2044.07 474.47C2048.68 479.09 2054.16 482.755 2060.2 485.256C2066.23 487.757 2072.69 489.044 2079.22 489.044H2126.39L2115.14 533.395L2160.11 489.044H2241C2254.2 489.044 2266.85 483.803 2276.18 474.473C2285.51 465.144 2290.75 452.49 2290.75 439.296V298.767C2290.75 292.212 2289.45 285.723 2286.94 279.672C2284.42 273.621 2280.73 268.128 2276.08 263.51C2271.43 258.891 2265.91 255.238 2259.84 252.76C2253.77 250.283 2247.28 249.031 2240.72 249.075Z" fill="#305D87"/>
<path opacity="0.7" d="M2240.72 249.075H2079.22C2066.05 249.075 2053.41 254.31 2044.09 263.629C2034.77 272.948 2029.53 285.588 2029.53 298.767V439.296C2029.53 445.827 2030.81 452.294 2033.3 458.33C2035.79 464.365 2039.45 469.85 2044.07 474.47C2048.68 479.09 2054.16 482.755 2060.2 485.256C2066.23 487.757 2072.69 489.044 2079.22 489.044H2126.39L2115.14 533.395L2160.11 489.044H2241C2254.2 489.044 2266.85 483.803 2276.18 474.473C2285.51 465.144 2290.75 452.49 2290.75 439.296V298.767C2290.75 292.212 2289.45 285.723 2286.94 279.672C2284.42 273.621 2280.73 268.128 2276.08 263.51C2271.43 258.891 2265.91 255.238 2259.84 252.76C2253.77 250.283 2247.28 249.031 2240.72 249.075Z" fill="white"/>
<path d="M2160 431.146C2194.62 431.146 2222.68 403.085 2222.68 368.469C2222.68 333.854 2194.62 305.793 2160 305.793C2125.39 305.793 2097.32 333.854 2097.32 368.469C2097.32 403.085 2125.39 431.146 2160 431.146Z" fill="white"/>
<path d="M2160 288.311C2144.15 288.311 2128.65 293.012 2115.47 301.82C2102.29 310.628 2092.01 323.147 2085.94 337.794C2079.88 352.441 2078.29 368.558 2081.38 384.108C2084.48 399.657 2092.11 413.94 2103.32 425.15C2114.53 436.36 2128.81 443.995 2144.36 447.087C2159.91 450.18 2176.03 448.593 2190.68 442.526C2205.32 436.459 2217.84 426.185 2226.65 413.003C2235.46 399.821 2240.16 384.323 2240.16 368.469C2240.17 357.941 2238.1 347.514 2234.07 337.785C2230.05 328.057 2224.14 319.217 2216.7 311.772C2209.25 304.328 2200.41 298.424 2190.68 294.398C2180.96 290.372 2170.53 288.304 2160 288.311ZM2205.48 344.523L2157.19 401.41C2156.5 402.232 2155.64 402.89 2154.67 403.338C2153.7 403.785 2152.64 404.01 2151.57 403.995C2150.5 404.002 2149.44 403.774 2148.47 403.327C2147.5 402.88 2146.64 402.226 2145.95 401.41L2114.53 364.366C2113.86 363.634 2113.35 362.775 2113.03 361.841C2112.7 360.908 2112.57 359.918 2112.63 358.932C2112.7 357.945 2112.96 356.982 2113.41 356.1C2113.85 355.217 2114.47 354.434 2115.23 353.796C2115.98 353.158 2116.86 352.678 2117.8 352.386C2118.75 352.094 2119.74 351.995 2120.73 352.094C2121.71 352.194 2122.66 352.491 2123.53 352.967C2124.39 353.444 2125.16 354.089 2125.77 354.866L2151.57 385.277L2194.23 335.023C2195.52 333.609 2197.3 332.748 2199.2 332.621C2201.11 332.495 2202.98 333.112 2204.44 334.344C2205.9 335.576 2206.82 337.326 2207.02 339.225C2207.21 341.124 2206.66 343.023 2205.48 344.523Z" fill="#305D87"/>
<path d="M2212.73 1116.14C2212.73 1116.14 2114.86 1103.78 1966.58 1144.25C1966.58 1144.25 1942.74 879.268 1945.55 842.842C1948.36 806.417 2174.5 817.097 2174.5 817.097C2174.5 817.097 2180.12 923.169 2194.85 987.138C2209.58 1051.11 2220.37 1103.83 2212.73 1116.14Z" fill="#305D87"/>
<path opacity="0.2" d="M2212.73 1116.14C2212.73 1116.14 2114.86 1103.78 1966.58 1144.25C1966.58 1144.25 1942.74 879.268 1945.55 842.842C1948.36 806.417 2174.5 817.097 2174.5 817.097C2174.5 817.097 2180.12 923.169 2194.85 987.138C2209.58 1051.11 2220.37 1103.83 2212.73 1116.14Z" fill="black"/>
<path d="M1895.07 1993.39L1934.98 2004.69L1944.48 1942.57L1949.6 1909.35L1909.69 1898.05L1902.89 1942.57L1895.07 1993.39Z" fill="#E4897B"/>
<path d="M2124.53 1996.65L2165.68 2002.1L2166.07 1942.57L2166.35 1905.59L2125.15 1900.19L2124.87 1942.57L2124.53 1996.65Z" fill="#E4897B"/>
<path opacity="0.2" d="M2125.15 1900.19L2124.87 1942.57H2166.07L2166.35 1905.59L2125.15 1900.19Z" fill="black"/>
<path opacity="0.2" d="M1902.89 1942.57H1944.48L1949.6 1909.35L1909.69 1898.05L1902.89 1942.57Z" fill="black"/>
<path d="M1717.89 864.596L1678.26 852.904L1685.52 898.155C1685.52 898.155 1721.49 906.418 1724.86 887.699L1717.89 864.596Z" fill="#E4897B"/>
<path d="M1638.69 863.416L1658.14 900.178L1685.52 898.155L1678.26 852.904L1638.69 863.416Z" fill="#E4897B"/>
<path d="M1772.59 876.176L1707.49 861.617L1701.59 893.208L1760.67 907.598L1772.59 876.176Z" fill="#E4897B"/>
<path d="M1969.5 847.62L1965.68 852.173C1957.47 861.786 1937.57 885.001 1916.83 905.013C1899.96 921.314 1883.1 935.536 1871.86 938.402C1839.99 946.609 1724.13 912.489 1724.13 912.489L1736.11 865.496C1736.11 865.496 1844.03 879.83 1852.41 879.83C1858.76 879.83 1924.42 784.719 1940.32 776.906L1969.5 847.62Z" fill="#305D87"/>
<path opacity="0.2" d="M1965.68 852.173C1957.47 861.786 1937.57 885.001 1916.83 905.013C1920.99 872.072 1933.07 841.83 1948.98 822.718C1950.46 820.874 1952.16 819.213 1954.04 817.772L1965.68 852.173Z" fill="black"/>
<path d="M1895.58 1987.15L1940.89 1985.97C1941.7 1985.94 1942.5 1986.2 1943.16 1986.69C1943.81 1987.18 1944.28 1987.88 1944.48 1988.67L1954.04 2025.15C1954.27 2026.02 1954.3 2026.94 1954.12 2027.82C1953.95 2028.71 1953.58 2029.54 1953.04 2030.27C1952.5 2030.99 1951.81 2031.58 1951.01 2032C1950.21 2032.42 1949.32 2032.65 1948.42 2032.68C1932.06 2032.68 1908.4 2032.68 1887.88 2033.07C1863.82 2033.75 1848.53 2032.57 1820.42 2033.07C1803.56 2033.52 1797.94 2016.55 1805.13 2014.81C1837.34 2006.82 1858.42 2008.4 1885.86 1990.41C1888.75 1988.48 1892.11 1987.35 1895.58 1987.15Z" fill="#263238"/>
<path d="M1891.64 1993C1885.01 1994.46 1873.21 1996.42 1868.49 1992.55C1867.8 1991.98 1867.25 1991.25 1866.9 1990.43C1866.55 1989.61 1866.4 1988.72 1866.46 1987.82C1866.46 1987.29 1866.6 1986.76 1866.87 1986.3C1867.13 1985.83 1867.52 1985.45 1867.98 1985.18C1872.98 1982.2 1889.9 1990.24 1891.87 1991.14C1892.04 1991.23 1892.19 1991.37 1892.28 1991.54C1892.38 1991.71 1892.43 1991.9 1892.43 1992.1C1892.42 1992.31 1892.34 1992.52 1892.2 1992.68C1892.05 1992.85 1891.86 1992.96 1891.64 1993ZM1869.16 1986.76H1868.82C1868.64 1986.86 1868.48 1987.02 1868.37 1987.21C1868.26 1987.39 1868.21 1987.61 1868.2 1987.82C1868.16 1988.4 1868.25 1988.99 1868.48 1989.53C1868.7 1990.06 1869.05 1990.54 1869.5 1990.92C1872.14 1993.11 1879 1993.33 1888.1 1991.53C1881.53 1988.78 1872.36 1985.58 1869.27 1986.76H1869.16Z" fill="#305D87"/>
<path d="M1891.64 1992.99H1890.97C1885.86 1990.86 1875.62 1982.2 1876.19 1977.54C1876.19 1976.41 1877.09 1975.01 1879.78 1974.67C1880.77 1974.54 1881.78 1974.61 1882.75 1974.87C1883.71 1975.13 1884.61 1975.58 1885.41 1976.19C1891.03 1980.4 1892.32 1991.48 1892.43 1991.93C1892.45 1992.1 1892.42 1992.27 1892.35 1992.43C1892.28 1992.59 1892.17 1992.72 1892.04 1992.83L1891.64 1992.99ZM1879.05 1976.86C1878.21 1977.14 1878.15 1977.59 1878.15 1977.76C1877.82 1980.57 1884.79 1987.43 1890.01 1990.35C1889.41 1985.63 1887.33 1981.22 1884.06 1977.76C1883.5 1977.3 1882.85 1976.95 1882.15 1976.76C1881.46 1976.57 1880.72 1976.52 1880.01 1976.64C1879.68 1976.67 1879.36 1976.74 1879.05 1976.86Z" fill="#305D87"/>
<path d="M2126.16 1987.15L2171.47 1985.97C2172.29 1985.94 2173.1 1986.19 2173.77 1986.68C2174.43 1987.17 2174.91 1987.87 2175.12 1988.67L2184.62 2025.15C2184.86 2026.02 2184.9 2026.94 2184.73 2027.83C2184.56 2028.72 2184.19 2029.56 2183.65 2030.29C2183.11 2031.01 2182.41 2031.61 2181.6 2032.02C2180.8 2032.44 2179.91 2032.66 2179 2032.68C2162.64 2032.68 2138.98 2032.68 2118.4 2033.07C2094.4 2033.75 2079.06 2032.57 2050.95 2033.07C2034.09 2033.52 2028.46 2016.55 2035.66 2014.81C2067.87 2006.82 2088.89 2008.4 2116.32 1990.41C2119.25 1988.46 2122.65 1987.33 2126.16 1987.15Z" fill="#263238"/>
<path d="M2122.28 1993C2115.65 1994.46 2103.79 1996.42 2099.12 1992.55C2098.44 1991.98 2097.89 1991.25 2097.54 1990.43C2097.19 1989.61 2097.04 1988.72 2097.1 1987.82C2097.1 1987.29 2097.24 1986.76 2097.5 1986.3C2097.77 1985.83 2098.15 1985.45 2098.62 1985.18C2103.56 1982.2 2120.54 1990.24 2122.45 1991.14C2122.64 1991.21 2122.8 1991.35 2122.9 1991.52C2123 1991.69 2123.04 1991.9 2123.01 1992.1C2123 1992.3 2122.92 1992.5 2122.79 1992.66C2122.66 1992.82 2122.48 1992.94 2122.28 1993ZM2099.8 1986.76H2099.46C2099.28 1986.86 2099.12 1987.02 2099.02 1987.21C2098.92 1987.4 2098.88 1987.61 2098.9 1987.82C2098.84 1988.41 2098.93 1988.99 2099.16 1989.53C2099.38 1990.07 2099.74 1990.55 2100.19 1990.92C2102.83 1993.11 2109.64 1993.33 2118.8 1991.53C2112.11 1988.78 2102.95 1985.58 2099.85 1986.76H2099.8Z" fill="#305D87"/>
<path d="M2122.28 1993H2121.55C2116.49 1990.86 2106.21 1982.2 2106.82 1977.54C2106.82 1976.41 2107.67 1975.01 2110.37 1974.67C2111.36 1974.53 2112.36 1974.6 2113.33 1974.86C2114.3 1975.12 2115.2 1975.57 2115.99 1976.19C2119.92 1980.57 2122.38 1986.07 2123.01 1991.93C2123.04 1992.1 2123.02 1992.28 2122.95 1992.44C2122.88 1992.59 2122.77 1992.73 2122.62 1992.83L2122.28 1993ZM2109.64 1976.86C2108.85 1977.14 2108.79 1977.59 2108.79 1977.76C2108.4 1980.57 2115.42 1987.43 2120.65 1990.35C2120.01 1985.64 2117.93 1981.25 2114.69 1977.76C2114.14 1977.3 2113.49 1976.96 2112.79 1976.77C2112.09 1976.57 2111.36 1976.53 2110.65 1976.64L2109.64 1976.86Z" fill="#305D87"/>
<path d="M2209.41 1091.97C2231.22 1186.47 2193.78 1929.87 2193.78 1929.87H2121.5L2090.58 1310.36L1976.75 1929.87L1899.46 1924.25C1950.05 1444.31 1994.63 1157.8 1994.63 1157.8V1121.6L2209.41 1091.97Z" fill="#263238"/>
<path opacity="0.4" d="M1899.46 1924.25L1976.75 1929.87L2066.35 1442.17L2090.58 1310.36L2121.5 1929.87H2193.78C2193.78 1929.87 2231.22 1186.47 2209.41 1091.97L1994.51 1121.6V1157.8C1994.51 1157.8 1949.99 1444.31 1899.46 1924.25Z" fill="white"/>
<path d="M2170.46 741.998C2168.24 787.177 2169.39 832.459 2173.89 877.469C2176.92 908.947 2181.08 938.684 2185.52 965.497C2195.92 1028.4 2207.72 1075.56 2209.41 1092.03L1994.51 1121.65C1916.15 902.427 1945.66 775.051 1945.66 775.051C1961.73 768.416 1978.2 762.784 1994.96 758.187C1998.5 757.231 2002.1 756.332 2005.81 755.489C2035.99 749.55 2066.49 745.346 2097.16 742.897C2102.78 742.391 2108.9 741.998 2114.64 741.717C2143.98 740.255 2170.46 741.998 2170.46 741.998Z" fill="#263238"/>
<path d="M2055.45 643.346C2057.02 673.419 2060.22 729.856 2085.24 744.19C2085.24 744.19 2069.67 773.814 2036 776.849C2010.53 779.098 2012.22 753.971 2012.22 753.971C2026.95 743.01 2023.46 724.404 2012.22 703.38L2055.45 643.346Z" fill="#E4897B"/>
<path opacity="0.2" d="M2037.8 667.854L2012.39 703.38C2015.06 708.239 2017.32 713.316 2019.13 718.558C2030.94 713.836 2044.49 696.073 2042.52 683.2C2041.9 677.838 2040.3 672.635 2037.8 667.854Z" fill="black"/>
<path d="M1945.83 582.806C1940.94 598.433 1943.64 630.473 1965.4 620.074C1987.15 609.675 1954.27 555.993 1945.83 582.806Z" fill="#263238"/>
<path d="M2058.26 603.941C2060.67 644.02 2063.88 667.348 2046.4 690.058C2019.81 724.179 1968.32 711.475 1953.93 672.801C1941 637.95 1939.26 578.252 1976.41 558.016C1984.65 553.535 1993.89 551.217 2003.26 551.278C2012.64 551.339 2021.85 553.778 2030.02 558.366C2038.2 562.955 2045.08 569.542 2050.02 577.513C2054.96 585.484 2057.79 594.577 2058.26 603.941Z" fill="#E4897B"/>
<path d="M2030.15 582.131V537.162C2030.15 537.162 2077.82 533.62 2075.68 558.016C2102.1 571.114 2089.62 612.205 2054.15 632.328C2034.7 616.758 2036.95 579.321 2036.95 579.321C2034.87 580.389 2032.51 581.288 2030.15 582.131Z" fill="#263238"/>
<path d="M2077.65 635.195C2076.73 640.098 2074.84 644.768 2072.09 648.929C2069.34 653.089 2065.78 656.657 2061.63 659.423C2050.39 666.786 2040.66 657.736 2040.27 645.089C2039.93 633.846 2045.27 616.083 2058.2 613.835C2061.03 613.394 2063.92 613.661 2066.62 614.612C2069.32 615.563 2071.74 617.169 2073.67 619.285C2075.6 621.401 2076.97 623.962 2077.66 626.739C2078.36 629.515 2078.35 632.421 2077.65 635.195Z" fill="#E4897B"/>
<path d="M1999.07 621.817C1999.46 625.077 1998.05 627.888 1995.92 628.113C1993.78 628.337 1991.76 625.92 1991.37 622.491C1990.97 619.062 1992.38 616.42 1994.46 616.196C1996.54 615.971 1998.67 618.332 1999.07 621.817Z" fill="#263238"/>
<path d="M1962.3 625.92C1962.7 629.181 1961.29 631.991 1959.16 632.216C1957.02 632.441 1955 630.024 1954.6 626.595C1954.21 623.166 1955.61 620.524 1957.75 620.299C1959.89 620.074 1961.8 622.66 1962.3 625.92Z" fill="#263238"/>
<path d="M1974.16 626.201C1971.32 636.253 1967.11 645.863 1961.63 654.757C1964.05 656.003 1966.71 656.722 1969.44 656.868C1972.16 657.013 1974.88 656.581 1977.42 655.6L1974.16 626.201Z" fill="#DE5753"/>
<path d="M1996.37 666.056C1994.98 666.409 1993.57 666.672 1992.15 666.843C1991.9 666.843 1991.66 666.742 1991.48 666.563C1991.3 666.383 1991.2 666.14 1991.2 665.887C1991.2 665.633 1991.3 665.39 1991.48 665.211C1991.66 665.032 1991.9 664.931 1992.15 664.931C1996.19 664.565 2000.08 663.255 2003.52 661.107C2006.96 658.959 2009.84 656.032 2011.94 652.565C2011.99 652.451 2012.06 652.349 2012.15 652.264C2012.24 652.179 2012.34 652.113 2012.46 652.071C2012.58 652.029 2012.7 652.011 2012.82 652.018C2012.94 652.026 2013.07 652.059 2013.18 652.115C2013.29 652.169 2013.39 652.246 2013.48 652.34C2013.57 652.435 2013.63 652.546 2013.67 652.667C2013.71 652.787 2013.73 652.915 2013.72 653.042C2013.72 653.169 2013.68 653.294 2013.62 653.408C2011.79 656.601 2009.3 659.375 2006.33 661.552C2003.36 663.73 1999.97 665.264 1996.37 666.056Z" fill="#263238"/>
<path d="M2008.96 608.719C2008.62 608.799 2008.26 608.788 2007.93 608.69C2007.59 608.591 2007.29 608.408 2007.05 608.157C2005.42 606.374 2003.4 604.993 2001.15 604.125C1998.89 603.256 1996.47 602.924 1994.06 603.154C1993.82 603.212 1993.56 603.217 1993.31 603.171C1993.06 603.124 1992.82 603.027 1992.61 602.884C1992.4 602.742 1992.22 602.558 1992.08 602.343C1991.95 602.128 1991.85 601.888 1991.81 601.637C1991.77 601.389 1991.77 601.135 1991.82 600.888C1991.87 600.64 1991.96 600.406 1992.11 600.197C1992.25 599.988 1992.43 599.809 1992.64 599.67C1992.85 599.531 1993.08 599.435 1993.33 599.388C1996.37 599.027 1999.44 599.394 2002.31 600.46C2005.17 601.525 2007.74 603.258 2009.8 605.515C2009.99 605.689 2010.13 605.898 2010.23 606.13C2010.33 606.362 2010.38 606.612 2010.38 606.864C2010.38 607.117 2010.33 607.367 2010.23 607.599C2010.13 607.831 2009.99 608.04 2009.8 608.214C2009.56 608.442 2009.27 608.615 2008.96 608.719Z" fill="#263238"/>
<path d="M1944.93 615.071C1944.57 615.21 1944.17 615.21 1943.81 615.071C1943.33 614.905 1942.94 614.558 1942.72 614.106C1942.5 613.653 1942.47 613.131 1942.63 612.654C1943.56 609.761 1945.17 607.135 1947.34 605.001C1949.5 602.867 1952.15 601.289 1955.05 600.4C1955.54 600.273 1956.07 600.347 1956.5 600.605C1956.94 600.864 1957.26 601.285 1957.38 601.777C1957.51 602.269 1957.44 602.791 1957.18 603.229C1956.92 603.666 1956.5 603.983 1956.01 604.11C1953.71 604.818 1951.62 606.081 1949.92 607.786C1948.23 609.492 1946.98 611.588 1946.28 613.891C1946.18 614.186 1946 614.448 1945.76 614.655C1945.52 614.861 1945.24 615.004 1944.93 615.071Z" fill="#263238"/>
<path d="M2051.29 598.77C2051.29 598.77 2023.18 588.483 2010.36 572.182C2010.36 572.182 1984.84 578.871 1979.62 589.045C1977.23 587.002 1975.69 584.148 1975.28 581.034C1974.88 577.92 1975.64 574.766 1977.42 572.182C1977.42 572.182 1958.31 576.229 1954.55 589.045C1951.44 587.566 1948.89 585.13 1947.27 582.095C1945.65 579.06 1945.05 575.585 1945.55 572.182C1945.55 572.182 1937.06 575.386 1934.31 589.045C1934.31 589.045 1913.23 545.087 1982.88 532.496C1977.61 530.707 1972.08 529.777 1966.52 529.742C1966.52 529.742 2015.14 510.124 2053.65 528.055C2092.15 545.987 2085.46 580.726 2051.29 598.77Z" fill="#263238"/>
<path d="M2225.99 1129.86L2158.54 1138.85C2158.54 1138.85 2130.71 944.417 2118.46 881.628V747.619L2153.71 738.344L2181.02 747.619C2188.52 774.581 2194.28 801.993 2198.28 829.689C2201.6 850.712 2204.58 873.197 2207.22 895.963C2210.87 926.992 2213.91 958.583 2216.49 988.15C2220.54 1035.87 2223.24 1078.09 2224.7 1103.89C2225.54 1120.08 2225.99 1129.86 2225.99 1129.86Z" fill="#305D87"/>
<path d="M2118.52 881.516C2118.52 881.516 2124.14 786.911 2153.76 738.119C2153.76 738.119 2153.03 724.179 2147.13 721.93C2141.23 719.682 2118.52 733.173 2118.52 733.173C2118.52 733.173 2104.41 723.504 2101.32 728.001C2098.22 732.498 2090.69 762.403 2118.52 881.516Z" fill="#305D87"/>
<path opacity="0.7" d="M2118.52 881.516C2118.52 881.516 2124.14 786.911 2153.76 738.119C2153.76 738.119 2153.03 724.179 2147.13 721.93C2141.23 719.682 2118.52 733.173 2118.52 733.173C2118.52 733.173 2104.41 723.504 2101.32 728.001C2098.22 732.498 2090.69 762.403 2118.52 881.516Z" fill="white"/>
<path d="M1965.17 1155.77L1972.87 1161.4C1972.87 1161.4 1961.63 1098.72 1966.24 940.201C1966.24 932.556 1966.74 925.193 1967.03 918.166C1972.65 784.044 1993.56 759.649 1995.13 758.187L1975.68 764.82L1940.44 776.962C1929.81 891.353 1965.17 1155.77 1965.17 1155.77Z" fill="#305D87"/>
<path d="M1968.21 895.063C1968.21 895.063 1948.76 803.1 1954.55 771.397C1960.34 739.693 1981.08 753.802 1981.08 753.802C1981.08 753.802 2000.13 738.4 2005.81 755.376C2005.81 755.376 1979.62 773.814 1968.21 895.063Z" fill="#305D87"/>
<path opacity="0.7" d="M1968.21 895.063C1968.21 895.063 1948.76 803.1 1954.55 771.397C1960.34 739.693 1981.08 753.802 1981.08 753.802C1981.08 753.802 2000.13 738.4 2005.81 755.376C2005.81 755.376 1979.62 773.814 1968.21 895.063Z" fill="white"/>
<path opacity="0.2" d="M2207.11 895.738C2178.33 879.605 2174.5 837.502 2174.5 837.502C2176.25 836.828 2186.93 833.174 2198.17 829.464C2201.49 850.487 2204.46 872.972 2207.11 895.738Z" fill="black"/>
<path opacity="0.2" d="M2066.35 1442.17L2090.58 1310.36L2085.91 1240.6C2085.91 1240.6 2052.69 1361.57 2066.35 1442.17Z" fill="black"/>
<path opacity="0.2" d="M2224.59 1103.67C2206.49 1102.43 2190.86 1101.25 2190.86 1101.25L2187.43 1027.67C2193.07 1024.14 2199.85 1022.89 2206.38 1024.18C2210.82 1012.43 2214.19 1000.29 2216.44 987.925C2220.37 1035.65 2223.13 1077.92 2224.59 1103.67Z" fill="black"/>
<path d="M2230.77 987.869L2195.53 1044.47L2223.41 1060.49L2256.52 1009.51L2230.77 987.869Z" fill="#E4897B"/>
<path d="M2179.51 746.72C2203.23 749.305 2304.07 887.699 2308.51 929.409C2312.95 971.118 2249.27 1043.13 2249.27 1043.13L2206.77 1018.11C2206.77 1018.11 2249.94 951.725 2252.19 933.793C2254.44 915.862 2173.21 843.404 2173.21 843.404C2167.07 826.713 2163.69 809.131 2163.2 791.352C2162.08 760.885 2179.51 746.72 2179.51 746.72Z" fill="#305D87"/>
<path d="M2187.38 1027.72C2187.38 1027.72 2223.63 1035.48 2238.25 1058.3C2238.25 1058.3 2223.07 1105.8 2212.22 1110.97C2201.37 1116.14 2174.5 1116.14 2174.5 1116.14C2174.5 1116.14 2172.76 1063.31 2187.38 1027.72Z" fill="#305D87"/>
</svg>
