<svg width="455" height="443" viewBox="0 0 455 443" fill="none" xmlns="http://www.w3.org/2000/svg">
<path d="M453.86 408.234H1" stroke="#263238" stroke-width="1.10975" stroke-linecap="round" stroke-linejoin="round"/>
<path d="M407.48 359.044C407.48 359.044 410.72 330.854 421.48 306.414C432.24 281.974 422.55 276.754 416.79 282.864C411.03 288.974 404.7 311.864 404.7 311.864C404.7 311.864 407.55 287.864 406.4 275.074C404.7 256.344 401.78 241.704 393.15 244.024C383.15 246.694 397.34 282.834 393.6 320.754C393.6 320.754 380.44 299.854 375.8 281.994C371.16 264.134 359.31 271.884 363.43 287.884C367.55 303.884 383.54 312.794 389.73 330.134C389.73 330.134 369.14 311.084 362.57 318.584C358.86 322.814 368.24 325.864 372.3 327.804C392.01 337.244 397.06 360.854 397.06 360.854L407.48 359.044Z" fill="#99A89D" stroke="#263238" stroke-width="1.10975" stroke-linecap="round" stroke-linejoin="round"/>
<path opacity="0.2" d="M407.48 359.044C407.48 359.044 410.72 330.854 421.48 306.414C432.24 281.974 422.55 276.754 416.79 282.864C411.03 288.974 404.7 311.864 404.7 311.864C404.7 311.864 407.55 287.864 406.4 275.074C404.7 256.344 401.78 241.704 393.15 244.024C383.15 246.694 397.34 282.834 393.6 320.754C393.6 320.754 380.44 299.854 375.8 281.994C371.16 264.134 359.31 271.884 363.43 287.884C367.55 303.884 383.54 312.794 389.73 330.134C389.73 330.134 369.14 311.084 362.57 318.584C358.86 322.814 368.24 325.864 372.3 327.804C392.01 337.244 397.06 360.854 397.06 360.854L407.48 359.044Z" fill="black" fill-opacity="0.7" stroke="#263238" stroke-width="1.10975" stroke-miterlimit="10"/>
<path d="M395.51 352.964C395.51 352.964 397.14 323.464 386.37 299.024C375.6 274.584 385.22 272.684 390.98 278.784C396.74 284.884 401.13 316.544 401.13 316.544C401.13 316.544 406.2 288.204 403.9 268.604C401.6 249.004 401.75 237.974 409.83 237.964C420.14 237.964 417.72 285.964 409.38 314.704C409.38 314.704 422.53 293.804 427.18 275.944C431.83 258.084 443.68 265.814 439.55 281.804C435.42 297.794 419.44 306.714 413.25 324.054C413.25 324.054 433.84 305.004 440.41 312.504C444.11 316.734 434.74 319.774 430.68 321.724C410.97 331.164 405.92 354.774 405.92 354.774L395.51 352.964Z" fill="#99A89D" stroke="#263238" stroke-width="1.10975" stroke-linecap="round" stroke-linejoin="round"/>
<path d="M391.82 297.794C400.96 318.424 401.48 348.504 401.48 348.504C401.48 348.504 413.48 288.734 410.48 263.554" stroke="#263238" stroke-width="1.10975" stroke-linecap="round" stroke-linejoin="round"/>
<path d="M431.33 285.944C431.33 285.944 417.91 314.264 405.64 325.134" stroke="#263238" stroke-width="1.10975" stroke-linecap="round" stroke-linejoin="round"/>
<path d="M431.33 316.454C431.33 316.454 408.65 331.054 403.09 339.994" stroke="#263238" stroke-width="1.10975" stroke-linecap="round" stroke-linejoin="round"/>
<path d="M432.81 341.394H369.65L374.54 408.234H427.92L432.81 341.394Z" fill="#757575" stroke="#263238" stroke-width="1.10975" stroke-linecap="round" stroke-linejoin="round"/>
<path d="M144.48 142.644C144.48 142.644 127.8 136.874 118.48 124.994C118.48 124.994 114.83 125.284 113.04 125.294" stroke="#263238" stroke-width="1.10975" stroke-linecap="round" stroke-linejoin="round"/>
<path d="M151.64 81.3342C153.612 84.3167 154.852 87.7223 155.26 91.2742C156.69 104.184 146.58 116.394 131.26 122.034C131.26 122.034 132.16 133.824 144.45 142.644" stroke="#263238" stroke-width="1.10975" stroke-linecap="round" stroke-linejoin="round"/>
<path d="M145.77 74.8843C146.753 75.6774 147.685 76.5325 148.56 77.4443" stroke="#263238" stroke-width="1.10975" stroke-linecap="round" stroke-linejoin="round"/>
<path d="M89.12 74.8843C96.2454 70.0719 104.462 67.1198 113.021 66.2971C121.58 65.4744 130.208 66.8073 138.12 70.1743" stroke="#263238" stroke-width="1.10975" stroke-linecap="round" stroke-linejoin="round"/>
<path d="M102.53 124.264C88.06 121.264 77.17 112.074 75.85 100.094C74.92 91.7344 78.85 83.6544 85.85 77.4744" stroke="#263238" stroke-width="1.10975" stroke-linecap="round" stroke-linejoin="round"/>
<path d="M103.87 85.6944C104.97 81.8544 110.57 81.2144 113.04 77.4744V104.244C113.04 109.244 122.53 110.614 125.82 106.884C129.11 103.154 122.97 96.7844 114.82 101.614" stroke="#263238" stroke-width="1.10975" stroke-linecap="round" stroke-linejoin="round"/>
<path d="M287.9 292.174H170.09C163.257 292.174 156.704 294.888 151.871 299.719C147.039 304.549 144.323 311.101 144.32 317.934C144.32 324.353 146.716 330.54 151.038 335.285C155.361 340.029 161.299 342.989 167.69 343.584V408.234H287.43V343.704H287.93C291.314 343.704 294.664 343.038 297.79 341.743C300.916 340.447 303.756 338.549 306.149 336.156C308.541 333.763 310.438 330.922 311.732 327.795C313.026 324.669 313.691 321.318 313.69 317.934C313.69 314.549 313.023 311.197 311.726 308.069C310.43 304.942 308.53 302.101 306.134 299.709C303.739 297.316 300.896 295.419 297.767 294.127C294.638 292.834 291.285 292.17 287.9 292.174Z" fill="#99A89D"/>
<mask id="mask0_5_189" style="mask-type:luminance" maskUnits="userSpaceOnUse" x="144" y="292" width="170" height="117">
<path d="M287.9 292.174H170.09C163.257 292.174 156.704 294.888 151.871 299.719C147.039 304.549 144.323 311.101 144.32 317.934C144.32 324.353 146.716 330.54 151.038 335.285C155.361 340.029 161.299 342.989 167.69 343.584V408.234H287.43V343.704H287.93C291.314 343.704 294.664 343.038 297.79 341.743C300.916 340.447 303.756 338.549 306.149 336.156C308.541 333.763 310.438 330.922 311.732 327.795C313.026 324.669 313.691 321.318 313.69 317.934C313.69 314.549 313.023 311.197 311.726 308.069C310.43 304.942 308.53 302.101 306.134 299.709C303.739 297.316 300.896 295.419 297.767 294.127C294.638 292.834 291.285 292.17 287.9 292.174Z" fill="white"/>
</mask>
<g mask="url(#mask0_5_189)">
<path opacity="0.3" d="M287.9 292.174H170.09C163.257 292.174 156.704 294.888 151.871 299.719C147.039 304.549 144.323 311.101 144.32 317.934C144.32 324.353 146.716 330.54 151.038 335.285C155.361 340.029 161.299 342.989 167.69 343.584V408.234H287.43V343.704H287.93C291.314 343.704 294.664 343.038 297.79 341.743C300.916 340.447 303.756 338.549 306.149 336.156C308.541 333.763 310.438 330.922 311.732 327.795C313.026 324.669 313.691 321.318 313.69 317.934C313.69 314.549 313.023 311.197 311.726 308.069C310.43 304.942 308.53 302.101 306.134 299.709C303.739 297.316 300.896 295.419 297.767 294.127C294.638 292.834 291.285 292.17 287.9 292.174Z" fill="black" fill-opacity="0.7"/>
<path opacity="0.3" d="M313.66 317.934C313.66 324.766 310.946 331.319 306.115 336.149C301.284 340.98 294.732 343.694 287.9 343.694H287.43V378.364C262.43 366.734 235.13 343.554 235.13 343.554L221.91 338.964C179.37 342.334 165.69 311.794 152.6 299.064C157.358 294.635 163.619 292.176 170.12 292.184H287.9C294.73 292.184 301.281 294.897 306.112 299.726C310.942 304.555 313.657 311.104 313.66 317.934Z" fill="black" fill-opacity="0.7"/>
<path d="M270.56 343.584H277.7Z" fill="white"/>
<path d="M270.56 343.584H277.7" stroke="#263238" stroke-width="1.10975" stroke-linecap="round" stroke-linejoin="round"/>
<path d="M214.84 343.544H261.16C245.62 343.544 230.18 343.544 214.84 343.544Z" fill="white" stroke="#263238" stroke-width="1.10975" stroke-linecap="round" stroke-linejoin="round"/>
<path d="M203.43 343.544H167.69" stroke="#263238" stroke-width="1.10975" stroke-linecap="round" stroke-linejoin="round"/>
</g>
<path d="M287.9 292.174H170.09C163.257 292.174 156.704 294.888 151.871 299.719C147.039 304.549 144.323 311.101 144.32 317.934C144.32 324.353 146.716 330.54 151.038 335.285C155.361 340.029 161.299 342.989 167.69 343.584V408.234H287.43V343.704H287.93C291.314 343.704 294.664 343.038 297.79 341.743C300.916 340.447 303.756 338.549 306.149 336.156C308.541 333.763 310.438 330.922 311.732 327.795C313.026 324.669 313.691 321.318 313.69 317.934C313.69 314.549 313.023 311.197 311.726 308.069C310.43 304.942 308.53 302.101 306.134 299.709C303.739 297.316 300.896 295.419 297.767 294.127C294.638 292.834 291.285 292.17 287.9 292.174Z" stroke="#263238" stroke-width="1.10975" stroke-linecap="round" stroke-linejoin="round"/>
<path d="M239.33 156.554C268.4 165.094 285.01 167.764 285.01 167.764C286.01 147.084 288.68 135.684 288.07 111.114C288.07 111.114 282.48 105.644 283.32 102.454C283.66 101.124 286.51 93.9144 286.51 93.9144L298.2 83.2944C298.2 83.2944 304.81 88.6744 304.48 94.8644C304.48 94.8644 305.65 101.434 304.48 104.744C303.31 108.054 300.82 114.744 300.82 114.744C300.82 114.744 301.53 139.444 304.92 153.454C308.31 167.464 305.8 190.314 300.16 190.824C294.52 191.334 235.74 186.104 235.74 186.104C235.74 186.104 232.85 154.644 239.33 156.554Z" fill="white"/>
<mask id="mask1_5_189" style="mask-type:luminance" maskUnits="userSpaceOnUse" x="235" y="83" width="72" height="108">
<path d="M239.33 156.554C268.4 165.094 285.01 167.764 285.01 167.764C286.01 147.084 288.68 135.684 288.07 111.114C288.07 111.114 282.48 105.644 283.32 102.454C283.66 101.124 286.51 93.9144 286.51 93.9144L298.2 83.2944C298.2 83.2944 304.81 88.6744 304.48 94.8644C304.48 94.8644 305.65 101.434 304.48 104.744C303.31 108.054 300.82 114.744 300.82 114.744C300.82 114.744 301.53 139.444 304.92 153.454C308.31 167.464 305.8 190.314 300.16 190.824C294.52 191.334 235.74 186.104 235.74 186.104C235.74 186.104 232.85 154.644 239.33 156.554Z" fill="white"/>
</mask>
<g mask="url(#mask1_5_189)">
<g opacity="0.5">
<path d="M301.79 156.554C302.216 157.296 302.351 158.169 302.17 159.004C301.928 159.852 301.42 160.599 300.72 161.134C300.001 161.719 299.096 162.027 298.17 162.004C297.678 161.995 297.193 161.882 296.747 161.673C296.301 161.465 295.903 161.166 295.58 160.794L295.32 160.534L295.14 160.244L294.76 159.634C294.564 159.217 294.391 158.79 294.24 158.354C293.99 157.477 293.839 156.575 293.79 155.664C293.807 154.724 293.959 153.792 294.24 152.894C294.526 152.031 294.895 151.197 295.34 150.404C297.132 147.424 299.407 144.761 302.07 142.524C302.34 142.284 302.62 142.044 302.89 141.824C303.1 143.424 303.33 144.994 303.58 146.524C301.348 148.002 299.355 149.813 297.67 151.894C296.759 153.019 296.141 154.352 295.87 155.774C295.676 157.201 295.946 158.653 296.64 159.914C297.05 160.482 297.665 160.866 298.355 160.986C299.044 161.106 299.753 160.951 300.33 160.554C300.998 160.177 301.528 159.595 301.84 158.894C302.114 158.135 302.096 157.301 301.79 156.554Z" fill="#99A89D"/>
<path d="M306.43 167.804C305.96 168.787 305.289 169.659 304.461 170.366C303.632 171.072 302.664 171.596 301.62 171.904C296.24 173.214 289.46 170.404 285.05 166.524C285.22 163.374 285.42 160.434 285.65 157.624C288.52 162.164 292.65 166.924 297.07 166.924C305.41 166.924 305.34 156.144 303.17 153.854C302.925 153.546 302.613 153.297 302.258 153.126C301.903 152.955 301.514 152.866 301.12 152.866C300.726 152.866 300.337 152.955 299.982 153.126C299.627 153.297 299.315 153.546 299.07 153.854C299.07 153.854 300.32 148.634 304.34 150.854C304.52 151.744 304.7 152.584 304.9 153.404C305.958 158.13 306.471 162.962 306.43 167.804Z" fill="#99A89D"/>
<path d="M290.8 146.584C290.8 146.584 294.23 144.384 292.51 139.484C291.68 137.104 289.51 137.024 287.41 137.594C287.56 135.594 287.69 133.594 287.8 131.544C289.022 131.549 290.229 131.809 291.345 132.307C292.46 132.804 293.46 133.529 294.28 134.434C297.72 138.484 294.85 147.624 290.8 146.584Z" fill="#99A89D"/>
<path d="M302.43 137.394C301.277 138.331 300.178 139.332 299.14 140.394C299.293 138.759 299.078 137.109 298.511 135.567C297.943 134.026 297.037 132.63 295.86 131.484C293.654 129.568 290.922 128.359 288.02 128.014C288.08 126.364 288.13 124.684 288.16 122.914C289.431 122.682 290.73 122.651 292.01 122.824C290.11 118.004 293.48 114.924 295.86 115.224C298.24 115.524 298.04 118.584 298.04 118.584C297.18 116.104 293.33 116.834 294.87 120.934C295.87 123.604 299.15 123.724 301.29 123.484C301.48 127.494 301.85 132.414 302.43 137.394Z" fill="#99A89D"/>
<path d="M292.19 149.564C292.06 149.994 289.29 158.104 285.96 154.144C286.06 152.934 286.17 151.754 286.27 150.574C287.216 151.135 288.331 151.341 289.415 151.156C290.5 150.971 291.483 150.407 292.19 149.564Z" fill="#99A89D"/>
<path d="M286.73 145.604C286.88 143.984 287.02 142.364 287.16 140.724C288.27 140.294 289.33 140.294 289.68 141.604C290.22 143.604 288.53 145.884 286.73 145.604Z" fill="#99A89D"/>
</g>
</g>
<path d="M239.33 156.554C268.4 165.094 285.01 167.764 285.01 167.764C286.01 147.084 288.68 135.684 288.07 111.114C288.07 111.114 282.48 105.644 283.32 102.454C283.66 101.124 286.51 93.9144 286.51 93.9144L298.2 83.2944C298.2 83.2944 304.81 88.6744 304.48 94.8644C304.48 94.8644 305.65 101.434 304.48 104.744C303.31 108.054 300.82 114.744 300.82 114.744C300.82 114.744 301.53 139.444 304.92 153.454C308.31 167.464 305.8 190.314 300.16 190.824C294.52 191.334 235.74 186.104 235.74 186.104C235.74 186.104 232.85 154.644 239.33 156.554Z" stroke="#263238" stroke-width="1.10975" stroke-linecap="round" stroke-linejoin="round"/>
<path d="M210.37 149.754C210.37 149.754 227.57 148.454 237.88 152.614C248.19 156.774 265.39 160.614 265.39 160.614C265.39 160.614 263.96 180.694 258.32 187.964L229.63 194.204C229.63 194.204 221.72 155.114 210.37 149.754Z" fill="#757575"/>
<mask id="mask2_5_189" style="mask-type:luminance" maskUnits="userSpaceOnUse" x="210" y="149" width="56" height="46">
<path d="M210.37 149.754C210.37 149.754 227.57 148.454 237.88 152.614C248.19 156.774 265.39 160.614 265.39 160.614C265.39 160.614 263.96 180.694 258.32 187.964L229.63 194.204C229.63 194.204 221.72 155.114 210.37 149.754Z" fill="white"/>
</mask>
<g mask="url(#mask2_5_189)">
<path opacity="0.2" d="M256.97 188.294L229.63 194.294C229.63 194.294 235.73 190.934 235.48 189.824L237.66 178.164C237.66 178.164 249.3 178.994 252.6 185.084V181.624C252.6 181.624 256.93 182.074 256.97 188.294Z" fill="black" fill-opacity="0.7"/>
</g>
<path d="M210.37 149.754C210.37 149.754 227.57 148.454 237.88 152.614C248.19 156.774 265.39 160.614 265.39 160.614C265.39 160.614 263.96 180.694 258.32 187.964L229.63 194.204C229.63 194.204 221.72 155.114 210.37 149.754Z" stroke="#263238" stroke-width="1.10975" stroke-linecap="round" stroke-linejoin="round"/>
<path d="M249.84 185.794C251.78 170.594 264.18 165.724 282.49 168.974C282.49 168.974 285.74 186.974 294.93 185.584C304.12 184.194 307.79 182.584 311.7 188.184C315.61 193.784 305.35 203.554 307.49 213.994C309.63 224.434 318.75 243.474 316.99 257.304C315.23 271.134 306.99 283.024 271.06 278.444C235.13 273.864 230.8 257.224 232.17 246.494C233.54 235.764 249.45 212.414 250.58 203.494C251.71 194.574 248.72 194.604 249.84 185.794Z" fill="#99A89D" stroke="#263238" stroke-width="1.10975" stroke-linecap="round" stroke-linejoin="round"/>
<path d="M290.027 208.846C293.319 203.145 291.365 195.854 285.664 192.563C279.963 189.271 272.673 191.225 269.381 196.926C266.09 202.627 268.043 209.917 273.744 213.209C279.445 216.5 286.736 214.547 290.027 208.846Z" fill="#263238"/>
<path d="M286.21 196.264L275.06 194.844L290.3 89.0845L297.99 90.0745L286.21 196.264Z" fill="#757575" stroke="#263238" stroke-width="1.10975" stroke-linecap="round" stroke-linejoin="round"/>
<path d="M302.24 65.8844C300.924 64.6392 299.245 63.8449 297.447 63.6166C295.65 63.3883 293.826 63.7378 292.24 64.6144L290 64.3244L288.64 88.8844L299.64 90.2944L304.47 66.1544L302.24 65.8844Z" fill="#99A89D" stroke="#263238" stroke-width="1.10975" stroke-linecap="round" stroke-linejoin="round"/>
<path d="M288.57 191.984L289.24 186.694C291.632 187.884 294.354 188.236 296.97 187.694C301.71 186.834 306.82 186.624 309.03 189.224C311.24 191.824 306.56 199.484 305.42 204.804C304.28 210.124 304.81 216.884 307.43 223.884C307.43 223.884 302.07 227.884 300.84 217.544C299.39 205.344 293.25 204.544 293.25 204.544C293.25 204.544 294.97 197.934 288.57 191.984Z" fill="#757575" stroke="#263238" stroke-width="1.10975" stroke-linecap="round" stroke-linejoin="round"/>
<path d="M293.14 232.504L259.26 228.184L258.32 235.584L267.88 236.804C269.15 237.804 271.88 238.684 275.09 239.094C278.3 239.504 281.17 239.314 282.63 238.684L292.2 239.904L293.14 232.504Z" fill="#757575" stroke="#263238" stroke-width="1.10975" stroke-linecap="round" stroke-linejoin="round"/>
<path d="M305.268 72.8698L303.638 72.5559L302.944 76.1597L304.574 76.4736L305.268 72.8698Z" fill="#757575" stroke="#263238" stroke-width="1.10975" stroke-linecap="round" stroke-linejoin="round"/>
<path d="M304.11 78.8447L302.48 78.5308L301.786 82.1345L303.416 82.4484L304.11 78.8447Z" fill="#757575" stroke="#263238" stroke-width="1.10975" stroke-linecap="round" stroke-linejoin="round"/>
<path d="M302.96 84.8193L301.33 84.5054L300.636 88.1092L302.266 88.4231L302.96 84.8193Z" fill="#757575" stroke="#263238" stroke-width="1.10975" stroke-linecap="round" stroke-linejoin="round"/>
<path d="M287.516 74.2941L289.172 74.3992L289.405 70.7365L287.748 70.6314L287.516 74.2941Z" fill="#757575" stroke="#263238" stroke-width="1.10975" stroke-linecap="round" stroke-linejoin="round"/>
<path d="M287.13 80.3602L288.786 80.4653L289.019 76.8027L287.362 76.6976L287.13 80.3602Z" fill="#757575" stroke="#263238" stroke-width="1.10975" stroke-linecap="round" stroke-linejoin="round"/>
<path d="M285.758 87.2398L287.418 87.3394L287.638 83.6694L285.978 83.5698L285.758 87.2398Z" fill="#757575" stroke="#263238" stroke-width="1.11175" stroke-linecap="round" stroke-linejoin="round"/>
<g opacity="0.5">
<path d="M296.68 69.7344C296.528 69.7331 296.378 69.7619 296.237 69.8191C296.096 69.8763 295.968 69.9608 295.86 70.0677C295.753 70.1746 295.667 70.3018 295.609 70.442C295.55 70.5822 295.52 70.7326 295.52 70.8844L294.16 85.7644C294.139 85.8964 294.168 86.0317 294.242 86.1429C294.316 86.2542 294.43 86.3333 294.56 86.3644C294.81 86.3644 295.04 86.1844 295.09 85.8744L297.51 71.1344C297.548 70.988 297.556 70.8356 297.534 70.686C297.513 70.5363 297.462 70.3924 297.385 70.2623C297.308 70.1323 297.206 70.0188 297.085 69.9282C296.964 69.8376 296.827 69.7717 296.68 69.7344Z" fill="black"/>
<path d="M300.43 70.2544C300.281 70.232 300.13 70.2405 299.984 70.2795C299.839 70.3185 299.704 70.3871 299.586 70.481C299.469 70.575 299.372 70.6921 299.302 70.8252C299.232 70.9583 299.191 71.1045 299.18 71.2544L296.43 85.9344C296.398 86.0683 296.415 86.2092 296.477 86.3319C296.539 86.4546 296.643 86.5512 296.77 86.6044C296.835 86.6143 296.901 86.6114 296.965 86.5956C297.029 86.5799 297.089 86.5517 297.142 86.5127C297.195 86.4737 297.24 86.4246 297.274 86.3683C297.308 86.3119 297.33 86.2495 297.34 86.1844L301.06 71.7744C301.164 71.4881 301.156 71.1735 301.04 70.8922C300.923 70.611 300.706 70.3835 300.43 70.2544Z" fill="black"/>
<path d="M292.96 69.3044C292.662 69.3581 292.394 69.521 292.209 69.7613C292.024 70.0017 291.935 70.3022 291.96 70.6044V85.4844C291.946 85.6156 291.984 85.747 292.067 85.8501C292.149 85.9531 292.269 86.0194 292.4 86.0344C292.537 86.0195 292.663 85.9536 292.754 85.8499C292.845 85.7462 292.893 85.6122 292.89 85.4744L293.98 70.5844C294.006 70.4322 293.999 70.2763 293.96 70.1268C293.921 69.9774 293.852 69.8377 293.755 69.717C293.659 69.5963 293.539 69.4971 293.402 69.4261C293.265 69.355 293.114 69.3135 292.96 69.3044Z" fill="black"/>
</g>
<path d="M288.92 83.8845L290.92 89.1645L270.83 234.105" stroke="white" stroke-width="0.832313" stroke-linecap="round" stroke-linejoin="round"/>
<path d="M272.75 234.354L292.21 89.3344L289.21 78.7644" stroke="white" stroke-width="0.832313" stroke-linecap="round" stroke-linejoin="round"/>
<path d="M274.68 234.594L293.49 89.4945L289.53 73.1145" stroke="white" stroke-width="0.832313" stroke-linecap="round" stroke-linejoin="round"/>
<path d="M300.64 85.3745L297.37 89.9845L280.46 235.335" stroke="white" stroke-width="0.832313" stroke-linecap="round" stroke-linejoin="round"/>
<path d="M278.53 235.085L296.08 89.8245L301.63 80.3545" stroke="white" stroke-width="0.832313" stroke-linecap="round" stroke-linejoin="round"/>
<path d="M276.61 234.844L294.79 89.6644L302.75 74.7844" stroke="white" stroke-width="0.832313" stroke-linecap="round" stroke-linejoin="round"/>
<path d="M360.02 293.464C360.02 293.464 350.5 307.994 340.84 308.574C331.18 309.154 317.21 308.574 317.21 308.574C317.21 308.574 339.43 289.174 360.02 293.464Z" fill="#757575" stroke="#263238" stroke-width="1.10975" stroke-linecap="round" stroke-linejoin="round"/>
<path d="M353.14 288.484C353.14 288.484 354.33 298.654 353.14 303.884C351.95 309.114 322.54 361.354 317.21 382.244L301.64 377.754C301.64 377.754 311.48 351.294 311.48 335.364C311.48 319.434 324.58 296.784 324.58 296.784L353.14 288.484Z" fill="white" stroke="#263238" stroke-width="1.10975" stroke-linecap="round" stroke-linejoin="round"/>
<path d="M286.53 404.724C288.02 411.394 313.47 408.724 323.38 409.484C329.768 409.955 336.182 409.955 342.57 409.484C342.57 409.484 346.4 401.954 336.87 399.574C327.34 397.194 317.43 392.624 318.42 390.574C319.41 388.524 321.42 380.004 321.42 380.004C321.42 380.004 320.77 377.674 313.16 381.104C313.16 381.104 305.28 375.004 300.66 375.004C296.04 375.004 296.03 385.534 296.03 385.534L286.53 404.724Z" fill="#263238"/>
<path d="M350.76 382.244C350.76 382.244 359.49 381.364 364.65 385.504C364.65 385.504 366.23 383.744 369.8 385.504C373.37 387.264 375.75 391.924 380.91 393.714C386.07 395.504 397.97 398.384 401.91 399.964C405.85 401.544 408.65 403.304 406.27 409.484C403.89 415.664 389.21 413.614 373.34 411.904C357.47 410.194 356.68 403.114 356.68 403.114C356.68 403.114 329.34 393.884 350.76 382.244Z" fill="#263238"/>
<path d="M297.99 318.115L360.24 385.884C360.24 385.884 360.02 393.884 347.85 393.764C347.85 393.764 312.13 373.844 302.75 368.154C293.37 362.464 276.61 334.884 276.61 334.884L297.99 318.115Z" fill="white"/>
<mask id="mask3_5_189" style="mask-type:luminance" maskUnits="userSpaceOnUse" x="276" y="318" width="85" height="76">
<path d="M297.99 318.115L360.24 385.884C360.24 385.884 360.02 393.884 347.85 393.764C347.85 393.764 312.13 373.844 302.75 368.154C293.37 362.464 276.61 334.884 276.61 334.884L297.99 318.115Z" fill="white"/>
</mask>
<g mask="url(#mask3_5_189)">
<path opacity="0.5" d="M309.62 350.344C298.41 351.024 301.62 342.344 301.62 342.344C303.07 347.344 306.27 348.494 309.62 344.834C314.5 339.454 300.16 323.474 294.3 333.424L290.49 323.974C294.328 322.776 298.377 322.404 302.37 322.884L317.32 339.144C318.03 345.004 315.53 349.974 309.62 350.344Z" fill="#99A89D"/>
<path opacity="0.5" d="M327.43 350.084C326.942 351.563 325.894 352.791 324.51 353.504C320.22 355.444 315.43 355.404 314.12 358.044C312.81 360.684 315.57 361.554 317.26 361.554C318.95 361.554 318.47 358.334 318.47 358.334C318.47 358.334 320.55 361.404 319.38 362.424C318.21 363.444 313.23 365.354 310.89 361.424C308.55 357.494 310.31 354.114 318.47 350.424C319.619 349.988 320.616 349.228 321.34 348.235C322.064 347.243 322.485 346.061 322.55 344.834L327.43 350.084Z" fill="#99A89D"/>
<path opacity="0.5" d="M307.62 363.164C307.62 363.164 298.84 364.774 295.77 358.924C292.77 353.274 294.77 350.794 294.88 350.624C293.851 351.024 292.923 351.645 292.161 352.444C291.399 353.242 290.822 354.198 290.47 355.244C287.72 351.654 285.07 347.864 282.84 344.554L294.3 337.884C294.3 337.884 294.16 346.234 298.55 351.344C302.94 356.454 307.62 354.274 307.62 354.274C307.62 354.274 304.85 359.944 307.62 363.164Z" fill="#99A89D"/>
<path opacity="0.5" d="M319.15 370.485C319.15 370.485 320.73 368.975 319.15 368.045C317.91 367.315 315.8 371.445 310.87 372.855C307.46 370.855 304.59 369.225 302.75 368.105C305.105 368.554 307.525 368.554 309.88 368.105C315.38 366.785 318.45 364.294 320.36 366.344C322.27 368.394 320.14 370.635 319.15 370.485Z" fill="#99A89D"/>
</g>
<path d="M297.99 318.115L360.24 385.884C360.24 385.884 360.02 393.884 347.85 393.764C347.85 393.764 312.13 373.844 302.75 368.154C293.37 362.464 276.61 334.884 276.61 334.884L297.99 318.115Z" stroke="#263238" stroke-width="1.10975" stroke-linecap="round" stroke-linejoin="round"/>
<path d="M237.88 256.395C237.88 256.395 338.88 267.485 347.32 272.625C355.76 277.765 360.02 293.465 360.02 293.465C340.44 296.785 317.21 308.535 317.21 308.535V304.455C317.21 304.455 220.64 307.885 195.43 310.035" fill="#BFBFBF"/>
<mask id="mask4_5_189" style="mask-type:luminance" maskUnits="userSpaceOnUse" x="195" y="256" width="166" height="55">
<path d="M237.88 256.395C237.88 256.395 338.88 267.485 347.32 272.625C355.76 277.765 360.02 293.465 360.02 293.465C340.44 296.785 317.21 308.535 317.21 308.535V304.455C317.21 304.455 220.64 307.885 195.43 310.035" fill="white"/>
</mask>
<g mask="url(#mask4_5_189)">
<path opacity="0.2" d="M301.92 305.025C283.57 305.725 252.17 306.955 227.19 308.165L238.14 293.365L240.86 286.495C240.86 286.495 243.63 284.545 246.14 276.225C246.14 276.225 251.31 279.085 251.28 284.865C251.28 284.865 267.78 285.125 275.73 280.675C275.73 280.675 279.1 286.515 276.6 289.945C276.6 289.945 293.84 293.945 301.92 305.025Z" fill="black" fill-opacity="0.7"/>
</g>
<path d="M237.88 256.395C237.88 256.395 338.88 267.485 347.32 272.625C355.76 277.765 360.02 293.465 360.02 293.465C340.44 296.785 317.21 308.535 317.21 308.535V304.455C317.21 304.455 220.64 307.885 195.43 310.035" stroke="#263238" stroke-width="1.10975" stroke-miterlimit="10"/>
<path d="M225.82 292.884C224.94 289.444 240.82 286.534 240.82 286.534C240.82 286.534 281.69 302.674 289.64 307.284C297.59 311.894 309.57 323.835 309.57 323.835C304.66 340.235 276.57 350.354 276.57 350.354L270.79 345.734C270.79 345.734 194.62 335.404 187.39 324.844C182.22 317.294 178.27 293.504 178.27 293.504L205.58 265.854" fill="#BFBFBF"/>
<mask id="mask5_5_189" style="mask-type:luminance" maskUnits="userSpaceOnUse" x="178" y="265" width="132" height="86">
<path d="M225.82 292.884C224.94 289.444 240.82 286.534 240.82 286.534C240.82 286.534 281.69 302.674 289.64 307.284C297.59 311.894 309.57 323.835 309.57 323.835C304.66 340.235 276.57 350.354 276.57 350.354L270.79 345.734C270.79 345.734 194.62 335.404 187.39 324.844C182.22 317.294 178.27 293.504 178.27 293.504L205.58 265.854" fill="white"/>
</mask>
<g mask="url(#mask5_5_189)">
<path opacity="0.2" d="M226.48 274.574C224.314 281.127 221.187 287.321 217.2 292.954C213.297 298.618 208.486 303.598 202.96 307.694C197.169 311.981 191.073 315.838 184.72 319.234C181.72 311.414 179.48 299.904 178.64 295.384L183.23 293.384L226.48 274.574Z" fill="black" fill-opacity="0.7"/>
</g>
<path d="M225.82 292.884C224.94 289.444 240.82 286.534 240.82 286.534C240.82 286.534 281.69 302.674 289.64 307.284C297.59 311.894 309.57 323.835 309.57 323.835C304.66 340.235 276.57 350.354 276.57 350.354L270.79 345.734C270.79 345.734 194.62 335.404 187.39 324.844C182.22 317.294 178.27 293.504 178.27 293.504L205.58 265.854" stroke="#263238" stroke-width="1.10975" stroke-miterlimit="10"/>
<path d="M275.95 341.074C276.908 341.849 277.774 342.732 278.53 343.704" stroke="#263238" stroke-width="1.10975" stroke-linecap="round" stroke-linejoin="round"/>
<path d="M191.87 300.814C193.03 309.124 195.25 315.814 201.87 320.224C208.52 323.554 216.29 324.664 222.95 326.884C239.6 331.324 256.24 335.764 272.38 338.964" stroke="#263238" stroke-width="1.10975" stroke-linecap="round" stroke-linejoin="round"/>
<path d="M246.14 271.885C246.14 271.885 246.3 282.695 243.96 287.735" stroke="#263238" stroke-width="1.10975" stroke-linecap="round" stroke-linejoin="round"/>
<path d="M335.81 292.174C337.404 291.511 339.09 291.096 340.81 290.944" stroke="#263238" stroke-width="1.10975" stroke-linecap="round" stroke-linejoin="round"/>
<path d="M317.21 304.454C321.959 300.141 327.234 296.445 332.91 293.454" stroke="#263238" stroke-width="1.10975" stroke-linecap="round" stroke-linejoin="round"/>
<path d="M286.24 274.334C287.157 273.593 287.944 272.704 288.57 271.704" stroke="#263238" stroke-width="1.10975" stroke-linecap="round" stroke-linejoin="round"/>
<path d="M249.49 289.944C261.07 286.624 273.49 282.844 283.68 276.224" stroke="#263238" stroke-width="1.10975" stroke-linecap="round" stroke-linejoin="round"/>
<path d="M228.43 268.084C228.43 268.084 229.93 277.364 235.18 279.804C240.43 282.244 240.84 286.494 240.84 286.494" stroke="#263238" stroke-width="1.10975" stroke-linecap="round" stroke-linejoin="round"/>
<path d="M138.26 223.734L126.84 250.624C126.84 250.624 123.19 268.444 133.28 271.074C143.37 273.704 147.33 269.504 150.99 256.394C152.99 249.254 164.99 228.184 164.99 228.184L138.26 223.734Z" fill="white" stroke="#263238" stroke-width="1.10975" stroke-linecap="round" stroke-linejoin="round"/>
<path d="M145.82 256.274C149.26 263.854 142.75 274.454 132.55 274.454C118.96 274.454 121.26 276.274 118.14 264.564C116.46 258.274 124.5 244.814 138.84 250.214" fill="white"/>
<path d="M145.82 256.274C149.26 263.854 142.75 274.454 132.55 274.454C118.96 274.454 121.26 276.274 118.14 264.564C116.46 258.274 124.5 244.814 138.84 250.214" stroke="#263238" stroke-width="1.10975" stroke-linecap="round" stroke-linejoin="round"/>
<path d="M235.48 189.774C229.29 196.264 232.04 235.854 229.63 243.414C229.63 243.414 234.1 246.514 234.1 249.264C234.1 252.014 246.1 253.044 246.1 253.044C246.1 253.044 221.43 291.214 205.56 297.404C195.674 301.087 184.927 301.803 174.64 299.464L159.64 243.584L158.18 245.884C158.18 245.884 146.76 227.964 134.38 230.374C134.38 230.374 144.38 198.924 150.89 187.044C155.89 178.044 176.56 165.474 194.33 154.944C201.76 150.534 215 147.104 224.82 152.634" fill="#757575"/>
<mask id="mask6_5_189" style="mask-type:luminance" maskUnits="userSpaceOnUse" x="134" y="149" width="113" height="152">
<path d="M235.48 189.774C229.29 196.264 232.04 235.854 229.63 243.414C229.63 243.414 234.1 246.514 234.1 249.264C234.1 252.014 246.1 253.044 246.1 253.044C246.1 253.044 221.43 291.214 205.56 297.404C195.674 301.087 184.927 301.803 174.64 299.464L159.64 243.584L158.18 245.884C158.18 245.884 146.76 227.964 134.38 230.374C134.38 230.374 144.38 198.924 150.89 187.044C155.89 178.044 176.56 165.474 194.33 154.944C201.76 150.534 215 147.104 224.82 152.634" fill="white"/>
</mask>
<g mask="url(#mask6_5_189)">
<path opacity="0.2" d="M176.63 239.055C176.79 240.055 168.75 252.055 163.86 259.255L159.69 243.675L165.96 234.595C165.96 234.595 172.96 225.815 173.46 218.135C173.46 218.135 180.08 225.815 173.75 237.685C173.75 237.685 176.43 237.585 176.63 239.055Z" fill="black" fill-opacity="0.7"/>
<path d="M180.66 207.244L190.52 214.334L190.95 223.054L194.26 216.764L193.4 212.294L197.23 213.634L202.13 211.804L196.24 208.464L203.43 205.734L201.56 208.034L204.06 209.014L211.34 207.604L212.37 204.014L208.74 204.704L208.21 201.934L214.37 198.414L214.8 200.664L215.7 205.314L217.83 202.954L219.94 199.684L220.47 202.454L224.44 201.684L221.04 197.134L222.84 182.104L213.17 192.194L215.47 193.804L219.66 189.944L217.45 196.334L211.74 194.524L204.17 199.784L206.66 202.234L199.33 203.644L202.19 199.274L192.83 203.454L192.54 207.824L189.58 209.444L188.47 203.704L180.66 207.244Z" fill="white"/>
</g>
<path d="M235.48 189.774C229.29 196.264 232.04 235.854 229.63 243.414C229.63 243.414 234.1 246.514 234.1 249.264C234.1 252.014 246.1 253.044 246.1 253.044C246.1 253.044 221.43 291.214 205.56 297.404C195.674 301.087 184.927 301.803 174.64 299.464L159.64 243.584L158.18 245.884C158.18 245.884 146.76 227.964 134.38 230.374C134.38 230.374 144.38 198.924 150.89 187.044C155.89 178.044 176.56 165.474 194.33 154.944C201.76 150.534 215 147.104 224.82 152.634" stroke="#263238" stroke-width="1.10975" stroke-linecap="round" stroke-linejoin="round"/>
<path d="M173.75 172.024C173.75 172.024 175.75 181.464 186.99 184.754C198.23 188.044 197.99 161.234 197.99 161.234L173.75 172.024Z" fill="white" stroke="#263238" stroke-width="1.10975" stroke-linecap="round" stroke-linejoin="round"/>
<path d="M159.67 243.584C159.67 243.584 164.87 234.714 165.96 234.584C167.05 234.454 176.81 217.274 172.27 209.024" stroke="#263238" stroke-width="1.10975" stroke-linecap="round" stroke-linejoin="round"/>
<path d="M173.43 228.184C173.43 228.184 172.67 238.784 162.43 239.094" stroke="#263238" stroke-width="1.10975" stroke-linecap="round" stroke-linejoin="round"/>
<path d="M179.34 183.885C179.34 183.885 190.39 195.425 197.97 187.285" stroke="#263238" stroke-width="1.10975" stroke-linecap="round" stroke-linejoin="round"/>
<path d="M196.97 161.304C199.639 153.829 200.057 145.735 198.17 138.024C195.87 128.364 184.38 115.114 166.96 127.174C157.96 133.384 157.43 146.864 160.23 159.224C160.9 162.174 160.4 165.054 161.37 167.764C164.82 177.274 171.12 184.594 174.56 184.764C180.31 185.054 191.81 178.094 191.33 172.034" fill="white"/>
<path d="M196.97 161.304C199.639 153.829 200.057 145.735 198.17 138.024C195.87 128.364 184.38 115.114 166.96 127.174C157.96 133.384 157.43 146.864 160.23 159.224C160.9 162.174 160.4 165.054 161.37 167.764C164.82 177.274 171.12 184.594 174.56 184.764C180.31 185.054 191.81 178.094 191.33 172.034" stroke="#263238" stroke-width="1.10975" stroke-linecap="round" stroke-linejoin="round"/>
<path d="M172.27 172.584C172.27 172.584 177.95 168.454 179.03 169.024C180.11 169.594 185.46 178.234 187.43 179.074C186.799 180.835 185.959 182.513 184.93 184.074L183.75 183.564C180.467 185.451 176.863 186.712 173.12 187.284C173.12 187.284 170.33 185.104 169.55 182.924L168.55 184.074C168.55 184.074 167.4 177.904 168.55 173.074L172.27 172.584Z" fill="#263238"/>
<path d="M173.75 156.934C173.75 156.934 178.4 153.574 182.87 156.324" stroke="#263238" stroke-width="1.10975" stroke-linecap="round" stroke-linejoin="round"/>
<path d="M164.98 156.324C164.98 156.324 161.47 153.104 159.19 153.554" stroke="#263238" stroke-width="1.10975" stroke-linecap="round" stroke-linejoin="round"/>
<path d="M180.31 162.094C180.31 162.944 179.88 163.644 179.31 163.644C178.74 163.644 178.31 162.944 178.31 162.094C178.31 161.244 178.74 160.544 179.31 160.544C179.88 160.544 180.31 161.234 180.31 162.094Z" fill="#263238"/>
<path d="M165.96 161.235C165.96 162.085 165.52 162.785 164.96 162.785C164.4 162.785 163.96 162.085 163.96 161.235C163.96 160.385 164.4 159.685 164.96 159.685C165.52 159.685 165.96 160.385 165.96 161.235Z" fill="#263238"/>
<path d="M166.95 159.574C168.67 161.804 166.26 170.324 166.95 170.924C167.64 171.524 172.02 169.804 172.02 169.804C172.02 169.804 173.02 168.514 170.91 167.804" stroke="#263238" stroke-width="1.10975" stroke-linecap="round" stroke-linejoin="round"/>
<path d="M170.92 175.184C170.92 175.184 176.8 175.184 178.37 173.054" stroke="white" stroke-width="1.10975" stroke-linecap="round" stroke-linejoin="round"/>
<path d="M184.93 143.355L185.39 150.465C185.39 150.465 190.39 153.055 191.69 155.715C192.45 157.448 192.727 159.356 192.49 161.235C192.49 161.235 195.56 155.885 197.2 156.325C197.79 156.485 197.79 158.724 197.79 158.724C197.79 158.724 204.64 143.355 198.45 135.215C192.26 127.075 184.93 143.355 184.93 143.355Z" fill="#757575" stroke="#263238" stroke-width="1.10975" stroke-linecap="round" stroke-linejoin="round"/>
<path d="M185.43 144.885C185.43 144.885 181.34 152.554 175.21 152.554C175.21 152.554 178.21 149.784 178.66 147.224C171.708 151.08 163.821 152.926 155.88 152.554C155.88 152.554 153.52 138.064 164.55 126.974C164.55 126.974 158.4 129.974 156.72 132.974C158.013 129.498 160.143 126.393 162.921 123.936C165.7 121.478 169.041 119.743 172.65 118.885C185.25 115.685 194.47 125.705 194.47 125.705L195.73 121.224C195.73 121.224 202.12 133.064 197.56 139.084C193 145.104 185.43 144.885 185.43 144.885Z" fill="#263238"/>
<path d="M194.64 159.685C194.64 159.685 196.02 154.525 200.64 153.155C205.26 151.785 202.1 164.155 198.15 165.795C194.2 167.435 193.15 168.545 192.97 167.085" fill="white"/>
<path d="M194.64 159.685C194.64 159.685 196.02 154.525 200.64 153.155C205.26 151.785 202.1 164.155 198.15 165.795C194.2 167.435 193.15 168.545 192.97 167.085" stroke="#263238" stroke-width="1.10975" stroke-linecap="round" stroke-linejoin="round"/>
<path d="M201.04 158.994C201.04 158.994 201.26 161.144 203.76 160.544C206.26 159.944 203.68 158.544 202.6 158.544" stroke="#263238" stroke-width="1.10975" stroke-linecap="round" stroke-linejoin="round"/>
<path d="M121.43 254.004C121.43 254.004 128.89 249.535 133.43 250.295C137.97 251.055 136.78 253.375 137.03 255.675C137.28 257.975 139.3 260.395 137.03 260.615C134.76 260.835 131.09 254.365 131.09 254.365L121.43 254.004Z" fill="white" stroke="#263238" stroke-width="1.10975" stroke-linecap="round" stroke-linejoin="round"/>
<path d="M122.67 239.094L139.87 267.164L136.33 268.084L119.6 240.974C119.798 240.343 120.219 239.805 120.783 239.46C121.347 239.114 122.018 238.984 122.67 239.094Z" fill="#263238"/>
<path d="M117.43 255.454C117.74 253.274 129.28 253.924 130.6 254.144C131.92 254.364 135.86 259.144 135.86 259.144C136.165 259.721 136.324 260.363 136.324 261.014C136.324 261.666 136.165 262.308 135.86 262.884C135.86 262.884 138.16 266.184 136.35 268.044C134.54 269.904 118.3 271.374 117.43 270.964C116.56 270.554 114.49 263.964 114.68 261.814C114.87 259.664 116.86 259.314 117.43 255.454Z" fill="white" stroke="#263238" stroke-width="1.10975" stroke-linecap="round" stroke-linejoin="round"/>
<path d="M135.84 262.884C135.84 262.884 131.2 259.584 129.73 259.364C128.26 259.144 120.55 259.364 120.55 259.364" stroke="#263238" stroke-width="1.10975" stroke-linecap="round" stroke-linejoin="round"/>
<path d="M121.43 265.224C121.43 265.224 129.88 264.564 130.21 264.564C131.63 265.321 133.008 266.152 134.34 267.054" stroke="#263238" stroke-width="1.10975" stroke-linecap="round" stroke-linejoin="round"/>
<path d="M200.65 300.814C200.65 300.814 201.53 309.454 195.38 311.504" stroke="#263238" stroke-width="1.10975" stroke-linecap="round" stroke-linejoin="round"/>
<path d="M306.29 320.594C306.29 320.594 300.43 337.885 274.69 346.335" stroke="#263238" stroke-width="1.10975" stroke-linecap="round" stroke-linejoin="round"/>
<path d="M349.92 288.485C352.687 287.85 355.563 287.85 358.33 288.485" stroke="#263238" stroke-width="1.10975" stroke-linecap="round" stroke-linejoin="round"/>
<path d="M262.7 293.404C262.7 293.404 315.33 292.844 327.7 295.894L331.24 299.504" stroke="#263238" stroke-width="1.10975" stroke-linecap="round" stroke-linejoin="round"/>
<path d="M237.88 167.764C238.488 173.433 237.902 179.166 236.16 184.594" stroke="#263238" stroke-width="1.10975" stroke-miterlimit="10"/>
<path d="M196.67 252.544C195.414 252.331 194.182 251.996 192.99 251.544" stroke="#263238" stroke-width="1.10975" stroke-miterlimit="10"/>
<path d="M229.63 243.415C221.15 248.715 210.63 253.155 200.54 252.935" stroke="#263238" stroke-width="1.10975" stroke-miterlimit="10"/>
<path d="M226.49 260.004C218.15 269.844 204.66 284.824 190.26 283.084" stroke="#263238" stroke-width="1.10975" stroke-miterlimit="10"/>
<path d="M232.15 252.824C231.15 254.194 230.15 255.534 229.07 256.824" stroke="#263238" stroke-width="1.10975" stroke-miterlimit="10"/>
<path d="M150.89 187.025C150.89 187.025 161.89 182.025 169.55 196.265" stroke="#263238" stroke-width="1.10975" stroke-miterlimit="10"/>
<path d="M283.68 104.745C282.15 101.175 284.53 96.2446 285.45 93.3746C286.37 90.5046 290.04 91.0346 292.91 89.4246C292.91 89.4246 295.77 90.1646 292.91 92.8046C291.772 93.9168 290.57 94.9619 289.31 95.9346L288.45 101.935" fill="white"/>
<path d="M283.68 104.745C282.15 101.175 284.53 96.2446 285.45 93.3746C286.37 90.5046 290.04 91.0346 292.91 89.4246C292.91 89.4246 295.77 90.1646 292.91 92.8046C291.772 93.9168 290.57 94.9619 289.31 95.9346L288.45 101.935" stroke="#263238" stroke-width="1.10975" stroke-linecap="round" stroke-linejoin="round"/>
<path d="M303.57 90.2845C301.997 89.7852 300.394 89.3877 298.77 89.0945C297.99 89.0945 294.26 93.9045 294.26 93.9045L293.92 96.5945C294.75 96.739 295.6 96.739 296.43 96.5945C297.3 96.1183 298.081 95.4958 298.74 94.7545" fill="white"/>
<path d="M303.57 90.2845C301.997 89.7852 300.394 89.3877 298.77 89.0945C297.99 89.0945 294.26 93.9045 294.26 93.9045L293.92 96.5945C294.75 96.739 295.6 96.739 296.43 96.5945C297.3 96.1183 298.081 95.4958 298.74 94.7545" stroke="#263238" stroke-width="1.10975" stroke-linecap="round" stroke-linejoin="round"/>
<path d="M304.48 94.8844C304.48 94.8844 301.04 93.7444 299.78 93.3944C298.52 93.0444 294.84 100.144 294.84 100.144C294.84 100.144 297.71 101.994 300.64 97.6444" fill="white"/>
<path d="M304.48 94.8844C304.48 94.8844 301.04 93.7444 299.78 93.3944C298.52 93.0444 294.84 100.144 294.84 100.144C294.84 100.144 297.71 101.994 300.64 97.6444" stroke="#263238" stroke-width="1.10975" stroke-linecap="round" stroke-linejoin="round"/>
<path d="M67.61 276.094L57.78 265.814V217.264L74.13 196.264L76.66 198.384C76.66 198.384 73.4 212.244 76.66 214.704C82.39 219.014 101.86 202.484 98.83 196.264C97.03 192.554 81.18 192.924 81.18 192.924L76.27 188.814C75.9937 188.581 75.6727 188.406 75.3267 188.301C74.9807 188.196 74.6168 188.163 74.2574 188.203C73.898 188.243 73.5506 188.356 73.2364 188.535C72.9222 188.714 72.6478 188.956 72.43 189.244L52.95 214.794V265.794L43.13 276.094H67.61Z" fill="#263238"/>
<path d="M93.13 200.474C90.7368 200.991 88.514 202.107 86.6704 203.718C84.8268 205.329 83.4227 207.382 82.59 209.684" stroke="white" stroke-width="1.10975" stroke-linecap="round" stroke-linejoin="round"/>
<path d="M90.03 201.524C90.03 201.524 91.59 204.824 89.03 207.004C88.3146 207.669 87.3866 208.06 86.4108 208.105C85.4349 208.151 84.4745 207.85 83.7 207.254" stroke="white" stroke-width="1.10975" stroke-linecap="round" stroke-linejoin="round"/>
<path d="M76.88 209.414C76.88 209.414 82.42 197.504 94.22 194.814" stroke="white" stroke-width="1.10975" stroke-linecap="round" stroke-linejoin="round"/>
<path d="M92.36 203.984L94.22 204.204" stroke="white" stroke-width="1.10975" stroke-linecap="round" stroke-linejoin="round"/>
<path d="M89.78 208.124L90.51 209.034" stroke="white" stroke-width="1.10975" stroke-linecap="round" stroke-linejoin="round"/>
<path d="M85.77 209.684L85.55 211.994" stroke="white" stroke-width="1.10975" stroke-linecap="round" stroke-linejoin="round"/>
<path d="M174.07 279.444H32.89C32.5543 279.444 32.2219 279.378 31.9118 279.249C31.6018 279.12 31.3202 278.932 31.0833 278.694C30.8464 278.456 30.6588 278.174 30.5312 277.863C30.4037 277.553 30.3387 277.22 30.34 276.884C30.3387 276.549 30.4037 276.216 30.5312 275.905C30.6588 275.595 30.8464 275.312 31.0833 275.075C31.3202 274.837 31.6018 274.648 31.9118 274.519C32.2219 274.391 32.5543 274.324 32.89 274.324H174.07C174.749 274.324 175.4 274.594 175.88 275.074C176.36 275.554 176.63 276.205 176.63 276.884C176.63 277.563 176.36 278.214 175.88 278.694C175.4 279.174 174.749 279.444 174.07 279.444Z" fill="#99A89D"/>
<mask id="mask7_5_189" style="mask-type:luminance" maskUnits="userSpaceOnUse" x="30" y="274" width="147" height="6">
<path d="M174.07 279.444H32.89C32.5543 279.444 32.2219 279.378 31.9118 279.249C31.6018 279.12 31.3202 278.932 31.0833 278.694C30.8464 278.456 30.6588 278.174 30.5312 277.863C30.4037 277.553 30.3387 277.22 30.34 276.884C30.3387 276.549 30.4037 276.216 30.5312 275.905C30.6588 275.595 30.8464 275.312 31.0833 275.075C31.3202 274.837 31.6018 274.648 31.9118 274.519C32.2219 274.391 32.5543 274.324 32.89 274.324H174.07C174.749 274.324 175.4 274.594 175.88 275.074C176.36 275.554 176.63 276.205 176.63 276.884C176.63 277.563 176.36 278.214 175.88 278.694C175.4 279.174 174.749 279.444 174.07 279.444Z" fill="white"/>
</mask>
<g mask="url(#mask7_5_189)">
<path opacity="0.5" d="M174.07 279.444H32.89C32.5543 279.444 32.2219 279.378 31.9118 279.249C31.6018 279.12 31.3202 278.932 31.0833 278.694C30.8464 278.456 30.6588 278.174 30.5312 277.863C30.4037 277.553 30.3387 277.22 30.34 276.884C30.3387 276.549 30.4037 276.216 30.5312 275.905C30.6588 275.595 30.8464 275.312 31.0833 275.075C31.3202 274.837 31.6018 274.648 31.9118 274.519C32.2219 274.391 32.5543 274.324 32.89 274.324H174.07C174.749 274.324 175.4 274.594 175.88 275.074C176.36 275.554 176.63 276.205 176.63 276.884C176.63 277.563 176.36 278.214 175.88 278.694C175.4 279.174 174.749 279.444 174.07 279.444Z" fill="black" fill-opacity="0.7"/>
</g>
<path d="M174.07 279.444H32.89C32.5543 279.444 32.2219 279.378 31.9118 279.249C31.6018 279.12 31.3202 278.932 31.0833 278.694C30.8464 278.456 30.6588 278.174 30.5312 277.863C30.4037 277.553 30.3387 277.22 30.34 276.884C30.3387 276.549 30.4037 276.216 30.5312 275.905C30.6588 275.595 30.8464 275.312 31.0833 275.075C31.3202 274.837 31.6018 274.648 31.9118 274.519C32.2219 274.391 32.5543 274.324 32.89 274.324H174.07C174.749 274.324 175.4 274.594 175.88 275.074C176.36 275.554 176.63 276.205 176.63 276.884C176.63 277.563 176.36 278.214 175.88 278.694C175.4 279.174 174.749 279.444 174.07 279.444Z" stroke="#263238" stroke-width="1.10975" stroke-linecap="round" stroke-linejoin="round"/>
<path d="M172.75 279.444H34.21V416.144H172.75V279.444Z" fill="#99A89D"/>
<mask id="mask8_5_189" style="mask-type:luminance" maskUnits="userSpaceOnUse" x="34" y="279" width="139" height="138">
<path d="M172.75 279.444H34.21V416.144H172.75V279.444Z" fill="white"/>
</mask>
<g mask="url(#mask8_5_189)">
<path opacity="0.3" d="M86.65 279.444H34.21V416.144H86.65V279.444Z" fill="black" fill-opacity="0.7"/>
</g>
<path d="M172.75 279.444H34.21V416.144H172.75V279.444Z" stroke="#263238" stroke-width="1.10975" stroke-linecap="round" stroke-linejoin="round"/>
<path d="M86.65 310.034V306.234" stroke="#263238" stroke-width="1.10975" stroke-linecap="round" stroke-linejoin="round"/>
<path d="M86.65 297.824V279.444H172.75V416.134H86.65V347.794" stroke="#263238" stroke-width="1.10975" stroke-linecap="round" stroke-linejoin="round"/>
<path d="M166.57 286.494H92.38V306.234H166.57V286.494Z" stroke="#263238" stroke-width="1.10975" stroke-linecap="round" stroke-linejoin="round"/>
<path d="M166.57 311.504H92.38V405.744H166.57V311.504Z" stroke="#263238" stroke-width="1.10975" stroke-linecap="round" stroke-linejoin="round"/>
<path d="M132.67 290.944C132.67 291.431 132.526 291.907 132.255 292.311C131.985 292.716 131.601 293.031 131.151 293.217C130.702 293.403 130.207 293.452 129.73 293.357C129.253 293.262 128.815 293.028 128.47 292.684C128.126 292.34 127.892 291.901 127.797 291.424C127.702 290.947 127.751 290.452 127.937 290.003C128.123 289.553 128.439 289.169 128.843 288.899C129.248 288.629 129.723 288.484 130.21 288.484C130.862 288.484 131.488 288.744 131.949 289.205C132.411 289.666 132.67 290.292 132.67 290.944Z" stroke="#263238" stroke-width="1.10975" stroke-linecap="round" stroke-linejoin="round"/>
<path d="M97.94 361.084C99.2986 361.084 100.4 359.983 100.4 358.624C100.4 357.266 99.2986 356.164 97.94 356.164C96.5814 356.164 95.48 357.266 95.48 358.624C95.48 359.983 96.5814 361.084 97.94 361.084Z" stroke="#263238" stroke-width="1.10975" stroke-linecap="round" stroke-linejoin="round"/>
<path d="M115.28 272.284C115.28 272.284 119.97 266.144 139.87 267.164C159.77 268.184 164.31 271.894 170.16 271.214L169.43 274.334H115.28V272.284Z" fill="#99A89D" stroke="#263238" stroke-width="1.10975" stroke-linecap="round" stroke-linejoin="round"/>
<path d="M115.28 272.284C115.28 272.284 121.65 267.284 133.28 268.184C144.91 269.084 147.59 271.794 156.99 271.704L154.94 274.334H86.75L84.11 271.214C84.11 271.214 88.79 272.814 96.11 270.384C108.43 266.294 115.28 272.284 115.28 272.284Z" fill="white" stroke="#263238" stroke-width="1.10975" stroke-linecap="round" stroke-linejoin="round"/>
<path d="M165.21 271.824C166.878 271.808 168.538 271.603 170.16 271.214" stroke="#263238" stroke-width="1.10975" stroke-linecap="round" stroke-linejoin="round"/>
<path d="M156.99 271.704C158.78 271.814 160.58 271.864 162.38 271.874" stroke="#263238" stroke-width="1.10975" stroke-linecap="round" stroke-linejoin="round"/>
</svg>
